<svg width="50" height="51" viewBox="0 0 50 51" fill="none" xmlns="http://www.w3.org/2000/svg">
<g clip-path="url(#clip0_402_123)">
<path d="M25 50.8182C38.8071 50.8182 50 39.6253 50 25.8182C50 12.0111 38.8071 0.818176 25 0.818176C11.1929 0.818176 0 12.0111 0 25.8182C0 39.6253 11.1929 50.8182 25 50.8182Z" fill="#F0F0F0"/>
<path d="M42.4939 7.96114C37.9849 3.54318 31.8112 0.818176 25 0.818176C22.8261 0.818176 16.4654 3.54318 11.9565 7.96114H42.4939Z" fill="#6DA544"/>
<path d="M25 22.2468H49.7449C49.3842 19.7248 48.6476 17.3245 47.5928 15.1039H23.9131L25 22.2468Z" fill="#6DA544"/>
<path d="M2.40737 36.5326H47.5927C48.6476 34.3121 49.3842 31.9116 49.745 29.3896H0.255127C0.615967 31.9117 1.35239 34.3122 2.40737 36.5326V36.5326Z" fill="#6DA544"/>
<path d="M7.5061 43.6752C12.0152 48.0932 18.1888 50.8182 25.0001 50.8182C31.8113 50.8182 37.9849 48.0932 42.494 43.6752H7.5061Z" fill="#6DA544"/>
<path d="M25 0.818176C12.4057 0.818176 1.98833 10.1318 0.255127 22.2468H25V0.818176Z" fill="#D80027"/>
<path d="M12.5 19.9849L11.4131 17.8111V13.4632L14.1305 11.2893L16.8479 13.4632V16.7241L17.9348 15.6372V17.8111L15.7608 19.9849H12.5Z" fill="#F0F0F0"/>
<path d="M6.65386 13.3182L6.94165 14.2039H7.8729L7.11948 14.7515L7.40737 15.6371L6.65386 15.0897L5.90034 15.6371L6.18823 14.7515L5.43481 14.2039H6.36606L6.65386 13.3182Z" fill="#F0F0F0"/>
<path d="M8.82781 11.1443L9.1156 12.03H10.0469L9.29343 12.5776L9.58123 13.4632L8.82781 12.9159L8.07439 13.4632L8.36228 12.5776L7.60876 12.03H8.53992L8.82781 11.1443Z" fill="#F0F0F0"/>
<path d="M11.0018 8.97034L11.2896 9.85608H12.2207L11.4674 10.4036L11.7551 11.2893L11.0018 10.7419L10.2482 11.2893L10.536 10.4036L9.78271 9.85608H10.7139L11.0018 8.97034Z" fill="#F0F0F0"/>
<path d="M21.6071 13.3182L21.3193 14.2039H20.3882L21.1415 14.7515L20.8537 15.6371L21.6071 15.0897L22.3606 15.6371L22.0729 14.7515L22.8262 14.2039H21.895L21.6071 13.3182Z" fill="#F0F0F0"/>
<path d="M19.4332 11.1443L19.1454 12.03H18.2142L18.9676 12.5776L18.6798 13.4632L19.4332 12.9159L20.1867 13.4632L19.8988 12.5776L20.6522 12.03H19.7211L19.4332 11.1443Z" fill="#F0F0F0"/>
<path d="M17.2593 8.97034L16.9714 9.85608H16.0403L16.7936 10.4036L16.5058 11.2893L17.2593 10.7419L18.0127 11.2893L17.725 10.4036L18.4783 9.85608H17.5471L17.2593 8.97034Z" fill="#F0F0F0"/>
<path d="M14.1305 7.88342L13.8427 8.76916H12.9115L13.6648 9.31663L13.377 10.2023L14.1305 9.65491L14.884 10.2023L14.5962 9.31663L15.3495 8.76916H14.4183L14.1305 7.88342Z" fill="#F0F0F0"/>
</g>
<defs>
<clipPath id="clip0_402_123">
<rect width="50" height="50" fill="white" transform="translate(0 0.818176)"/>
</clipPath>
</defs>
</svg>
