<svg width="50" height="51" viewBox="0 0 50 51" fill="none" xmlns="http://www.w3.org/2000/svg">
<g clip-path="url(#clip0_402_123)">
<path d="M35.8695 3.29884C32.5828 1.70958 28.8955 0.818176 25 0.818176C21.1045 0.818176 17.4172 1.70958 14.1305 3.29884L11.9565 25.8182L14.1305 48.3375C17.4172 49.9268 21.1045 50.8182 25 50.8182C28.8955 50.8182 32.5828 49.9268 35.8695 48.3375L38.0435 25.8182L35.8695 3.29884Z" fill="#D80027"/>
<path d="M14.1305 3.29974C5.76816 7.3434 0 15.9068 0 25.8182C0 35.7296 5.76816 44.293 14.1305 48.3367V3.29974Z" fill="black"/>
<path d="M35.8695 3.29974V48.3367C44.2318 44.293 50 35.7296 50 25.8182C50 15.9068 44.2318 7.3434 35.8695 3.29974Z" fill="#496E2D"/>
<path d="M25 17.1226C20.1975 17.1226 16.3044 21.0157 16.3044 25.8182C16.3044 30.6206 20.1976 34.5138 25 34.5138C29.8025 34.5138 33.6957 30.6206 33.6957 25.8182C33.6957 21.0157 29.8026 17.1226 25 17.1226ZM25 31.2529C21.9985 31.2529 19.5653 28.8196 19.5653 25.8182C19.5653 22.8167 21.9986 20.3834 25 20.3834C28.0015 20.3834 30.4348 22.8167 30.4348 25.8182C30.4348 28.8196 28.0016 31.2529 25 31.2529Z" fill="#FFDA44"/>
<path d="M25.0001 22.5573C23.7994 22.5573 22.8262 23.5306 22.8262 24.7312V27.9921H27.174V24.7312C27.174 23.5306 26.2008 22.5573 25.0001 22.5573V22.5573Z" fill="#FFDA44"/>
</g>
<defs>
<clipPath id="clip0_402_123">
<rect width="50" height="50" fill="white" transform="translate(0 0.818176)"/>
</clipPath>
</defs>
</svg>
