<svg width="50" height="51" viewBox="0 0 50 51" fill="none" xmlns="http://www.w3.org/2000/svg">
<g clip-path="url(#clip0_402_123)">
<path d="M49.1388 32.3399C49.6992 30.2604 50 28.0747 50 25.8182C50 23.5616 49.6992 21.3759 49.1388 19.2964L22.8261 0.913269C17.9412 1.33417 13.4585 3.15936 9.78262 5.98368L0.86123 19.2964C0.300781 21.3759 0 23.5616 0 25.8182C0 28.0615 0.297168 30.2352 0.851367 32.3038L9.78252 45.6526C13.4584 48.4769 17.9411 50.3022 22.826 50.723L49.1388 32.3399Z" fill="#FFDA44"/>
<path d="M0.861206 32.34C2.30769 37.7071 5.49568 42.3588 9.78259 45.6527V32.34H0.861206Z" fill="#0052B4"/>
<path d="M22.826 50.7231C23.5427 50.7848 24.2674 50.8182 25 50.8182C36.5507 50.8182 46.27 42.9841 49.1387 32.34H22.826V50.7231Z" fill="#0052B4"/>
<path d="M49.1387 19.2964C46.27 8.65226 36.5507 0.818176 25 0.818176C24.2674 0.818176 23.5427 0.851575 22.826 0.913293V19.2964H49.1387Z" fill="#0052B4"/>
<path d="M9.78259 5.9837C5.49568 9.27765 2.30769 13.9293 0.861206 19.2964H9.78259V5.9837Z" fill="#0052B4"/>
<path d="M49.7884 22.5573H19.5653H19.5652V1.41241C17.2549 1.92472 15.0646 2.75509 13.0435 3.85792V22.5572H0.211621C0.0724609 23.6247 0 24.713 0 25.8182C0 26.9234 0.0724609 28.0116 0.211621 29.079H13.0434H13.0435V47.7783C15.0646 48.8811 17.2549 49.7116 19.5652 50.2238V29.0793V29.0791H49.7884C49.9273 28.0116 50 26.9234 50 25.8182C50 24.713 49.9273 23.6247 49.7884 22.5573V22.5573Z" fill="#D80027"/>
</g>
<defs>
<clipPath id="clip0_402_123">
<rect width="50" height="50" fill="white" transform="translate(0 0.818176)"/>
</clipPath>
</defs>
</svg>
