<svg width="50" height="51" viewBox="0 0 50 51" fill="none" xmlns="http://www.w3.org/2000/svg">
<g clip-path="url(#clip0_402_123)">
<path d="M25 50.8182C38.8071 50.8182 50 39.6253 50 25.8182C50 12.0111 38.8071 0.818176 25 0.818176C11.1929 0.818176 0 12.0111 0 25.8182C0 39.6253 11.1929 50.8182 25 50.8182Z" fill="#D80027"/>
<path d="M39.1305 19.3738H30.0752C30.6342 18.7884 30.9782 17.9959 30.9782 17.1226C30.9782 15.3217 29.5183 13.8618 27.7174 13.8618C26.5828 13.8618 25.5841 14.4414 25 15.3204C24.4159 14.4414 23.4171 13.8618 22.2826 13.8618C20.4817 13.8618 19.0218 15.3217 19.0218 17.1226C19.0218 17.9959 19.3658 18.7885 19.9248 19.3738H10.8696C10.8696 21.775 12.9611 23.7215 15.3622 23.7215H15.2173C15.2173 26.1229 17.1639 28.0695 19.5652 28.0695C19.5652 28.8472 19.7702 29.5763 20.128 30.2076L16.5216 33.8141L19.2886 36.5809L23.2136 32.656C23.3673 32.7123 23.5264 32.7576 23.6906 32.7883L21.3188 38.1433L25 42.1226L28.6812 38.1431L26.3094 32.7881C26.4737 32.7574 26.6327 32.7122 26.7864 32.6558L30.7114 36.5807L33.4784 33.8138L29.8719 30.2073C30.2298 29.5761 30.4348 28.8469 30.4348 28.0692C32.836 28.0692 34.7826 26.1227 34.7826 23.7212H34.6378C37.0389 23.7214 39.1305 21.775 39.1305 19.3738V19.3738Z" fill="black"/>
</g>
<defs>
<clipPath id="clip0_402_123">
<rect width="50" height="50" fill="white" transform="translate(0 0.818176)"/>
</clipPath>
</defs>
</svg>
