<svg width="50" height="51" viewBox="0 0 50 51" fill="none" xmlns="http://www.w3.org/2000/svg">
<g clip-path="url(#clip0_402_123)">
<path d="M25 0.818176C38.807 0.818176 50 12.0111 50 25.8182C50 39.6252 38.807 50.8182 25 50.8182C25 49.7313 21.7391 25.8182 21.7391 25.8182L25 0.818176Z" fill="#F0F0F0"/>
<path d="M25 50.8182C11.193 50.8182 0 39.6252 0 25.8182C0 12.0111 11.193 0.818176 25 0.818176" fill="#496E2D"/>
<path d="M30.3713 21.0229L28.3201 23.8495L24.9982 22.7722L27.0527 25.5964L25.0017 28.4231L28.3224 27.3419L30.3769 30.1661L30.3747 26.6738L33.6955 25.5925L30.3737 24.5154L30.3713 21.0229Z" fill="#D80027"/>
<path d="M27.0739 32.8834C23.1719 32.8834 20.0086 29.7202 20.0086 25.8182C20.0086 21.9162 23.1719 18.753 27.0739 18.753C28.2905 18.753 29.4353 19.0606 30.4347 19.6022C28.8667 18.0689 26.7226 17.1225 24.3565 17.1225C19.554 17.1225 15.6609 21.0157 15.6609 25.8181C15.6609 30.6205 19.5541 34.5137 24.3565 34.5137C26.7227 34.5137 28.8668 33.5673 30.4347 32.034C29.4353 32.5758 28.2905 32.8834 27.0739 32.8834Z" fill="#D80027"/>
</g>
<defs>
<clipPath id="clip0_402_123">
<rect width="50" height="50" fill="white" transform="translate(0 0.818176)"/>
</clipPath>
</defs>
</svg>
