<svg width="50" height="51" viewBox="0 0 50 51" fill="none" xmlns="http://www.w3.org/2000/svg">
<g clip-path="url(#clip0_402_123)">
<path d="M25 50.8182C38.8071 50.8182 50 39.6253 50 25.8182C50 12.0111 38.8071 0.818176 25 0.818176C11.1929 0.818176 0 12.0111 0 25.8182C0 39.6253 11.1929 50.8182 25 50.8182Z" fill="#F0F0F0"/>
<path d="M37.1285 3.95411C33.5363 1.95724 29.4014 0.818176 25 0.818176C11.1939 0.818176 0.00175781 12.0094 0 25.8152L17.3913 17.1226L37.1285 3.95411Z" fill="#0052B4"/>
<path d="M0 25.8211C0.00175781 39.627 11.1939 50.8182 25 50.8182C29.4014 50.8182 33.5363 49.6793 37.1285 47.6822L17.3913 34.5138L0 25.8211Z" fill="#0052B4"/>
<path d="M39.2119 5.25004C38.5404 4.78529 37.8446 4.35306 37.1276 3.95453L0 25.8153V25.8182C0 25.8182 0 25.8203 0 25.8211L37.1277 47.6818C37.8447 47.2831 38.5404 46.851 39.212 46.3863L4.27949 25.8182L39.2119 5.25004Z" fill="#D80027"/>
<path d="M43.4782 24.8859H40.5003C41.2746 23.9562 41.2268 22.5731 40.3545 21.7009C41.2785 20.777 41.2785 19.2788 40.3545 18.3547L40.2988 18.4106C41.2227 17.4867 41.2785 15.9327 40.3545 15.0087L26.9701 28.3931C27.8941 29.3172 29.366 29.3062 30.2899 28.3822L30.5475 28.1467L36.9565 27.5641V30.3205H39.1304V27.3664L42.3913 27.0701L43.4782 24.8859Z" fill="#A2001D"/>
<path d="M27.1747 31.253L25 30.1661L27.1747 29.079H41.3051V31.253H27.1747Z" fill="#FFDA44"/>
</g>
<defs>
<clipPath id="clip0_402_123">
<rect width="50" height="50" fill="white" transform="translate(0 0.818176)"/>
</clipPath>
</defs>
</svg>
