<svg width="50" height="51" viewBox="0 0 50 51" fill="none" xmlns="http://www.w3.org/2000/svg">
<g clip-path="url(#clip0_402_123)">
<path d="M14.1305 48.3375C17.4172 49.9268 21.1044 50.8182 25 50.8182C28.8956 50.8182 32.5828 49.9268 35.8695 48.3375L38.0435 25.8182L35.8695 3.29884C32.5828 1.70958 28.8956 0.818176 25 0.818176C21.1044 0.818176 17.4172 1.70958 14.1305 3.29884L11.9565 25.8182L14.1305 48.3375Z" fill="#FFDA44"/>
<path d="M35.8695 48.3367C44.2319 44.2931 50 35.7296 50 25.8182C50 15.9068 44.2319 7.3433 35.8695 3.29974V48.3367Z" fill="#D80027"/>
<path d="M14.1305 48.3367V3.29974C5.76807 7.3433 0 15.9067 0 25.8182C0 35.7297 5.76807 44.2931 14.1305 48.3367Z" fill="#0052B4"/>
<path d="M25 34.5138C25 30.5244 25 25.8182 25 25.8182H31.5218V29.079C31.5218 29.6455 30.4349 31.7213 27.752 33.4269C26.7358 34.073 25.684 34.2808 25 34.5138Z" fill="#D80027"/>
<path d="M18.4783 19.2964H25V25.8182H18.4783V19.2964Z" fill="#D80027"/>
<path d="M28.2609 17.1226C28.2609 15.9219 27.2876 14.9487 26.087 14.9487C25.6905 14.9487 25.32 15.0565 25 15.2418C24.68 15.0565 24.3096 14.9487 23.9131 14.9487C22.7125 14.9487 21.7392 15.9219 21.7392 17.1226H16.3044V27.992C16.3044 32.0385 19.5179 34.3786 22.0379 35.5917C21.8494 35.9138 21.7392 36.2875 21.7392 36.6878C21.7392 37.8885 22.7125 38.8618 23.9131 38.8618C24.3096 38.8618 24.6801 38.7539 25 38.5686C25.3201 38.7539 25.6905 38.8618 26.087 38.8618C27.2876 38.8618 28.2609 37.8885 28.2609 36.6878C28.2609 36.2875 28.1507 35.9138 27.9621 35.5917C30.4821 34.3786 33.6957 32.0386 33.6957 27.992V17.1226H28.2609ZM30.4348 27.992C30.4348 28.5585 30.4348 30.2823 27.752 31.9879C26.7358 32.634 25.684 33.053 25 33.2859C24.3161 33.053 23.2643 32.634 22.2481 31.9879C19.5653 30.2823 19.5653 28.5585 19.5653 27.992V20.3834H30.4348V27.992Z" fill="#FF9811"/>
</g>
<defs>
<clipPath id="clip0_402_123">
<rect width="50" height="50" fill="white" transform="translate(0 0.818176)"/>
</clipPath>
</defs>
</svg>
