<svg width="50" height="51" viewBox="0 0 50 51" fill="none" xmlns="http://www.w3.org/2000/svg">
<g clip-path="url(#clip0_402_123)">
<path d="M0 25.8182C0 12.0111 11.193 0.818176 25 0.818176C38.807 0.818176 50 12.0111 50 25.8182C48.9131 25.8182 25 29.079 25 29.079L0 25.8182Z" fill="#D80027"/>
<path d="M50 25.8182C50 39.6252 38.807 50.8182 25 50.8182C11.193 50.8182 0 39.6252 0 25.8182" fill="black"/>
<path d="M21.572 20.7021L23.6914 22.2402L22.8837 24.7312L25.0015 23.1906L27.121 24.7287L26.3103 22.2385L28.4279 20.698L25.8092 20.6996L24.9984 18.2095L24.1907 20.7005L21.572 20.7021Z" fill="#FFDA44"/>
<path d="M31.25 14.9929C29.28 13.8555 27.126 13.3186 25 13.3223V16.5825C26.5714 16.5797 28.1634 16.9762 29.6195 17.817C34.0314 20.3642 35.5485 26.026 33.0012 30.4379C30.454 34.8498 24.7924 36.3669 20.3804 33.8196C19.095 33.0775 18.0574 32.0699 17.2926 30.9071L14.5703 32.7044C15.6052 34.2775 17.011 35.6395 18.75 36.6434C24.7191 40.0897 32.379 38.0373 35.8252 32.0681C39.2715 26.099 37.2191 18.4391 31.25 14.9929V14.9929Z" fill="#FFDA44"/>
<path d="M17.792 23.6442C16.9277 25.2242 17.508 27.2057 19.0879 28.07L29.6786 33.8571C28.9584 35.1736 29.3409 36.7761 30.6574 37.4963L33.5183 39.0612C34.8348 39.7815 36.4862 39.2979 37.2064 37.9813L38.7714 35.1206L17.792 23.6442Z" fill="#FFDA44"/>
</g>
<defs>
<clipPath id="clip0_402_123">
<rect width="50" height="50" fill="white" transform="translate(0 0.818176)"/>
</clipPath>
</defs>
</svg>
