<svg width="50" height="51" viewBox="0 0 50 51" fill="none" xmlns="http://www.w3.org/2000/svg">
<g clip-path="url(#clip0_402_123)">
<path d="M50 25.8182C50 39.6252 38.807 50.8182 25 50.8182C11.193 50.8182 0 39.6252 0 25.8182C0 25.8241 25 0.820911 25 0.818176C38.807 0.818176 50 12.0111 50 25.8182Z" fill="#0052B4"/>
<path d="M24.9331 25.8182H25C25 25.7957 25 25.7738 25 25.7513C24.9777 25.7736 24.9555 25.7959 24.9331 25.8182Z" fill="#F0F0F0"/>
<path d="M25 13.8616C25 9.46271 25 6.58038 25 0.818176H24.9958C11.1905 0.82052 0 12.0124 0 25.8182H13.0435V18.4734L20.3883 25.8182H24.9332C24.9555 25.7959 24.9777 25.7736 25.0001 25.7513C25.0001 24.067 25.0001 22.5642 25.0001 21.2067L17.6551 13.8616H25Z" fill="#F0F0F0"/>
<path d="M12.648 4.07904C8.73791 6.30551 5.48723 9.55609 3.26086 13.4661V25.8182H9.78264V10.601V10.6008H25C25 8.54388 25 6.58431 25 4.07904H12.648Z" fill="#D80027"/>
<path d="M25 22.7439L16.1177 13.8618H13.0435V13.862L24.9998 25.8182H25C25 25.8182 25 23.6984 25 22.7439V22.7439Z" fill="#D80027"/>
<path d="M42.2792 29.4777C42.9981 28.4887 43.4782 27.2809 43.4782 25.8182V14.9486C42.5698 15.6311 41.4409 16.0355 40.2174 16.0355C38.4395 16.0355 36.8611 15.1817 35.8696 13.8618C34.878 15.1817 33.2995 16.0355 31.5217 16.0355C30.2981 16.0355 29.1692 15.631 28.2609 14.9488V25.8182C28.2609 27.2809 28.741 28.4887 29.4599 29.4777H42.2792Z" fill="#F3F3F3"/>
<path d="M40.0181 23.8017C40.3642 22.9573 40.6333 21.7233 40.6333 21.1091C40.6333 20.1223 39.3468 19.3224 39.3468 19.3224C39.3468 19.3224 38.0603 20.1223 38.0603 21.1091C38.0603 21.7234 38.3295 22.9574 38.6754 23.8017L37.9327 25.4785C38.3693 25.6561 38.8464 25.7547 39.3469 25.7547C39.8474 25.7547 40.3244 25.656 40.7611 25.4785L40.0181 23.8017Z" fill="#FF9811"/>
<path d="M34.9896 18.3721C34.0857 18.4946 32.8823 18.8788 32.3505 19.1859C31.4959 19.6793 31.4463 21.1933 31.4463 21.1933C31.4463 21.1933 32.7824 21.9075 33.6369 21.4141C34.1689 21.107 35.1029 20.257 35.6608 19.5351L37.4847 19.3398C37.4201 18.8732 37.2666 18.4106 37.0167 17.9773C36.7663 17.544 36.4426 17.1799 36.0705 16.8906L34.9896 18.3721Z" fill="#FF9811"/>
<path d="M32.802 25.4418C33.3599 26.1633 34.2942 27.0132 34.8262 27.3204C35.6808 27.8138 37.0168 27.0998 37.0168 27.0998C37.0168 27.0998 36.967 25.5857 36.1126 25.0922C35.5805 24.7851 34.3773 24.4012 33.4732 24.2789L32.3924 22.7972C32.0205 23.0864 31.6966 23.4507 31.4463 23.8836C31.1962 24.3171 31.0431 24.7795 30.9783 25.2464L32.802 25.4418Z" fill="#FF9811"/>
<path d="M29.191 29.0793C31.2211 32.3366 35.8697 33.4269 35.8697 33.4269C35.8697 33.4269 40.5181 32.3366 42.5483 29.0793H29.191Z" fill="#338AF3"/>
</g>
<defs>
<clipPath id="clip0_402_123">
<rect width="50" height="50" fill="white" transform="translate(0 0.818176)"/>
</clipPath>
</defs>
</svg>
