<svg width="50" height="51" viewBox="0 0 50 51" fill="none" xmlns="http://www.w3.org/2000/svg">
<g clip-path="url(#clip0_402_123)">
<path d="M0 25.8182C0 27.5306 0.172656 29.2026 0.500684 30.8182L25 32.3399L49.4994 30.8182C49.8275 29.2026 50 27.5306 50 25.8182C50 24.1058 49.8273 22.4337 49.4994 20.8182L25 19.2964L0.500684 20.8182C0.172656 22.4337 0 24.1058 0 25.8182H0Z" fill="#0052B4"/>
<path d="M49.4995 30.8182H0.500732C2.81704 42.2293 12.9054 50.8182 25 50.8182C37.0947 50.8182 47.1831 42.2293 49.4995 30.8182Z" fill="#F0F0F0"/>
<path d="M0.500732 20.8182H49.4996C47.1831 9.40704 37.0949 0.818176 25.0001 0.818176C12.9052 0.818176 2.81704 9.40704 0.500732 20.8182V20.8182Z" fill="black"/>
<path d="M35.8696 20.8182H14.1305L18.5719 18.7289L16.2068 14.4276L21.0295 15.35L21.6408 10.478L25 14.0614L28.3594 10.478L28.9703 15.35L33.7933 14.4276L31.4283 18.7291L35.8696 20.8182Z" fill="#FFDA44"/>
<path d="M0 25.8182C0 39.6252 11.193 50.8182 25 50.8182L4.99961 10.8173C1.86055 14.9959 0 20.1896 0 25.8182Z" fill="#A2001D"/>
<path d="M25 50.8182C38.807 50.8182 50 39.6252 50 25.8182C50 20.1896 48.1395 14.9959 45.0004 10.8173L25 50.8182Z" fill="#A2001D"/>
</g>
<defs>
<clipPath id="clip0_402_123">
<rect width="50" height="50" fill="white" transform="translate(0 0.818176)"/>
</clipPath>
</defs>
</svg>
