<svg width="50" height="51" viewBox="0 0 50 51" fill="none" xmlns="http://www.w3.org/2000/svg">
<g clip-path="url(#clip0_402_123)">
<path d="M25 50.8182C38.8071 50.8182 50 39.6253 50 25.8182C50 12.0111 38.8071 0.818176 25 0.818176C11.1929 0.818176 0 12.0111 0 25.8182C0 39.6253 11.1929 50.8182 25 50.8182Z" fill="#FFDA44"/>
<path d="M25 50.8182C32.5772 50.8182 39.3666 47.4467 43.9512 42.1226H6.04871C10.6334 47.4467 17.4227 50.8182 25 50.8182Z" fill="#338AF3"/>
<path d="M50 25.8182C50 12.0111 38.807 0.818176 25 0.818176C11.193 0.818176 0 12.0111 0 25.8182C0 28.0747 0.300781 30.2605 0.86123 32.34H49.1389C49.6992 30.2605 50 28.0747 50 25.8182Z" fill="#338AF3"/>
<path d="M1.98718 35.6008C2.46912 36.7332 3.0325 37.8223 3.66931 38.8616H46.3306C46.9675 37.8222 47.5308 36.7331 48.013 35.6008H1.98718Z" fill="#338AF3"/>
<path d="M11.4568 16.586L6.57239 14.4304L11.4568 12.2747L13.6123 7.39044L15.7679 12.2747L20.6522 14.4304L15.7679 16.586L13.6123 21.4703L11.4568 16.586Z" fill="#F0F0F0"/>
<path d="M13.6123 10.0825L14.9434 13.099L17.96 14.4304L14.9434 15.7616L13.6123 18.7781L12.2809 15.7616L9.2644 14.4304L12.2809 13.099L13.6123 10.0825Z" fill="#D80027"/>
</g>
<defs>
<clipPath id="clip0_402_123">
<rect width="50" height="50" fill="white" transform="translate(0 0.818176)"/>
</clipPath>
</defs>
</svg>
