<svg width="50" height="51" viewBox="0 0 50 51" fill="none" xmlns="http://www.w3.org/2000/svg">
<g clip-path="url(#clip0_402_123)">
<path d="M50 25.8182C50 22.7602 49.45 19.8308 48.445 17.1226L25 16.0356L1.55498 17.1225C0.550098 19.8308 0 22.7602 0 25.8182C0 28.8762 0.550098 31.8056 1.55498 34.5138L25 35.6008L48.445 34.5139C49.45 31.8056 50 28.8762 50 25.8182Z" fill="#D80027"/>
<path d="M25 50.8182C35.7491 50.8182 44.9126 44.0338 48.445 34.5138H1.55493C5.08726 44.0338 14.2508 50.8182 25 50.8182Z" fill="#6DA544"/>
<path d="M1.55493 17.1226H48.4451C44.9126 7.60255 35.7491 0.818176 25 0.818176C14.2508 0.818176 5.08726 7.60255 1.55493 17.1226V17.1226Z" fill="#338AF3"/>
<path d="M25.5435 32.8834C21.6415 32.8834 18.4782 29.7202 18.4782 25.8182C18.4782 21.9162 21.6415 18.753 25.5435 18.753C26.7601 18.753 27.9049 19.0606 28.9043 19.6022C27.3364 18.0689 25.1922 17.1225 22.8261 17.1225C18.0236 17.1225 14.1305 21.0157 14.1305 25.8181C14.1305 30.6205 18.0237 34.5137 22.8261 34.5137C25.1923 34.5137 27.3365 33.5673 28.9043 32.034C27.9049 32.5758 26.7601 32.8834 25.5435 32.8834Z" fill="#F0F0F0"/>
<path d="M30.9782 20.9269L31.9141 23.5588L34.4369 22.3594L33.2376 24.8823L35.8695 25.8182L33.2376 26.7541L34.4369 29.277L31.9141 28.0776L30.9782 30.7095L30.0425 28.0776L27.5195 29.277L28.7189 26.7541L26.0869 25.8182L28.7189 24.8823L27.5195 22.3594L30.0425 23.5588L30.9782 20.9269Z" fill="#F0F0F0"/>
</g>
<defs>
<clipPath id="clip0_402_123">
<rect width="50" height="50" fill="white" transform="translate(0 0.818176)"/>
</clipPath>
</defs>
</svg>
