<svg width="50" height="51" viewBox="0 0 50 51" fill="none" xmlns="http://www.w3.org/2000/svg">
<g clip-path="url(#clip0_402_123)">
<path d="M25 50.8182C38.8071 50.8182 50 39.6253 50 25.8182C50 12.0111 38.8071 0.818176 25 0.818176C11.1929 0.818176 0 12.0111 0 25.8182C0 39.6253 11.1929 50.8182 25 50.8182Z" fill="#F0F0F0"/>
<path d="M0 25.8182C0 35.2942 5.27246 43.5384 13.0435 47.7784V3.85791C5.27246 8.09795 0 16.3421 0 25.8182Z" fill="#D80027"/>
<path d="M0 25.8182C0 37.3688 7.83408 47.0882 18.4782 49.9569V1.67938C7.83408 4.54813 0 14.2675 0 25.8182Z" fill="#0052B4"/>
<path d="M8.96741 9.51379V13.5899C8.96741 15.6159 10.6098 17.2583 12.6359 17.2583C14.6619 17.2583 16.3043 15.6159 16.3043 13.5899V9.51379H8.96741Z" fill="#D80027"/>
<path d="M12.6359 15.0845C11.8118 15.0845 11.1414 14.4141 11.1414 13.59V11.6878H14.1305V13.59C14.1305 14.4141 13.46 15.0845 12.6359 15.0845Z" fill="#F0F0F0"/>
<path d="M27.1739 26.9051H20.6521C20.6521 25.7045 19.6788 24.7312 18.4782 24.7312C17.2776 24.7312 16.3042 25.7045 16.3042 26.9051H9.78247C9.78247 28.1058 10.8283 29.0791 12.0288 29.0791H11.9564C11.9564 30.2797 12.9295 31.253 14.1303 31.253C14.1303 32.4537 15.1035 33.4269 16.3042 33.4269H20.6521C21.8527 33.4269 22.826 32.4537 22.826 31.253C24.0266 31.253 24.9999 30.2797 24.9999 29.0791H24.9276C26.1281 29.0791 27.1739 28.1058 27.1739 26.9051V26.9051Z" fill="#FFDA44"/>
<path d="M28.0673 23.4263L27.4966 24.3401L28.1889 25.1651L27.1436 24.9048L26.5728 25.8182L26.4975 24.7435L25.4521 24.4829L26.4513 24.0793L26.3761 23.0046L27.0686 23.83L28.0673 23.4263Z" fill="#FFDA44"/>
<path d="M24.7369 20.6318L24.5132 21.6856L25.4461 22.2242L24.3746 22.3373L24.1507 23.3908L23.7124 22.4066L22.641 22.5191L23.4417 21.7982L23.0036 20.8143L23.9364 21.3528L24.7369 20.6318Z" fill="#FFDA44"/>
<path d="M20.6519 19.1451L20.8018 20.212L21.8626 20.399L20.8945 20.8713L21.0444 21.9382L20.2961 21.1632L19.3278 21.6355L19.8335 20.6842L19.0852 19.9094L20.1462 20.0963L20.6519 19.1451Z" fill="#FFDA44"/>
<path d="M16.3045 19.1451L16.8104 20.0963L17.8712 19.9093L17.1229 20.6844L17.6286 21.6356L16.6604 21.1632L15.912 21.938L16.062 20.8713L15.0938 20.3991L16.1546 20.212L16.3045 19.1451Z" fill="#FFDA44"/>
<path d="M12.2195 20.6318L13.0201 21.3528L13.9529 20.8143L13.515 21.7986L14.3153 22.5192L13.2441 22.4066L12.8057 23.3908L12.5821 22.3371L11.5106 22.2246L12.4434 21.6857L12.2195 20.6318Z" fill="#FFDA44"/>
<path d="M8.88921 23.4263L9.88833 23.83L10.5804 23.0047L10.5056 24.0796L11.5043 24.4832L10.4589 24.7436L10.3835 25.8182L9.81313 24.9048L8.76782 25.1652L9.4603 24.3401L8.88921 23.4263Z" fill="#FFDA44"/>
</g>
<defs>
<clipPath id="clip0_402_123">
<rect width="50" height="50" fill="white" transform="translate(0 0.818176)"/>
</clipPath>
</defs>
</svg>
