<svg width="50" height="51" viewBox="0 0 50 51" fill="none" xmlns="http://www.w3.org/2000/svg">
<g clip-path="url(#clip0_402_123)">
<path d="M25 50.8182C38.8071 50.8182 50 39.6253 50 25.8182C50 12.0111 38.8071 0.818176 25 0.818176C11.1929 0.818176 0 12.0111 0 25.8182C0 39.6253 11.1929 50.8182 25 50.8182Z" fill="#F0F0F0"/>
<path d="M25 0.818176C19.9828 0.818176 15.3117 2.29718 11.3965 4.84142L17.8261 9.15089L9.78259 13.3175L17.8261 17.4841L9.78259 21.6507L17.8261 25.8168L9.78259 29.9833L17.8261 34.1498L9.78259 38.3168L17.8261 42.4834L11.3957 46.7943C15.3111 49.339 19.9825 50.8182 25 50.8182C38.807 50.8182 50 39.6252 50 25.8182C50 12.0111 38.807 0.818176 25 0.818176V0.818176Z" fill="#D80027"/>
</g>
<defs>
<clipPath id="clip0_402_123">
<rect width="50" height="50" fill="white" transform="translate(0 0.818176)"/>
</clipPath>
</defs>
</svg>
