<svg width="50" height="51" viewBox="0 0 50 51" fill="none" xmlns="http://www.w3.org/2000/svg">
<g clip-path="url(#clip0_402_123)">
<path d="M25.0001 0.818298C38.8071 0.818298 50 12.0112 50 25.8183C50 39.6253 38.8071 50.8182 25.0001 50.8182C11.1931 50.8182 0.00012207 39.6253 0.00012207 25.8183" fill="#FFDA44"/>
<path d="M24.4567 11.9294H45.789C44.3844 9.83106 42.6702 7.95802 40.7122 6.37384H24.4567V11.9294Z" fill="#D80027"/>
<path d="M24.4567 23.0405H49.8458C49.6327 21.1141 49.201 19.2541 48.5757 17.485H24.4567V23.0405Z" fill="#D80027"/>
<path d="M1.42466 34.1516H48.5754C49.2007 32.3826 49.6326 30.5223 49.8457 28.5959H0.154541C0.367431 30.5224 0.799266 32.3827 1.42466 34.1516V34.1516Z" fill="#D80027"/>
<path d="M9.28795 45.2626H40.7121C42.67 43.6786 44.3843 41.8053 45.789 39.7071H4.2113C5.61599 41.8053 7.33005 43.6785 9.28795 45.2626V45.2626Z" fill="#D80027"/>
<path d="M25.0001 0.818298C11.1929 0.818298 -9.76554e-05 12.0112 6.39011e-10 25.8184C5.70565 25.8182 11.1929 25.8184 25 25.8184L25.0001 0.818298Z" fill="#4A1F63"/>
<path d="M20.6523 13.8617V16.0356H19.5654V13.8617H17.3914V16.0356H16.3045V11.6878H11.9567V16.0356H10.8697V13.8617H8.69584V16.0356H7.60883V13.8617H5.43481V20.3834H22.8262V13.8617H20.6523Z" fill="#F0F0F0"/>
</g>
<defs>
<clipPath id="clip0_402_123">
<rect width="50" height="50" fill="white" transform="translate(0 0.818176)"/>
</clipPath>
</defs>
</svg>
