<svg width="50" height="51" viewBox="0 0 50 51" fill="none" xmlns="http://www.w3.org/2000/svg">
<g clip-path="url(#clip0_402_123)">
<path d="M35.8695 3.29884C32.5828 1.70958 28.8955 0.818176 25 0.818176C21.1045 0.818176 17.4172 1.70958 14.1305 3.29884L11.9565 25.8182L14.1305 48.3375C17.4172 49.9268 21.1045 50.8182 25 50.8182C28.8955 50.8182 32.5828 49.9268 35.8695 48.3375L38.0435 25.8182L35.8695 3.29884Z" fill="#FFDA44"/>
<path d="M14.1305 3.29974C5.76816 7.3433 0 15.9067 0 25.8182C0 35.7297 5.76816 44.2931 14.1305 48.3367V3.29974Z" fill="#0052B4"/>
<path d="M35.8695 3.29974V48.3367C44.2318 44.2931 50 35.7296 50 25.8182C50 15.9068 44.2318 7.3433 35.8695 3.29974Z" fill="#0052B4"/>
<path d="M32.6087 16.0356L34.067 16.7647L32.6087 16.0356L31.1503 15.3065C31.0624 15.4823 29.1582 19.3567 28.8471 25.2747H26.6304V16.0356L25 13.8616L23.3695 16.0356V25.2747H21.1528C20.8417 19.3567 18.9376 15.4823 18.8496 15.3065L15.933 16.7648C15.9531 16.8048 17.9348 20.8385 17.9348 26.9052V28.5357H23.3696V37.7748H26.6304V28.5357H32.0652V26.9051C32.0652 23.7686 32.6079 21.1822 33.0633 19.5649C33.5596 17.8012 34.0638 16.7712 34.0688 16.7609L32.6087 16.0356Z" fill="black"/>
</g>
<defs>
<clipPath id="clip0_402_123">
<rect width="50" height="50" fill="white" transform="translate(0 0.818176)"/>
</clipPath>
</defs>
</svg>
