<svg width="50" height="51" viewBox="0 0 50 51" fill="none" xmlns="http://www.w3.org/2000/svg">
<g clip-path="url(#clip0_402_123)">
<path d="M25 50.8182C38.8071 50.8182 50 39.6253 50 25.8182C50 12.0111 38.8071 0.818176 25 0.818176C11.1929 0.818176 0 12.0111 0 25.8182C0 39.6253 11.1929 50.8182 25 50.8182Z" fill="#F0F0F0"/>
<path d="M0.21167 29.079C0.79331 33.5431 2.55327 37.6364 5.16821 41.0384L18.4782 29.079H0.21167Z" fill="#D80027"/>
<path d="M21.7392 50.6066V32.34L9.77979 45.65C13.1818 48.265 17.275 50.025 21.7392 50.6066V50.6066Z" fill="#D80027"/>
<path d="M21.7392 1.02979C17.275 1.61143 13.1818 3.37139 9.77979 5.98633L21.7392 19.2965V1.02979Z" fill="#D80027"/>
<path d="M0.21167 22.5573H18.4782L5.16812 10.598C2.55317 13.9999 0.793213 18.0932 0.21167 22.5573V22.5573Z" fill="#D80027"/>
<path d="M28.2607 1.02979V19.2964L40.2203 5.98633C36.8183 3.37158 32.725 1.61133 28.2607 1.02979V1.02979Z" fill="#D80027"/>
<path d="M49.7883 22.5573C49.2067 18.0932 47.4467 13.9999 44.8318 10.5978L31.5217 22.5573H49.7883Z" fill="#D80027"/>
<path d="M31.5217 29.079L44.8319 41.0384C47.4467 37.6364 49.2068 33.5431 49.7884 29.079H31.5217Z" fill="#D80027"/>
<path d="M28.2607 50.6066C32.7249 50.0249 36.8183 48.265 40.2202 45.6499L28.2607 32.34V50.6066Z" fill="#D80027"/>
<path d="M44.8338 41.0404L29.6118 25.8183L29.6117 25.8182L44.8338 10.5959C44.1774 9.74277 43.4592 8.92207 42.6778 8.14043C41.8963 7.35898 41.0755 6.64072 40.2223 5.98438L25.0001 21.2065H25L9.77788 5.98438C8.92476 6.64082 8.10396 7.35889 7.32231 8.14043C6.54087 8.92207 5.82261 9.74277 5.16626 10.596L20.3884 25.8181L20.3885 25.8182L5.16636 41.0404C5.8228 41.8935 6.54097 42.7143 7.32241 43.4959C8.10396 44.2773 8.92476 44.9956 9.77798 45.652L25 30.4298L40.2223 45.652C41.0753 44.9955 41.8961 44.2773 42.6778 43.4959C43.4593 42.7143 44.1774 41.8935 44.8338 41.0404V41.0404Z" fill="#496E2D"/>
<path d="M28.2608 50.6066V29.0793V29.0791H49.7884C49.9275 28.0116 50 26.9234 50 25.8182C50 24.7131 49.9274 23.6248 49.7884 22.5574H28.261L28.2609 22.5573V1.0299C27.1936 0.89093 26.1054 0.818176 25 0.818176C23.8948 0.818274 22.8065 0.89093 21.7392 1.0299L21.7393 22.5571V22.5573H0.211719C0.0726562 23.6247 0 24.713 0 25.8182C9.76563e-05 26.9235 0.0726562 28.0116 0.211719 29.079H21.7391L21.7392 50.6066C22.8066 50.7455 23.8946 50.8182 25 50.8182C26.1054 50.8182 27.1936 50.7455 28.2608 50.6066V50.6066Z" fill="#F0F0F0"/>
</g>
<defs>
<clipPath id="clip0_402_123">
<rect width="50" height="50" fill="white" transform="translate(0 0.818176)"/>
</clipPath>
</defs>
</svg>
