<svg width="50" height="51" viewBox="0 0 50 51" fill="none" xmlns="http://www.w3.org/2000/svg">
<g clip-path="url(#clip0_402_123)">
<path d="M25 50.8182C38.8071 50.8182 50 39.6253 50 25.8182C50 12.0111 38.8071 0.818176 25 0.818176C11.1929 0.818176 0 12.0111 0 25.8182C0 39.6253 11.1929 50.8182 25 50.8182Z" fill="#FCFCFC"/>
<path d="M10.3261 24.0066L7.60876 19.0766L10.3261 14.2239L13.0435 19.0766L10.3261 24.0066Z" fill="#A2001D"/>
<path d="M4.89133 24.0066L2.17395 19.0766L4.89133 14.2239L7.60872 19.0766L4.89133 24.0066Z" fill="#A2001D"/>
<path d="M10.3261 37.4124L7.60876 32.4824L10.3261 27.6298L13.0435 32.4824L10.3261 37.4124Z" fill="#A2001D"/>
<path d="M4.89133 37.4124L2.17395 32.4824L4.89133 27.6298L7.60872 32.4824L4.89133 37.4124Z" fill="#A2001D"/>
<path d="M13.0435 5.67089L12.2742 4.29706C10.8943 5.11464 9.60007 6.06122 8.40759 7.1202L10.3261 10.6008L13.0435 5.67089Z" fill="#A2001D"/>
<path d="M10.3261 41.0355L8.38721 44.498C9.57861 45.5584 10.872 46.5064 12.2513 47.3257L13.0436 45.8883L10.3261 41.0355Z" fill="#A2001D"/>
<path d="M15.2174 32.34V48.8305C18.2222 50.1095 21.5281 50.8182 25 50.8182C35.7491 50.8182 44.9127 44.0338 48.445 34.5138L15.2174 32.34Z" fill="#6DA544"/>
<path d="M48.445 34.5138C49.45 31.8055 50 28.8762 50 25.8182C50 12.0111 38.8071 0.818176 25 0.818176C21.5284 0.818176 18.2222 1.52648 15.2174 2.80529V34.5139H48.445V34.5138Z" fill="#A2001D"/>
</g>
<defs>
<clipPath id="clip0_402_123">
<rect width="50" height="50" fill="white" transform="translate(0 0.818176)"/>
</clipPath>
</defs>
</svg>
