<svg width="50" height="51" viewBox="0 0 50 51" fill="none" xmlns="http://www.w3.org/2000/svg">
<g clip-path="url(#clip0_402_123)">
<path d="M50 25.8182C50 17.238 45.6769 9.6684 39.0905 5.16605L25 4.07904L10.9095 5.16595C4.32324 9.6684 0 17.2381 0 25.8182C0 34.3986 4.32324 41.968 10.9095 46.4703L25 47.5574L39.0905 46.4704C45.6769 41.968 50 34.3986 50 25.8182Z" fill="#0052B4"/>
<path d="M39.0905 5.16603C35.0783 2.42325 30.2269 0.818176 25 0.818176C19.7731 0.818176 14.9216 2.42325 10.9094 5.16603H39.0905Z" fill="#A2001D"/>
<path d="M10.9094 46.4703C14.9215 49.2131 19.7731 50.8182 25 50.8182C30.2269 50.8182 35.0783 49.2131 39.0905 46.4703H10.9094Z" fill="#A2001D"/>
<path d="M25 37.7747C31.6034 37.7747 36.9565 32.4216 36.9565 25.8182C36.9565 19.2148 31.6034 13.8616 25 13.8616C18.3966 13.8616 13.0435 19.2148 13.0435 25.8182C13.0435 32.4216 18.3966 37.7747 25 37.7747Z" fill="#F0F0F0"/>
<path d="M25 35.6008C30.4028 35.6008 34.7826 31.221 34.7826 25.8182C34.7826 20.4154 30.4028 16.0356 25 16.0356C19.5972 16.0356 15.2174 20.4154 15.2174 25.8182C15.2174 31.221 19.5972 35.6008 25 35.6008Z" fill="#6DA544"/>
<path d="M25 32.3399C28.6019 32.3399 31.5218 29.42 31.5218 25.8182C31.5218 22.2163 28.6019 19.2964 25 19.2964C21.3982 19.2964 18.4783 22.2163 18.4783 25.8182C18.4783 29.42 21.3982 32.3399 25 32.3399Z" fill="#F0F0F0"/>
<path d="M25 24.1877L21.4674 25.8182V28.5355L25 30.7095L28.5326 28.5355V25.8182L25 24.1877Z" fill="#0052B4"/>
<path d="M21.4674 22.5573H28.5326V25.8182H21.4674V22.5573Z" fill="#FFDA44"/>
</g>
<defs>
<clipPath id="clip0_402_123">
<rect width="50" height="50" fill="white" transform="translate(0 0.818176)"/>
</clipPath>
</defs>
</svg>
