<svg width="50" height="51" viewBox="0 0 50 51" fill="none" xmlns="http://www.w3.org/2000/svg">
<g clip-path="url(#clip0_402_123)">
<path d="M50 25.8182C50 39.6252 38.807 50.8182 25 50.8182C11.193 50.8182 0 39.6252 0 25.8182C0 25.8241 25 0.820911 25 0.818176C38.807 0.818176 50 12.0111 50 25.8182Z" fill="#D80027"/>
<path d="M25 12.7747V21.2067L16.3044 12.7747H25Z" fill="#0052B4"/>
<path d="M13.0435 25.8182H20.3883L13.0435 16.0356L11.9565 23.6443L13.0435 25.8182Z" fill="#0052B4"/>
<path d="M24.9331 25.8182H25C25 25.7957 25 25.7738 25 25.7513C24.9777 25.7736 24.9555 25.7959 24.9331 25.8182Z" fill="#F0F0F0"/>
<path d="M25 13.8616C25 9.46271 25 6.58038 25 0.818176H24.9958C11.1905 0.82052 0 12.0124 0 25.8182H13.0435V18.4734L20.3883 25.8182H24.9332C24.9555 25.7959 24.9777 25.7736 25.0001 25.7513C25.0001 24.067 25.0001 22.5642 25.0001 21.2067L17.6551 13.8616H25Z" fill="#F0F0F0"/>
<path d="M12.648 4.07904C8.73792 6.30551 5.48723 9.55609 3.26086 13.4662V26.9051H9.78264V10.601V10.6008H26.0869C26.0869 8.54389 26.0869 6.58431 26.0869 4.07904H12.648Z" fill="#D80027"/>
<path d="M25.9938 23.7375L16.1177 13.8616H13.0435V13.8618L25.9936 26.8119H25.9937C25.9938 26.812 25.9938 24.6922 25.9938 23.7375V23.7375Z" fill="#D80027"/>
<path d="M28.2609 13.8616V25.8181C28.2609 31.6423 43.4782 31.6423 43.4782 25.8181V13.8616H28.2609Z" fill="#F3F3F3"/>
<path d="M28.2609 25.8182V25.8181C28.2609 31.6423 35.8696 33.4268 35.8696 33.4268C35.8696 33.4268 43.4782 31.6423 43.4782 25.8181V25.8182H28.2609Z" fill="#6DA544"/>
<path d="M35.8695 21.0356L32.3369 22.5574V25.8182L35.8695 27.9921L39.4021 25.8182V22.5574L35.8695 21.0356Z" fill="#A2001D"/>
<path d="M32.3369 19.2964H39.4021V22.5572H32.3369V19.2964Z" fill="#338AF3"/>
</g>
<defs>
<clipPath id="clip0_402_123">
<rect width="50" height="50" fill="white" transform="translate(0 0.818176)"/>
</clipPath>
</defs>
</svg>
