<svg width="50" height="51" viewBox="0 0 50 51" fill="none" xmlns="http://www.w3.org/2000/svg">
<g clip-path="url(#clip0_402_123)">
<path d="M42.6777 43.4959C32.9146 53.259 17.0855 53.259 7.32231 43.4959C-2.44077 33.7328 -2.44077 17.9036 7.32231 8.14043C7.32583 8.14043 29.7889 1.50303 39.5521 11.2661C49.3153 21.0292 42.6844 43.4891 42.6777 43.4959Z" fill="#FFDA44"/>
<path d="M42.6776 43.4959C52.4407 33.7328 52.4407 17.9036 42.6776 8.14047C32.9146 -1.62272 17.0854 -1.62262 7.32227 8.14047L42.6776 43.4959Z" fill="#D80027"/>
<path d="M31.5348 32.3554C30.5079 32.7587 29.3146 32.7159 28.2793 32.135C26.4502 31.1084 25.7973 28.7848 26.8242 26.9554L26.5125 26.7806C29.6444 26.0254 31.9615 23.1826 31.9208 19.8279C31.8957 17.7423 30.9637 15.8764 29.506 14.5996L27.2235 16.9381C28.0864 17.6258 28.6459 18.6807 28.6602 19.8675C28.6856 21.9651 26.9999 23.6924 24.9023 23.7177L24.9067 24.0748C22.6867 21.7402 19.0664 21.155 16.1815 22.8675C14.3879 23.9323 13.2381 25.6722 12.8611 27.573L16.0275 28.3807C16.1917 27.2895 16.8253 26.2775 17.8459 25.6716C19.6498 24.6008 21.9884 25.1973 23.0592 27.001L23.3667 26.8187C22.4547 29.9083 23.758 33.3363 26.6836 34.9785C28.5026 35.9994 30.5842 36.1253 32.419 35.5014L31.5348 32.3554ZM24.9286 25.8911L24.9284 25.8912L24.9286 25.8911Z" fill="#FF9811"/>
<path d="M34.2564 17.7499L32.4894 24.0557L27.1877 23.0767L23.775 16.042L14.5555 19.3136L13.8285 17.2647L11.4164 16.9676L13.2339 22.0896L19.5785 20.4669L21.3815 25.5479L16.9956 32.0206L24.4386 38.3689L23.0278 40.0229L23.9765 42.2606L27.5037 38.1255L22.9261 33.4422L26.4249 29.3403L34.2235 29.9022L35.9998 20.2821L38.1376 20.677L39.6013 18.7365L34.2564 17.7499ZM24.9981 25.9883V25.9885V25.9883Z" fill="#FFEACF"/>
</g>
<defs>
<clipPath id="clip0_402_123">
<rect width="50" height="50" fill="white" transform="translate(0 0.818176)"/>
</clipPath>
</defs>
</svg>
