<svg width="50" height="51" viewBox="0 0 50 51" fill="none" xmlns="http://www.w3.org/2000/svg">
<g clip-path="url(#clip0_402_123)">
<path d="M50 25.8182C50 22.7602 49.45 19.8308 48.445 17.1226L25 16.0356L1.55498 17.1225C0.55 19.8308 0 22.7602 0 25.8182C0 28.8762 0.55 31.8056 1.55498 34.5138L25 35.6008L48.445 34.5139C49.45 31.8056 50 28.8762 50 25.8182Z" fill="#FFDA44"/>
<path d="M25 50.8182C35.7491 50.8182 44.9126 44.0338 48.445 34.5138H1.55493C5.08726 44.0338 14.2508 50.8182 25 50.8182Z" fill="#6DA544"/>
<path d="M1.55493 17.1226H48.4451C44.9126 7.60255 35.7491 0.818176 25 0.818176C14.2508 0.818176 5.08726 7.60255 1.55493 17.1226V17.1226Z" fill="#D80027"/>
</g>
<defs>
<clipPath id="clip0_402_123">
<rect width="50" height="50" fill="white" transform="translate(0 0.818176)"/>
</clipPath>
</defs>
</svg>
