<svg width="50" height="51" viewBox="0 0 50 51" fill="none" xmlns="http://www.w3.org/2000/svg">
<g clip-path="url(#clip0_402_123)">
<path d="M25 50.8182C38.8071 50.8182 50 39.6253 50 25.8182C50 12.0111 38.8071 0.818176 25 0.818176C11.1929 0.818176 0 12.0111 0 25.8182C0 39.6253 11.1929 50.8182 25 50.8182Z" fill="#F0F0F0"/>
<path d="M7.32231 8.14041C1.9644 13.4983 -0.452298 20.6833 0.0704563 27.6897L26.8715 0.888656C19.8651 0.365805 12.6802 2.7825 7.32231 8.14041V8.14041Z" fill="#FFDA44"/>
<path d="M8.92676 44.9657C18.7491 53.2296 33.4326 52.7408 42.6777 43.4958C51.9228 34.2508 52.4116 19.5672 44.1477 9.74493L8.92676 44.9657Z" fill="#0052B4"/>
<path d="M24.9108 24.8112L27.0652 23.6442L24.9108 22.4772C24.4078 19.2096 21.826 16.6276 18.5583 16.1247L17.3912 13.9702L16.2242 16.1246C12.9566 16.6275 10.3748 19.2095 9.87165 22.4771L7.71716 23.6442L9.87156 24.8112C10.3746 28.0789 12.9564 30.6608 16.2241 31.1638L17.3912 33.3183L18.5582 31.1639C21.826 30.6608 24.4078 28.0789 24.9108 24.8112V24.8112ZM17.3913 27.9921C14.99 27.9921 13.0434 26.0456 13.0434 23.6442C13.0434 21.2429 14.9899 19.2964 17.3913 19.2964C19.7927 19.2964 21.7391 21.2429 21.7391 23.6442C21.7391 26.0456 19.7926 27.9921 17.3913 27.9921Z" fill="black"/>
<path d="M17.3913 20.3834L18.3326 22.0138H20.2153L19.2739 23.6443L20.2153 25.2747H18.3326L17.3913 26.9051L16.45 25.2747H14.5674L15.5087 23.6443L14.5674 22.0138H16.45L17.3913 20.3834Z" fill="#D80027"/>
</g>
<defs>
<clipPath id="clip0_402_123">
<rect width="50" height="50" fill="white" transform="translate(0 0.818176)"/>
</clipPath>
</defs>
</svg>
