<svg width="50" height="51" viewBox="0 0 50 51" fill="none" xmlns="http://www.w3.org/2000/svg">
<g clip-path="url(#clip0_402_123)">
<path d="M25 50.8182C38.8071 50.8182 50 39.6253 50 25.8182C50 12.0111 38.8071 0.818176 25 0.818176C11.1929 0.818176 0 12.0111 0 25.8182C0 39.6253 11.1929 50.8182 25 50.8182Z" fill="#F0F0F0"/>
<path d="M25 0.818176C16.1357 0.818176 8.34959 5.43175 3.91052 12.3884L37.8128 47.2878C45.1119 42.9224 50 34.9415 50 25.8182C50 12.0111 38.807 0.818176 25 0.818176Z" fill="#FFDA44"/>
<path d="M50 25.8182C50 19.3316 47.5295 13.4227 43.4783 8.97949V42.6569C47.5295 38.2137 50 32.3047 50 25.8182Z" fill="#0052B4"/>
<path d="M31.2294 47.876L33.848 47.8744L34.6559 45.3833L35.4666 47.8734L36.7801 47.8726C37.5854 47.4415 38.3645 46.9676 39.1141 46.4538L4.36416 11.704C3.7915 12.5395 3.26924 13.412 2.79961 14.3163L3.1084 15.2647L5.72705 15.2631L3.60947 16.8036L4.42021 19.2937L2.30068 17.7558L1.03652 18.6754C0.362598 20.9386 0 23.336 0 25.8181C0 39.6252 11.193 50.8181 25 50.8181C27.9191 50.8181 30.721 50.317 33.3252 49.397L31.2294 47.876ZM5.57607 24.7312L6.38369 22.2402L4.26436 20.7021L6.88301 20.7005L7.69072 18.2094L8.50146 20.6995L11.1201 20.6978L9.00244 22.2384L9.81318 24.7285L7.69365 23.1906L5.57607 24.7312ZM10.9691 30.166L11.7768 27.675L9.65742 26.1369L12.2761 26.1352L13.0838 23.6441L13.8945 26.1343L16.5132 26.1326L14.3956 27.6731L15.2063 30.1633L13.0868 28.6254L10.9691 30.166ZM16.3621 35.6008L17.1697 33.1097L15.0504 31.5717L17.669 31.57L18.4768 29.0789L19.2875 31.569L21.9062 31.5674L19.7886 33.1079L20.5993 35.598L18.4798 34.0599L16.3621 35.6008ZM23.8728 39.495L21.7551 41.0355L22.5627 38.5445L20.4434 37.0064L23.062 37.0048L23.8698 34.5136L24.6806 37.0038L27.2992 37.0021L25.1816 38.5427L25.9924 41.0328L23.8728 39.495ZM27.1481 46.4703L27.9558 43.9793L25.8364 42.4412L28.4551 42.4395L29.2628 39.9484L30.0735 42.4385L32.6922 42.4369L30.5746 43.9774L31.3854 46.4676L29.2658 44.9295L27.1481 46.4703Z" fill="#0052B4"/>
</g>
<defs>
<clipPath id="clip0_402_123">
<rect width="50" height="50" fill="white" transform="translate(0 0.818176)"/>
</clipPath>
</defs>
</svg>
