<svg width="50" height="51" viewBox="0 0 50 51" fill="none" xmlns="http://www.w3.org/2000/svg">
<g clip-path="url(#clip0_402_123)">
<path d="M1.18059 18.2094C0.414771 20.6087 2.44313e-05 23.1647 0.000122088 25.8181C2.44313e-05 28.4713 0.414771 31.0274 1.18069 33.4268L25.0001 34.5139L48.8195 33.4268C49.5852 31.0274 50 28.4712 50 25.8182C50 23.1649 49.5853 20.6087 48.8195 18.2094L25 17.1225L1.18059 18.2094Z" fill="#F0F0F0"/>
<path d="M50 25.8182C50 24.3351 49.8701 22.8823 49.6224 21.4702H0.377734C0.129883 22.8823 0 24.3349 0 25.8181C0 27.3013 0.12998 28.7538 0.377734 30.1659H49.6224C49.87 28.7537 50 27.3012 50 25.8182Z" fill="black"/>
<path d="M25.0001 50.8181C36.154 50.8181 45.6003 43.5131 48.8194 33.4267H1.18066C4.3999 43.513 13.8463 50.8179 25.0001 50.8181V50.8181Z" fill="#338AF3"/>
<path d="M25.0001 0.818298C13.8463 0.818298 4.39998 8.12328 1.18054 18.2094L48.8192 18.2095C45.6002 8.12328 36.1538 0.818103 25.0001 0.818298V0.818298Z" fill="#338AF3"/>
</g>
<defs>
<clipPath id="clip0_402_123">
<rect width="50" height="50" fill="white" transform="translate(0 0.818176)"/>
</clipPath>
</defs>
</svg>
