<svg width="50" height="51" viewBox="0 0 50 51" fill="none" xmlns="http://www.w3.org/2000/svg">
<g clip-path="url(#clip0_402_123)">
<path d="M50 25.8182C50 39.6252 38.807 50.8182 25 50.8182C11.193 50.8182 0 39.6252 0 25.8182C0 25.8241 25 0.820911 25 0.818176C38.807 0.818176 50 12.0111 50 25.8182Z" fill="#0052B4"/>
<path d="M24.9331 25.8182H25C25 25.7957 25 25.7738 25 25.7513C24.9777 25.7736 24.9555 25.7959 24.9331 25.8182Z" fill="#F0F0F0"/>
<path d="M25 13.8616C25 9.46271 25 6.58038 25 0.818176H24.9958C11.1905 0.82052 0 12.0124 0 25.8182H13.0435V18.4734L20.3883 25.8182H24.9332C24.9555 25.7959 24.9777 25.7736 25.0001 25.7513C25.0001 24.067 25.0001 22.5642 25.0001 21.2067L17.6551 13.8616H25Z" fill="#F0F0F0"/>
<path d="M12.648 4.07904C8.73791 6.30551 5.48723 9.55609 3.26086 13.4661V25.8182H9.78264V10.601V10.6008H25C25 8.54388 25 6.58431 25 4.07904H12.648Z" fill="#D80027"/>
<path d="M35.8696 25.8182L29.1124 32.5753C30.3788 35.0178 32.9284 36.6877 35.8696 36.6877C38.8107 36.6877 41.3603 35.0178 42.6267 32.5753L35.8696 25.8182Z" fill="#FFDA44"/>
<path d="M25 22.7439L16.1177 13.8618H13.0435V13.862L24.9998 25.8182H25C25 25.8182 25 23.6984 25 22.7439V22.7439Z" fill="#D80027"/>
<path d="M28.2609 13.8616V25.8181V25.8182C28.261 31.6423 35.8696 33.4269 35.8696 33.4269C35.8696 33.4269 43.4781 31.6423 43.4782 25.8182V25.8181V13.8616H28.2609Z" fill="#6DA544"/>
<path d="M34.2391 19.2964H37.5V27.992H34.2391V19.2964Z" fill="#F0F0F0"/>
<path d="M35.8695 20.9269C36.77 20.9269 37.5 20.1969 37.5 19.2964C37.5 18.3959 36.77 17.666 35.8695 17.666C34.969 17.666 34.239 18.3959 34.239 19.2964C34.239 20.1969 34.969 20.9269 35.8695 20.9269Z" fill="#A2001D"/>
<path d="M30.4348 16.0356H32.6087V18.2095H30.4348V16.0356Z" fill="#FFDA44"/>
<path d="M30.4348 20.9269H32.6087V23.1008H30.4348V20.9269Z" fill="#FFDA44"/>
<path d="M30.4348 25.8182H32.6087V27.9921H30.4348V25.8182Z" fill="#FFDA44"/>
<path d="M39.1305 16.0356H41.3044V18.2095H39.1305V16.0356Z" fill="#FFDA44"/>
<path d="M39.1305 20.9269H41.3044V23.1008H39.1305V20.9269Z" fill="#FFDA44"/>
<path d="M39.1305 25.8182H41.3044V27.9921H39.1305V25.8182Z" fill="#FFDA44"/>
</g>
<defs>
<clipPath id="clip0_402_123">
<rect width="50" height="50" fill="white" transform="translate(0 0.818176)"/>
</clipPath>
</defs>
</svg>
