<svg width="50" height="51" viewBox="0 0 50 51" fill="none" xmlns="http://www.w3.org/2000/svg">
<g clip-path="url(#clip0_402_123)">
<path d="M25.0002 50.8146C38.8053 50.8146 49.9966 39.6234 49.9966 25.8183C49.9966 12.0132 38.8053 0.82196 25.0002 0.82196C11.1951 0.82196 0.00390625 12.0132 0.00390625 25.8183C0.00390625 39.6234 11.1951 50.8146 25.0002 50.8146Z" fill="#F0F0F0"/>
<path d="M3.35259 13.32C2.22435 15.274 1.3921 17.3168 0.837891 19.3976L42.6413 43.533C44.1663 42.0125 45.5194 40.2702 46.6474 38.3163L3.35259 13.32Z" fill="black"/>
<path d="M37.4983 4.17068C27.4965 -1.60376 15.1642 0.320798 7.35864 8.10339L49.1621 32.2386C51.9993 21.5878 47.4998 9.94522 37.4983 4.17068V4.17068Z" fill="#FFDA44"/>
<path d="M12.502 47.4657C22.5036 53.2401 34.8361 51.3156 42.6415 43.5331L0.837954 19.3976C-1.99912 30.0487 2.5002 41.6912 12.502 47.4657Z" fill="#FFDA44"/>
<path d="M32.0643 23.1011C32.0643 27.0025 28.9015 30.1654 25.0001 30.1654C21.0986 30.1654 17.9359 27.0026 17.9359 23.1011C17.9359 21.8847 18.2434 20.7401 18.785 19.7407C17.2521 21.3084 16.3057 23.4522 16.3057 25.8181C16.3057 30.6199 20.1982 34.5125 25.0001 34.5125C29.8019 34.5125 33.6945 30.62 33.6945 25.8181C33.6945 23.4522 32.7482 21.3084 31.2152 19.7407C31.7568 20.7403 32.0643 21.8847 32.0643 23.1011V23.1011Z" fill="#D80027"/>
<path d="M23.3701 14.9503H26.6305V31.2523H23.3701V14.9503Z" fill="#D80027"/>
<path d="M30.4341 18.2106H19.5662C19.5662 18.9609 20.2198 19.5692 20.97 19.5692H20.9247C20.9247 20.3195 21.533 20.9277 22.2832 20.9277C22.2832 21.678 22.8915 22.2862 23.6417 22.2862H26.3587C27.109 22.2862 27.7172 21.678 27.7172 20.9277C28.4675 20.9277 29.0757 20.3195 29.0757 19.5692H29.0305C29.7805 19.5691 30.4341 18.961 30.4341 18.2106Z" fill="#D80027"/>
<path d="M17.3927 32.3391H32.6079V35.5995H17.3927V32.3391Z" fill="#D80027"/>
<path d="M28.2606 33.4259H34.7814V36.6863H28.2606V33.4259Z" fill="#D80027"/>
<path d="M15.2191 33.4259H21.7399V36.6863H15.2191V33.4259Z" fill="#D80027"/>
</g>
<defs>
<clipPath id="clip0_402_123">
<rect width="50" height="50" fill="white" transform="translate(0 0.818176)"/>
</clipPath>
</defs>
</svg>
