<svg width="50" height="51" viewBox="0 0 50 51" fill="none" xmlns="http://www.w3.org/2000/svg">
<g clip-path="url(#clip0_402_123)">
<path d="M0 25.8182C0 12.0111 11.193 0.818176 25 0.818176C38.807 0.818176 50 12.0111 50 25.8182C48.9131 25.8182 25 29.079 25 29.079L0 25.8182Z" fill="#D80027"/>
<path d="M50 25.8182C50 39.6252 38.807 50.8182 25 50.8182C11.193 50.8182 0 39.6252 0 25.8182" fill="#6DA544"/>
<path d="M24.9999 17.1226L26.8883 22.9349H33.0003L28.0558 26.5272L29.9443 32.3399L24.9999 28.7477L20.0555 32.3399L21.9443 26.5272L16.9996 22.9349H23.1114L24.9999 17.1226Z" fill="#FFDA44"/>
</g>
<defs>
<clipPath id="clip0_402_123">
<rect width="50" height="50" fill="white" transform="translate(0 0.818176)"/>
</clipPath>
</defs>
</svg>
