<svg width="50" height="51" viewBox="0 0 50 51" fill="none" xmlns="http://www.w3.org/2000/svg">
<g clip-path="url(#clip0_402_123)">
<path d="M25 50.8182C38.8071 50.8182 50 39.6253 50 25.8182C50 12.0111 38.8071 0.818176 25 0.818176C11.1929 0.818176 0 12.0111 0 25.8182C0 39.6253 11.1929 50.8182 25 50.8182Z" fill="#F0F0F0"/>
<path d="M40.2222 5.9844C31.2719 -0.902905 18.7281 -0.902905 9.77771 5.9843L25 21.2066L40.2222 5.9844Z" fill="#D80027"/>
<path d="M24.9998 30.4299L9.77771 45.652C18.7281 52.5393 31.2719 52.5393 40.2222 45.652L25 30.4297L24.9998 30.4299Z" fill="#D80027"/>
<path d="M20.3884 25.8182L5.16621 10.5959C-1.72109 19.5463 -1.72109 32.09 5.16621 41.0404L20.3884 25.8182Z" fill="#6DA544"/>
<path d="M29.6117 25.8182L44.8338 41.0404C51.7211 32.09 51.7211 19.5463 44.8338 10.5959L29.6117 25.8182Z" fill="#6DA544"/>
<path d="M25 36.6877C31.0031 36.6877 35.8696 31.8213 35.8696 25.8182C35.8696 19.8151 31.0031 14.9487 25 14.9487C18.9969 14.9487 14.1305 19.8151 14.1305 25.8182C14.1305 31.8213 18.9969 36.6877 25 36.6877Z" fill="#F0F0F0"/>
<path d="M25.0001 18.2095L25.9414 19.8399H27.8241L26.8827 21.4703L27.8241 23.1008H25.9414L25.0001 24.7312L24.0588 23.1008H22.1761L23.1175 21.4703L22.1761 19.8399H24.0588L25.0001 18.2095Z" fill="#D80027"/>
<path d="M20.2154 25.8182L21.1567 27.4486H23.0393L22.098 29.079L23.0393 30.7095H21.1567L20.2154 32.34L19.274 30.7095H17.3914L18.3327 29.079L17.3914 27.4486H19.274L20.2154 25.8182Z" fill="#D80027"/>
<path d="M29.7848 25.8182L30.7261 27.4486H32.6088L31.6675 29.079L32.6088 30.7095H30.7261L29.7848 32.34L28.8434 30.7095H26.9608L27.9021 29.079L26.9608 27.4486H28.8434L29.7848 25.8182Z" fill="#D80027"/>
</g>
<defs>
<clipPath id="clip0_402_123">
<rect width="50" height="50" fill="white" transform="translate(0 0.818176)"/>
</clipPath>
</defs>
</svg>
