<svg width="50" height="51" viewBox="0 0 50 51" fill="none" xmlns="http://www.w3.org/2000/svg">
<g clip-path="url(#clip0_402_123)">
<path d="M0 25.8182C0 30.1492 1.10186 34.2228 3.03975 37.7747L25 39.9486L46.9603 37.7747C48.8981 34.2228 50 30.1492 50 25.8182C50 21.4871 48.8981 17.4135 46.9603 13.8616L25 11.6877L3.03975 13.8616C1.10186 17.4135 0 21.4871 0 25.8182H0Z" fill="#D80027"/>
<path d="M3.03979 13.8616H46.9602C42.7202 6.09054 34.4761 0.818176 25 0.818176C15.524 0.818176 7.27993 6.09054 3.03979 13.8616V13.8616Z" fill="#0052B4"/>
<path d="M25 50.8182C34.4761 50.8182 42.7202 45.5458 46.9603 37.7747H3.03979C7.27993 45.5458 15.524 50.8182 25 50.8182Z" fill="#0052B4"/>
<path d="M33.6956 30.7095V27.4487H31.5218V23.1008L29.3479 20.9269L27.1739 23.1008V18.753L25 16.579L22.8261 18.753V23.1008L20.6522 20.9269L18.4782 23.1008V27.4487H16.3044V30.7095H14.1305V33.9703H35.8696V30.7095H33.6956Z" fill="#F0F0F0"/>
</g>
<defs>
<clipPath id="clip0_402_123">
<rect width="50" height="50" fill="white" transform="translate(0 0.818176)"/>
</clipPath>
</defs>
</svg>
