<svg width="50" height="51" viewBox="0 0 50 51" fill="none" xmlns="http://www.w3.org/2000/svg">
<g clip-path="url(#clip0_402_123)">
<path d="M25 50.8182C38.8071 50.8182 50 39.6253 50 25.8182C50 12.0111 38.8071 0.818176 25 0.818176C11.1929 0.818176 0 12.0111 0 25.8182C0 39.6253 11.1929 50.8182 25 50.8182Z" fill="#F0F0F0"/>
<path d="M25 50.8182C32.5772 50.8182 39.3666 47.4467 43.9512 42.1226H6.04871C10.6334 47.4467 17.4227 50.8182 25 50.8182Z" fill="#0052B4"/>
<path d="M50 25.8182C50 12.0111 38.807 0.818176 25 0.818176C11.193 0.818176 0 12.0111 0 25.8182C0 28.0747 0.300781 30.2605 0.86123 32.34H49.1389C49.6992 30.2605 50 28.0747 50 25.8182Z" fill="#0052B4"/>
<path d="M1.98706 35.6008C2.46899 36.7332 3.03237 37.8223 3.66938 38.8616H46.3307C46.9675 37.8222 47.5309 36.7331 48.013 35.6008H1.98706Z" fill="#D80027"/>
<path d="M17.8701 27.4487L18.2748 28.6942H19.5845L18.525 29.464L18.9297 30.7095L17.8701 29.9397L16.8106 30.7095L17.2154 29.464L16.1559 28.6942H17.4656L17.8701 27.4487Z" fill="#FFDA44"/>
<path d="M17.8701 43.753L18.2748 44.9986H19.5845L18.525 45.7683L18.9297 47.0138L17.8701 46.2441L16.8106 47.0138L17.2154 45.7683L16.1559 44.9986H17.4656L17.8701 43.753Z" fill="#FFDA44"/>
<path d="M10.2807 38.239L10.6854 39.4844H11.995L10.9355 40.2542L11.3402 41.4999L10.2807 40.73L9.22109 41.4999L9.62598 40.2542L8.56641 39.4844H9.87598L10.2807 38.239Z" fill="#FFDA44"/>
<path d="M13.1796 29.079L13.5843 30.3246H14.8938L13.8344 31.0944L14.2391 32.34L13.1796 31.5702L12.12 32.34L12.5249 31.0944L11.4652 30.3246H12.7749L13.1796 29.079Z" fill="#FFDA44"/>
<path d="M8.56641 34.2084L9.87578 34.2084L10.2806 32.9626L10.6854 34.2084L11.995 34.2083L10.9354 34.9781L11.3402 36.2237L10.2806 35.4539L9.22109 36.2234L9.62578 34.978L8.56641 34.2084Z" fill="#FFDA44"/>
<path d="M12.1201 45.1455L12.5248 43.9002L11.4651 43.1304H12.7748L13.1795 41.8848L13.5843 43.1303H14.8939L13.8343 43.9001L14.239 45.1458L13.1794 44.3758L12.1201 45.1455Z" fill="#FFDA44"/>
<path d="M25.4567 38.239L25.0521 39.4844H23.7424L24.8018 40.2542L24.3971 41.4999L25.4567 40.73L26.5163 41.4999L26.1115 40.2542L27.171 39.4844H25.8614L25.4567 38.239Z" fill="#FFDA44"/>
<path d="M22.5578 29.079L22.1532 30.3246H20.8435L21.9029 31.0944L21.4982 32.34L22.5578 31.5702L23.6173 32.34L23.2125 31.0944L24.2721 30.3246H22.9625L22.5578 29.079Z" fill="#FFDA44"/>
<path d="M27.171 34.2084L25.8616 34.2084L25.4568 32.9626L25.0521 34.2084L23.7424 34.2083L24.8019 34.9781L24.3971 36.2237L25.4568 35.4539L26.5163 36.2234L26.1116 34.978L27.171 34.2084Z" fill="#FFDA44"/>
<path d="M23.6173 45.1455L23.2127 43.9002L24.2723 43.1304H22.9626L22.5579 41.8848L22.1532 43.1303H20.8435L21.9031 43.9001L21.4984 45.1458L22.558 44.3758L23.6173 45.1455Z" fill="#FFDA44"/>
</g>
<defs>
<clipPath id="clip0_402_123">
<rect width="50" height="50" fill="white" transform="translate(0 0.818176)"/>
</clipPath>
</defs>
</svg>
