<svg width="50" height="51" viewBox="0 0 50 51" fill="none" xmlns="http://www.w3.org/2000/svg">
<g clip-path="url(#clip0_402_123)">
<path d="M25 50.8182C38.8071 50.8182 50 39.6253 50 25.8182C50 12.0111 38.8071 0.818176 25 0.818176C11.1929 0.818176 0 12.0111 0 25.8182C0 39.6253 11.1929 50.8182 25 50.8182Z" fill="#F0F0F0"/>
<path d="M46.9603 13.8616C43.7299 7.94083 38.1749 3.4712 31.5218 1.67804L30.4349 13.8616H46.9603Z" fill="#0052B4"/>
<path d="M3.03979 13.8616H19.5652L18.4783 1.67804C11.8252 3.4712 6.27036 7.94093 3.03979 13.8616V13.8616Z" fill="#0052B4"/>
<path d="M30.4348 25.8182V37.7747H46.9602C48.8982 34.2229 50 30.1492 50 25.8182H30.4348Z" fill="#6DA544"/>
<path d="M19.5652 25.8182H0C0 30.1492 1.10186 34.2229 3.03975 37.7747H19.5651V25.8182H19.5652Z" fill="#6DA544"/>
<path d="M3.03979 37.7747C6.27036 43.6955 11.8252 48.1651 18.4783 49.9583L19.5652 39.3031L3.03979 37.7747Z" fill="#FFDA44"/>
<path d="M31.5218 49.9583C38.1749 48.1651 43.7299 43.6955 46.9603 37.7747L30.4349 39.3029L31.5218 49.9583Z" fill="#FFDA44"/>
<path d="M30.4348 39.3029L46.9603 37.7747H30.4348V39.3029Z" fill="#FFDA44"/>
<path d="M19.5653 37.7747H3.03979L19.5653 39.3029V37.7747Z" fill="#FFDA44"/>
<path d="M25 0.818176C22.7435 0.818176 20.5578 1.11896 18.4783 1.67941V49.957C20.5578 50.5174 22.7435 50.8182 25 50.8182C27.2566 50.8182 29.4423 50.5174 31.5218 49.9569V1.67941C29.4423 1.11896 27.2566 0.818176 25 0.818176V0.818176Z" fill="#D80027"/>
<path d="M13.4471 6.25293L14.1215 8.32881H16.3044L14.5386 9.61182L15.2131 11.6877L13.4471 10.4048L11.6812 11.6877L12.3559 9.61182L10.5901 8.32881H12.7728L13.4471 6.25293Z" fill="#FFDA44"/>
</g>
<defs>
<clipPath id="clip0_402_123">
<rect width="50" height="50" fill="white" transform="translate(0 0.818176)"/>
</clipPath>
</defs>
</svg>
