<svg width="50" height="51" viewBox="0 0 50 51" fill="none" xmlns="http://www.w3.org/2000/svg">
<g clip-path="url(#clip0_402_123)">
<path d="M25 50.8182C38.8071 50.8182 50 39.6253 50 25.8182C50 12.0111 38.8071 0.818176 25 0.818176C11.1929 0.818176 0 12.0111 0 25.8182C0 39.6253 11.1929 50.8182 25 50.8182Z" fill="#F0F0F0"/>
<path d="M25 0.818176C18.0964 0.818176 11.8464 3.61642 7.32227 8.14044L25 25.8182V0.818176Z" fill="black"/>
<path d="M0 25.8182C0 32.7218 2.79824 38.9718 7.32227 43.4959L25 25.8182H0Z" fill="black"/>
<path d="M25 50.8182C31.9036 50.8182 38.1536 48.0199 42.6777 43.4959L25 25.8182V50.8182Z" fill="black"/>
<path d="M50 25.8182C50 18.9146 47.2018 12.6646 42.6777 8.14044L25 25.8182H50Z" fill="black"/>
<path d="M16.3044 18.2095L25 19.2967L33.6957 18.2095V12.9921L30.2174 14.7313L25 9.51379L19.7827 14.7313L16.3044 12.9921V18.2095Z" fill="#FFDA44"/>
<path d="M25 38.8616C20.2052 38.8616 16.3044 34.9607 16.3044 30.166V21.4708L19.5653 18.2097H30.4348L33.6957 21.4708V30.166C33.6957 34.9607 29.7949 38.8616 25 38.8616Z" fill="#D80027"/>
<path d="M25 35.6008C22.0032 35.6008 19.5652 33.1627 19.5652 30.166V21.4705H30.4347V30.1659C30.4347 33.1627 27.9967 35.6008 25 35.6008V35.6008Z" fill="#F0F0F0"/>
<path d="M16.3044 18.2095H19.5653V21.4703H16.3044V18.2095Z" fill="#FFDA44"/>
<path d="M30.4348 18.2095H33.6957V21.4703H30.4348V18.2095Z" fill="#FFDA44"/>
<path d="M30.4348 25.2747H33.6957V28.5356H30.4348V25.2747Z" fill="#FFDA44"/>
<path d="M16.3044 25.2747H19.5653V28.5356H16.3044V25.2747Z" fill="#FFDA44"/>
<path d="M25.0001 35.6008C24.4321 35.6008 23.8846 35.5129 23.3696 35.3506V38.7062C23.8981 38.8069 24.4427 38.8617 25.0001 38.8617C25.5575 38.8617 26.1021 38.8069 26.6306 38.7062V35.3506C26.1156 35.5128 25.5681 35.6008 25.0001 35.6008Z" fill="#FFDA44"/>
<path d="M19.638 31.0482L17.0356 33.6506C17.4868 34.6778 18.1306 35.6015 18.9218 36.376L21.2265 34.0713C20.404 33.2766 19.8311 32.2259 19.638 31.0482Z" fill="#FFDA44"/>
<path d="M32.9645 33.6508L30.3622 31.0485C30.169 32.226 29.5962 33.2767 28.7738 34.0716L31.0785 36.3763C31.8695 35.6018 32.5134 34.6781 32.9645 33.6508Z" fill="#FFDA44"/>
<path d="M23.9131 23.282V25.0936C23.9131 25.6938 24.3997 26.1805 25 26.1805C25.6003 26.1805 26.0869 25.6938 26.0869 25.0936V23.282H23.9131Z" fill="#0052B4"/>
<path d="M23.9131 30.5284V32.34C23.9131 32.9402 24.3997 33.4269 25 33.4269C25.6003 33.4269 26.0869 32.9402 26.0869 32.34V30.5284H23.9131Z" fill="#0052B4"/>
<path d="M27.1738 26.9051V28.7168C27.1738 29.317 27.6604 29.8037 28.2607 29.8037C28.861 29.8037 29.3477 29.317 29.3477 28.7168V26.9051H27.1738Z" fill="#0052B4"/>
<path d="M23.9131 26.9051V28.7168C23.9131 29.317 24.3997 29.8037 25 29.8037C25.6003 29.8037 26.0869 29.317 26.0869 28.7168V26.9051H23.9131Z" fill="#0052B4"/>
<path d="M20.6521 26.9051V28.7168C20.6521 29.317 21.1387 29.8037 21.739 29.8037C22.3393 29.8037 22.8259 29.317 22.8259 28.7168V26.9051H20.6521Z" fill="#0052B4"/>
</g>
<defs>
<clipPath id="clip0_402_123">
<rect width="50" height="50" fill="white" transform="translate(0 0.818176)"/>
</clipPath>
</defs>
</svg>
