<svg width="50" height="51" viewBox="0 0 50 51" fill="none" xmlns="http://www.w3.org/2000/svg">
<g clip-path="url(#clip0_402_123)">
<path d="M25 0.818176C21.942 0.818176 19.0126 1.36827 16.3044 2.37316L15.2174 25.8182L16.3043 49.2632C19.0126 50.2682 21.942 50.8182 25 50.8182C28.058 50.8182 30.9874 50.2682 33.6956 49.2632L34.7826 25.8182L33.6957 2.37316C30.9874 1.36827 28.058 0.818176 25 0.818176V0.818176Z" fill="#FFDA44"/>
<path d="M49.9999 25.8182C49.9999 15.0691 43.2156 5.90549 33.6956 2.37317V49.2633C43.2156 45.7309 49.9999 36.5673 49.9999 25.8182V25.8182Z" fill="#D80027"/>
<path d="M16.3044 49.2632V2.37317C6.78437 5.90549 0 15.0691 0 25.8182C0 36.5673 6.78437 45.7309 16.3044 49.2632Z" fill="#0052B4"/>
</g>
<defs>
<clipPath id="clip0_402_123">
<rect width="50" height="50" fill="white" transform="translate(0 0.818176)"/>
</clipPath>
</defs>
</svg>
