<svg width="50" height="51" viewBox="0 0 50 51" fill="none" xmlns="http://www.w3.org/2000/svg">
<g clip-path="url(#clip0_402_123)">
<path d="M25 50.8182C38.8071 50.8182 50 39.6253 50 25.8182C50 12.0111 38.8071 0.818176 25 0.818176C11.1929 0.818176 0 12.0111 0 25.8182C0 39.6253 11.1929 50.8182 25 50.8182Z" fill="#F0F0F0"/>
<path d="M50 25.8182C50 39.6252 38.807 50.8182 25 50.8182C11.193 50.8182 0 39.6252 0 25.8182C0 12.0111 25 25.8182 25 25.8182C25 25.8182 43.922 25.8182 50 25.8182Z" fill="#D80027"/>
<path d="M0 25.8182C0 12.0111 11.193 0.818176 25 0.818176V25.8182C25 25.8182 8.69561 25.8182 0 25.8182Z" fill="#0052B4"/>
<path d="M14.8817 9.51379L16.5006 14.496H21.7391L17.5011 17.5751L19.1198 22.5573L14.8817 19.4781L10.6436 22.5573L12.2624 17.5751L8.02429 14.496H13.2629L14.8817 9.51379Z" fill="#F0F0F0"/>
</g>
<defs>
<clipPath id="clip0_402_123">
<rect width="50" height="50" fill="white" transform="translate(0 0.818176)"/>
</clipPath>
</defs>
</svg>
