<svg width="50" height="51" viewBox="0 0 50 51" fill="none" xmlns="http://www.w3.org/2000/svg">
<g clip-path="url(#clip0_402_123)">
<path d="M25 50.8182C38.8071 50.8182 50 39.6253 50 25.8182C50 12.0111 38.8071 0.818176 25 0.818176C11.1929 0.818176 0 12.0111 0 25.8182C0 39.6253 11.1929 50.8182 25 50.8182Z" fill="#D80027"/>
<path d="M13.6816 16.033L15.8398 22.6736H22.8223L17.1777 26.785L19.3359 33.4256L13.6816 29.324L8.02734 33.4256L10.1953 26.785L4.54102 22.6736H11.5234L13.6816 16.033Z" fill="#FFDA44"/>
<path d="M29.6387 39.5389L27.9883 37.5076L25.5469 38.4549L26.9629 36.2576L25.3125 34.2166L27.8418 34.8904L29.2676 32.6932L29.4043 35.3104L31.9434 35.9842L29.4922 36.9217L29.6387 39.5389Z" fill="#FFDA44"/>
<path d="M32.9199 33.5818L33.7012 31.0818L31.5625 29.5682L34.1797 29.5291L34.9512 27.0291L35.8008 29.5096L38.418 29.4803L36.3184 31.0428L37.1582 33.5233L35.0195 32.0096L32.9199 33.5818Z" fill="#FFDA44"/>
<path d="M37.3438 19.1678L36.1914 21.5213L38.0664 23.3475L35.4785 22.9764L34.3262 25.3201L33.877 22.742L31.2793 22.3709L33.6035 21.1502L33.1543 18.5623L35.0293 20.3885L37.3438 19.1678Z" fill="#FFDA44"/>
<path d="M29.707 12.0389L29.5117 14.6463L31.9434 15.6326L29.3945 16.2576L29.209 18.8748L27.832 16.6483L25.2832 17.2733L26.9727 15.2713L25.5859 13.0545L28.0176 14.0408L29.707 12.0389Z" fill="#FFDA44"/>
</g>
<defs>
<clipPath id="clip0_402_123">
<rect width="50" height="50" fill="white" transform="translate(0 0.818176)"/>
</clipPath>
</defs>
</svg>
