<svg width="50" height="51" viewBox="0 0 50 51" fill="none" xmlns="http://www.w3.org/2000/svg">
<g clip-path="url(#clip0_402_123)">
<path d="M25 50.8182C38.8071 50.8182 50 39.6253 50 25.8182C50 12.0111 38.8071 0.818176 25 0.818176C11.1929 0.818176 0 12.0111 0 25.8182C0 39.6253 11.1929 50.8182 25 50.8182Z" fill="#6DA544"/>
<path d="M38.3773 36.6877L39.0633 38.1222L40.6125 37.7642L39.9188 39.195L41.1646 40.1829L39.6134 40.5325L39.6178 42.1226L38.3773 41.1278L37.1369 42.1226L37.1412 40.5325L35.5901 40.1829L36.8359 39.195L36.1421 37.7642L37.6913 38.1222L38.3773 36.6877Z" fill="#FFDA44"/>
<path d="M31.9953 21.4703L32.6815 22.9048L34.2307 22.5467L33.5368 23.9776L34.7826 24.9655L33.2316 25.3151L33.2359 26.9051L31.9953 25.9104L30.7549 26.9051L30.7591 25.3151L29.2081 24.9655L30.4539 23.9776L29.7601 22.5467L31.3094 22.9048L31.9953 21.4703Z" fill="#FFDA44"/>
<path d="M38.3773 12.7747L39.0634 14.2092L40.6126 13.851L39.9189 15.2818L41.1646 16.2698L39.6135 16.6193L39.6177 18.2095L38.3773 17.2147L37.1369 18.2095L37.1412 16.6193L35.5902 16.2698L36.8359 15.2818L36.1422 13.851L37.6913 14.2092L38.3773 12.7747Z" fill="#FFDA44"/>
<path d="M43.9519 19.2964L44.6379 20.7309L46.1872 20.3728L45.4934 21.8036L46.7392 22.7915L45.1881 23.1411L45.1924 24.7313L43.9519 23.7364L42.7114 24.7313L42.7156 23.1411L41.1647 22.7915L42.4105 21.8036L41.7166 20.3728L43.2658 20.7309L43.9519 19.2964Z" fill="#FFDA44"/>
<path d="M39.9657 26.9051L40.5054 28.5659H42.2516L40.8388 29.5923L41.3786 31.2529L39.9657 30.2267L38.5531 31.2529L39.0926 29.5923L37.6799 28.5659H39.4261L39.9657 26.9051Z" fill="#FFDA44"/>
<path d="M27.7174 32.8834C23.8154 32.8834 20.6521 29.7202 20.6521 25.8182C20.6521 21.9162 23.8153 18.753 27.7174 18.753C28.934 18.753 30.0788 19.0607 31.0782 19.6022C29.5104 18.0688 27.3663 17.1225 24.9998 17.1225C20.1975 17.1225 16.3043 21.0157 16.3043 25.8181C16.3043 30.6205 20.1975 34.5137 24.9998 34.5137C27.3662 34.5137 29.5104 33.5674 31.0781 32.034C30.0788 32.5757 28.934 32.8834 27.7174 32.8834V32.8834Z" fill="#FFDA44"/>
<path d="M15.7213 10.6008C14.9693 9.30159 13.5655 8.42688 11.9565 8.42688C10.3475 8.42688 8.94373 9.30159 8.19177 10.6008H15.7213Z" fill="#FFDA44"/>
<path d="M15.7357 10.6259L11.9565 14.4051L8.17732 10.6259C7.81609 11.2598 7.60876 11.9929 7.60876 12.7747C7.60876 15.176 9.55535 17.1226 11.9566 17.1226C14.3579 17.1226 16.3045 15.1761 16.3045 12.7747C16.3044 11.9929 16.0969 11.2598 15.7357 10.6259V10.6259Z" fill="#FFDA44"/>
<path d="M10.8695 13.3182V16.9856C11.2169 17.0749 11.5811 17.1225 11.9564 17.1225C12.3317 17.1225 12.696 17.0748 13.0433 16.9856V13.3182H10.8695Z" fill="#A2001D"/>
</g>
<defs>
<clipPath id="clip0_402_123">
<rect width="50" height="50" fill="white" transform="translate(0 0.818176)"/>
</clipPath>
</defs>
</svg>
