<svg width="50" height="51" viewBox="0 0 50 51" fill="none" xmlns="http://www.w3.org/2000/svg">
<g clip-path="url(#clip0_402_123)">
<path d="M25 50.8182C38.8071 50.8182 50 39.6253 50 25.8182C50 12.0111 38.8071 0.818176 25 0.818176C11.1929 0.818176 0 12.0111 0 25.8182C0 39.6253 11.1929 50.8182 25 50.8182Z" fill="#FCFCFC"/>
<path d="M33.7047 21.9933C33.7047 16.7058 29.4184 12.4196 24.131 12.4196C20.2292 12.4196 16.875 14.7545 15.3836 18.1026L14.2029 22.3833L15.2898 23.4702L13.1158 27.8181L15.2898 28.905L14.2029 29.9919V31.0788L15.2898 32.1657V34.3397L16.3767 35.4266L19.6375 34.3397C19.6375 34.3397 19.6375 35.4266 20.7244 36.5136C21.8114 37.6005 22.8985 39.7745 22.8985 39.7745C22.8985 39.7745 26.1593 40.8615 28.3332 37.6006C30.5072 34.3398 32.6811 33.2528 32.6811 33.2528L30.5858 29.0619C32.502 27.3116 33.7047 24.7934 33.7047 21.9933V21.9933Z" fill="black"/>
<path d="M34.4849 25.6543C38.9018 24.9093 39.6375 16.2603 39.6375 16.2603H33.5506C36.7028 23.8689 33.4035 24.3808 33.4035 24.3808C32.9565 24.0482 16.9606 16.4705 16.4536 16.2778C16.3314 16.4413 15.8817 16.8707 15.335 18.2076C14.7882 19.5445 14.6541 20.7473 14.6541 20.7473C14.9101 20.9142 31.8977 26.8459 32.3467 26.8953C33.2378 27.4779 34.3343 29.2202 33.7215 34.386L39.5803 32.7349C39.5805 32.7349 37.5921 27.4455 34.4849 25.6543V25.6543Z" fill="#ACABB1"/>
</g>
<defs>
<clipPath id="clip0_402_123">
<rect width="50" height="50" fill="white" transform="translate(0 0.818176)"/>
</clipPath>
</defs>
</svg>
