<svg width="50" height="51" viewBox="0 0 50 51" fill="none" xmlns="http://www.w3.org/2000/svg">
<g clip-path="url(#clip0_402_123)">
<path d="M9.76563e-05 5.16602H0V46.4703H9.76563e-05V25.8183V5.16602Z" fill="#FF9811"/>
<path d="M24.9999 50.8181C38.807 50.8181 49.9998 39.6253 49.9998 25.8182C49.9998 12.0111 38.807 0.818298 24.9999 0.818298C11.1928 0.818298 0 12.0111 0 25.8182C0 39.6253 11.1928 50.8181 24.9999 50.8181Z" fill="#F0F0F0"/>
<path d="M25.0001 0.818359C16.8212 0.818359 9.56006 4.74639 4.99902 10.8184H45.0011C40.4401 4.74629 33.1789 0.818359 25.0001 0.818359V0.818359Z" fill="#0052B4"/>
<path d="M25.0001 50.8181C33.179 50.8181 40.4401 46.89 45.0012 40.8181H4.99902C9.55996 46.8901 16.8212 50.8181 25.0001 50.8181Z" fill="#0052B4"/>
<path d="M0.00012207 25.8182C0.00012207 27.5306 0.172778 29.2027 0.500806 30.8182H49.4995C49.8276 29.2027 50.0001 27.5306 50.0001 25.8182C50.0001 24.1058 49.8275 22.4338 49.4995 20.8182H0.500806C0.172778 22.4338 0.00012207 24.1058 0.00012207 25.8182V25.8182Z" fill="#0052B4"/>
<path d="M7.32236 8.14062C-2.44062 17.9036 -2.44062 33.7328 7.32236 43.496C11.3568 39.4615 15.2369 35.5814 25 25.8184L7.32236 8.14062Z" fill="#D80027"/>
<path d="M10.1183 19.2966L11.7369 24.2785H16.9757L12.7377 27.3578L14.3563 32.3398L10.1183 29.2607L5.88013 32.3398L7.49907 27.3578L3.26099 24.2785H8.49946L10.1183 19.2966Z" fill="#F0F0F0"/>
</g>
<defs>
<clipPath id="clip0_402_123">
<rect width="50" height="50" fill="white" transform="translate(0 0.818176)"/>
</clipPath>
</defs>
</svg>
