<svg width="50" height="51" viewBox="0 0 50 51" fill="none" xmlns="http://www.w3.org/2000/svg">
<g clip-path="url(#clip0_402_123)">
<path d="M25 50.8182C38.8071 50.8182 50 39.6253 50 25.8182C50 12.0111 38.8071 0.818176 25 0.818176C11.1929 0.818176 0 12.0111 0 25.8182C0 39.6253 11.1929 50.8182 25 50.8182Z" fill="#FFDA44"/>
<path d="M25 50.8182C33.2031 50.8182 40.4833 46.8672 45.0419 40.7646H4.95813C9.51672 46.8672 16.7969 50.8182 25 50.8182Z" fill="#0052B4"/>
<path d="M50 25.8182C50 12.0111 38.807 0.818176 25 0.818176C11.193 0.818176 0 12.0111 0 25.8182C0 28.7745 0.514551 31.6104 1.45664 34.2429H48.5433C49.4854 31.6104 50 28.7745 50 25.8182V25.8182Z" fill="#0052B4"/>
<path d="M17.1116 16.8516L18.4605 21.0031H22.8261L19.2944 23.5693L20.6433 27.7211L17.1116 25.1551L13.5798 27.7211L14.929 23.5693L11.3972 21.0031H15.7626L17.1116 16.8516Z" fill="#F0F0F0"/>
<path d="M9.61467 12.5037L10.424 14.9947H13.0435L10.9244 16.5344L11.7338 19.0255L9.61467 17.4859L7.49563 19.0255L8.3051 16.5344L6.18616 14.9947H8.80549L9.61467 12.5037Z" fill="#F0F0F0"/>
</g>
<defs>
<clipPath id="clip0_402_123">
<rect width="50" height="50" fill="white" transform="translate(0 0.818176)"/>
</clipPath>
</defs>
</svg>
