<svg width="50" height="51" viewBox="0 0 50 51" fill="none" xmlns="http://www.w3.org/2000/svg">
<g clip-path="url(#clip0_402_123)">
<path d="M25 50.8182C38.8071 50.8182 50 39.6253 50 25.8182C50 12.0111 38.8071 0.818176 25 0.818176C11.1929 0.818176 0 12.0111 0 25.8182C0 39.6253 11.1929 50.8182 25 50.8182Z" fill="#FCFCFC"/>
<path d="M39.1305 22.5573C38.3697 22.5573 37.4276 22.5573 35.8697 22.5573C35.8697 28.5604 31.0031 33.4268 25.0001 33.4268C18.9969 33.4268 14.1306 28.5604 14.1306 22.5573C13.0798 22.5573 11.9203 22.5573 10.8698 22.5573C10.8698 29.0236 15.2131 34.4755 21.1418 36.1545C20.4918 37.3892 20.5908 38.9438 21.5194 40.1025C22.7389 39.1251 24.0015 38.1133 25.0726 37.2551C26.1437 38.1134 27.4064 39.1252 28.6258 40.1025C29.5635 38.9323 29.6558 37.358 28.9842 36.1173C34.848 34.3971 39.1305 28.9776 39.1305 22.5573V22.5573Z" fill="#6DA544"/>
<path d="M16.3044 21.4703C16.3044 21.4703 16.3044 26.9051 21.7392 26.9051L22.8261 27.992H25C25 27.992 26.087 24.7312 28.2609 24.7312C28.2609 24.7312 28.2609 22.5572 30.4348 22.5572C32.6087 22.5572 33.6957 22.5572 33.6957 22.5572C33.6957 22.5572 32.6087 18.2094 38.0435 14.9485L35.8696 13.8616C35.8696 13.8616 28.2609 19.2964 22.8261 18.2095V20.3834H20.6522L19.5653 19.2965L16.3044 21.4703Z" fill="#FFDA44"/>
</g>
<defs>
<clipPath id="clip0_402_123">
<rect width="50" height="50" fill="white" transform="translate(0 0.818176)"/>
</clipPath>
</defs>
</svg>
