<svg width="50" height="51" viewBox="0 0 50 51" fill="none" xmlns="http://www.w3.org/2000/svg">
<g clip-path="url(#clip0_402_123)">
<path d="M25 50.8182C38.8071 50.8182 50 39.6253 50 25.8182C50 12.0111 38.8071 0.818176 25 0.818176C11.1929 0.818176 0 12.0111 0 25.8182C0 39.6253 11.1929 50.8182 25 50.8182Z" fill="#F0F0F0"/>
<path d="M22.8261 25.8182C22.8261 25.8182 7.33691 43.4993 7.32227 43.4958C11.8463 48.0199 18.0964 50.8182 25 50.8182C38.807 50.8182 50 39.6252 50 25.8182H22.8261Z" fill="#D80027"/>
<path d="M7.32231 8.14044C-2.44077 17.9035 -2.44077 33.7327 7.32231 43.4959C11.3568 39.4614 15.237 35.5813 25 25.8182L7.32231 8.14044Z" fill="#0052B4"/>
</g>
<defs>
<clipPath id="clip0_402_123">
<rect width="50" height="50" fill="white" transform="translate(0 0.818176)"/>
</clipPath>
</defs>
</svg>
