<svg width="50" height="51" viewBox="0 0 50 51" fill="none" xmlns="http://www.w3.org/2000/svg">
<g clip-path="url(#clip0_402_123)">
<path d="M47.224 14.3549C46.0688 12.1167 44.5546 10.0159 42.6785 8.13975C40.8022 6.26348 38.7013 4.74932 36.4632 3.59424L18.851 19.669L2.77612 37.2812C3.9313 39.5194 5.44546 41.6203 7.32163 43.4965C9.1978 45.3727 11.2987 46.8868 13.5368 48.042L31.149 31.9671L47.224 14.3549Z" fill="#FFDA44"/>
<path d="M7.3217 43.4966C8.37043 44.5453 9.48948 45.4807 10.6632 46.3042L45.4859 11.4814C44.6625 10.3077 43.7272 9.18861 42.6784 8.13988C41.6296 7.09115 40.5107 6.1559 39.3369 5.33246L4.51428 40.1551C5.33762 41.3286 6.27288 42.4479 7.3217 43.4966V43.4966Z" fill="#D80027"/>
<path d="M7.32157 8.13971C-0.565834 16.0271 -2.07999 27.8726 2.77606 37.2813L36.4632 3.5943C27.0544 -1.26165 15.2089 0.252702 7.32157 8.13971V8.13971Z" fill="#338AF3"/>
<path d="M42.6784 43.4966C50.5657 35.6093 52.0797 23.7638 47.224 14.3551L13.5369 48.0421C22.9456 52.8981 34.7912 51.384 42.6784 43.4966V43.4966Z" fill="#338AF3"/>
<path d="M13.3229 8.42609L14.6719 12.5781H19.0375L15.5057 15.1442L16.8547 19.2961L13.3229 16.73L9.79085 19.2961L11.1401 15.1442L7.60803 12.5781H11.9737L13.3229 8.42609Z" fill="#FFDA44"/>
</g>
<defs>
<clipPath id="clip0_402_123">
<rect width="50" height="50" fill="white" transform="translate(0 0.818176)"/>
</clipPath>
</defs>
</svg>
