<svg width="50" height="51" viewBox="0 0 50 51" fill="none" xmlns="http://www.w3.org/2000/svg">
<g clip-path="url(#clip0_402_123)">
<path d="M22.8261 27.9921C22.8261 27.9921 7.33691 8.13702 7.32227 8.14054C11.8463 3.61642 18.0964 0.818176 25 0.818176C38.807 0.818176 50 12.0111 50 25.8182L22.8261 27.9921Z" fill="#338AF3"/>
<path d="M22.8261 25.8182C22.8261 25.8182 7.33691 43.4993 7.32227 43.4958C11.8463 48.0199 18.0964 50.8182 25 50.8182C38.807 50.8182 50 39.6252 50 25.8182H22.8261Z" fill="#6DA544"/>
<path d="M7.32231 8.14044C-2.44077 17.9035 -2.44077 33.7327 7.32231 43.4959C11.3568 39.4614 15.237 35.5813 25 25.8182L7.32231 8.14044Z" fill="#F0F0F0"/>
<path d="M10.1182 19.2964L11.7368 24.2784H16.9757L12.7376 27.3577L14.3562 32.3399L10.1182 29.2607L5.88 32.3399L7.49895 27.3577L3.26086 24.2784H8.49934L10.1182 19.2964Z" fill="#D80027"/>
</g>
<defs>
<clipPath id="clip0_402_123">
<rect width="50" height="50" fill="white" transform="translate(0 0.818176)"/>
</clipPath>
</defs>
</svg>
