<svg width="50" height="51" viewBox="0 0 50 51" fill="none" xmlns="http://www.w3.org/2000/svg">
<g clip-path="url(#clip0_402_123)">
<path d="M25 50.8182C38.8071 50.8182 50 39.6253 50 25.8182C50 12.0111 38.8071 0.818176 25 0.818176C11.1929 0.818176 0 12.0111 0 25.8182C0 39.6253 11.1929 50.8182 25 50.8182Z" fill="#F0F0F0"/>
<path d="M29.8912 50.3384C39.7743 48.3778 47.5596 40.5925 49.5201 30.7095H29.8912V50.3384Z" fill="#496E2D"/>
<path d="M0.479736 30.7095C2.44019 40.5925 10.2255 48.3778 20.1086 50.3384V30.7095H0.479736Z" fill="#496E2D"/>
<path d="M49.5201 20.9269C47.5596 11.0439 39.7743 3.25852 29.8912 1.29797V20.9269H49.5201Z" fill="#496E2D"/>
<path d="M20.1086 1.29797C10.2255 3.25852 2.44019 11.0439 0.479736 20.9269H20.1086V1.29797Z" fill="#496E2D"/>
<path d="M23.3695 30.7095H20.1086V50.3384C21.1728 50.5494 22.2614 50.6924 23.3695 50.7638V30.7095Z" fill="#FFDA44"/>
<path d="M23.3695 20.9269V0.872559C22.2614 0.943848 21.1727 1.08691 20.1086 1.29795V20.9269H23.3695Z" fill="#FFDA44"/>
<path d="M26.6304 0.872571C26.0912 0.837708 25.5479 0.818176 25 0.818176C24.452 0.818176 23.9088 0.837708 23.3695 0.872571V20.927H26.6303V0.872571H26.6304Z" fill="black"/>
<path d="M23.3695 50.7638C23.9088 50.7986 24.452 50.8182 25 50.8182C25.5479 50.8182 26.0912 50.7986 26.6304 50.7638V30.7095H23.3696V50.7638H23.3695Z" fill="black"/>
<path d="M20.1087 24.1877V20.9269H0.479834C0.268701 21.9911 0.125732 23.0796 0.0544434 24.1877H20.1087Z" fill="#FFDA44"/>
<path d="M29.8914 24.1877H49.9458C49.8745 23.0796 49.7314 21.9911 49.5204 20.9269H29.8915V24.1877H29.8914Z" fill="#FFDA44"/>
<path d="M29.8914 27.4486H49.9458C49.9805 26.9095 50 26.3661 50 25.8182C50 25.2702 49.9805 24.7268 49.9457 24.1877H29.8914V27.4486Z" fill="black"/>
<path d="M0.0543945 24.1877C0.0196289 24.7268 0 25.2702 0 25.8182C0 26.3661 0.0196289 26.9095 0.0543945 27.4486H20.1088V24.1878H0.0543945V24.1877Z" fill="black"/>
<path d="M25 37.7747C31.6034 37.7747 36.9565 32.4216 36.9565 25.8182C36.9565 19.2148 31.6034 13.8616 25 13.8616C18.3966 13.8616 13.0435 19.2148 13.0435 25.8182C13.0435 32.4216 18.3966 37.7747 25 37.7747Z" fill="#D80027"/>
<path d="M27.7239 27.1522C26.8346 25.3736 25.6786 23.5708 25.6786 23.5708C25.6786 23.5708 25.7073 22.75 25.7073 22.261C25.7073 21.5243 25.1101 20.927 24.3734 20.927C23.6754 20.927 23.1035 21.4632 23.0452 22.1459C22.4964 22.1818 22.0621 22.6371 22.0621 23.1949C22.0621 23.6004 22.2919 23.9519 22.6282 24.1276C22.7954 23.7366 23.1228 23.4313 23.5277 23.2921C23.5937 23.3461 23.6646 23.3944 23.7403 23.4353L23.9112 23.5171C23.9112 23.5171 23.2775 25.3034 23.2775 26.2629C23.2775 28.9606 25.0562 29.7925 25.0562 29.7925V29.8204L24.1668 30.7096H25.9454V28.9309L26.8348 29.8203C26.8426 29.8036 28.5194 28.7431 27.7239 27.1522V27.1522Z" fill="#496E2D"/>
<path d="M25 16.0356L25.4047 17.2811H26.7143L25.6548 18.0509L26.0596 19.2964L25 18.5267L23.9405 19.2964L24.3452 18.0509L23.2858 17.2811H24.5953L25 16.0356Z" fill="#496E2D"/>
<path d="M19.25 17.904L20.3094 18.6738L21.3689 17.9039L20.9642 19.1496L22.0238 19.9192L20.7141 19.9193L20.3094 21.1648L19.9047 19.9193L18.5951 19.9192L19.6546 19.1494L19.25 17.904Z" fill="#496E2D"/>
<path d="M15.6962 22.7953H17.0056L17.4104 21.5497L17.8151 22.7953L19.1248 22.7952L18.0653 23.5651L18.4701 24.8106L17.4104 24.0408L16.351 24.8105L16.7555 23.565L15.6962 22.7953Z" fill="#496E2D"/>
<path d="M15.6962 28.8412L16.7555 28.0715L16.3509 26.8259L17.4104 27.5958L18.47 26.8259L18.0653 28.0714L19.1249 28.8413L17.8151 28.8414L17.4104 30.0868L17.0056 28.8412H15.6962Z" fill="#496E2D"/>
<path d="M19.25 33.7325L19.6545 32.4872L18.595 31.7173H19.9046L20.3094 30.4717L20.7141 31.7172H22.0238L20.9642 32.4872L21.3689 33.7326L20.3093 32.9628L19.25 33.7325Z" fill="#496E2D"/>
<path d="M25 35.6008L24.5953 34.3555H23.2858L24.3452 33.5856L23.9405 32.3401L25 33.1097L26.0595 32.34L25.6548 33.5856L26.7143 34.3554L25.4047 34.3555L25 35.6008Z" fill="#496E2D"/>
<path d="M30.75 33.7325L29.6906 32.9628L28.6312 33.7327L29.0358 32.4872L27.9762 31.7173L29.2859 31.7172L29.6905 30.4717L30.0953 31.7173H31.4049L30.3454 32.4872L30.75 33.7325Z" fill="#496E2D"/>
<path d="M34.3038 28.8411H32.9944L32.5896 30.0867L32.1849 28.8413H30.8751L31.9347 28.0714L31.5299 26.826L32.5896 27.5957L33.649 26.826L33.2445 28.0715L34.3038 28.8411Z" fill="#496E2D"/>
<path d="M34.3038 22.7953L33.2445 23.565L33.649 24.8105L32.5896 24.0408L31.53 24.8107L31.9347 23.5651L30.8751 22.7954L32.1849 22.7952L32.5895 21.5499L32.9944 22.7953H34.3038Z" fill="#496E2D"/>
<path d="M30.75 17.9039L30.3454 19.1493L31.4049 19.9192H30.0953L29.6906 21.1648L29.2859 19.9193L27.9762 19.9194L29.0358 19.1493L28.6311 17.904L29.6906 18.6737L30.75 17.9039Z" fill="#496E2D"/>
</g>
<defs>
<clipPath id="clip0_402_123">
<rect width="50" height="50" fill="white" transform="translate(0 0.818176)"/>
</clipPath>
</defs>
</svg>
