<svg width="50" height="51" viewBox="0 0 50 51" fill="none" xmlns="http://www.w3.org/2000/svg">
<g clip-path="url(#clip0_402_123)">
<path d="M25 50.8182C38.8071 50.8182 50 39.6253 50 25.8182C50 12.0111 38.8071 0.818176 25 0.818176C11.1929 0.818176 0 12.0111 0 25.8182C0 39.6253 11.1929 50.8182 25 50.8182Z" fill="#F0F0F0"/>
<path d="M0.861206 32.34C3.1696 40.9047 9.91345 47.6487 18.4783 49.9571V32.34H0.861206Z" fill="#D80027"/>
<path d="M18.4782 1.67938C9.91345 3.98768 3.16951 10.7316 0.861206 19.2964H18.4783V1.67938H18.4782Z" fill="#0052B4"/>
<path d="M49.1387 19.2964C46.8304 10.7316 40.0865 3.98768 31.5217 1.67938V19.2965H49.1387V19.2964Z" fill="#D80027"/>
<path d="M31.5217 49.9569C40.0865 47.6485 46.8304 40.9047 49.1388 32.3398H31.5217V49.9569Z" fill="#0052B4"/>
<path d="M31.5218 25.8182C31.5218 29.4201 28.602 32.3399 25 32.3399C21.3982 32.3399 18.4783 29.4201 18.4783 25.8182C18.4783 22.2162 25 19.2964 25 19.2964C25 19.2964 31.5218 22.2162 31.5218 25.8182Z" fill="#496E2D"/>
<path d="M18.4783 25.8182C18.4783 22.2162 21.3982 19.2964 25 19.2964C28.602 19.2964 31.5218 22.2162 31.5218 25.8182" fill="#0052B4"/>
<path d="M21.3315 22.5573V26.6334C21.3315 28.6595 22.9739 30.3018 25 30.3018C27.0261 30.3018 28.6685 28.6595 28.6685 26.6334V22.5573H21.3315Z" fill="#D80027"/>
</g>
<defs>
<clipPath id="clip0_402_123">
<rect width="50" height="50" fill="white" transform="translate(0 0.818176)"/>
</clipPath>
</defs>
</svg>
