<svg width="50" height="51" viewBox="0 0 50 51" fill="none" xmlns="http://www.w3.org/2000/svg">
<g clip-path="url(#clip0_402_123)">
<path d="M25 50.8182C38.8071 50.8182 50 39.6253 50 25.8182C50 12.0111 38.8071 0.818176 25 0.818176C11.1929 0.818176 0 12.0111 0 25.8182C0 39.6253 11.1929 50.8182 25 50.8182Z" fill="#FFDA44"/>
<path d="M25 0.818176C18.8792 0.818176 13.2731 3.01906 8.92725 6.67111L35.8695 25.8182L8.92725 44.9652C13.2731 48.6173 18.8792 50.8182 25 50.8182C38.807 50.8182 50 39.6252 50 25.8182C50 12.0111 38.807 0.818176 25 0.818176Z" fill="#D80027"/>
<path d="M7.32231 8.14044C-2.44077 17.9035 -2.44077 33.7327 7.32231 43.4959C11.3568 39.4614 15.237 35.5813 25 25.8182L7.32231 8.14044Z" fill="black"/>
<path d="M6.93154 20.0911L10.7362 23.6919L15.3366 21.1857L13.0881 25.9171L16.8929 29.518L11.6981 28.8414L9.44932 33.5728L8.4877 28.4232L3.29297 27.7464L7.89316 25.2404L6.93154 20.0911Z" fill="#F0F0F0"/>
</g>
<defs>
<clipPath id="clip0_402_123">
<rect width="50" height="50" fill="white" transform="translate(0 0.818176)"/>
</clipPath>
</defs>
</svg>
