<svg width="50" height="51" viewBox="0 0 50 51" fill="none" xmlns="http://www.w3.org/2000/svg">
<g clip-path="url(#clip0_402_123)">
<path d="M25 50.8182C38.8071 50.8182 50 39.6253 50 25.8182C50 12.0111 38.8071 0.818176 25 0.818176C11.1929 0.818176 0 12.0111 0 25.8182C0 39.6253 11.1929 50.8182 25 50.8182Z" fill="#F0F0F0"/>
<path d="M25 0.818176C14.2508 0.818176 5.08726 7.60255 1.55493 17.1226H48.4451C44.9126 7.60255 35.7491 0.818176 25 0.818176V0.818176Z" fill="#D80027"/>
<path d="M25 50.8182C35.7491 50.8182 44.9126 44.0338 48.445 34.5138H1.55493C5.08726 44.0338 14.2508 50.8182 25 50.8182Z" fill="black"/>
<path d="M33.6956 23.1008H27.1738C27.1738 21.9002 26.2005 20.9269 24.9999 20.9269C23.7993 20.9269 22.826 21.9002 22.826 23.1008H16.3042C16.3042 24.3015 17.35 25.2747 18.5506 25.2747H18.4781C18.4781 26.4754 19.4514 27.4487 20.6521 27.4487C20.6521 28.6493 21.6253 29.6226 22.826 29.6226H27.1738C28.3745 29.6226 29.3478 28.6493 29.3478 27.4487C30.5484 27.4487 31.5217 26.4754 31.5217 25.2747H31.4493C32.6499 25.2747 33.6956 24.3015 33.6956 23.1008V23.1008Z" fill="#FF9811"/>
</g>
<defs>
<clipPath id="clip0_402_123">
<rect width="50" height="50" fill="white" transform="translate(0 0.818176)"/>
</clipPath>
</defs>
</svg>
