<svg width="50" height="51" viewBox="0 0 50 51" fill="none" xmlns="http://www.w3.org/2000/svg">
<g clip-path="url(#clip0_402_123)">
<path d="M25 50.8182C38.8071 50.8182 50 39.6253 50 25.8182C50 12.0111 38.8071 0.818176 25 0.818176C11.1929 0.818176 0 12.0111 0 25.8182C0 39.6253 11.1929 50.8182 25 50.8182Z" fill="#F0F0F0"/>
<path d="M15.2174 17.1226H48.4449C44.9127 7.60255 35.749 0.818176 25 0.818176C18.0963 0.818176 11.8469 3.61691 7.32312 8.14132L15.2174 17.1226Z" fill="#6DA544"/>
<path d="M15.2174 34.5138H48.4449C44.9127 44.0338 35.749 50.8182 25 50.8182C18.0963 50.8182 11.8469 48.0195 7.32312 43.495L15.2174 34.5138Z" fill="#D80027"/>
<path d="M7.32231 8.14044C-2.44077 17.9035 -2.44077 33.7327 7.32231 43.4959C11.3568 39.4614 15.237 35.5813 25 25.8182L7.32231 8.14044Z" fill="#0052B4"/>
<path d="M29.3479 21.4703V26.9051C29.3479 30.2332 33.6958 31.2531 33.6958 31.2531C33.6958 31.2531 38.0436 30.2332 38.0436 26.9051V21.4703H29.3479Z" fill="#DEDDE0"/>
<path d="M32.6086 25.9269H34.7826V29.079H32.6086V25.9269Z" fill="#786145"/>
<path d="M35.8696 24.7312C35.8696 23.5306 34.8963 22.5573 33.6957 22.5573C32.495 22.5573 31.5217 23.5306 31.5217 24.7312C30.9214 24.7312 30.4348 25.2179 30.4348 25.8182C30.4348 26.4184 30.9214 26.9051 31.5217 26.9051H35.8696C36.4699 26.9051 36.9565 26.4184 36.9565 25.8182C36.9565 25.2179 36.47 24.7312 35.8696 24.7312V24.7312Z" fill="#6DA544"/>
</g>
<defs>
<clipPath id="clip0_402_123">
<rect width="50" height="50" fill="white" transform="translate(0 0.818176)"/>
</clipPath>
</defs>
</svg>
