<svg width="50" height="51" viewBox="0 0 50 51" fill="none" xmlns="http://www.w3.org/2000/svg">
<g clip-path="url(#clip0_402_123)">
<path d="M22.8261 23.6442C22.8261 23.6442 7.33691 43.4994 7.32227 43.4958C11.8463 48.0199 18.0964 50.8182 25 50.8182C38.807 50.8182 50 39.6252 50 25.8182L22.8261 23.6442Z" fill="#338AF3"/>
<path d="M22.8261 25.8182C22.8261 25.8182 7.33691 8.13702 7.32227 8.14054C11.8463 3.61642 18.0964 0.818176 25 0.818176C38.807 0.818176 50 12.0111 50 25.8182H22.8261Z" fill="#6DA544"/>
<path d="M7.32231 8.14044C-2.44077 17.9035 -2.44077 33.7327 7.32231 43.4959C7.32163 43.4999 50 25.8182 50 25.8182L7.32231 8.14044Z" fill="#D80027"/>
<path d="M13.0435 15.4921C8.24868 15.4921 4.3479 19.393 4.3479 24.1877V27.4486C4.3479 32.2434 8.24878 36.1442 13.0435 36.1442C17.8382 36.1442 21.7391 32.2433 21.7391 27.4486V24.1877C21.7392 19.393 17.8383 15.4921 13.0435 15.4921ZM18.4783 27.4487C18.4783 29.8776 16.8765 31.939 14.6739 32.6332V29.0791L16.9809 26.7721L14.6751 24.4663L14.6739 23.6457V22.5575H11.4131V25.8182L9.10767 28.1236L11.4131 30.4289V32.6333C9.2105 31.9391 7.60874 29.8777 7.60874 27.4488V24.1879C7.60874 21.1911 10.0468 18.7532 13.0435 18.7532C16.0402 18.7532 18.4783 21.1912 18.4783 24.1879V27.4487Z" fill="#FFDA44"/>
</g>
<defs>
<clipPath id="clip0_402_123">
<rect width="50" height="50" fill="white" transform="translate(0 0.818176)"/>
</clipPath>
</defs>
</svg>
