<svg width="50" height="51" viewBox="0 0 50 51" fill="none" xmlns="http://www.w3.org/2000/svg">
<g clip-path="url(#clip0_402_123)">
<path d="M0 25.8182C0 28.8764 0.550098 31.8057 1.55508 34.5141L25 36.6877L48.4449 34.514C49.45 31.8057 50 28.8763 50 25.8182C50 22.8021 49.4657 19.9108 48.4869 17.2337L25 14.9487L1.51309 17.2338C0.534277 19.9108 0 22.8021 0 25.8182H0Z" fill="#FFDA44"/>
<path d="M25 50.8182C35.7491 50.8182 44.9126 44.0338 48.445 34.5138H1.55493C5.08726 44.0338 14.2508 50.8182 25 50.8182Z" fill="#D80027"/>
<path d="M25 0.818176C14.2508 0.818176 5.08726 7.60255 1.55493 17.1226H48.4451C44.9126 7.60255 35.7491 0.818176 25 0.818176V0.818176Z" fill="#6DA544"/>
<path d="M25 37.7747C31.6034 37.7747 36.9565 32.4216 36.9565 25.8182C36.9565 19.2148 31.6034 13.8616 25 13.8616C18.3966 13.8616 13.0435 19.2148 13.0435 25.8182C13.0435 32.4216 18.3966 37.7747 25 37.7747Z" fill="#0052B4"/>
<path d="M24.9975 16.5595L27.1559 23.2023H34.1517L28.4898 27.3079L30.6652 33.9704L24.9975 29.8453L19.3385 33.9627L21.5051 27.3079L15.8484 23.2023H22.8391L24.9975 16.5595Z" fill="#FFDA44"/>
<path d="M33.6059 27.4715L26.7586 25.2465L30.9904 19.4223L29.2318 18.1443L24.9998 23.969L20.7683 18.1444L19.0095 19.4222L23.2411 25.2469L16.3942 27.4714L17.0658 29.5391L23.9131 27.3144V34.5138H26.0869V27.3143L32.9339 29.5391L33.6059 27.4715Z" fill="#FFDA44"/>
</g>
<defs>
<clipPath id="clip0_402_123">
<rect width="50" height="50" fill="white" transform="translate(0 0.818176)"/>
</clipPath>
</defs>
</svg>
