<svg width="50" height="51" viewBox="0 0 50 51" fill="none" xmlns="http://www.w3.org/2000/svg">
<g clip-path="url(#clip0_402_123)">
<path d="M25 50.8182C38.8071 50.8182 50 39.6253 50 25.8182C50 12.0111 38.8071 0.818176 25 0.818176C11.1929 0.818176 0 12.0111 0 25.8182C0 39.6253 11.1929 50.8182 25 50.8182Z" fill="#0052B4"/>
<path d="M25.0001 10.6008L25.8096 13.0919H28.4287L26.3097 14.6314L27.1192 17.1225L25.0001 15.5829L22.881 17.1225L23.6905 14.6314L21.5714 13.0919H24.1906L25.0001 10.6008Z" fill="#FFDA44"/>
<path d="M14.2397 15.0578L16.5737 16.2469L18.4257 14.3949L18.0159 16.9818L20.3498 18.171L17.7627 18.5807L17.353 21.1678L16.1638 18.834L13.5769 19.2438L15.429 17.3918L14.2397 15.0578Z" fill="#FFDA44"/>
<path d="M9.78271 25.8182L12.2738 25.0087V22.3895L13.8133 24.5086L16.3045 23.6991L14.7647 25.8182L16.3045 27.9372L13.8133 27.1278L12.2738 29.2469V26.6276L9.78271 25.8182Z" fill="#FFDA44"/>
<path d="M14.2397 36.5785L15.4289 34.2445L13.5769 32.3925L16.1639 32.8025L17.3529 30.4686L17.7627 33.0556L20.3497 33.4653L18.0161 34.6545L18.4257 37.2414L16.5737 35.3894L14.2397 36.5785Z" fill="#FFDA44"/>
<path d="M25.0001 41.0356L24.1906 38.5444H21.5714L23.6906 37.0049L22.881 34.514L25.0001 36.0534L27.1192 34.514L26.3097 37.0049L28.4287 38.5444H25.8095L25.0001 41.0356Z" fill="#FFDA44"/>
<path d="M35.7605 36.5785L33.4266 35.3895L31.5745 37.2415L31.9843 34.6544L29.6506 33.4653L32.2375 33.0556L32.6473 30.4686L33.8364 32.8025L36.4233 32.3925L34.5712 34.2447L35.7605 36.5785Z" fill="#FFDA44"/>
<path d="M40.2174 25.8182L37.7263 26.6276V29.2469L36.1867 27.1277L33.6958 27.9372L35.2354 25.8182L33.6958 23.6991L36.1868 24.5086L37.7263 22.3895V25.0088L40.2174 25.8182Z" fill="#FFDA44"/>
<path d="M35.7605 15.0578L34.5713 17.3918L36.4234 19.2438L33.8363 18.8339L32.6473 21.1678L32.2375 18.5808L29.6506 18.1709L31.9843 16.9818L31.5745 14.395L33.4267 16.247L35.7605 15.0578Z" fill="#FFDA44"/>
</g>
<defs>
<clipPath id="clip0_402_123">
<rect width="50" height="50" fill="white" transform="translate(0 0.818176)"/>
</clipPath>
</defs>
</svg>
