<svg width="50" height="51" viewBox="0 0 50 51" fill="none" xmlns="http://www.w3.org/2000/svg">
<g clip-path="url(#clip0_402_123)">
<path d="M50 25.8182C50 39.6252 38.807 50.8182 25 50.8182C11.193 50.8182 0 39.6252 0 25.8182C0 25.8241 25 0.820911 25 0.818176C38.807 0.818176 50 12.0111 50 25.8182Z" fill="#0052B4"/>
<path d="M24.9331 25.8182H25C25 25.7957 25 25.7738 25 25.7513C24.9777 25.7736 24.9555 25.7959 24.9331 25.8182Z" fill="#F0F0F0"/>
<path d="M25 13.8616C25 9.46271 25 6.58038 25 0.818176H24.9958C11.1906 0.82052 0 12.0124 0 25.8182H13.0435V18.4734L20.3884 25.8182H24.9332L25.0001 25.7513C25.0001 24.067 25.0001 22.5642 25.0001 21.2067L17.6551 13.8616H25Z" fill="#F0F0F0"/>
<path d="M12.648 4.07904C8.73791 6.30551 5.48733 9.55609 3.26086 13.4661V25.8182H9.78264V10.601V10.6008H25C25 8.54388 25 6.58431 25 4.07904H12.648Z" fill="#D80027"/>
<path d="M25 22.7439L16.1179 13.8618H13.0436V13.862L24.9998 25.8182H25C25 25.8182 25 23.6984 25 22.7439Z" fill="#D80027"/>
<path d="M40.2174 30.166V31.2529H31.5218V30.166H28.2609V34.5138H30.4348V35.6008H41.3044V34.5138H43.4782V30.166H40.2174Z" fill="#FFDA44"/>
<path d="M28.2609 13.8616V25.8182C28.2609 31.6423 35.8696 33.4269 35.8696 33.4269C35.8696 33.4269 43.4782 31.6423 43.4782 25.8182V13.8616H28.2609Z" fill="#338AF3"/>
<path d="M35.8692 22.78C33.9671 22.78 33.9671 24.5191 32.0651 24.5191C30.163 24.5191 30.163 22.78 28.261 22.78V25.8234C30.163 25.8234 30.163 27.5626 32.0651 27.5626C33.9671 27.5626 33.9671 25.8234 35.8692 25.8234C37.7714 25.8234 37.7714 27.5626 39.6738 27.5626C41.5761 27.5626 41.576 25.8234 43.4784 25.8234V22.78C41.5761 22.78 41.5761 24.5191 39.6738 24.5191C37.7714 24.5191 37.7714 22.78 35.8692 22.78V22.78Z" fill="#F3F3F3"/>
<path d="M35.8692 16.6877C33.9671 16.6877 33.9671 18.4268 32.0651 18.4268C30.163 18.4268 30.163 16.6877 28.261 16.6877V19.7311C30.163 19.7311 30.163 21.4703 32.0651 21.4703C33.9671 21.4703 33.9671 19.7311 35.8692 19.7311C37.7714 19.7311 37.7714 21.4703 39.6738 21.4703C41.5761 21.4703 41.576 19.7311 43.4784 19.7311V16.6877C41.5761 16.6877 41.5761 18.4268 39.6738 18.4268C37.7714 18.4268 37.7714 16.6877 35.8692 16.6877Z" fill="#F3F3F3"/>
</g>
<defs>
<clipPath id="clip0_402_123">
<rect width="50" height="50" fill="white" transform="translate(0 0.818176)"/>
</clipPath>
</defs>
</svg>
