<svg width="50" height="51" viewBox="0 0 50 51" fill="none" xmlns="http://www.w3.org/2000/svg">
<g clip-path="url(#clip0_402_123)">
<path d="M25 50.8182C38.8071 50.8182 50 39.6253 50 25.8182C50 12.0111 38.8071 0.818176 25 0.818176C11.1929 0.818176 0 12.0111 0 25.8182C0 39.6253 11.1929 50.8182 25 50.8182Z" fill="#F0F0F0"/>
<path d="M48.9131 25.8182L49.788 22.5573C49.6427 21.4459 49.4247 20.3572 49.1389 19.2965H22.8261V0.913269C21.7167 1.00878 20.6283 1.17762 19.5653 1.41337L15.2174 4.07899L13.0435 3.85956C11.8994 4.48378 10.8095 5.19471 9.78264 5.98368V19.2964H0.861255C0.575415 20.3571 0.357446 21.4458 0.212134 22.5572L1.08694 25.8182L0.212036 29.079C0.357349 30.1904 0.575317 31.2791 0.861157 32.3398H9.78254V45.6525C10.8094 46.4416 11.8994 47.1524 13.0434 47.7767L16.3042 47.5572L19.5651 50.2228C20.6282 50.4585 21.7166 50.6273 22.8259 50.7229V32.3399H49.1386C49.4244 31.2792 49.6424 30.1905 49.7877 29.0791L48.9131 25.8182Z" fill="#0052B4"/>
<path d="M49.7884 22.5573H19.5653H19.5652V1.41241C17.2549 1.92472 15.0646 2.75509 13.0435 3.85792V22.5572H0.211621C0.0726563 23.6247 0 24.713 0 25.8182C0 26.9234 0.0726563 28.0116 0.211621 29.079H13.0434H13.0435V47.7783C15.0646 48.8811 17.2549 49.7116 19.5652 50.2238V29.0793V29.0791H49.7884C49.9273 28.0116 50 26.9234 50 25.8182C50 24.713 49.9273 23.6247 49.7884 22.5573V22.5573Z" fill="#D80027"/>
</g>
<defs>
<clipPath id="clip0_402_123">
<rect width="50" height="50" fill="white" transform="translate(0 0.818176)"/>
</clipPath>
</defs>
</svg>
