<svg width="50" height="51" viewBox="0 0 50 51" fill="none" xmlns="http://www.w3.org/2000/svg">
<g clip-path="url(#clip0_402_123)">
<path d="M25 50.8182C38.8071 50.8182 50 39.6253 50 25.8182C50 12.0111 38.8071 0.818176 25 0.818176C11.1929 0.818176 0 12.0111 0 25.8182C0 39.6253 11.1929 50.8182 25 50.8182Z" fill="#F0F0F0"/>
<path d="M49.7884 22.5573H19.5653H19.5652V1.41241C17.2549 1.92472 15.0646 2.75509 13.0435 3.85792V22.5571V22.5572H0.211621C0.0724609 23.6247 0 24.713 0 25.8182C0 26.9234 0.0724609 28.0116 0.211621 29.079H13.0434H13.0435V47.7783C15.0646 48.8811 17.2549 49.7116 19.5652 50.2238V29.0793V29.0791H49.7884C49.9273 28.0116 50 26.9234 50 25.8182C50 24.713 49.9273 23.6247 49.7884 22.5573V22.5573Z" fill="#0052B4"/>
</g>
<defs>
<clipPath id="clip0_402_123">
<rect width="50" height="50" fill="white" transform="translate(0 0.818176)"/>
</clipPath>
</defs>
</svg>
