<svg width="50" height="51" viewBox="0 0 50 51" fill="none" xmlns="http://www.w3.org/2000/svg">
<g clip-path="url(#clip0_402_123)">
<path d="M25 50.8182C38.8071 50.8182 50 39.6253 50 25.8182C50 12.0111 38.8071 0.818176 25 0.818176C11.1929 0.818176 0 12.0111 0 25.8182C0 39.6253 11.1929 50.8182 25 50.8182Z" fill="#F0F0F0"/>
<path d="M3.03979 13.8616H46.9602C42.7202 6.09054 34.4761 0.818176 25 0.818176C15.524 0.818176 7.27993 6.09054 3.03979 13.8616V13.8616Z" fill="#D80027"/>
<path d="M25 50.8182C34.4761 50.8182 42.7202 45.5458 46.9603 37.7747H3.03979C7.27993 45.5458 15.524 50.8182 25 50.8182Z" fill="#D80027"/>
<path d="M33.6957 25.8182C33.6957 30.6207 29.8025 33.4269 25 33.4269C20.1976 33.4269 16.3044 30.6207 16.3044 25.8182C16.3044 21.0156 20.1976 17.1226 25 17.1226C29.8025 17.1226 33.6957 21.0156 33.6957 25.8182Z" fill="#FFDA44"/>
<path d="M33.6957 25.8182C33.6957 30.6207 29.8025 34.5138 25 34.5138C20.1976 34.5138 16.3044 30.6207 16.3044 25.8182" fill="#0052B4"/>
<path d="M19.5652 23.6443H21.7391V27.9921H19.5652V23.6443Z" fill="#D80027"/>
<path d="M28.2607 23.6443H30.4347V27.9921H28.2607V23.6443Z" fill="#D80027"/>
<path d="M23.9131 20.3834H26.087V27.9921H23.9131V20.3834Z" fill="#D80027"/>
</g>
<defs>
<clipPath id="clip0_402_123">
<rect width="50" height="50" fill="white" transform="translate(0 0.818176)"/>
</clipPath>
</defs>
</svg>
