<svg width="50" height="51" viewBox="0 0 50 51" fill="none" xmlns="http://www.w3.org/2000/svg">
<g clip-path="url(#clip0_402_123)">
<path d="M25 50.8182C38.8071 50.8182 50 39.6253 50 25.8182C50 12.0111 38.8071 0.818176 25 0.818176C11.1929 0.818176 0 12.0111 0 25.8182C0 39.6253 11.1929 50.8182 25 50.8182Z" fill="#F0F0F0"/>
<path d="M25 0.818176C14.6645 0.818176 5.79458 7.09025 1.98706 16.0356H48.0129C44.2054 7.09025 35.3354 0.818176 25 0.818176Z" fill="#A2001D"/>
<path d="M25 50.8181C35.3354 50.8181 44.2054 44.5461 48.0128 35.6008H1.98706C5.79458 44.5461 14.6645 50.8181 25 50.8181Z" fill="#496E2D"/>
<path d="M49.1388 19.2964H0.86123C0.300781 21.3758 0 23.5616 0 25.8182C0 28.0747 0.300781 30.2605 0.86123 32.3399H49.1389C49.6992 30.2605 50 28.0747 50 25.8182C50 23.5616 49.6992 21.3758 49.1388 19.2964V19.2964Z" fill="#0052B4"/>
</g>
<defs>
<clipPath id="clip0_402_123">
<rect width="50" height="50" fill="white" transform="translate(0 0.818176)"/>
</clipPath>
</defs>
</svg>
