<svg width="50" height="51" viewBox="0 0 50 51" fill="none" xmlns="http://www.w3.org/2000/svg">
<g clip-path="url(#clip0_402_123)">
<path d="M25 50.8182C38.8071 50.8182 50 39.6253 50 25.8182C50 12.0111 38.8071 0.818176 25 0.818176C11.1929 0.818176 0 12.0111 0 25.8182C0 39.6253 11.1929 50.8182 25 50.8182Z" fill="#F0F0F0"/>
<path d="M49.7884 22.5573H28.261H28.2609V1.0298C27.1935 0.890833 26.1052 0.818176 25 0.818176C23.8948 0.818176 22.8065 0.890833 21.7392 1.0298V22.5571V22.5572H0.211621C0.0726563 23.6247 0 24.713 0 25.8182C0 26.9235 0.0726563 28.0116 0.211621 29.079H21.739H21.7391V50.6066C22.8065 50.7455 23.8948 50.8182 25 50.8182C26.1052 50.8182 27.1935 50.7456 28.2608 50.6066V29.0792V29.0791H49.7884C49.9273 28.0116 50 26.9235 50 25.8182C50 24.713 49.9273 23.6247 49.7884 22.5573V22.5573Z" fill="#D80027"/>
<path d="M15.2173 12.7747V9.51379H11.9565V12.7747H8.69556V16.0356H11.9565V19.2964H15.2173V16.0356H18.4782V12.7747H15.2173Z" fill="#D80027"/>
<path d="M38.0434 12.7747V9.51379H34.7826V12.7747H31.5217V16.0356H34.7826V19.2964H38.0434V16.0356H41.3043V12.7747H38.0434Z" fill="#D80027"/>
<path d="M15.2173 35.6008V32.34H11.9565V35.6008H8.69556V38.8616H11.9565V42.1226H15.2173V38.8616H18.4782V35.6008H15.2173Z" fill="#D80027"/>
<path d="M38.0434 35.6008V32.34H34.7826V35.6008H31.5217V38.8616H34.7826V42.1226H38.0434V38.8616H41.3043V35.6008H38.0434Z" fill="#D80027"/>
</g>
<defs>
<clipPath id="clip0_402_123">
<rect width="50" height="50" fill="white" transform="translate(0 0.818176)"/>
</clipPath>
</defs>
</svg>
