<svg width="50" height="51" viewBox="0 0 50 51" fill="none" xmlns="http://www.w3.org/2000/svg">
<g clip-path="url(#clip0_402_123)">
<path d="M25 50.8182C38.8071 50.8182 50 39.6253 50 25.8182C50 12.0111 38.8071 0.818176 25 0.818176C11.1929 0.818176 0 12.0111 0 25.8182C0 39.6253 11.1929 50.8182 25 50.8182Z" fill="#F9F9F9"/>
<path d="M25 50.8182C35.7491 50.8182 44.9127 44.0338 48.445 34.5138H1.55493C5.08735 44.0338 14.2508 50.8182 25 50.8182Z" fill="#D80027"/>
<path d="M34.7826 21.4703V18.2095H35.8695V16.0355H33.6956V17.1226H31.5218V16.0355H29.3479V18.2095H30.4348V21.4703H28.2608V13.8618H29.3479V11.688H27.1739V12.7747H26.0869V11.688H23.9131V12.7747H22.8261V11.688H20.6521V13.8618H21.7392V21.4703H19.5652V18.2095H20.6521V16.0355H18.4782V17.1226H16.3044V16.0355H14.1305V18.2095H15.2174V21.4703H13.0435V30.166H36.9565V21.4703H34.7826Z" fill="#D80027"/>
<path d="M25 29.079C23.1991 29.079 21.7391 30.539 21.7391 32.3399C21.7391 33.7594 22.6468 34.9668 23.9131 35.4145V39.9487H20.6522V44.2965H26.087V35.4146C27.3533 34.9669 28.2609 33.7596 28.2609 32.34C28.2608 30.5391 26.8009 29.079 25 29.079V29.079ZM25 33.4269C24.3997 33.4269 23.9131 32.9402 23.9131 32.34C23.9131 31.7397 24.3997 31.2531 25 31.2531C25.6003 31.2531 26.0869 31.7397 26.0869 32.34C26.0869 32.9402 25.6003 33.4269 25 33.4269Z" fill="#FFDA44"/>
</g>
<defs>
<clipPath id="clip0_402_123">
<rect width="50" height="50" fill="white" transform="translate(0 0.818176)"/>
</clipPath>
</defs>
</svg>
