<svg width="50" height="51" viewBox="0 0 50 51" fill="none" xmlns="http://www.w3.org/2000/svg">
<g clip-path="url(#clip0_402_123)">
<path d="M25 50.8182C38.8071 50.8182 50 39.6253 50 25.8182C50 12.0111 38.8071 0.818176 25 0.818176C11.1929 0.818176 0 12.0111 0 25.8182C0 39.6253 11.1929 50.8182 25 50.8182Z" fill="#F0F0F0"/>
<path d="M25 19.2964H49.1388C48.5119 16.9708 47.5592 14.7793 46.3307 12.7746H25V19.2964Z" fill="#338AF3"/>
<path d="M9.43777 45.3834H40.5621C42.8436 43.5662 44.8003 41.359 46.3305 38.8616H3.66931C5.19968 41.3589 7.15632 43.5662 9.43777 45.3834V45.3834Z" fill="#338AF3"/>
<path d="M8.69558 6.86688C6.73015 8.55936 5.03103 10.5524 3.66931 12.7747H8.69558V6.86688Z" fill="#338AF3"/>
<path d="M25 25.8182C25 23.2717 25 21.1405 25 19.2964H15.2174V25.8182H8.69561V19.2964H0.86123C0.300781 21.3759 0 23.5616 0 25.8182C0 28.0747 0.300781 30.2604 0.86123 32.3399H49.1389C49.6992 30.2604 50 28.0747 50 25.8182H25Z" fill="#338AF3"/>
<path d="M25 0.818176C21.5284 0.818176 18.2223 1.52648 15.2174 2.80529V12.7747H25C25 10.4982 25 8.56193 25 6.25294H40.5622C36.2916 2.85177 30.8837 0.818176 25 0.818176V0.818176Z" fill="#338AF3"/>
</g>
<defs>
<clipPath id="clip0_402_123">
<rect width="50" height="50" fill="white" transform="translate(0 0.818176)"/>
</clipPath>
</defs>
</svg>
