<svg width="50" height="51" viewBox="0 0 50 51" fill="none" xmlns="http://www.w3.org/2000/svg">
<g clip-path="url(#clip0_402_123)">
<path d="M0 25.8182C0 12.0111 11.193 0.818176 25 0.818176C38.807 0.818176 50 12.0111 50 25.8182C48.9131 25.8182 25 29.079 25 29.079L0 25.8182Z" fill="#F0F0F0"/>
<path d="M50 25.8182C50 39.6252 38.807 50.8182 25 50.8182C11.193 50.8182 0 39.6252 0 25.8182" fill="#D80027"/>
<path d="M17.3914 37.7747C23.9948 37.7747 29.3479 32.4216 29.3479 25.8182C29.3479 19.2148 23.9948 13.8616 17.3914 13.8616C10.7879 13.8616 5.43481 19.2148 5.43481 25.8182C5.43481 32.4216 10.7879 37.7747 17.3914 37.7747Z" fill="#F0F0F0"/>
<path d="M5.43481 25.8182C5.43481 19.215 10.7879 13.8616 17.3914 13.8616C23.9949 13.8616 29.3479 19.2149 29.3479 25.8182" fill="#D80027"/>
</g>
<defs>
<clipPath id="clip0_402_123">
<rect width="50" height="50" fill="white" transform="translate(0 0.818176)"/>
</clipPath>
</defs>
</svg>
