<svg width="50" height="51" viewBox="0 0 50 51" fill="none" xmlns="http://www.w3.org/2000/svg">
<g clip-path="url(#clip0_402_123)">
<path d="M25 50.8182C38.8071 50.8182 50 39.6253 50 25.8182C50 12.0111 38.8071 0.818176 25 0.818176C11.1929 0.818176 0 12.0111 0 25.8182C0 39.6253 11.1929 50.8182 25 50.8182Z" fill="#FFDA44"/>
<path d="M10.9094 5.16603C14.9216 2.42325 19.773 0.818176 25 0.818176C30.2269 0.818176 35.0783 2.42325 39.0905 5.16603L25 6.25294L10.9094 5.16603Z" fill="#A2001D"/>
<path d="M25 25.8182L23.4045 24.2227L22.9808 24.9815L25 25.8182Z" fill="#0052B4"/>
<path d="M7.32231 8.14044C-2.44077 17.9035 -2.44077 33.7327 7.32231 43.4959C11.3568 39.4614 15.237 35.5813 25 25.8182L7.32231 8.14044Z" fill="#496E2D"/>
<path d="M42.6777 8.14044C52.4408 17.9035 52.4408 33.7327 42.6777 43.4959C38.6433 39.4614 34.7631 35.5813 25 25.8182L42.6777 8.14044Z" fill="#496E2D"/>
<path d="M25 34.5138C29.8025 34.5138 33.6957 30.6206 33.6957 25.8182C33.6957 21.0157 29.8025 17.1226 25 17.1226C20.1976 17.1226 16.3044 21.0157 16.3044 25.8182C16.3044 30.6206 20.1976 34.5138 25 34.5138Z" fill="#A2001D"/>
<path d="M24.9999 17.1226L26.949 23.1215H33.2574L28.1541 26.8298L30.1032 32.829L24.9999 29.1214L19.8964 32.829L21.8459 26.8298L16.7426 23.1215H23.0506L24.9999 17.1226Z" fill="#FFDA44"/>
<path d="M25 0.818176C24.9971 0.818176 24.9944 0.818372 24.9916 0.818372H25.0083C25.0055 0.818372 25.0028 0.818176 25 0.818176V0.818176Z" fill="#FFDA44"/>
<path d="M25.0084 0.818176H24.9917C18.092 0.820422 11.8458 3.61759 7.32361 8.13927H42.6764C38.1542 3.61759 31.908 0.820422 25.0084 0.818176Z" fill="#A2001D"/>
<path d="M7.32373 43.4972C11.8478 48.0205 18.0972 50.8182 25 50.8182C31.9028 50.8182 38.1522 48.0205 42.6763 43.4972H7.32373Z" fill="#A2001D"/>
<path d="M25 3.53558L25.4048 4.78109H26.7144L25.6549 5.55092L26.0597 6.79642L25 6.0267L23.9405 6.79642L24.3453 5.55092L23.2856 4.78109H24.5952L25 3.53558Z" fill="#FFDA44"/>
<path d="M18.9377 3.53558L19.3425 4.78109H20.6521L19.5926 5.55092L19.9974 6.79642L18.9377 6.0267L17.8784 6.79642L18.2831 5.55092L17.2234 4.78109H18.533L18.9377 3.53558Z" fill="#FFDA44"/>
<path d="M31.0621 3.53558L31.4669 4.78109H32.7765L31.717 5.55092L32.1218 6.79642L31.0621 6.0267L30.0027 6.79642L30.4074 5.55092L29.3478 4.78109H30.6573L31.0621 3.53558Z" fill="#FFDA44"/>
<path d="M25 44.84L25.4048 46.0855H26.7144L25.6549 46.8553L26.0597 48.1008L25 47.331L23.9405 48.1008L24.3453 46.8553L23.2856 46.0855H24.5952L25 44.84Z" fill="#FFDA44"/>
<path d="M18.9377 44.84L19.3425 46.0855H20.6521L19.5926 46.8553L19.9974 48.1008L18.9377 47.331L17.8784 48.1008L18.2831 46.8553L17.2234 46.0855H18.533L18.9377 44.84Z" fill="#FFDA44"/>
<path d="M31.0621 44.84L31.4669 46.0855H32.7765L31.717 46.8553L32.1218 48.1008L31.0621 47.331L30.0027 48.1008L30.4074 46.8553L29.3478 46.0855H30.6573L31.0621 44.84Z" fill="#FFDA44"/>
<path d="M7.61742 25.4053C8.25951 26.4198 7.95775 27.7627 6.9432 28.4049C5.92875 29.0471 4.58578 28.7453 3.94359 27.7308C2.78099 25.8941 3.45512 22.8943 3.45512 22.8943C3.45512 22.8943 6.45472 23.5685 7.61742 25.4053V25.4053Z" fill="#FFDA44"/>
<path d="M6.36194 28.5735C6.96222 28.5735 7.44885 28.0869 7.44885 27.4866C7.44885 26.8863 6.96222 26.3997 6.36194 26.3997C5.76165 26.3997 5.27502 26.8863 5.27502 27.4866C5.27502 28.0869 5.76165 28.5735 6.36194 28.5735Z" fill="#A2001D"/>
</g>
<defs>
<clipPath id="clip0_402_123">
<rect width="50" height="50" fill="white" transform="translate(0 0.818176)"/>
</clipPath>
</defs>
</svg>
