<svg width="50" height="51" viewBox="0 0 50 51" fill="none" xmlns="http://www.w3.org/2000/svg">
<g clip-path="url(#clip0_402_123)">
<path d="M10.9094 46.4703C14.9215 49.213 19.7731 50.8182 25 50.8182C30.2268 50.8182 35.0783 49.213 39.0905 46.4703L25 44.2964L10.9094 46.4703Z" fill="#D80027"/>
<path d="M39.0905 5.16603C35.0783 2.42335 30.2268 0.818176 25 0.818176C19.7731 0.818176 14.9215 2.42335 10.9094 5.16603L25 7.33995L39.0905 5.16603Z" fill="#D80027"/>
<path d="M50 25.8182C50 17.5457 45.0473 9.23809 39.0905 5.16602H10.9095C4.32324 9.66836 0 17.2381 0 25.8182C0 34.3985 4.32324 41.968 10.9095 46.4703H39.0905C45.6769 41.968 50 34.3985 50 25.8182Z" fill="#0052B4"/>
<path d="M23.5853 41.5991C23.2437 41.3062 15.2174 34.3288 15.2174 25.8182C15.2174 17.3075 23.2436 10.3301 23.5853 10.0372L25 8.82452L26.4148 10.0371C26.7564 10.3301 34.7826 17.3074 34.7826 25.8182C34.7826 34.3289 26.7565 41.3064 26.4148 41.5991L25 42.8118L23.5853 41.5991Z" fill="#D80027"/>
<path d="M32.6087 25.8182C32.6087 18.2095 25 11.6877 25 11.6877C25 11.6877 17.3914 18.2097 17.3914 25.8182C17.3914 28.1458 18.104 30.3713 19.0924 32.3399H30.9077C31.8961 30.3713 32.6087 28.1458 32.6087 25.8182Z" fill="#338AF3"/>
<path d="M32.6087 25.8182C32.6087 28.1458 31.8961 30.3713 30.9077 32.34L25 33.4269L19.0924 32.34C18.104 30.3714 17.3914 28.1458 17.3914 25.8182H32.6087Z" fill="#0052B4"/>
<path d="M25 39.9487C25 39.9487 28.6649 36.8064 30.9076 32.34H19.0924C21.3352 36.8064 25 39.9487 25 39.9487Z" fill="#FFDA44"/>
<path d="M20.1086 21.4703H29.8913L25 26.3616L20.1086 21.4703Z" fill="#6DA544"/>
<path d="M23.3695 24.7313H26.6303V34.5139H23.3695V24.7313Z" fill="#A2001D"/>
</g>
<defs>
<clipPath id="clip0_402_123">
<rect width="50" height="50" fill="white" transform="translate(0 0.818176)"/>
</clipPath>
</defs>
</svg>
