<svg width="50" height="51" viewBox="0 0 50 51" fill="none" xmlns="http://www.w3.org/2000/svg">
<g clip-path="url(#clip0_402_123)">
<path d="M25 50.8182C38.8071 50.8182 50 39.6253 50 25.8182C50 12.0111 38.8071 0.818176 25 0.818176C11.1929 0.818176 0 12.0111 0 25.8182C0 39.6253 11.1929 50.8182 25 50.8182Z" fill="#F0F0F0"/>
<path d="M50 25.8182C50 15.9066 44.2319 7.34258 35.8695 3.29883V48.3374C44.2319 44.2938 50 35.7296 50 25.8182V25.8182Z" fill="#338AF3"/>
<path d="M0 25.8182C0 35.7296 5.76807 44.2937 14.1305 48.3375V3.29883C5.76807 7.34258 0 15.9066 0 25.8182Z" fill="#338AF3"/>
<path d="M31.533 30.0455L27.3059 25.8184L31.3296 21.7944L31.1473 19.6692L29.9953 18.5171L25 23.5124L20.0047 18.5171L18.8528 19.6692L18.6704 21.7944L22.6942 25.8184L18.4669 30.0455L20.7728 32.3512L25 28.1241L29.2273 32.3512L31.533 30.0455Z" fill="#ACABB1"/>
<path d="M31.1488 19.6694L28.843 21.9752C29.8265 22.9587 30.4349 24.3174 30.4349 25.8182C30.4349 28.8197 28.0016 31.2529 25.0001 31.2529C21.9987 31.2529 19.5653 28.8197 19.5653 25.8182C19.5653 24.3174 20.1737 22.9587 21.1572 21.9752L18.8514 19.6694C17.2777 21.2429 16.3044 23.4168 16.3044 25.8182C16.3044 30.6207 20.1976 34.5138 25 34.5138C29.8025 34.5138 33.6957 30.6206 33.6957 25.8182C33.6957 23.4169 32.7224 21.243 31.1488 19.6694V19.6694Z" fill="#6DA544"/>
</g>
<defs>
<clipPath id="clip0_402_123">
<rect width="50" height="50" fill="white" transform="translate(0 0.818176)"/>
</clipPath>
</defs>
</svg>
