<svg width="50" height="51" viewBox="0 0 50 51" fill="none" xmlns="http://www.w3.org/2000/svg">
<g clip-path="url(#clip0_402_123)">
<path d="M25 0.818176C22.7436 0.818176 20.5577 1.11896 18.4783 1.67941L16.3044 25.8182L18.4784 49.9569C20.5577 50.5174 22.7436 50.8182 25 50.8182C38.8071 50.8182 50 39.6252 50 25.8182C50 12.0111 38.8071 0.818176 25 0.818176Z" fill="#FFDA44"/>
<path d="M16.3044 25.8182L18.4784 49.9569C20.5577 50.5174 22.7436 50.8182 25 50.8182C38.8071 50.8182 50 39.6252 50 25.8182H16.3044Z" fill="#6DA544"/>
<path d="M0 25.8182C0 35.2942 5.27246 43.5384 13.0435 47.7784V3.85791C5.27246 8.09795 0 16.3421 0 25.8182Z" fill="#D80027"/>
<path d="M0 25.8182C0 37.3688 7.83408 47.0882 18.4782 49.9569V1.67938C7.83408 4.54813 0 14.2675 0 25.8182Z" fill="#D80027"/>
<path d="M9.44692 19.2964L11.0656 24.2784H16.3044L12.0664 27.3577L13.6849 32.3399L9.44692 29.2607L5.20874 32.3399L6.82769 27.3577L2.5896 24.2784H7.82817L9.44692 19.2964Z" fill="black"/>
</g>
<defs>
<clipPath id="clip0_402_123">
<rect width="50" height="50" fill="white" transform="translate(0 0.818176)"/>
</clipPath>
</defs>
</svg>
