<svg width="50" height="51" viewBox="0 0 50 51" fill="none" xmlns="http://www.w3.org/2000/svg">
<g clip-path="url(#clip0_402_123)">
<path d="M33.6958 2.37325C30.9874 1.36827 28.0581 0.818176 24.9999 0.818176C21.942 0.818176 19.0127 1.36827 16.3045 2.37306L15.2175 25.8182L16.3044 49.2633C19.0127 50.2682 21.942 50.8182 24.9999 50.8182C28.0582 50.8182 30.9874 50.2682 33.6958 49.2631L34.7828 25.8182L33.6958 2.37325Z" fill="#FFDA44"/>
<path d="M0 25.8182C0 36.5672 6.78437 45.7309 16.3044 49.2631V2.37305C6.78437 5.90547 0 15.0689 0 25.8182Z" fill="#D80027"/>
<path d="M49.9999 25.8182C49.9999 15.0689 43.2156 5.90547 33.6956 2.37305V49.2632C43.2156 45.7309 49.9999 36.5672 49.9999 25.8182Z" fill="#6DA544"/>
</g>
<defs>
<clipPath id="clip0_402_123">
<rect width="50" height="50" fill="white" transform="translate(0 0.818176)"/>
</clipPath>
</defs>
</svg>
