<svg width="50" height="51" viewBox="0 0 50 51" fill="none" xmlns="http://www.w3.org/2000/svg">
<g clip-path="url(#clip0_402_123)">
<path d="M25 50.8182C38.8071 50.8182 50 39.6253 50 25.8182C50 12.0111 38.8071 0.818176 25 0.818176C11.1929 0.818176 0 12.0111 0 25.8182C0 39.6253 11.1929 50.8182 25 50.8182Z" fill="#F0F0F0"/>
<path d="M25 0.818176C20.58 0.818176 16.4288 1.96681 12.826 3.9795V47.6568C16.4289 49.6695 20.58 50.8182 25 50.8182C38.807 50.8182 50 39.6252 50 25.8182C50 12.0111 38.807 0.818176 25 0.818176Z" fill="#6DA544"/>
<path d="M12.8996 3.93842C11.3268 4.81 9.85828 5.84593 8.51658 7.02367C8.65222 6.90472 8.78923 6.78715 8.92732 6.67113L28.0743 25.8182L8.92722 44.9653C8.78904 44.8493 8.65212 44.7317 8.51648 44.6127C9.85818 45.7905 11.3268 46.8263 12.8995 47.698L50 25.8182L12.8996 3.93842Z" fill="#F0F0F0"/>
<path d="M10.7881 5.25C10.0257 5.77793 9.29343 6.346 8.59568 6.95312L25 25.8182L8.59558 44.6832C9.29334 45.2903 10.0256 45.8585 10.788 46.3863L45.7205 25.8182L10.7881 5.25Z" fill="#FFDA44"/>
<path d="M8.92725 6.67108C8.37148 7.13807 7.83516 7.62763 7.32227 8.14042L22.8261 25.8182L7.32227 43.4959C7.83516 44.0088 8.37139 44.4984 8.92725 44.9652L28.0743 25.8182L8.92725 6.67108Z" fill="black"/>
<path d="M7.32231 8.14044C-2.44077 17.9035 -2.44077 33.7327 7.32231 43.4959C11.3568 39.4614 15.237 35.5813 25 25.8182L7.32231 8.14044Z" fill="#D80027"/>
</g>
<defs>
<clipPath id="clip0_402_123">
<rect width="50" height="50" fill="white" transform="translate(0 0.818176)"/>
</clipPath>
</defs>
</svg>
