<svg width="50" height="51" viewBox="0 0 50 51" fill="none" xmlns="http://www.w3.org/2000/svg">
<g clip-path="url(#clip0_402_123)">
<path d="M50 25.8182C50 39.6252 38.807 50.8182 25 50.8182C11.193 50.8182 0 39.6252 0 25.8182C0 12.0111 25 0.818176 25 0.818176C25 0.818176 50 12.0111 50 25.8182Z" fill="#A2001D"/>
<path d="M0 25.8182C0 12.0111 11.193 0.818176 25 0.818176C38.807 0.818176 50 12.0111 50 25.8182" fill="#0052B4"/>
<path d="M33.6957 32.3399L25 31.2529L16.3044 32.3399V19.2964H33.6957V32.3399Z" fill="#F0F0F0"/>
<path d="M25 31.253C27.4012 31.253 29.3478 29.3064 29.3478 26.9051C29.3478 24.5039 27.4012 22.5573 25 22.5573C22.5987 22.5573 20.6521 24.5039 20.6521 26.9051C20.6521 29.3064 22.5987 31.253 25 31.253Z" fill="#0052B4"/>
<path d="M25 29.079C26.2006 29.079 27.1739 28.1057 27.1739 26.9051C27.1739 25.7044 26.2006 24.7311 25 24.7311C23.7993 24.7311 22.826 25.7044 22.826 26.9051C22.826 28.1057 23.7993 29.079 25 29.079Z" fill="#A2001D"/>
<path d="M21.7391 21.4703H28.2608L25 24.7313L21.7391 21.4703Z" fill="#6DA544"/>
<path d="M23.9131 23.6442H26.087V30.166H23.9131V23.6442Z" fill="#FFDA44"/>
<path d="M28.4783 29.5138H21.5216L16.3044 32.34H33.6957L28.4783 29.5138Z" fill="#6DA544"/>
</g>
<defs>
<clipPath id="clip0_402_123">
<rect width="50" height="50" fill="white" transform="translate(0 0.818176)"/>
</clipPath>
</defs>
</svg>
