<svg width="50" height="51" viewBox="0 0 50 51" fill="none" xmlns="http://www.w3.org/2000/svg">
<g clip-path="url(#clip0_402_123)">
<path d="M25 50.8182C38.8071 50.8182 50 39.6253 50 25.8182C50 12.0111 38.8071 0.818176 25 0.818176C11.1929 0.818176 0 12.0111 0 25.8182C0 39.6253 11.1929 50.8182 25 50.8182Z" fill="#F0F0F0"/>
<path d="M25 50.8182C31.3395 50.8182 37.1268 48.4572 41.5338 44.5682H8.46619C12.8731 48.4572 18.6604 50.8182 25 50.8182Z" fill="#D80027"/>
<path d="M0.787598 32.0682C1.3584 34.2855 2.22617 36.3836 3.34531 38.3182H46.6546C47.7737 36.3836 48.6415 34.2855 49.2123 32.0682L25 30.166L0.787598 32.0682Z" fill="#0052B4"/>
<path d="M49.2124 19.5682C48.6416 17.3508 47.7738 15.2527 46.6547 13.3182L25 12.7747C25 8.40821 25 4.28156 25 0.818176C23.1429 0.818176 21.3329 1.02081 19.5912 1.4049C19.5578 1.41232 3.26086 14.2672 3.26086 25.8182C3.67756 25.8906 25 27.9921 25 27.9921C25 27.9921 25 23.2303 25 19.5682H49.2124Z" fill="#0052B4"/>
<path d="M25 16.416V3.91603H17.0825L19.592 1.40656C9.29014 3.67863 1.37461 12.304 0.163086 22.965C0.0566406 23.9015 0 24.8531 0 25.8182H12.6631V20.8355L17.6951 25.8182H26.639L17.0824 16.416H25Z" fill="#F0F0F0"/>
<path d="M25.0114 25.8182L15.6093 16.416H12.6631V16.4161L22.0651 25.8182H9.51084V13.3182H46.6547C45.2936 10.9653 43.5594 8.85558 41.5339 7.06818H9.51084V6.19659C6.98857 8.19044 4.86045 10.66 3.26084 13.4699V25.8182H0C0 27.9763 0.273437 30.0706 0.787598 32.0682H49.2124C49.7266 30.0705 50 27.9763 50 25.8182H25.0114Z" fill="#D80027"/>
</g>
<defs>
<clipPath id="clip0_402_123">
<rect width="50" height="50" fill="white" transform="translate(0 0.818176)"/>
</clipPath>
</defs>
</svg>
