<svg width="50" height="51" viewBox="0 0 50 51" fill="none" xmlns="http://www.w3.org/2000/svg">
<g clip-path="url(#clip0_402_123)">
<path d="M25 50.8182C38.8071 50.8182 50 39.6253 50 25.8182C50 12.0111 38.8071 0.818176 25 0.818176C11.1929 0.818176 0 12.0111 0 25.8182C0 39.6253 11.1929 50.8182 25 50.8182Z" fill="#F0F0F0"/>
<path d="M25 50.8182C34.9115 50.8182 43.4756 45.0501 47.5194 36.6877H2.48071C6.52446 45.0501 15.0885 50.8182 25 50.8182Z" fill="#338AF3"/>
<path d="M25 0.818176C15.0885 0.818176 6.52446 6.58624 2.48071 14.9486H47.5193C43.4756 6.58624 34.9115 0.818176 25 0.818176V0.818176Z" fill="#338AF3"/>
<path d="M15.3853 17.1226L16.1946 19.6137H18.8139L16.6949 21.1531L17.5044 23.6442L15.3853 22.1047L13.2661 23.6442L14.0756 21.1531L11.9565 19.6137H14.5758L15.3853 17.1226Z" fill="#338AF3"/>
<path d="M15.3853 27.9921L16.1946 30.4833H18.8139L16.6949 32.0228L17.5044 34.5138L15.3853 32.9743L13.2661 34.5138L14.0756 32.0228L11.9565 30.4833H14.5758L15.3853 27.9921Z" fill="#338AF3"/>
<path d="M34.6147 17.1226L35.4242 19.6137H38.0435L35.9244 21.1531L36.7339 23.6442L34.6147 22.1047L32.4956 23.6442L33.3051 21.1531L31.186 19.6137H33.8054L34.6147 17.1226Z" fill="#338AF3"/>
<path d="M34.6147 27.9921L35.4242 30.4833H38.0435L35.9244 32.0228L36.7339 34.5138L34.6147 32.9743L32.4956 34.5138L33.3051 32.0228L31.186 30.4833H33.8054L34.6147 27.9921Z" fill="#338AF3"/>
<path d="M25 22.5573L25.8095 25.0485H28.4287L26.3097 26.588L27.1191 29.079L25 27.5394L22.8809 29.079L23.6903 26.588L21.5713 25.0485H24.1905L25 22.5573Z" fill="#338AF3"/>
</g>
<defs>
<clipPath id="clip0_402_123">
<rect width="50" height="50" fill="white" transform="translate(0 0.818176)"/>
</clipPath>
</defs>
</svg>
