<svg width="50" height="51" viewBox="0 0 50 51" fill="none" xmlns="http://www.w3.org/2000/svg">
<g clip-path="url(#clip0_402_123)">
<path d="M25 50.8182C38.8071 50.8182 50 39.6253 50 25.8182C50 12.0111 38.8071 0.818176 25 0.818176C11.1929 0.818176 0 12.0111 0 25.8182C0 39.6253 11.1929 50.8182 25 50.8182Z" fill="#D80027"/>
<path d="M27.581 19.7311C27.0128 22.0942 26.0034 21.6436 25.508 23.7045C22.5897 23.0028 20.7924 20.0683 21.4941 17.1498C22.1955 14.2316 25.1303 12.4343 28.0487 13.1359C27.0578 17.2577 28.0893 17.6175 27.581 19.7311Z" fill="#F0F0F0"/>
<path d="M20.0084 21.4823C22.0804 22.7528 21.3398 23.5738 23.1466 24.6819C21.5775 27.2406 18.2313 28.0428 15.6725 26.4738C13.1138 24.9047 12.3114 21.5583 13.8805 18.9996C17.4944 21.2156 18.155 20.3458 20.0084 21.4823V21.4823Z" fill="#F0F0F0"/>
<path d="M19.3337 29.2256C21.1824 27.6476 21.7341 28.6057 23.3463 27.2297C25.295 29.5126 25.0239 32.9431 22.7411 34.8918C20.4581 36.8405 17.0277 36.5691 15.0792 34.2864C18.3032 31.5342 17.6801 30.6368 19.3337 29.2256Z" fill="#F0F0F0"/>
<path d="M26.4896 32.2601C25.5599 30.0143 26.6415 29.7854 25.8311 27.8271C28.6044 26.6793 31.7833 27.9971 32.9312 30.7704C34.0789 33.5438 32.7609 36.7226 29.9876 37.8704C28.3668 33.9535 27.321 34.2689 26.4896 32.2601Z" fill="#F0F0F0"/>
<path d="M31.5868 26.392C29.1637 26.5821 29.28 25.4825 27.1672 25.6483C26.9325 22.6562 29.1683 20.0399 32.1605 19.8051C35.1527 19.5708 37.7689 21.8063 38.0035 24.7987C33.7772 25.1301 33.7539 26.2222 31.5868 26.392Z" fill="#F0F0F0"/>
</g>
<defs>
<clipPath id="clip0_402_123">
<rect width="50" height="50" fill="white" transform="translate(0 0.818176)"/>
</clipPath>
</defs>
</svg>
