<svg width="50" height="51" viewBox="0 0 50 51" fill="none" xmlns="http://www.w3.org/2000/svg">
<g clip-path="url(#clip0_402_123)">
<path d="M1.55498 17.1226C0.550098 19.831 0 22.7602 0 25.8182C0 28.8762 0.550098 31.8056 1.55498 34.5138L25 36.6877L48.445 34.5138C49.4499 31.8056 50 28.8762 50 25.8182C50 22.7602 49.4499 19.831 48.445 17.1226L25 14.9487L1.55498 17.1226Z" fill="#F0F0F0"/>
<path d="M25 0.818176C14.251 0.818176 5.08728 7.60255 1.55505 17.1226H48.4452C44.9127 7.60255 35.7492 0.818176 25 0.818176V0.818176Z" fill="#D80027"/>
<path d="M25 50.8182C35.7492 50.8182 44.9127 44.0338 48.4451 34.5138H1.55505C5.08728 44.0338 14.251 50.8182 25 50.8182V50.8182Z" fill="#6DA544"/>
</g>
<defs>
<clipPath id="clip0_402_123">
<rect width="50" height="50" fill="white" transform="translate(0 0.818176)"/>
</clipPath>
</defs>
</svg>
