<svg width="50" height="51" viewBox="0 0 50 51" fill="none" xmlns="http://www.w3.org/2000/svg">
<g clip-path="url(#clip0_402_123)">
<path d="M25 50.8182C38.8071 50.8182 50 39.6253 50 25.8182C50 12.0111 38.8071 0.818176 25 0.818176C11.1929 0.818176 0 12.0111 0 25.8182C0 39.6253 11.1929 50.8182 25 50.8182Z" fill="#F0F0F0"/>
<path d="M25 0.818176C15.0885 0.818176 6.52446 6.58624 2.48071 14.9486H47.5193C43.4756 6.58624 34.9115 0.818176 25 0.818176V0.818176Z" fill="#FF9811"/>
<path d="M25 50.8182C34.9115 50.8182 43.4756 45.0501 47.5194 36.6877H2.48071C6.52446 45.0501 15.0885 50.8182 25 50.8182Z" fill="#6DA544"/>
<path d="M25 34.5138C29.8025 34.5138 33.6957 30.6206 33.6957 25.8182C33.6957 21.0157 29.8025 17.1226 25 17.1226C20.1976 17.1226 16.3044 21.0157 16.3044 25.8182C16.3044 30.6206 20.1976 34.5138 25 34.5138Z" fill="#0052B4"/>
<path d="M25 31.253C28.0015 31.253 30.4347 28.8197 30.4347 25.8182C30.4347 22.8166 28.0015 20.3834 25 20.3834C21.9984 20.3834 19.5652 22.8166 19.5652 25.8182C19.5652 28.8197 21.9984 31.253 25 31.253Z" fill="#F0F0F0"/>
<path d="M25 19.1118L26.6767 22.9143L30.808 22.465L28.3533 25.8182L30.808 29.1714L26.6767 28.7221L25 32.5246L23.3234 28.7221L19.1921 29.1713L21.6468 25.8182L19.1921 22.465L23.3234 22.9143L25 19.1118Z" fill="#0052B4"/>
</g>
<defs>
<clipPath id="clip0_402_123">
<rect width="50" height="50" fill="white" transform="translate(0 0.818176)"/>
</clipPath>
</defs>
</svg>
