<svg width="50" height="51" viewBox="0 0 50 51" fill="none" xmlns="http://www.w3.org/2000/svg">
<g clip-path="url(#clip0_402_123)">
<path d="M25 50.8182C38.8071 50.8182 50 39.6253 50 25.8182C50 12.0111 38.8071 0.818176 25 0.818176C11.1929 0.818176 0 12.0111 0 25.8182C0 39.6253 11.1929 50.8182 25 50.8182Z" fill="#F0F0F0"/>
<path d="M25 0.818176C14.2508 0.818176 5.08726 7.60255 1.55493 17.1226H48.4451C44.9126 7.60255 35.7491 0.818176 25 0.818176V0.818176Z" fill="#A2001D"/>
<path d="M25 50.8182C35.7491 50.8182 44.9126 44.0338 48.445 34.5138H1.55493C5.08726 44.0338 14.2508 50.8182 25 50.8182Z" fill="black"/>
<path d="M19.0217 24.1877C19.0081 24.1877 18.9947 24.1886 18.981 24.1888V24.1877H14.202C14.4443 23.2516 15.2937 22.5572 16.3043 22.5572V19.2964C13.3076 19.2964 10.8696 21.7345 10.8696 24.7312V27.3942V27.4486H18.981H19.0217C19.3214 27.4486 19.5652 27.6925 19.5652 27.9921V29.079H8.69556V32.3398H22.826V27.992C22.826 25.8943 21.1194 24.1877 19.0217 24.1877V24.1877Z" fill="#496E2D"/>
<path d="M27.1739 29.079V19.2964H23.9131V32.3399H29.3479V29.079H27.1739Z" fill="#496E2D"/>
<path d="M38.0434 29.0791V19.2964H34.7825V29.0791H33.6955V25.8183H30.4347V32.34H40.2173V29.0791H38.0434Z" fill="#496E2D"/>
</g>
<defs>
<clipPath id="clip0_402_123">
<rect width="50" height="50" fill="white" transform="translate(0 0.818176)"/>
</clipPath>
</defs>
</svg>
