<svg width="50" height="51" viewBox="0 0 50 51" fill="none" xmlns="http://www.w3.org/2000/svg">
<g clip-path="url(#clip0_402_123)">
<path d="M25 50.8182C38.8071 50.8182 50 39.6253 50 25.8182C50 12.0111 38.8071 0.818176 25 0.818176C11.1929 0.818176 0 12.0111 0 25.8182C0 39.6253 11.1929 50.8182 25 50.8182Z" fill="#F0F0F0"/>
<path d="M49.9999 25.8182C49.9999 15.0691 43.2156 5.90546 33.6956 2.37323V49.2634C43.2156 45.7308 49.9999 36.5674 49.9999 25.8182V25.8182Z" fill="#FF9811"/>
<path d="M0 25.8182C0 36.5674 6.78437 45.7308 16.3044 49.2633V2.37323C6.78437 5.90546 0 15.0691 0 25.8182V25.8182Z" fill="#6DA544"/>
</g>
<defs>
<clipPath id="clip0_402_123">
<rect width="50" height="50" fill="white" transform="translate(0 0.818176)"/>
</clipPath>
</defs>
</svg>
