<svg width="50" height="51" viewBox="0 0 50 51" fill="none" xmlns="http://www.w3.org/2000/svg">
<g clip-path="url(#clip0_402_123)">
<path d="M25 50.8182C38.8071 50.8182 50 39.6253 50 25.8182C50 12.0111 38.8071 0.818176 25 0.818176C11.1929 0.818176 0 12.0111 0 25.8182C0 39.6253 11.1929 50.8182 25 50.8182Z" fill="#D80027"/>
<path d="M34.2565 17.5772L32.4896 23.8829L27.1878 22.9039L23.7751 15.8693L14.5557 19.1408L13.8286 17.092L11.4165 16.7948L13.234 21.9168L19.5786 20.2943L21.3816 25.3752L16.9957 31.8481L24.4388 38.1963L23.028 39.8503L23.9767 42.088L27.5038 37.9529L22.9263 33.2696L26.425 29.1677L34.2236 29.7296L35.9999 20.1095L38.1377 20.5043L39.6015 18.5639L34.2565 17.5772Z" fill="#F0F0F0"/>
</g>
<defs>
<clipPath id="clip0_402_123">
<rect width="50" height="50" fill="white" transform="translate(0 0.818176)"/>
</clipPath>
</defs>
</svg>
