<svg width="50" height="51" viewBox="0 0 50 51" fill="none" xmlns="http://www.w3.org/2000/svg">
<g clip-path="url(#clip0_402_123)">
<path d="M25 50.8182C38.8071 50.8182 50 39.6253 50 25.8182C50 12.0111 38.8071 0.818176 25 0.818176C11.1929 0.818176 0 12.0111 0 25.8182C0 39.6253 11.1929 50.8182 25 50.8182Z" fill="#F0F0F0"/>
<path d="M34.4133 20.3834H28.1376L24.9999 14.9486L21.8623 20.3834H15.5865L18.7246 25.8181L15.5865 31.2529H21.8623L24.9999 36.6877L28.1376 31.2529H34.4133L31.2752 25.8181L34.4133 20.3834ZM28.8549 25.8181L26.9276 29.1568H23.0726L21.1449 25.8181L23.0725 22.4795H26.9275L28.8549 25.8181ZM24.9999 19.1407L25.7173 20.3833H24.2827L24.9999 19.1407ZM19.2173 22.4795H20.6521L19.9347 23.722L19.2173 22.4795ZM19.2173 29.1568L19.9348 27.9142L20.6522 29.1568H19.2173ZM24.9999 32.4955L24.2826 31.2529H25.7173L24.9999 32.4955ZM30.7825 29.1568H29.3478L30.0653 27.9142L30.7825 29.1568ZM29.3478 22.4795H30.7825L30.0652 23.722L29.3478 22.4795Z" fill="#0052B4"/>
<path d="M40.5622 6.25293H9.43777C7.15623 8.07012 5.19958 10.2773 3.66931 12.7747H46.3306C44.8003 10.2774 42.8436 8.07012 40.5622 6.25293V6.25293Z" fill="#0052B4"/>
<path d="M9.43777 45.3834H40.5621C42.8436 43.5662 44.8003 41.359 46.3305 38.8616H3.66931C5.19968 41.3589 7.15632 43.5662 9.43777 45.3834V45.3834Z" fill="#0052B4"/>
</g>
<defs>
<clipPath id="clip0_402_123">
<rect width="50" height="50" fill="white" transform="translate(0 0.818176)"/>
</clipPath>
</defs>
</svg>
