<svg width="50" height="51" viewBox="0 0 50 51" fill="none" xmlns="http://www.w3.org/2000/svg">
<g clip-path="url(#clip0_402_123)">
<path d="M25 50.8182C38.8071 50.8182 50 39.6253 50 25.8182C50 12.0111 38.8071 0.818176 25 0.818176C11.1929 0.818176 0 12.0111 0 25.8182C0 39.6253 11.1929 50.8182 25 50.8182Z" fill="#FFDA44"/>
<path d="M40.2203 5.98614C36.0047 2.74581 30.7279 0.818176 24.9999 0.818176C19.272 0.818176 13.9951 2.74591 9.77954 5.98614L24.9999 21.2065L40.2203 5.98614Z" fill="#6DA544"/>
<path d="M5.16787 10.5978C1.92773 14.8134 0 20.0902 0 25.8182C0 31.5461 1.92773 36.823 5.16797 41.0387L20.3884 25.8182L5.16787 10.5978Z" fill="black"/>
<path d="M9.77954 45.6502C13.9952 48.8905 19.272 50.8182 25 50.8182C30.7279 50.8182 36.0047 48.8904 40.2204 45.6502L25 30.4299L9.77954 45.6502Z" fill="#6DA544"/>
<path d="M44.832 41.0385C48.0723 36.8229 50 31.5461 50 25.8182C50 20.0902 48.0723 14.8134 44.832 10.5978L29.6117 25.8182L44.832 41.0385Z" fill="black"/>
</g>
<defs>
<clipPath id="clip0_402_123">
<rect width="50" height="50" fill="white" transform="translate(0 0.818176)"/>
</clipPath>
</defs>
</svg>
