<svg width="50" height="51" viewBox="0 0 50 51" fill="none" xmlns="http://www.w3.org/2000/svg">
<g clip-path="url(#clip0_402_123)">
<path d="M25 50.8182C38.8071 50.8182 50 39.6253 50 25.8182C50 12.0111 38.8071 0.818176 25 0.818176C11.1929 0.818176 0 12.0111 0 25.8182C0 39.6253 11.1929 50.8182 25 50.8182Z" fill="#F0F0F0"/>
<path d="M44.8338 41.0403L29.6117 25.8183H29.6116L44.8338 10.5959C44.1773 9.74277 43.4591 8.92197 42.6778 8.14043C41.8962 7.35898 41.0755 6.64072 40.2223 5.98438L25.0001 21.2065L25 21.2066L9.77788 5.98438C8.92485 6.64082 8.10396 7.35889 7.32241 8.14043C6.54087 8.92197 5.82271 9.74277 5.16636 10.5959L20.3885 25.818L20.3886 25.8181L5.16626 41.0404C5.8228 41.8936 6.54097 42.7144 7.32231 43.4959C8.10386 44.2773 8.92456 44.9956 9.77778 45.652L25 30.4298L25.0001 30.4297L40.2223 45.6519C41.0753 44.9954 41.8962 44.2772 42.6778 43.4958C43.4593 42.7143 44.1774 41.8935 44.8338 41.0403V41.0403Z" fill="#D80027"/>
<path d="M20.6521 8.42689L25 9.51381L29.3478 8.42689V4.73129L27.6086 5.60082L25 2.99213L22.3913 5.60082L20.6521 4.73129V8.42689Z" fill="#FFDA44"/>
<path d="M20.6521 8.42688V11.1445C20.6521 14.4726 25 15.4923 25 15.4923C25 15.4923 29.3478 14.4725 29.3478 11.1445V8.42688H20.6521Z" fill="#D80027"/>
</g>
<defs>
<clipPath id="clip0_402_123">
<rect width="50" height="50" fill="white" transform="translate(0 0.818176)"/>
</clipPath>
</defs>
</svg>
