<svg width="50" height="51" viewBox="0 0 50 51" fill="none" xmlns="http://www.w3.org/2000/svg">
<g clip-path="url(#clip0_402_123)">
<path d="M25 50.8182C38.8071 50.8182 50 39.6253 50 25.8182C50 12.0111 38.8071 0.818176 25 0.818176C11.1929 0.818176 0 12.0111 0 25.8182C0 39.6253 11.1929 50.8182 25 50.8182Z" fill="#F0F0F0"/>
<path d="M15.2174 17.1226H48.4449C44.9127 7.60255 35.749 0.818176 25 0.818176C18.0963 0.818176 11.8469 3.61691 7.32312 8.14132L15.2174 17.1226Z" fill="black"/>
<path d="M15.2174 34.5138H48.4449C44.9127 44.0338 35.749 50.8182 25 50.8182C18.0963 50.8182 11.8469 48.0195 7.32312 43.495L15.2174 34.5138Z" fill="#6DA544"/>
<path d="M7.32231 8.14044C-2.44077 17.9035 -2.44077 33.7327 7.32231 43.4959C11.3568 39.4614 15.237 35.5813 25 25.8182L7.32231 8.14044Z" fill="#D80027"/>
<path d="M9.92241 20.3834L11.2944 23.2525L14.3929 22.5364L13.0052 25.3978L15.4969 27.3738L12.3947 28.0729L12.4033 31.253L9.92241 29.2634L7.44145 31.253L7.45015 28.0729L4.3479 27.3738L6.8395 25.3978L5.452 22.5364L8.55034 23.2525L9.92241 20.3834Z" fill="#F0F0F0"/>
</g>
<defs>
<clipPath id="clip0_402_123">
<rect width="50" height="50" fill="white" transform="translate(0 0.818176)"/>
</clipPath>
</defs>
</svg>
