<svg width="50" height="51" viewBox="0 0 50 51" fill="none" xmlns="http://www.w3.org/2000/svg">
<g clip-path="url(#clip0_402_123)">
<path d="M25 50.8182C38.8071 50.8182 50 39.6253 50 25.8182C50 12.0111 38.8071 0.818176 25 0.818176C11.1929 0.818176 0 12.0111 0 25.8182C0 39.6253 11.1929 50.8182 25 50.8182Z" fill="#F0F0F0"/>
<path d="M25 0.818176C15.0885 0.818176 6.52446 6.58624 2.48071 14.9486H47.5193C43.4756 6.58624 34.9115 0.818176 25 0.818176V0.818176Z" fill="black"/>
<path d="M25 50.8182C15.0885 50.8182 6.52446 45.0501 2.48071 36.6877H47.5193C43.4756 45.0501 34.9115 50.8182 25 50.8182V50.8182Z" fill="#496E2D"/>
<path d="M48.8194 18.2095H1.18057C0.414746 20.6088 0 23.1649 0 25.8182C0 28.4714 0.414746 31.0275 1.18057 33.4269H48.8193C49.5853 31.0275 50 28.4714 50 25.8182C50 23.1649 49.5853 20.6088 48.8194 18.2095Z" fill="#A2001D"/>
<path d="M32.7847 12.371L29.824 11.0045L25 21.9275L20.176 11.0045L17.2153 12.371L23.2044 25.8182L17.2153 39.2654L20.176 40.6319L25 29.7089L29.824 40.6319L32.7847 39.2654L26.7956 25.8182L32.7847 12.371Z" fill="#F0F0F0"/>
<path d="M27.0108 13.6589C25.8647 12.4073 25 11.6877 25 11.6877C25 11.6877 24.1352 12.4072 22.9891 13.6589V37.9773C24.1352 39.2291 25 39.9487 25 39.9487C25 39.9487 25.8647 39.2292 27.0108 37.9774V13.6589Z" fill="#F0F0F0"/>
<path d="M19.5652 18.3224V33.3138C20.7763 35.4598 22.2586 37.2188 23.3696 38.385V13.2513C22.2586 14.4174 20.7762 16.1765 19.5652 18.3224V18.3224Z" fill="#A2001D"/>
<path d="M30.4348 18.3224C29.2235 16.1764 27.7413 14.4174 26.6304 13.2513V38.385C27.7412 37.2188 29.2235 35.4598 30.4348 33.3138V18.3224Z" fill="#A2001D"/>
<path d="M30.4348 18.3224V33.3138C31.6609 31.141 32.6087 28.5718 32.6087 25.8182C32.6087 23.0646 31.6609 20.4952 30.4348 18.3224Z" fill="black"/>
<path d="M19.5653 18.3224V33.3138C18.3392 31.141 17.3914 28.5718 17.3914 25.8182C17.3914 23.0646 18.3392 20.4952 19.5653 18.3224Z" fill="black"/>
</g>
<defs>
<clipPath id="clip0_402_123">
<rect width="50" height="50" fill="white" transform="translate(0 0.818176)"/>
</clipPath>
</defs>
</svg>
