<svg width="50" height="51" viewBox="0 0 50 51" fill="none" xmlns="http://www.w3.org/2000/svg">
<g clip-path="url(#clip0_402_123)">
<path d="M0 25.8182C0 12.0111 11.193 0.818176 25 0.818176C38.807 0.818176 50 12.0111 50 25.8182" fill="#D80027"/>
<path d="M33.6957 24.068L30.1424 25.7392L32.0346 29.1805L28.1763 28.4423L27.6875 32.34L25 29.4733L22.3125 32.34L21.8238 28.4423L17.9655 29.1803L19.8576 25.7392L16.3044 24.068L19.8576 22.3965L17.9655 18.9556L21.8237 19.6935L22.3126 15.796L25 18.6625L27.6875 15.796L28.1763 19.6935L32.0347 18.9556L30.1427 22.3968L33.6957 24.068Z" fill="#FFDA44"/>
<path d="M31.5218 8.97031H26.6305C26.6305 8.07002 25.9004 7.33984 25 7.33984C24.0997 7.33984 23.3696 8.06992 23.3696 8.97031H18.4783C18.4783 9.8707 19.2626 10.6008 20.163 10.6008H20.1086C20.1086 11.5012 20.8385 12.2313 21.7391 12.2313C21.7391 13.1316 22.469 13.8617 23.3696 13.8617H26.6304C27.5307 13.8617 28.2609 13.1317 28.2609 12.2313C29.1612 12.2313 29.8914 11.5013 29.8914 10.6008H29.837C30.7375 10.6008 31.5218 9.8708 31.5218 8.97031V8.97031Z" fill="#FFDA44"/>
<path d="M50 25.8182C50 39.6252 38.807 50.8182 25 50.8182C11.193 50.8182 0 39.6252 0 25.8182H50Z" fill="#F0F0F0"/>
<path d="M25 50.8181C32.8146 50.8181 39.7906 47.2318 44.3752 41.6162C43.5506 41.054 43.1054 40.1452 41.6663 40.1452C39.583 40.1452 39.583 42.0501 37.4998 42.0501C35.4166 42.0501 35.4165 40.1452 33.3333 40.1452C31.25 40.1452 31.25 42.0501 29.1666 42.0501C27.0832 42.0501 27.0831 40.1452 24.9996 40.1452C22.9163 40.1452 22.9163 42.0501 20.8331 42.0501C18.7501 42.0501 18.7501 40.1452 16.6668 40.1452C14.5833 40.1452 14.5833 42.0501 12.4998 42.0501C10.4163 42.0501 10.4163 40.1452 8.33281 40.1452C6.89395 40.1452 6.44873 41.0538 5.62451 41.616C10.2089 47.2318 17.1853 50.8181 25 50.8181V50.8181Z" fill="#0052B4"/>
<path d="M45.833 29.0066C43.7497 29.0066 43.7497 27.1017 41.6663 27.1017C39.583 27.1017 39.583 29.0066 37.4998 29.0066C35.4165 29.0066 35.4165 27.1017 33.3332 27.1017C31.2499 27.1017 31.2499 29.0066 29.1665 29.0066C27.0832 29.0066 27.0831 27.1017 24.9996 27.1017C22.9163 27.1017 22.9163 29.0066 20.8331 29.0066C18.75 29.0066 18.75 27.1017 16.6667 27.1017C14.5833 27.1017 14.5833 29.0066 12.4998 29.0066C10.4163 29.0066 10.4163 27.1017 8.33276 27.1017C6.24976 27.1017 6.24976 29.0066 4.16645 29.0066C2.09438 29.0066 2.08237 27.1227 0.0324707 27.1026C0.0901855 28.2462 0.226709 29.3688 0.433154 30.4667C2.0937 30.7107 2.23911 32.3399 4.16655 32.3399C6.24985 32.3399 6.24985 30.4352 8.33286 30.4352C10.4164 30.4352 10.4164 32.3399 12.4999 32.3399C14.5833 32.3399 14.5833 30.4352 16.6668 30.4352C18.7501 30.4352 18.7501 32.3399 20.8332 32.3399C22.9165 32.3399 22.9165 30.4352 24.9997 30.4352C27.0832 30.4352 27.0832 32.3399 29.1666 32.3399C31.2501 32.3399 31.2501 30.4352 33.3333 30.4352C35.4166 30.4352 35.4166 32.3399 37.4998 32.3399C39.5831 32.3399 39.5832 30.4352 41.6664 30.4352C43.7498 30.4352 43.7498 32.3399 45.8331 32.3399C47.7607 32.3399 47.9061 30.7108 49.5667 30.4668C49.7733 29.3688 49.9096 28.2463 49.9676 27.1027C47.9173 27.1229 47.9051 29.0066 45.833 29.0066V29.0066Z" fill="#0052B4"/>
<path d="M41.6663 33.6235C39.583 33.6235 39.583 35.5284 37.4998 35.5284C35.4165 35.5284 35.4165 33.6235 33.3333 33.6235C31.2499 33.6235 31.2499 35.5284 29.1665 35.5284C27.0831 35.5284 27.0831 33.6235 24.9996 33.6235C22.9163 33.6235 22.9163 35.5284 20.8331 35.5284C18.75 35.5284 18.75 33.6235 16.6667 33.6235C14.5833 33.6235 14.5833 35.5284 12.4998 35.5284C10.4163 35.5284 10.4163 33.6235 8.33276 33.6235C6.24976 33.6235 6.24976 35.5284 4.16646 35.5284C2.67788 35.5284 2.25269 34.5562 1.37134 34.0007C1.95806 35.6959 2.72134 37.3085 3.64058 38.8159C3.80044 38.8454 3.97446 38.8617 4.16646 38.8617C6.24976 38.8617 6.24976 36.957 8.33276 36.957C10.4163 36.957 10.4163 38.8617 12.4998 38.8617C14.5833 38.8617 14.5833 36.957 16.6667 36.957C18.75 36.957 18.75 38.8617 20.8331 38.8617C22.9164 38.8617 22.9164 36.957 24.9996 36.957C27.0831 36.957 27.0831 38.8617 29.1665 38.8617C31.25 38.8617 31.25 36.957 33.3333 36.957C35.4166 36.957 35.4165 38.8617 37.4998 38.8617C39.583 38.8617 39.5831 36.957 41.6663 36.957C43.7498 36.957 43.7498 38.8617 45.833 38.8617C46.0251 38.8617 46.1992 38.8454 46.359 38.8158C47.2783 37.3085 48.0415 35.6959 48.6285 34.0008C47.747 34.556 47.3217 35.5284 45.833 35.5284C43.7498 35.5284 43.7498 33.6235 41.6663 33.6235Z" fill="#0052B4"/>
<path d="M49.9225 23.8431C47.9176 23.8905 47.8899 25.7458 45.833 25.7458C43.7497 25.7458 43.7497 23.8409 41.6663 23.8409C39.583 23.8409 39.583 25.7458 37.4998 25.7458C35.4166 25.7458 35.4165 23.8409 33.3333 23.8409C31.25 23.8409 31.25 25.7458 29.1666 25.7458C27.0832 25.7458 27.0831 23.8409 24.9996 23.8409C22.9163 23.8409 22.9163 25.7458 20.8331 25.7458C18.7501 25.7458 18.7501 23.8409 16.6668 23.8409C14.5833 23.8409 14.5833 25.7458 12.4998 25.7458C10.4163 25.7458 10.4163 23.8409 8.33281 23.8409C6.2498 23.8409 6.2498 25.7458 4.1665 25.7458C2.10996 25.7458 2.08213 23.8906 0.0774414 23.8431C0.0265625 24.4948 0 25.1534 0 25.8182C0 26.2736 0.0128906 26.726 0.037207 27.1753C2.08242 27.1983 2.096 29.079 4.1666 29.079C6.2499 29.079 6.2499 27.1743 8.33291 27.1743C10.4164 27.1743 10.4164 29.079 12.4999 29.079C14.5834 29.079 14.5834 27.1743 16.6669 27.1743C18.7502 27.1743 18.7502 29.079 20.8332 29.079C22.9165 29.079 22.9165 27.1743 24.9997 27.1743C27.0832 27.1743 27.0832 29.079 29.1667 29.079C31.2502 29.079 31.2502 27.1743 33.3334 27.1743C35.4167 27.1743 35.4167 29.079 37.4999 29.079C39.5831 29.079 39.5832 27.1743 41.6664 27.1743C43.7499 27.1743 43.7499 29.079 45.8331 29.079C47.9039 29.079 47.9175 27.1983 49.9631 27.1753C49.9871 26.7259 50 26.2736 50 25.8182C50 25.1534 49.9734 24.4948 49.9225 23.8431V23.8431Z" fill="#F0F0F0"/>
</g>
<defs>
<clipPath id="clip0_402_123">
<rect width="50" height="50" fill="white" transform="translate(0 0.818176)"/>
</clipPath>
</defs>
</svg>
