<svg width="50" height="51" viewBox="0 0 50 51" fill="none" xmlns="http://www.w3.org/2000/svg">
<g clip-path="url(#clip0_402_123)">
<path d="M25 50.8182C38.8071 50.8182 50 39.6253 50 25.8182C50 12.0111 38.8071 0.818176 25 0.818176C11.1929 0.818176 0 12.0111 0 25.8182C0 39.6253 11.1929 50.8182 25 50.8182Z" fill="#0052B4"/>
<path d="M10.9813 16.0357L11.5209 17.6966H13.267L11.8544 18.7229L12.394 20.3836L10.9813 19.3573L9.56851 20.3836L10.1083 18.7229L8.69556 17.6966H10.4416L10.9813 16.0357Z" fill="#F0F0F0"/>
<path d="M16.416 14.4053L16.9557 16.0662H18.7018L17.2892 17.0924L17.8287 18.7531L16.416 17.7268L15.0033 18.7531L15.543 17.0924L14.1304 16.0662H15.8765L16.416 14.4053Z" fill="#F0F0F0"/>
<path d="M21.8508 12.7748L22.3905 14.4357H24.1366L22.724 15.462L23.2635 17.1227L21.8508 16.0963L20.4381 17.1227L20.9778 15.462L19.5652 14.4357H21.3113L21.8508 12.7748Z" fill="#F0F0F0"/>
<path d="M39.0187 16.0357L38.479 17.6966H36.7329L38.1456 18.7229L37.606 20.3836L39.0187 19.3573L40.4314 20.3836L39.8917 18.7229L41.3044 17.6966H39.5583L39.0187 16.0357Z" fill="#F0F0F0"/>
<path d="M33.5838 14.4053L33.0442 16.0662H31.2981L32.7108 17.0924L32.1711 18.7531L33.5838 17.7268L34.9965 18.7531L34.4569 17.0924L35.8695 16.0662H34.1234L33.5838 14.4053Z" fill="#F0F0F0"/>
<path d="M28.149 12.7748L27.6094 14.4357H25.8633L27.2759 15.462L26.7363 17.1227L28.149 16.0963L29.5617 17.1227L29.0221 15.462L30.4347 14.4357H28.6886L28.149 12.7748Z" fill="#F0F0F0"/>
<path d="M29.3479 26.9051L25 21.4703L22.8261 22.5573V24.7312L19.5653 26.9051H17.3914V29.7136C20.5777 31.0038 22.8261 34.1258 22.8261 37.7747H25V35.6008L27.174 33.4269L29.3479 35.6008L31.5218 33.4269V31.253L33.6958 27.9921L29.3479 26.9051Z" fill="#FFDA44"/>
</g>
<defs>
<clipPath id="clip0_402_123">
<rect width="50" height="50" fill="white" transform="translate(0 0.818176)"/>
</clipPath>
</defs>
</svg>
