<svg width="50" height="51" viewBox="0 0 50 51" fill="none" xmlns="http://www.w3.org/2000/svg">
<g clip-path="url(#clip0_402_123)">
<path d="M25 50.8182C38.8071 50.8182 50 39.6253 50 25.8182C50 12.0111 38.8071 0.818176 25 0.818176C11.1929 0.818176 0 12.0111 0 25.8182C0 39.6253 11.1929 50.8182 25 50.8182Z" fill="#D80027"/>
<path d="M37.2262 25.8182L32.2306 28.168L34.8909 33.0065L29.4658 31.9685L28.7787 37.4486L24.9999 33.4183L21.2213 37.4486L20.5339 31.9685L15.1093 33.0063L17.7695 28.1678L12.7737 25.8182L17.7695 23.4684L15.1093 18.6298L20.5337 19.6679L21.2215 14.1877L24.9999 18.2181L28.7789 14.1877L29.4658 19.6679L34.8911 18.6298L32.2307 23.4687L37.2262 25.8182Z" fill="#FFDA44"/>
<path d="M25 33.4269C29.2022 33.4269 32.6087 30.0203 32.6087 25.8182C32.6087 21.616 29.2022 18.2095 25 18.2095C20.7979 18.2095 17.3914 21.616 17.3914 25.8182C17.3914 30.0203 20.7979 33.4269 25 33.4269Z" fill="#D80027"/>
<path d="M21.1956 25.8182C21.0123 25.8182 20.8313 25.8276 20.6527 25.8453C20.6593 26.8991 21.0405 27.8637 21.6702 28.613C22.0061 27.709 22.5077 26.8847 23.1402 26.1792C22.5361 25.9469 21.8807 25.8182 21.1956 25.8182Z" fill="#FFDA44"/>
<path d="M23.5376 29.9132C23.9946 30.0765 24.4867 30.1661 25 30.1661C25.5133 30.1661 26.0054 30.0765 26.4624 29.9132C26.2133 28.9355 25.6989 28.0626 25 27.3767C24.3011 28.0625 23.7867 28.9355 23.5376 29.9132Z" fill="#FFDA44"/>
<path d="M28.7651 23.6449C28.0134 22.3455 26.6094 21.4703 25 21.4703C23.3906 21.4703 21.9866 22.3454 21.2349 23.6449C22.6054 23.6519 23.8905 24.0245 25 24.668C26.1095 24.0245 27.3944 23.6519 28.7651 23.6449Z" fill="#FFDA44"/>
<path d="M26.8595 26.1793C27.492 26.8847 27.9936 27.709 28.3295 28.6131C28.9592 27.8638 29.3405 26.8993 29.347 25.8454C29.1683 25.8276 28.9873 25.8183 28.8041 25.8183C28.1192 25.8182 27.4638 25.9469 26.8595 26.1793V26.1793Z" fill="#FFDA44"/>
</g>
<defs>
<clipPath id="clip0_402_123">
<rect width="50" height="50" fill="white" transform="translate(0 0.818176)"/>
</clipPath>
</defs>
</svg>
