<svg width="50" height="51" viewBox="0 0 50 51" fill="none" xmlns="http://www.w3.org/2000/svg">
<g clip-path="url(#clip0_402_123)">
<path d="M47.5194 14.9486C43.4756 6.58624 34.9116 0.818176 25 0.818176C15.0885 0.818176 6.52446 6.58624 2.48071 14.9486L25 17.1226L47.5194 14.9486Z" fill="#D80027"/>
<path d="M2.48071 36.6877C6.52446 45.0501 15.0885 50.8182 25 50.8182C34.9116 50.8182 43.4756 45.0501 47.5194 36.6877L25 34.5138L2.48071 36.6877Z" fill="#D80027"/>
<path d="M47.5193 14.9487H2.48066C0.891406 18.2353 0 21.9226 0 25.8182C0 29.7138 0.891406 33.4011 2.48066 36.6877H47.5192C49.1087 33.4011 50 29.7138 50 25.8182C50 21.9226 49.1087 18.2353 47.5193 14.9487V14.9487Z" fill="#0052B4"/>
<path d="M25 34.5138C29.8025 34.5138 33.6957 30.6206 33.6957 25.8182C33.6957 21.0157 29.8025 17.1226 25 17.1226C20.1976 17.1226 16.3044 21.0157 16.3044 25.8182C16.3044 30.6206 20.1976 34.5138 25 34.5138Z" fill="#F0F0F0"/>
</g>
<defs>
<clipPath id="clip0_402_123">
<rect width="50" height="50" fill="white" transform="translate(0 0.818176)"/>
</clipPath>
</defs>
</svg>
