<svg width="50" height="51" viewBox="0 0 50 51" fill="none" xmlns="http://www.w3.org/2000/svg">
<g clip-path="url(#clip0_402_123)">
<path d="M25 50.8182C38.8071 50.8182 50 39.6253 50 25.8182C50 12.0111 38.8071 0.818176 25 0.818176C11.1929 0.818176 0 12.0111 0 25.8182C0 39.6253 11.1929 50.8182 25 50.8182Z" fill="#F0F0F0"/>
<path d="M25 0.818176C13.4493 0.818176 3.72996 8.65226 0.861206 19.2964H49.1388C46.27 8.65226 36.5507 0.818176 25 0.818176Z" fill="#A2001D"/>
<path d="M25 50.8182C36.5507 50.8182 46.27 42.9841 49.1387 32.34H0.861206C3.72996 42.984 13.4493 50.8182 25 50.8182Z" fill="#A2001D"/>
</g>
<defs>
<clipPath id="clip0_402_123">
<rect width="50" height="50" fill="white" transform="translate(0 0.818176)"/>
</clipPath>
</defs>
</svg>
