<svg width="50" height="51" viewBox="0 0 50 51" fill="none" xmlns="http://www.w3.org/2000/svg">
<g clip-path="url(#clip0_402_123)">
<path d="M25 50.8182C38.8071 50.8182 50 39.6253 50 25.8182C50 12.0111 38.8071 0.818176 25 0.818176C11.1929 0.818176 0 12.0111 0 25.8182C0 39.6253 11.1929 50.8182 25 50.8182Z" fill="#F0F0F0"/>
<path d="M25 0.818176C15.0885 0.818176 6.52446 6.58624 2.48071 14.9486H47.5193C43.4756 6.58624 34.9115 0.818176 25 0.818176V0.818176Z" fill="#D80027"/>
<path d="M25 50.8182C34.9115 50.8182 43.4756 45.0501 47.5194 36.6877H2.48071C6.52446 45.0501 15.0885 50.8182 25 50.8182Z" fill="#D80027"/>
<path d="M31.5218 30.166L25 18.2095L18.4783 30.166H23.3696V33.4269H26.6305V30.166H31.5218Z" fill="#6DA544"/>
</g>
<defs>
<clipPath id="clip0_402_123">
<rect width="50" height="50" fill="white" transform="translate(0 0.818176)"/>
</clipPath>
</defs>
</svg>
