<svg width="50" height="51" viewBox="0 0 50 51" fill="none" xmlns="http://www.w3.org/2000/svg">
<g clip-path="url(#clip0_402_123)">
<path d="M0 25.8182C0 29.7137 0.891309 33.401 2.48066 36.6877L25 37.7747L47.5193 36.6878C49.1087 33.401 50 29.7137 50 25.8182C50 21.9227 49.1087 18.2354 47.5193 14.9486L25 13.8616L2.48066 14.9485C0.891309 18.2354 0 21.9227 0 25.8182H0Z" fill="#F0F0F0"/>
<path d="M25 50.8182C34.9115 50.8182 43.4756 45.0501 47.5194 36.6877H2.48071C6.52446 45.0501 15.0885 50.8182 25 50.8182Z" fill="#6DA544"/>
<path d="M25 0.818176C15.0885 0.818176 6.52446 6.58624 2.48071 14.9486H47.5193C43.4756 6.58624 34.9115 0.818176 25 0.818176V0.818176Z" fill="#0052B4"/>
<path d="M26.6305 25.2747V19.2965H23.3696V25.2747L19.4312 29.2133C20.5766 31.0883 22.6421 32.34 25.0001 32.34C27.3581 32.34 29.4235 31.0883 30.569 29.2133L26.6305 25.2747Z" fill="black"/>
</g>
<defs>
<clipPath id="clip0_402_123">
<rect width="50" height="50" fill="white" transform="translate(0 0.818176)"/>
</clipPath>
</defs>
</svg>
