<svg width="50" height="51" viewBox="0 0 50 51" fill="none" xmlns="http://www.w3.org/2000/svg">
<g clip-path="url(#clip0_402_123)">
<path d="M25 50.8182C38.8071 50.8182 50 39.6253 50 25.8182C50 12.0111 38.8071 0.818176 25 0.818176C11.1929 0.818176 0 12.0111 0 25.8182C0 39.6253 11.1929 50.8182 25 50.8182Z" fill="#F0F0F0"/>
<path d="M5.71448 9.90918H44.2856C42.861 8.18408 41.2086 6.6543 39.3757 5.36377H10.6243C8.79143 6.6541 7.13918 8.18398 5.71448 9.90918V9.90918Z" fill="#F0F0F0"/>
<path d="M0 25.8182C0 26.5845 0.0364258 27.3421 0.103906 28.0909H49.8961C49.9636 27.3421 50 26.5845 50 25.8182C50 25.0519 49.9636 24.2943 49.8961 23.5455H0.103906C0.0364258 24.2943 0 25.0519 0 25.8182H0Z" fill="#F0F0F0"/>
<path d="M2.72617 37.1817H47.2738C48.01 35.7417 48.6103 34.2211 49.0586 32.6364H0.941406C1.38955 34.2211 1.99014 35.7418 2.72617 37.1817V37.1817Z" fill="#F0F0F0"/>
<path d="M10.6243 46.2728H39.3756C41.2085 44.9822 42.8609 43.4525 44.2855 41.7274H5.71448C7.13918 43.4523 8.79143 44.9822 10.6243 46.2728V46.2728Z" fill="#F0F0F0"/>
<path d="M0.941284 19H49.0587C48.6104 17.4152 48.0099 15.8945 47.2738 14.4546H2.72615C1.99011 15.8945 1.38953 17.4152 0.941284 19V19Z" fill="#F0F0F0"/>
<path d="M11.9565 5.36359H39.3757C35.3093 2.5005 30.3513 0.818176 25 0.818176C21.7392 0.818176 16.0229 2.5005 11.9565 5.36359Z" fill="#D80027"/>
<path d="M23.9131 14.4546H47.2738C46.4425 12.8283 45.4384 11.305 44.2855 9.90918H23.9131V14.4546Z" fill="#D80027"/>
<path d="M23.9131 23.5455H49.8961C49.7555 21.9848 49.4729 20.4649 49.0587 19.0001H23.9131V23.5455Z" fill="#D80027"/>
<path d="M0.941382 32.6364H49.0586C49.4728 31.1718 49.7554 29.6517 49.8961 28.091H0.103882C0.244507 29.6517 0.527124 31.1717 0.941382 32.6364V32.6364Z" fill="#D80027"/>
<path d="M5.71448 41.7272H44.2856C45.4384 40.3312 46.4425 38.8079 47.2739 37.1818H2.7262C3.55754 38.808 4.56165 40.3314 5.71448 41.7272V41.7272Z" fill="#D80027"/>
<path d="M25 50.8182C30.3512 50.8182 35.3092 49.1359 39.3756 46.2728H10.6243C14.6907 49.1359 19.6487 50.8182 25 50.8182Z" fill="#D80027"/>
<path d="M0.941284 19C0.527026 20.4649 0.244507 21.9847 0.103882 23.5454H25V0.818176C13.5566 0.818176 3.90925 8.50685 0.941284 19V19Z" fill="#0052B4"/>
<path d="M14.8816 7.33997L16.5003 12.3219H21.7391L17.5011 15.4012L19.1196 20.3834L14.8816 17.3043L10.6434 20.3834L12.2624 15.4012L8.02429 12.3219H13.2629L14.8816 7.33997Z" fill="#F0F0F0"/>
</g>
<defs>
<clipPath id="clip0_402_123">
<rect width="50" height="50" fill="white" transform="translate(0 0.818176)"/>
</clipPath>
</defs>
</svg>
