<svg width="50" height="51" viewBox="0 0 50 51" fill="none" xmlns="http://www.w3.org/2000/svg">
<g clip-path="url(#clip0_402_123)">
<path d="M2.48066 14.9486C0.891406 18.2354 0 21.9226 0 25.8182C0 29.7138 0.891406 33.401 2.48066 36.6877L25 38.8616L47.5193 36.6877C49.1086 33.401 50 29.7138 50 25.8182C50 21.9226 49.1086 18.2354 47.5193 14.9486L25 12.7747L2.48066 14.9486Z" fill="black"/>
<path d="M2.48157 36.6877C6.52512 45.0501 15.0885 50.8182 25 50.8182C34.9115 50.8182 43.4749 45.0501 47.5185 36.6877H2.48157Z" fill="#496E2D"/>
<path d="M2.48157 14.9486H47.5185C43.4749 6.58624 34.9115 0.818176 25 0.818176C15.0885 0.818176 6.52512 6.58624 2.48157 14.9486Z" fill="#D80027"/>
<path d="M30.8189 21.2465L32.8701 24.0732L36.1921 22.996L34.1376 25.8203L36.1886 28.6468L32.8679 27.5656L30.8134 30.3898L30.8155 26.8975L27.4946 25.8162L30.8167 24.7391L30.8189 21.2465Z" fill="#F0F0F0"/>
<path d="M25.2208 32.8834C21.3189 32.8834 18.1556 29.7202 18.1556 25.8182C18.1556 21.9162 21.3189 18.753 25.2208 18.753C26.4375 18.753 27.5823 19.0606 28.5817 19.6022C27.0137 18.0689 24.8696 17.1225 22.5035 17.1225C17.7009 17.1225 13.8079 21.0157 13.8079 25.8181C13.8079 30.6205 17.701 34.5137 22.5035 34.5137C24.8697 34.5137 27.0138 33.5673 28.5817 32.034C27.5822 32.5758 26.4375 32.8834 25.2208 32.8834Z" fill="#F0F0F0"/>
</g>
<defs>
<clipPath id="clip0_402_123">
<rect width="50" height="50" fill="white" transform="translate(0 0.818176)"/>
</clipPath>
</defs>
</svg>
