<svg width="50" height="51" viewBox="0 0 50 51" fill="none" xmlns="http://www.w3.org/2000/svg">
<g clip-path="url(#clip0_402_123)">
<path d="M50 25.8182C50 39.6252 38.807 50.8182 25 50.8182C11.193 50.8182 0 39.6252 0 25.8182C1.08691 25.8182 25 22.5573 25 22.5573L50 25.8182Z" fill="#D80027"/>
<path d="M0 25.8182C0 12.0111 11.193 0.818176 25 0.818176C38.807 0.818176 50 12.0111 50 25.8182" fill="#0052B4"/>
<path d="M18.4783 18.2095C18.4783 16.4086 17.0183 14.9486 15.2174 14.9486C14.382 14.9486 13.6206 15.2631 13.0435 15.7796V13.8616H14.1304V11.6877H13.0435V10.6008H10.8696V11.6877H9.78267V13.8616H10.8696V15.7796C10.2925 15.2631 9.5311 14.9486 8.69565 14.9486C6.89478 14.9486 5.43481 16.4086 5.43481 18.2095C5.43481 19.175 5.85483 20.0422 6.52173 20.6393V22.5573H17.3913V20.6393C18.0584 20.0422 18.4783 19.175 18.4783 18.2095V18.2095Z" fill="#FFDA44"/>
</g>
<defs>
<clipPath id="clip0_402_123">
<rect width="50" height="50" fill="white" transform="translate(0 0.818176)"/>
</clipPath>
</defs>
</svg>
