<svg width="50" height="51" viewBox="0 0 50 51" fill="none" xmlns="http://www.w3.org/2000/svg">
<g clip-path="url(#clip0_402_123)">
<path d="M25 50.8182C38.8071 50.8182 50 39.6253 50 25.8182C50 12.0111 38.8071 0.818176 25 0.818176C11.1929 0.818176 0 12.0111 0 25.8182C0 39.6253 11.1929 50.8182 25 50.8182Z" fill="#496E2D"/>
<path d="M29.3478 24.7757C28.7341 24.7757 28.1515 24.8981 27.6105 25.0928C27.9069 24.4323 28.1056 23.6973 28.1056 22.9124C28.1056 19.8069 25 17.4777 25 17.4777C25 17.4777 21.8945 19.8069 21.8945 22.9124C21.8945 23.6972 22.0932 24.4323 22.3896 25.0928C21.8485 24.8983 21.2659 24.7757 20.6523 24.7757C17.5467 24.7757 15.2175 27.8813 15.2175 27.8813C15.2175 27.8813 17.5467 30.9869 20.6523 30.9869C22.4731 30.9869 24.026 29.9198 25.0001 29.0364C25.9743 29.9197 27.5272 30.9869 29.348 30.9869C32.4536 30.9869 34.7828 27.8813 34.7828 27.8813C34.7828 27.8813 32.4534 24.7757 29.3478 24.7757V24.7757Z" fill="#F0F0F0"/>
<path d="M25 10.6008L25.6415 12.575H27.7174L26.0382 13.7953L26.6792 15.7695L25 14.5492L23.3208 15.7695L23.9618 13.7953L22.2826 12.575H24.3585L25 10.6008Z" fill="#FFDA44"/>
<path d="M17.1062 14.0538L18.3404 15.1649L19.7785 14.3346L19.1031 15.8517L20.3372 16.963L18.6857 16.7894L18.0103 18.3065L17.6648 16.6822L16.0133 16.5086L17.4514 15.6781L17.1062 14.0538Z" fill="#FFDA44"/>
<path d="M11.3275 19.8325L12.9519 20.1777L13.7823 18.7396L13.9559 20.391L15.5802 20.7365L14.0632 21.412L14.2368 23.0634L13.1254 21.8295L11.6084 22.5049L12.4387 21.0666L11.3275 19.8325Z" fill="#FFDA44"/>
<path d="M32.8938 14.0538L31.6597 15.1649L30.2215 14.3346L30.8968 15.8517L29.6628 16.963L31.3144 16.7894L31.9898 18.3065L32.3353 16.6822L33.9868 16.5086L32.5487 15.6781L32.8938 14.0538Z" fill="#FFDA44"/>
<path d="M38.6726 19.8325L37.0481 20.1777L36.2179 18.7396L36.0441 20.391L34.4199 20.7365L35.9369 21.412L35.7633 23.0634L36.8747 21.8295L38.3917 22.5049L37.5613 21.0666L38.6726 19.8325Z" fill="#FFDA44"/>
<path d="M25.0001 39.6826C27.467 39.6826 29.7408 38.8595 31.5648 37.4747H18.4354C20.2594 38.8594 22.5332 39.6826 25.0001 39.6826Z" fill="#F0F0F0"/>
<path d="M15.0359 33.1608C15.3809 33.9505 15.8184 34.69 16.3323 35.3687H33.668C34.1819 34.6901 34.6194 33.9505 34.9644 33.1608H15.0359Z" fill="#F0F0F0"/>
</g>
<defs>
<clipPath id="clip0_402_123">
<rect width="50" height="50" fill="white" transform="translate(0 0.818176)"/>
</clipPath>
</defs>
</svg>
