<svg width="50" height="51" viewBox="0 0 50 51" fill="none" xmlns="http://www.w3.org/2000/svg">
<g clip-path="url(#clip0_402_123)">
<path d="M35.8695 3.29884C32.5828 1.70958 28.8956 0.818176 25 0.818176C21.1044 0.818176 17.4172 1.70958 14.1305 3.29884L11.9565 25.8182L14.1305 48.3375C17.4172 49.9268 21.1044 50.8182 25 50.8182C28.8956 50.8182 32.5828 49.9268 35.8695 48.3375L38.0435 25.8182L35.8695 3.29884Z" fill="#FFDA44"/>
<path d="M14.1305 3.29974C5.76807 7.3434 0 15.9068 0 25.8182C0 35.7296 5.76807 44.293 14.1305 48.3367V3.29974Z" fill="#0052B4"/>
<path d="M35.8695 3.29974V48.3367C44.2318 44.293 50 35.7296 50 25.8182C50 15.9068 44.2318 7.3434 35.8695 3.29974Z" fill="#0052B4"/>
<path d="M32.0653 27.9921L33.6957 30.166V21.4703L32.0653 23.6442H27.174V18.7529L29.3479 17.1226H20.6522L22.8261 18.7529V23.6442H17.9348L16.3044 21.4703V30.166L17.9348 27.9921H22.8261V32.8834L20.6522 34.5138H29.3479L27.174 32.8834V27.9921H32.0653Z" fill="#D80027"/>
<path d="M31.5218 24.7312H26.087V19.2964H23.9131V24.7312H18.4783V26.9051H23.9131V32.3399H26.087V26.9051H31.5218V24.7312Z" fill="#F0F0F0"/>
</g>
<defs>
<clipPath id="clip0_402_123">
<rect width="50" height="50" fill="white" transform="translate(0 0.818176)"/>
</clipPath>
</defs>
</svg>
