<svg width="50" height="51" viewBox="0 0 50 51" fill="none" xmlns="http://www.w3.org/2000/svg">
<g clip-path="url(#clip0_402_123)">
<path d="M25 50.8182C38.8071 50.8182 50 39.6253 50 25.8182C50 12.0111 38.8071 0.818176 25 0.818176C11.1929 0.818176 0 12.0111 0 25.8182C0 39.6253 11.1929 50.8182 25 50.8182Z" fill="#F0F0F0"/>
<path d="M23.9131 25.8182H50C50 23.5616 49.6992 21.3759 49.1388 19.2964H23.9131V25.8182Z" fill="#D80027"/>
<path d="M23.9131 12.7747H46.3307C44.8003 10.2774 42.8437 8.07012 40.5622 6.25293H23.9131V12.7747Z" fill="#D80027"/>
<path d="M25 50.8182C30.8836 50.8182 36.2916 48.7846 40.5622 45.3834H9.43774C13.7083 48.7846 19.1163 50.8182 25 50.8182V50.8182Z" fill="#D80027"/>
<path d="M3.66931 38.8616H46.3306C47.5593 36.8569 48.512 34.6654 49.1387 32.3398H0.861206C1.48787 34.6654 2.4407 36.8569 3.66931 38.8616V38.8616Z" fill="#D80027"/>
<path d="M25 25.8182C25 12.0111 25 10.3834 25 0.818176C11.193 0.818176 0 12.0111 0 25.8182H25Z" fill="#0052B4"/>
<path d="M16.6244 22.2176C13.2101 22.2176 10.4423 19.4497 10.4423 16.0355C10.4423 12.6214 13.2102 9.8535 16.6244 9.8535C17.6889 9.8535 18.6906 10.1227 19.5651 10.5966C18.1932 9.25507 16.317 8.42694 14.2466 8.42694C10.0446 8.42694 6.63794 11.8335 6.63794 16.0356C6.63794 20.2378 10.0446 23.6443 14.2466 23.6443C16.317 23.6443 18.1932 22.8162 19.5651 21.4747C18.6906 21.9483 17.689 22.2176 16.6244 22.2176V22.2176Z" fill="#FFDA44"/>
<path d="M18.3665 11.6877L19.4641 13.9828L21.9427 13.4101L20.8327 15.6991L22.8261 17.2799L20.3442 17.8393L20.3512 20.3834L18.3665 18.7918L16.3817 20.3834L16.3886 17.8393L13.9067 17.2799L15.9001 15.6991L14.79 13.4101L17.2688 13.9828L18.3665 11.6877Z" fill="#FFDA44"/>
</g>
<defs>
<clipPath id="clip0_402_123">
<rect width="50" height="50" fill="white" transform="translate(0 0.818176)"/>
</clipPath>
</defs>
</svg>
