<svg width="50" height="51" viewBox="0 0 50 51" fill="none" xmlns="http://www.w3.org/2000/svg">
<g clip-path="url(#clip0_402_123)">
<path d="M0 25.8182C0 28.8762 0.550098 31.8055 1.55498 34.5138L25 35.6008L48.445 34.5139C49.45 31.8055 50 28.8762 50 25.8182C50 22.7602 49.45 19.8309 48.445 17.1226L25 16.0356L1.55498 17.1225C0.550098 19.8309 0 22.7602 0 25.8182H0Z" fill="#D80027"/>
<path d="M25 0.818176C14.2508 0.818176 5.08726 7.60255 1.55493 17.1226H48.4451C44.9126 7.60255 35.7491 0.818176 25 0.818176V0.818176Z" fill="black"/>
<path d="M48.445 34.5138H1.55493C5.08726 44.0337 14.2508 50.8182 25 50.8182C35.7491 50.8182 44.9126 44.0337 48.445 34.5138Z" fill="#496E2D"/>
<path d="M32.4722 12.7747L29.419 11.3386L31.0449 8.38164L27.7295 9.01592L27.3094 5.6665L25 8.12988L22.6907 5.6665L22.2705 9.01592L18.9552 8.38164L20.5811 11.3386L17.5278 12.7747H32.4722Z" fill="#D80027"/>
</g>
<defs>
<clipPath id="clip0_402_123">
<rect width="50" height="50" fill="white" transform="translate(0 0.818176)"/>
</clipPath>
</defs>
</svg>
