<svg width="50" height="51" viewBox="0 0 50 51" fill="none" xmlns="http://www.w3.org/2000/svg">
<g clip-path="url(#clip0_402_123)">
<path d="M25 50.8182C38.8071 50.8182 50 39.6253 50 25.8182C50 12.0111 38.8071 0.818176 25 0.818176C11.1929 0.818176 0 12.0111 0 25.8182C0 39.6253 11.1929 50.8182 25 50.8182Z" fill="#D80027"/>
<path d="M8.69556 13.8616H41.3042V37.7747H8.69556V13.8616Z" fill="#6DA544"/>
<path d="M29.026 32.8834C25.1241 32.8834 21.9608 29.7202 21.9608 25.8182C21.9608 21.9162 25.1241 18.753 29.026 18.753C30.2426 18.753 31.3874 19.0606 32.3869 19.6022C30.819 18.0689 28.675 17.1225 26.3086 17.1225C21.5063 17.1225 17.613 21.0157 17.613 25.8181C17.613 30.6205 21.5063 34.5137 26.3086 34.5137C28.675 34.5137 30.8191 33.5673 32.3869 32.034C31.3874 32.5758 30.2426 32.8834 29.026 32.8834Z" fill="#F0F0F0"/>
</g>
<defs>
<clipPath id="clip0_402_123">
<rect width="50" height="50" fill="white" transform="translate(0 0.818176)"/>
</clipPath>
</defs>
</svg>
