<svg width="50" height="51" viewBox="0 0 50 51" fill="none" xmlns="http://www.w3.org/2000/svg">
<g clip-path="url(#clip0_402_123)">
<path d="M25 50.8182C38.807 50.8182 50 39.6252 50 25.8182C50 21.6226 48.9648 17.6692 47.1385 14.1971L24.9706 25.8475L36.6211 3.6797C33.149 1.85333 29.1956 0.818176 25 0.818176C11.193 0.818176 0 12.0111 0 25.8182C0 32.7218 2.79824 38.9718 7.32227 43.4959C11.8464 48.02 18.0964 50.8182 25 50.8182Z" fill="#0052B4"/>
<path d="M47.1121 14.2243C45.9678 12.0462 44.48 10.0012 42.6486 8.16971C40.817 6.33827 38.7723 4.85048 36.594 3.70624L7.29309 43.5251L47.1121 14.2243Z" fill="#F0F0F0"/>
<path d="M7.29309 43.5251L47.1121 14.2243C45.9678 12.0462 44.48 10.0012 42.6486 8.16974L7.29309 43.5251Z" fill="#FF9811"/>
<path d="M21.7097 15.4785L18.6566 16.9146L20.2825 19.8717L16.967 19.2374L16.5469 22.5866L14.2375 20.1232L11.9282 22.5866L11.5083 19.2374L8.19282 19.8715L9.81851 16.9145L6.76538 15.4785L9.8186 14.0423L8.19282 11.0854L11.5081 11.7195L11.9283 8.3703L14.2375 10.8337L16.5469 8.3703L16.967 11.7195L20.2826 11.0854L18.6567 14.0424L21.7097 15.4785Z" fill="#F0F0F0"/>
</g>
<defs>
<clipPath id="clip0_402_123">
<rect width="50" height="50" fill="white" transform="translate(0 0.818176)"/>
</clipPath>
</defs>
</svg>
