<svg width="50" height="51" viewBox="0 0 50 51" fill="none" xmlns="http://www.w3.org/2000/svg">
<g clip-path="url(#clip0_402_123)">
<path d="M25 50.8182C38.8071 50.8182 50 39.6253 50 25.8182C50 12.0111 38.8071 0.818176 25 0.818176C11.1929 0.818176 0 12.0111 0 25.8182C0 39.6253 11.1929 50.8182 25 50.8182Z" fill="#F0F0F0"/>
<path d="M49.7856 22.5573C49.096 17.2852 46.7278 12.1908 42.6775 8.14055C38.6272 4.09026 33.5328 1.722 28.2607 1.03235L28.2608 22.5573H49.7856Z" fill="#0052B4"/>
<path d="M21.739 1.03235C16.4669 1.722 11.3725 4.09016 7.32222 8.14045C3.27202 12.1908 0.90376 17.2853 0.214111 22.5574L21.7391 22.5573L21.739 1.03235Z" fill="#0052B4"/>
<path d="M0.214111 29.0791C0.90376 34.3512 3.27202 39.4457 7.32222 43.4959C11.3725 47.5461 16.4668 49.9143 21.7391 50.6042L21.739 29.0793L0.214111 29.0791Z" fill="#0052B4"/>
<path d="M28.2609 50.6039C33.5329 49.9143 38.6273 47.5461 42.6776 43.4958C46.7279 39.4455 49.096 34.3512 49.7857 29.0791H28.2609V50.6039Z" fill="#0052B4"/>
<path d="M33.5341 16.6813C33.5341 16.3488 33.8043 16.0786 34.1369 16.0786H35.4283C37.4697 16.0786 39.1305 14.4179 39.1305 12.3766C39.1305 10.3353 37.4698 8.67443 35.4283 8.67443H34.2019C33.8016 8.37374 33.2646 8.18829 32.6722 8.18829C31.4366 8.18829 30.4349 8.98956 30.4349 9.97804C30.4349 10.9569 31.4174 11.7511 32.6366 11.7665L32.636 11.7736H35.4283C35.7608 11.7736 36.031 12.044 36.031 12.3764C36.031 12.7088 35.7608 12.979 35.4283 12.979H34.1369C32.0955 12.979 30.4348 14.6398 30.4348 16.6811C30.4348 18.7224 32.0954 20.3832 34.1369 20.3832H39.1304V17.2838H34.1369C33.8043 17.2839 33.5341 17.0137 33.5341 16.6813V16.6813Z" fill="#F0F0F0"/>
<path d="M13.969 16.6813C13.969 16.3488 14.2392 16.0786 14.5717 16.0786H15.8631C17.9045 16.0786 19.5654 14.4179 19.5654 12.3766C19.5654 10.3353 17.9046 8.67443 15.8631 8.67443H14.6367C14.2365 8.37374 13.6994 8.18829 13.1071 8.18829C11.8714 8.18829 10.8698 8.98956 10.8698 9.97804C10.8698 10.9569 11.8523 11.7511 13.0714 11.7665L13.0708 11.7736H15.8632C16.1957 11.7736 16.4659 12.044 16.4659 12.3764C16.4659 12.7088 16.1957 12.979 15.8632 12.979H14.5718C12.5304 12.979 10.8698 14.6398 10.8698 16.6811C10.8698 18.7224 12.5303 20.3832 14.5718 20.3832H19.5653V17.2838H14.5717C14.2392 17.2839 13.969 17.0137 13.969 16.6813V16.6813Z" fill="#F0F0F0"/>
<path d="M33.5341 39.7459C33.5341 39.4135 33.8043 39.1433 34.1368 39.1433H35.4282C37.4697 39.1433 39.1305 37.4825 39.1305 35.4412C39.1305 33.3999 37.4698 31.7391 35.4282 31.7391H34.2019C33.8016 31.4384 33.2646 31.2529 32.6722 31.2529C31.4364 31.2529 30.4348 32.0543 30.4348 33.0427C30.4348 34.0216 31.4173 34.8157 32.6364 34.8312L32.6359 34.8383H35.4281C35.7607 34.8383 36.0309 35.1086 36.0309 35.441C36.0309 35.7734 35.7607 36.0437 35.4281 36.0437H34.1367C32.0953 36.0437 30.4347 37.7044 30.4347 39.7457C30.4347 41.787 32.0952 43.4479 34.1367 43.4479H39.1304V40.3485H34.1368C33.8043 40.3486 33.5341 40.0782 33.5341 39.7459V39.7459Z" fill="#F0F0F0"/>
<path d="M13.9689 39.7459C13.9689 39.4135 14.2392 39.1433 14.5717 39.1433H15.8631C17.9045 39.1433 19.5653 37.4825 19.5653 35.4412C19.5653 33.3999 17.9046 31.7391 15.8631 31.7391H14.6367C14.2364 31.4384 13.6994 31.2529 13.107 31.2529C11.8713 31.2529 10.8696 32.0543 10.8696 33.0427C10.8696 34.0216 11.8521 34.8157 13.0713 34.8312L13.0707 34.8383H15.8631C16.1956 34.8383 16.4658 35.1086 16.4658 35.441C16.4658 35.7734 16.1956 36.0437 15.8631 36.0437H14.5717C12.5303 36.0437 10.8696 37.7044 10.8696 39.7457C10.8696 41.787 12.5302 43.4479 14.5717 43.4479H19.5652V40.3485H14.5717C14.2392 40.3486 13.9689 40.0782 13.9689 39.7459Z" fill="#F0F0F0"/>
</g>
<defs>
<clipPath id="clip0_402_123">
<rect width="50" height="50" fill="white" transform="translate(0 0.818176)"/>
</clipPath>
</defs>
</svg>
