<svg width="50" height="51" viewBox="0 0 50 51" fill="none" xmlns="http://www.w3.org/2000/svg">
<g clip-path="url(#clip0_402_123)">
<path d="M25 50.8182C38.8071 50.8182 50 39.6253 50 25.8182C50 12.0111 38.8071 0.818176 25 0.818176C11.1929 0.818176 0 12.0111 0 25.8182C0 39.6253 11.1929 50.8182 25 50.8182Z" fill="#496E2D"/>
<path d="M25 29.7001C20.8374 29.7001 17.3598 26.7745 16.5066 22.8678C16.3755 23.4684 16.3044 24.0911 16.3044 24.7312C16.3044 29.5338 20.1975 33.4268 25 33.4268C29.8026 33.4268 33.6957 29.5337 33.6957 24.7312C33.6957 24.0911 33.6246 23.4684 33.4935 22.8677C32.6403 26.7746 29.1627 29.7001 25 29.7001Z" fill="#FFDA44"/>
<path d="M24.9999 18.2095L25.8093 20.7006H28.4287L26.3097 22.2401L27.119 24.7312L24.9999 23.1916L22.8809 24.7312L23.6903 22.2401L21.5713 20.7006H24.1905L24.9999 18.2095Z" fill="#FFDA44"/>
</g>
<defs>
<clipPath id="clip0_402_123">
<rect width="50" height="50" fill="white" transform="translate(0 0.818176)"/>
</clipPath>
</defs>
</svg>
