<svg width="50" height="51" viewBox="0 0 50 51" fill="none" xmlns="http://www.w3.org/2000/svg">
<g clip-path="url(#clip0_402_123)">
<path d="M25 50.8182C38.8071 50.8182 50 39.6253 50 25.8182C50 12.0111 38.8071 0.818176 25 0.818176C11.1929 0.818176 0 12.0111 0 25.8182C0 39.6253 11.1929 50.8182 25 50.8182Z" fill="#338AF3"/>
<path d="M11.9565 27.9921H38.0435V31.253H11.9565V27.9921Z" fill="#818085"/>
<path d="M16.3044 18.2095L25 19.2966L33.6957 18.2095V12.9921L30.2174 14.7313L25 9.51379L19.7827 14.7313L16.3044 12.9921V18.2095Z" fill="#FFDA44"/>
<path d="M14.1304 34.514H10.8695V28.5356L11.9565 26.9051L10.8695 25.2747V21.4704H14.1304V34.514Z" fill="#F0F0F0"/>
<path d="M39.1304 34.514H35.8695V21.4704H39.1304V25.2746L38.0434 26.9324L39.1304 28.5358V34.514Z" fill="#F0F0F0"/>
<path d="M10.8695 25.2747H39.1303V28.5356H10.8695V25.2747Z" fill="#ACABB1"/>
<path d="M25.0001 38.8616C20.2052 38.8616 16.3044 34.9608 16.3044 30.166V18.2096H33.6958V30.166C33.6957 34.9608 29.7949 38.8616 25.0001 38.8616Z" fill="#F0F0F0"/>
<path d="M25 35.6008C22.0032 35.6008 19.5652 33.1627 19.5652 30.166V21.4705H30.4347V30.166C30.4347 33.1627 27.9967 35.6008 25 35.6008V35.6008Z" fill="#0052B4"/>
<path d="M16.3044 18.2095H19.5653V21.4703H16.3044V18.2095Z" fill="#D80027"/>
<path d="M30.4348 18.2095H33.6957V21.4703H30.4348V18.2095Z" fill="#D80027"/>
<path d="M30.4348 25.2747H33.6957V28.5356H30.4348V25.2747Z" fill="#D80027"/>
<path d="M16.3044 25.2747H19.5653V28.5356H16.3044V25.2747Z" fill="#D80027"/>
<path d="M23.3696 18.2095H26.6305V21.4703H23.3696V18.2095Z" fill="#D80027"/>
<path d="M25.0001 35.6008C24.4321 35.6008 23.8846 35.5129 23.3696 35.3506V38.7062C23.8981 38.8069 24.4427 38.8617 25.0001 38.8617C25.5575 38.8617 26.1021 38.8069 26.6306 38.7062V35.3506C26.1156 35.5128 25.5681 35.6008 25.0001 35.6008Z" fill="#D80027"/>
<path d="M19.638 31.0482L17.0356 33.6506C17.4868 34.6778 18.1306 35.6015 18.9218 36.376L21.2265 34.0713C20.404 33.2766 19.8311 32.2259 19.638 31.0482Z" fill="#D80027"/>
<path d="M32.9645 33.6508L30.3622 31.0485C30.169 32.226 29.5962 33.2767 28.7738 34.0716L31.0785 36.3763C31.8695 35.6018 32.5134 34.6781 32.9645 33.6508Z" fill="#D80027"/>
</g>
<defs>
<clipPath id="clip0_402_123">
<rect width="50" height="50" fill="white" transform="translate(0 0.818176)"/>
</clipPath>
</defs>
</svg>
