<svg width="50" height="51" viewBox="0 0 50 51" fill="none" xmlns="http://www.w3.org/2000/svg">
<g clip-path="url(#clip0_402_123)">
<path d="M25 50.8182C38.8071 50.8182 50 39.6253 50 25.8182C50 12.0111 38.8071 0.818176 25 0.818176C11.1929 0.818176 0 12.0111 0 25.8182C0 39.6253 11.1929 50.8182 25 50.8182Z" fill="#338AF3"/>
<path d="M24.9999 11.6877L26.079 15.0092H29.5716L26.7462 17.062L27.8253 20.3834L24.9999 18.3307L22.1744 20.3834L23.2538 17.062L20.4283 15.0092H23.9208L24.9999 11.6877Z" fill="#F0F0F0"/>
<path d="M10.8695 25.8183L14.191 24.739V21.2465L16.2438 24.072L19.5652 22.9928L17.5125 25.8183L19.5652 28.6435L16.2438 27.5642L14.191 30.3897V26.8973L10.8695 25.8183Z" fill="#F0F0F0"/>
<path d="M25.0001 39.9486L23.9209 36.6271H20.4283L23.2539 34.5743L22.1747 31.2529L25.0001 33.3057L27.8254 31.2529L26.7461 34.5743L29.5716 36.6271H26.0792L25.0001 39.9486Z" fill="#F0F0F0"/>
<path d="M39.1304 25.818L35.8089 26.8972V30.3897L33.7561 27.5642L30.4347 28.6434L32.4874 25.818L30.4347 22.9927L33.7561 24.072L35.8089 21.2465V24.7389L39.1304 25.818Z" fill="#F0F0F0"/>
</g>
<defs>
<clipPath id="clip0_402_123">
<rect width="50" height="50" fill="white" transform="translate(0 0.818176)"/>
</clipPath>
</defs>
</svg>
