<svg width="50" height="51" viewBox="0 0 50 51" fill="none" xmlns="http://www.w3.org/2000/svg">
<g clip-path="url(#clip0_402_123)">
<path d="M35.8695 3.29884C32.5828 1.70958 28.8955 0.818176 25 0.818176C21.1045 0.818176 17.4172 1.70958 14.1305 3.29884L11.9565 25.8182L14.1305 48.3375C17.4172 49.9268 21.1045 50.8182 25 50.8182C28.8955 50.8182 32.5828 49.9268 35.8695 48.3375L38.0435 25.8182L35.8695 3.29884Z" fill="#FFDA44"/>
<path d="M14.1305 3.29974C5.76816 7.3434 0 15.9068 0 25.8182C0 35.7296 5.76816 44.293 14.1305 48.3367V3.29974Z" fill="#0052B4"/>
<path d="M35.8695 3.29974V48.3367C44.2318 44.293 50 35.7296 50 25.8182C50 15.9068 44.2318 7.3434 35.8695 3.29974Z" fill="#D80027"/>
<path d="M33.6957 20.488H27.7174C27.7174 18.9872 26.5008 17.7706 25 17.7706C23.4993 17.7706 22.2827 18.9872 22.2827 20.488H16.3044C16.3044 21.9657 17.5917 23.1634 19.0691 23.1634H18.98C18.98 24.6411 20.1779 25.8391 21.6556 25.8391C21.6556 27.1474 22.5953 28.2345 23.8363 28.4669L21.7279 33.2269C22.7381 33.6375 23.8422 33.8657 25 33.8657C26.1578 33.8657 27.262 33.6375 28.2721 33.2269L26.1638 28.4669C27.4048 28.2345 28.3445 27.1474 28.3445 25.8391C29.8222 25.8391 31.0201 24.6411 31.0201 23.1634H30.9309C32.4085 23.1634 33.6957 21.9656 33.6957 20.488V20.488Z" fill="#FF9811"/>
<path d="M25 24.1877L21.4674 25.8182V29.079L25 31.2529L28.5326 29.079V25.8182L25 24.1877Z" fill="#0052B4"/>
<path d="M21.4674 22.5573H28.5326V25.8182H21.4674V22.5573Z" fill="#D80027"/>
</g>
<defs>
<clipPath id="clip0_402_123">
<rect width="50" height="50" fill="white" transform="translate(0 0.818176)"/>
</clipPath>
</defs>
</svg>
