<svg width="50" height="51" viewBox="0 0 50 51" fill="none" xmlns="http://www.w3.org/2000/svg">
<g clip-path="url(#clip0_402_123)">
<path d="M25 50.8182C28.058 50.8182 30.9874 50.2682 33.6956 49.2632L34.7826 25.8182L33.6957 2.37316C30.9874 1.36827 28.058 0.818176 25 0.818176C21.942 0.818176 19.0126 1.36827 16.3044 2.37316L15.2174 25.8182L16.3043 49.2632C19.0126 50.2682 21.942 50.8182 25 50.8182Z" fill="#0052B4"/>
<path d="M0 25.8182C0 36.5673 6.78437 45.7309 16.3044 49.2632V2.37317C6.78437 5.90549 0 15.0691 0 25.8182Z" fill="#A2001D"/>
<path d="M33.6956 2.37317V49.2633C43.2156 45.7309 49.9999 36.5673 49.9999 25.8182C49.9999 15.0691 43.2156 5.90549 33.6956 2.37317V2.37317Z" fill="#A2001D"/>
<path d="M11.9565 25.8182H14.1305V34.5138H11.9565V25.8182Z" fill="#FFDA44"/>
<path d="M3.26086 25.8182H5.43479V34.5138H3.26086V25.8182Z" fill="#FFDA44"/>
<path d="M8.69565 31.2529C9.89628 31.2529 10.8696 30.2796 10.8696 29.079C10.8696 27.8784 9.89628 26.9051 8.69565 26.9051C7.49503 26.9051 6.52173 27.8784 6.52173 29.079C6.52173 30.2796 7.49503 31.2529 8.69565 31.2529Z" fill="#FFDA44"/>
<path d="M8.69568 22.5573C9.29596 22.5573 9.78259 22.0706 9.78259 21.4703C9.78259 20.87 9.29596 20.3834 8.69568 20.3834C8.09539 20.3834 7.60876 20.87 7.60876 21.4703C7.60876 22.0706 8.09539 22.5573 8.69568 22.5573Z" fill="#FFDA44"/>
<path d="M6.52185 32.34H10.8697V34.5139H6.52185V32.34Z" fill="#FFDA44"/>
<path d="M6.52185 23.6442H10.8697V25.8182H6.52185V23.6442Z" fill="#FFDA44"/>
<path d="M8.69565 13.8616L9.46558 16.2308H11.9566L9.94146 17.695L10.7108 20.0642L8.69565 18.5999L6.68061 20.0642L7.44995 17.695L5.43481 16.2308H7.92583L8.69565 13.8616Z" fill="#FFDA44"/>
</g>
<defs>
<clipPath id="clip0_402_123">
<rect width="50" height="50" fill="white" transform="translate(0 0.818176)"/>
</clipPath>
</defs>
</svg>
