<svg width="50" height="51" viewBox="0 0 50 51" fill="none" xmlns="http://www.w3.org/2000/svg">
<g clip-path="url(#clip0_402_123)">
<path d="M25 50.8182C38.8071 50.8182 50 39.6253 50 25.8182C50 12.0111 38.8071 0.818176 25 0.818176C11.1929 0.818176 0 12.0111 0 25.8182C0 39.6253 11.1929 50.8182 25 50.8182Z" fill="#FFDA44"/>
<path d="M50 25.8182C50 17.238 45.6769 9.66826 39.0905 5.16602H10.9095C4.32324 9.66826 0 17.238 0 25.8182C0 34.3985 4.32324 41.9681 10.9095 46.4703H39.0905C45.6769 41.9681 50 34.3985 50 25.8182Z" fill="#A2001D"/>
<path d="M19.5652 19.2964H30.4347V14.9486L28.2608 16.0356L25 12.7747L21.7391 16.0356L19.5652 14.9486V19.2964Z" fill="#FFDA44"/>
<path d="M34.7826 25.8182H29.3499C29.563 25.4496 29.6868 25.0232 29.6868 24.5669C29.6868 23.1815 28.5636 22.0585 27.1784 22.0585C26.2213 22.0585 25.39 22.5949 24.9671 23.3829C24.5441 22.5948 23.7129 22.0585 22.7557 22.0585C21.3705 22.0585 20.2473 23.1815 20.2473 24.5669C20.2473 25.0233 20.3714 25.4497 20.5843 25.8182H15.2172C15.2172 27.4806 16.6651 28.8282 18.3274 28.8282H18.2272C18.2272 30.1917 19.1342 31.3431 20.3776 31.7129L17.9345 34.1562L20.2403 36.4619L23.5111 33.1911C23.6392 33.2381 23.7718 33.2756 23.9088 33.3014L21.9324 37.7638C22.8795 38.149 23.9145 38.3627 25 38.3627C26.0853 38.3627 27.1204 38.149 28.0676 37.7638L26.0912 33.3014C26.2281 33.2757 26.3606 33.2381 26.4886 33.1911L29.7594 36.4619L32.0651 34.1562L29.6219 31.713C30.8653 31.343 31.7723 30.1918 31.7723 28.8283H31.672C33.3345 28.8282 34.7826 27.4806 34.7826 25.8182V25.8182Z" fill="#FFDA44"/>
<path d="M25 27.4487L21.4674 29.079V32.34L25 34.5138L28.5326 32.34V29.079L25 27.4487Z" fill="#6DA544"/>
<path d="M21.4674 25.8182H28.5326V30.166H21.4674V25.8182Z" fill="#0052B4"/>
</g>
<defs>
<clipPath id="clip0_402_123">
<rect width="50" height="50" fill="white" transform="translate(0 0.818176)"/>
</clipPath>
</defs>
</svg>
