<svg width="50" height="51" viewBox="0 0 50 51" fill="none" xmlns="http://www.w3.org/2000/svg">
<g clip-path="url(#clip0_402_123)">
<path d="M25 50.8182C38.8071 50.8182 50 39.6253 50 25.8182C50 12.0111 38.8071 0.818176 25 0.818176C11.1929 0.818176 0 12.0111 0 25.8182C0 39.6253 11.1929 50.8182 25 50.8182Z" fill="#F0F0F0"/>
<path d="M13.5128 35.6008L7.32312 43.495C11.8469 48.0194 18.0963 50.8181 25 50.8181C35.3349 50.8181 44.2035 44.5458 48.0108 35.6008H13.5128Z" fill="#FFDA44"/>
<path d="M48.0497 16.1261C44.2636 7.13282 35.3699 0.818176 25 0.818176C18.0963 0.818176 11.8469 3.61691 7.32312 8.14132L13.5839 16.1261H48.0497Z" fill="#496E2D"/>
<path d="M5.43481 19.2059V32.3399H49.1389C49.6997 30.2607 50 28.0747 50 25.8182C50 23.5289 49.6916 21.3121 49.1152 19.2059H5.43481Z" fill="black"/>
<path d="M7.32231 8.14044C-2.44077 17.9035 -2.44077 33.7327 7.32231 43.4959C11.3568 39.4614 15.237 35.5813 25 25.8182L7.32231 8.14044Z" fill="#A2001D"/>
<path d="M10.1182 19.2964L11.7368 24.2784H16.9757L12.7376 27.3577L14.3562 32.3399L10.1182 29.2607L5.88 32.3399L7.49895 27.3577L3.26086 24.2784H8.49934L10.1182 19.2964Z" fill="#FFDA44"/>
<path d="M5.38159 25.8182H14.8566V30.166H5.38159V25.8182Z" fill="#F0F0F0"/>
<path d="M16.6504 20.8337L15.1132 19.2964L10.1183 24.2913L5.12339 19.2964L3.58618 20.8337L8.5855 25.8241L3.58618 30.8235L5.12339 32.3399L10.1183 27.354L15.1132 32.3399L16.6504 30.8235L11.6511 25.8241L16.6504 20.8337Z" fill="black"/>
</g>
<defs>
<clipPath id="clip0_402_123">
<rect width="50" height="50" fill="white" transform="translate(0 0.818176)"/>
</clipPath>
</defs>
</svg>
