<svg width="50" height="51" viewBox="0 0 50 51" fill="none" xmlns="http://www.w3.org/2000/svg">
<g clip-path="url(#clip0_402_123)">
<path d="M25 50.8182C38.8071 50.8182 50 39.6253 50 25.8182C50 12.0111 38.8071 0.818176 25 0.818176C11.1929 0.818176 0 12.0111 0 25.8182C0 39.6253 11.1929 50.8182 25 50.8182Z" fill="#F0F0F0"/>
<path d="M7.32234 43.4959C8.37107 44.5446 9.49001 45.4799 10.6637 46.3033L45.4849 11.482C44.6616 10.3083 43.7263 9.18937 42.6775 8.14064C41.6288 7.09191 40.5098 6.15675 39.3361 5.33331L4.51501 40.1546C5.33835 41.3281 6.27361 42.4472 7.32234 43.4959V43.4959Z" fill="#A2001D"/>
<path d="M7.32239 8.14046C-0.564715 16.0276 -2.07878 27.8725 2.77698 37.2809L36.4627 3.59524C27.0543 -1.26052 15.2093 0.253736 7.32239 8.14046V8.14046Z" fill="#0052B4"/>
<path d="M42.6777 43.4959C50.5646 35.609 52.0787 23.764 47.2231 14.3555L13.5374 48.0412C22.9457 52.897 34.7907 51.3829 42.6777 43.4959Z" fill="#496E2D"/>
<path d="M20.6522 14.9487L17.8508 16.2663L19.3426 18.9794L16.3007 18.3976L15.9152 21.4703L13.7964 19.2103L11.6776 21.4703L11.2922 18.3976L8.25024 18.9793L9.74194 16.2662L6.94067 14.9487L9.74204 13.6309L8.25024 10.918L11.2921 11.4998L11.6777 8.42688L13.7964 10.687L15.9153 8.42688L16.3007 11.4998L19.3426 10.918L17.851 13.631L20.6522 14.9487Z" fill="#FFDA44"/>
</g>
<defs>
<clipPath id="clip0_402_123">
<rect width="50" height="50" fill="white" transform="translate(0 0.818176)"/>
</clipPath>
</defs>
</svg>
