<svg width="50" height="51" viewBox="0 0 50 51" fill="none" xmlns="http://www.w3.org/2000/svg">
<g clip-path="url(#clip0_402_123)">
<path d="M25 50.8182C38.8071 50.8182 50 39.6253 50 25.8182C50 12.0111 38.8071 0.818176 25 0.818176C11.1929 0.818176 0 12.0111 0 25.8182C0 39.6253 11.1929 50.8182 25 50.8182Z" fill="#0052B4"/>
<path d="M35.729 27.5623C35.821 26.9942 35.8695 26.4117 35.8695 25.8182C35.8695 26.4117 35.821 26.9942 35.729 27.5623L40.2174 25.8182L35.729 24.0741L33.2636 23.1162L29.2583 21.5599L27.7019 17.5545C30.3263 18.4147 32.4032 20.4916 33.2635 23.1161L35.7289 24.074C34.9839 19.4748 31.3431 15.834 26.744 15.0891L25 10.6008L23.2558 15.0891C18.6566 15.8343 15.016 19.4749 14.271 24.0741L9.78259 25.8182L14.2711 27.5623C15.0161 32.1615 18.6567 35.8021 23.2559 36.5472L25 41.0355L26.7441 36.5472C31.3432 35.8021 34.984 32.1614 35.729 27.5623V27.5623ZM27.5789 23.2393L25 25.8182H34.2153L27.5788 28.3971L25 25.8182V35.0336L22.4211 28.397L25 25.8182H15.7846L22.4211 23.2393L25 25.8182V16.6028L27.5789 23.2393ZM22.2979 17.5546L20.7415 21.5599L16.7363 23.1163C17.5966 20.4916 19.6734 18.4149 22.2979 17.5546ZM16.7364 28.5202L20.7415 30.0765L22.2979 34.0817C19.6734 33.2214 17.5968 31.1447 16.7364 28.5202ZM27.702 34.0817L29.2584 30.0765L33.2635 28.5202C32.4032 31.1447 30.3265 33.2214 27.702 34.0817Z" fill="#F0F0F0"/>
<path d="M34.2153 25.8182H25L27.5789 28.3971L34.2153 25.8182Z" fill="#0052B4"/>
<path d="M15.7847 25.8182H25L22.4211 23.2394L15.7847 25.8182Z" fill="#0052B4"/>
<path d="M25 35.0336V25.8182L22.4211 28.3971L25 35.0336Z" fill="#0052B4"/>
<path d="M25 25.8182L27.5789 23.2394L25 16.6028V25.8182Z" fill="#0052B4"/>
<path d="M23.9131 4.07904H26.087V8.42689H23.9131V4.07904Z" fill="#F0F0F0"/>
<path d="M3.26086 24.7313H7.60872V26.9052H3.26086V24.7313Z" fill="#F0F0F0"/>
<path d="M23.9131 43.2095H26.087V47.5574H23.9131V43.2095Z" fill="#F0F0F0"/>
<path d="M42.3914 24.7313H46.7392V26.9052H42.3914V24.7313Z" fill="#F0F0F0"/>
</g>
<defs>
<clipPath id="clip0_402_123">
<rect width="50" height="50" fill="white" transform="translate(0 0.818176)"/>
</clipPath>
</defs>
</svg>
