<svg width="50" height="51" viewBox="0 0 50 51" fill="none" xmlns="http://www.w3.org/2000/svg">
<g clip-path="url(#clip0_402_123)">
<path d="M25 50.8182C38.8071 50.8182 50 39.6253 50 25.8182C50 12.0111 38.8071 0.818176 25 0.818176C11.1929 0.818176 0 12.0111 0 25.8182C0 39.6253 11.1929 50.8182 25 50.8182Z" fill="#0052B4"/>
<path d="M25 50.8182C38.8071 50.8182 50 39.6253 50 25.8182C50 12.0111 38.8071 0.818176 25 0.818176C11.1929 0.818176 0 12.0111 0 25.8182C0 39.6253 11.1929 50.8182 25 50.8182Z" fill="#FFDA44"/>
<path d="M25 0.818176C11.9254 0.818176 1.19707 10.8554 0.0952148 23.6443H49.9049C48.8029 10.8554 38.0746 0.818176 25 0.818176V0.818176Z" fill="#0052B4"/>
<path d="M25 50.8182C38.0746 50.8182 48.8029 40.781 49.9049 27.9921H0.0952148C1.19707 40.781 11.9254 50.8182 25 50.8182Z" fill="#0052B4"/>
<path d="M20.6523 34.5138L17.8509 35.8316L19.3426 38.5446L16.3007 37.9626L15.9153 41.0356L13.7964 38.7755L11.6777 41.0356L11.2922 37.9626L8.25024 38.5445L9.74204 35.8315L6.94067 34.5138L9.74214 33.1961L8.25024 30.4832L11.2921 31.0651L11.6778 27.9921L13.7964 30.2522L15.9154 27.9921L16.3007 31.0651L19.3427 30.4832L17.851 33.1962L20.6523 34.5138Z" fill="#F0F0F0"/>
</g>
<defs>
<clipPath id="clip0_402_123">
<rect width="50" height="50" fill="white" transform="translate(0 0.818176)"/>
</clipPath>
</defs>
</svg>
