<svg width="50" height="51" viewBox="0 0 50 51" fill="none" xmlns="http://www.w3.org/2000/svg">
<g clip-path="url(#clip0_402_123)">
<path d="M25 50.8182C38.8071 50.8182 50 39.6253 50 25.8182C50 12.0111 38.8071 0.818176 25 0.818176C11.1929 0.818176 0 12.0111 0 25.8182C0 39.6253 11.1929 50.8182 25 50.8182Z" fill="#F0F0F0"/>
<path d="M49.8532 28.5356L49.8526 28.5348L49.8525 28.5356H49.8532Z" fill="#0052B4"/>
<path d="M49.8525 28.5356C49.8525 28.5354 49.8526 28.5352 49.8526 28.5348L22.4361 0.948181C21.1993 1.07426 19.9891 1.29047 18.8122 1.59017C7.99785 4.34359 0 25.8182 0 25.8182C0 25.8182 34.9998 49.2396 38.9927 46.5373C39.7916 45.9967 40.5576 45.4111 41.2869 44.7841L25.0386 28.5356H49.8525Z" fill="#0052B4"/>
<path d="M43.4782 25.8182L19.1645 1.50458C8.17266 4.13319 0 14.0205 0 25.8182C0 39.6252 11.193 50.8182 25 50.8182C30.2372 50.8182 35.0974 49.2066 39.1142 46.454L18.4782 25.8182H43.4782Z" fill="#D80027"/>
<path d="M23.7766 37.7316L20.7234 36.2954L22.3492 33.3385L19.0338 33.9728L18.6137 30.6234L16.3044 33.0867L13.9951 30.6234L13.5749 33.9728L10.2596 33.3384L11.8855 36.2954L8.83215 37.7316L11.8855 39.1676L10.2596 42.1246L13.5751 41.4904L13.995 44.8397L16.3044 42.3763L18.6137 44.8397L19.0338 41.4904L22.3491 42.1247L20.7233 39.1678L23.7766 37.7316Z" fill="#F0F0F0"/>
<path d="M21.7391 14.6837L19.5184 13.6393L20.701 11.4886L18.2895 11.9499L17.984 9.51379L16.3044 11.3055L14.6248 9.51379L14.3191 11.9499L11.9077 11.4886L13.0903 13.6393L10.8695 14.6837L16.3044 15.7708L21.7391 14.6837Z" fill="#F0F0F0"/>
<path d="M22.8261 14.6837C22.8261 18.2856 19.9062 21.2055 16.3044 21.2055C12.7025 21.2055 9.78259 18.2856 9.78259 14.6837" fill="#F0F0F0"/>
</g>
<defs>
<clipPath id="clip0_402_123">
<rect width="50" height="50" fill="white" transform="translate(0 0.818176)"/>
</clipPath>
</defs>
</svg>
