<svg width="50" height="51" viewBox="0 0 50 51" fill="none" xmlns="http://www.w3.org/2000/svg">
<g clip-path="url(#clip0_402_123)">
<path d="M50 25.8182C50 39.6252 38.807 50.8182 25 50.8182C11.193 50.8182 0 39.6252 0 25.8182C0 25.8241 25 0.820911 25 0.818176C38.807 0.818176 50 12.0111 50 25.8182Z" fill="#0052B4"/>
<path d="M24.9331 25.8182H25C25 25.7957 25 25.7738 25 25.7513C24.9777 25.7736 24.9555 25.7959 24.9331 25.8182Z" fill="#F0F0F0"/>
<path d="M25 13.8616C25 9.46271 25 6.58038 25 0.818176H24.9958C11.1906 0.82052 0 12.0124 0 25.8182H13.0435V18.4734L20.3884 25.8182H24.9332C24.9555 25.7959 24.9778 25.7736 25.0001 25.7513C25.0001 24.067 25.0001 22.5642 25.0001 21.2067L17.6551 13.8616H25Z" fill="#F0F0F0"/>
<path d="M12.648 4.07904C8.73791 6.30551 5.48733 9.55609 3.26086 13.4661V25.8182H9.78264V10.601V10.6008H25C25 8.54388 25 6.58431 25 4.07904H12.648Z" fill="#D80027"/>
<path d="M25 22.7439L16.1179 13.8618C16.1179 13.8618 13.0436 13.862 13.0436 13.8618V13.862L24.9999 25.8182H25C25 25.8182 25 23.6984 25 22.7439Z" fill="#D80027"/>
<path d="M43.294 19.3689L43.8335 21.0296H45.5797L44.167 22.056L44.7067 23.7167L43.294 22.6904L41.8812 23.7167L42.4209 22.056L41.0081 21.0296H42.7543L43.294 19.3689Z" fill="#D80027"/>
<path d="M37.0519 31.3253L37.8614 33.8165H40.4806L38.3615 35.356L39.171 37.8471L37.0519 36.3075L34.9327 37.8471L35.7423 35.356L33.6232 33.8165H36.2424L37.0519 31.3253Z" fill="#D80027"/>
<path d="M37.2877 11.7602L37.9623 13.8363H40.145L38.379 15.119L39.0536 17.195L37.2877 15.9119L35.5219 17.195L36.1964 15.119L34.4305 13.8363H36.6132L37.2877 11.7602Z" fill="#D80027"/>
<path d="M31.2815 19.2964L32.0909 21.7877H34.7102L32.5911 23.3271L33.4006 25.8182L31.2815 24.2787L29.1624 25.8182L29.9719 23.3271L27.8528 21.7877H30.472L31.2815 19.2964Z" fill="#D80027"/>
</g>
<defs>
<clipPath id="clip0_402_123">
<rect width="50" height="50" fill="white" transform="translate(0 0.818176)"/>
</clipPath>
</defs>
</svg>
