<svg width="50" height="51" viewBox="0 0 50 51" fill="none" xmlns="http://www.w3.org/2000/svg">
<g clip-path="url(#clip0_402_123)">
<path d="M25 50.8182C38.8071 50.8182 50 39.6253 50 25.8182C50 12.0111 38.8071 0.818176 25 0.818176C11.1929 0.818176 0 12.0111 0 25.8182C0 39.6253 11.1929 50.8182 25 50.8182Z" fill="#F0F0F0"/>
<path d="M25 0.818176C15.0885 0.818176 6.52446 6.58624 2.48071 14.9486H47.5193C43.4756 6.58624 34.9115 0.818176 25 0.818176V0.818176Z" fill="#338AF3"/>
<path d="M25 50.8182C34.9115 50.8182 43.4756 45.0501 47.5194 36.6877H2.48071C6.52446 45.0501 15.0885 50.8182 25 50.8182Z" fill="#338AF3"/>
<path d="M25 18.2095C20.7979 18.2095 17.3914 21.616 17.3914 25.8182C17.3914 30.0203 20.7979 33.4269 25 33.4269C29.2022 33.4269 32.6087 30.0203 32.6087 25.8182C32.6087 21.616 29.2022 18.2095 25 18.2095ZM25 30.166C22.5989 30.166 20.6522 28.2195 20.6522 25.8182C20.6522 23.4168 22.5988 21.4703 25 21.4703C27.4013 21.4703 29.3479 23.4168 29.3479 25.8182C29.3479 28.2195 27.4012 30.166 25 30.166Z" fill="#FFDA44"/>
<path d="M28.7654 26.9051L25 25.8182L21.2346 26.9051L19.9795 29.079H30.0204L28.7654 26.9051Z" fill="#0052B4"/>
<path d="M25 20.3834L22.4897 24.7313L25 25.8182L27.5103 24.7313L25 20.3834Z" fill="#338AF3"/>
<path d="M21.2346 26.9051H28.7655L27.5103 24.7313H22.4898L21.2346 26.9051Z" fill="#6DA544"/>
</g>
<defs>
<clipPath id="clip0_402_123">
<rect width="50" height="50" fill="white" transform="translate(0 0.818176)"/>
</clipPath>
</defs>
</svg>
