<svg width="50" height="51" viewBox="0 0 50 51" fill="none" xmlns="http://www.w3.org/2000/svg">
<g clip-path="url(#clip0_402_123)">
<path d="M50 25.8182C50 39.6252 38.807 50.8182 25 50.8182C11.193 50.8182 0 39.6252 0 25.8182C0 25.8241 25 0.820911 25 0.818176C38.807 0.818176 50 12.0111 50 25.8182Z" fill="#FFDA44"/>
<path d="M25 12.7747V21.2067L16.3044 12.7747H25Z" fill="#0052B4"/>
<path d="M13.0435 25.8182H20.3883L13.0435 16.0356L11.9565 23.6443L13.0435 25.8182Z" fill="#0052B4"/>
<path d="M24.9331 25.8182H25C25 25.7957 25 25.7738 25 25.7513C24.9777 25.7736 24.9555 25.7959 24.9331 25.8182Z" fill="#F0F0F0"/>
<path d="M25 13.8616C25 9.46271 25 6.58038 25 0.818176H24.9958C11.1905 0.82052 0 12.0124 0 25.8182H13.0435V18.4734L20.3883 25.8182H24.9332C24.9555 25.7959 24.9777 25.7736 25.0001 25.7513C25.0001 24.067 25.0001 22.5642 25.0001 21.2067L17.6551 13.8616H25Z" fill="#F0F0F0"/>
<path d="M25 22.7439L16.1177 13.8618H13.0435V13.862L24.9998 25.8182H25C25 25.8182 25 23.6984 25 22.7439V22.7439Z" fill="#D80027"/>
<path d="M12.648 4.07904C11.6842 4.62787 10.7609 5.23949 9.88274 5.90717H10.9085L8.19739 7.87728L9.23274 11.0645L6.52161 9.09476L6.23313 9.30443C5.10745 10.5828 4.1094 11.9761 3.26086 13.4661V25.8182H9.78264V10.601V10.6008H25C25 8.54388 25 6.58431 25 4.07904H12.648Z" fill="#D80027"/>
<path d="M10.6797 5.3252C10.4101 5.51396 10.1443 5.70801 9.88245 5.90713L8.19739 7.87725L6.52161 9.09463L6.23069 9.30596C5.61682 10.0032 5.04114 10.7349 4.50696 11.4979C5.11584 11.7934 5.79934 11.9595 6.52161 11.9595C9.07297 11.9595 11.1411 9.89131 11.1411 7.33994C11.1413 6.61748 10.9753 5.93418 10.6797 5.3252V5.3252Z" fill="#0052B4"/>
<path d="M6.23083 9.30593L6.52175 9.0946L9.23289 11.0644L8.19744 7.87722L10.9084 5.9071H9.8824C8.55486 6.91677 7.33152 8.05583 6.23083 9.30593V9.30593Z" fill="#FFDA44"/>
<path d="M17.2795 5.16602L17.8191 6.82666H19.5652L18.1526 7.85313L18.692 9.51377L17.2795 8.4874L15.8669 9.51377L16.4061 7.85313L14.9935 6.82666H16.7397L17.2795 5.16602Z" fill="#FFDA44"/>
<path d="M6.5218 16.0355L7.06145 17.6962H8.80754L7.39504 18.7227L7.9344 20.3834L6.5218 19.3569L5.10911 20.3834L5.64846 18.7227L4.23596 17.6962H5.98206L6.5218 16.0355Z" fill="#FFDA44"/>
</g>
<defs>
<clipPath id="clip0_402_123">
<rect width="50" height="50" fill="white" transform="translate(0 0.818176)"/>
</clipPath>
</defs>
</svg>
