<svg width="50" height="51" viewBox="0 0 50 51" fill="none" xmlns="http://www.w3.org/2000/svg">
<g clip-path="url(#clip0_402_123)">
<path d="M35.8695 3.29884C32.5828 1.70958 28.8956 0.818176 25 0.818176C21.1044 0.818176 17.4172 1.70958 14.1305 3.29884L11.9565 25.8182L14.1305 48.3375C17.4172 49.9268 21.1044 50.8182 25 50.8182C28.8956 50.8182 32.5828 49.9268 35.8695 48.3375L38.0435 25.8182L35.8695 3.29884Z" fill="#F0F0F0"/>
<path d="M14.1305 3.29974C5.76807 7.3433 0 15.9067 0 25.8182C0 35.7297 5.76807 44.2931 14.1305 48.3367V3.29974Z" fill="#6DA544"/>
<path d="M35.8695 3.29974V48.3367C44.2319 44.2931 50 35.7296 50 25.8182C50 15.9068 44.2319 7.3433 35.8695 3.29974Z" fill="#6DA544"/>
<path d="M31.5218 33.4269L25 12.7747L18.4783 33.4269H23.3696V38.8616H26.6305V33.4269H31.5218Z" fill="#6DA544"/>
</g>
<defs>
<clipPath id="clip0_402_123">
<rect width="50" height="50" fill="white" transform="translate(0 0.818176)"/>
</clipPath>
</defs>
</svg>
