<svg width="50" height="51" viewBox="0 0 50 51" fill="none" xmlns="http://www.w3.org/2000/svg">
<g clip-path="url(#clip0_402_123)">
<path d="M25 50.8182C38.8071 50.8182 50 39.6253 50 25.8182C50 12.0111 38.8071 0.818176 25 0.818176C11.1929 0.818176 0 12.0111 0 25.8182C0 39.6253 11.1929 50.8182 25 50.8182Z" fill="#F0F0F0"/>
<path d="M6.04868 9.51379C5.17144 10.5326 4.37505 11.6228 3.66919 12.7746H46.3305C45.6247 11.6228 44.8284 10.5325 43.951 9.51379H6.04868Z" fill="#D80027"/>
<path d="M6.04871 42.1226H43.9511C44.8284 41.1037 45.6248 40.0136 46.3306 38.8618H3.66931C4.37507 40.0135 5.17146 41.1037 6.04871 42.1226V42.1226Z" fill="#D80027"/>
<path d="M21.8008 21.2465L23.852 24.0732L27.1739 22.996L25.1195 25.8203L27.1705 28.6468L23.8497 27.5656L21.7953 30.3898L21.7974 26.8975L18.4766 25.8162L21.7986 24.7391L21.8008 21.2465Z" fill="#D80027"/>
<path d="M16.2025 32.8834C12.3006 32.8834 9.13731 29.7202 9.13731 25.8182C9.13731 21.9162 12.3006 18.753 16.2025 18.753C17.4191 18.753 18.564 19.0606 19.5634 19.6022C17.9955 18.0689 15.8513 17.1225 13.4852 17.1225C8.68262 17.1225 4.78955 21.0157 4.78955 25.8181C4.78955 30.6205 8.68272 34.5137 13.4852 34.5137C15.8513 34.5137 17.9955 33.5673 19.5634 32.034C18.564 32.5758 17.4192 32.8834 16.2025 32.8834Z" fill="#D80027"/>
</g>
<defs>
<clipPath id="clip0_402_123">
<rect width="50" height="50" fill="white" transform="translate(0 0.818176)"/>
</clipPath>
</defs>
</svg>
