<svg width="50" height="51" viewBox="0 0 50 51" fill="none" xmlns="http://www.w3.org/2000/svg">
<g clip-path="url(#clip0_402_123)">
<path d="M25 50.8182C38.8071 50.8182 50 39.6253 50 25.8182C50 12.0111 38.8071 0.818176 25 0.818176C11.1929 0.818176 0 12.0111 0 25.8182C0 39.6253 11.1929 50.8182 25 50.8182Z" fill="#338AF3"/>
<path d="M24.212 41.5594C23.538 41.5268 22.9804 41.0888 22.762 40.4942C22.3761 40.9974 21.713 41.2507 21.0598 41.0822C20.4054 40.9138 19.9479 40.3725 19.8533 39.7442C19.3728 40.1593 18.6728 40.2723 18.0674 39.9757C17.4609 39.6778 17.1218 39.0549 17.1566 38.4212C16.6034 38.732 15.8947 38.7017 15.361 38.2886C14.8284 37.8755 14.6208 37.1984 14.7816 36.5842C14.1772 36.7777 13.4903 36.606 13.05 36.094C12.6098 35.5831 12.5423 34.8777 12.8229 34.3092C12.1924 34.3765 11.5534 34.07 11.225 33.481C10.8957 32.8918 10.9718 32.1864 11.362 31.6852C10.7304 31.6243 10.1652 31.1949 9.96304 30.5515C9.75981 29.908 9.9772 29.232 10.4609 28.8199C9.85434 28.6328 9.38911 28.0981 9.32065 27.4276C9.2522 26.757 9.60005 26.1406 10.1554 25.8341C9.59995 25.5297 9.24995 24.9135 9.31626 24.2439H9.31733C9.38364 23.5721 9.84888 23.0363 10.4542 22.8471C9.97056 22.4362 9.75102 21.7612 9.9521 21.1177C10.1532 20.4732 10.7172 20.0427 11.3489 19.9796C10.9586 19.4796 10.8804 18.774 11.2076 18.184C11.5347 17.5948 12.1739 17.2872 12.8054 17.3535C12.5228 16.7851 12.5891 16.0796 13.0283 15.5666C13.4664 15.0547 14.1533 14.8819 14.7587 15.0732C14.5957 14.4601 14.8022 13.7819 15.3348 13.3678C15.8664 12.9535 16.575 12.922 17.1283 13.2307C17.0924 12.5971 17.4304 11.9741 18.0359 11.6752C18.6403 11.3774 19.3414 11.4883 19.8228 11.9034C19.9152 11.2753 20.3728 10.7319 21.026 10.5621C21.6782 10.3926 22.3413 10.6437 22.7282 11.1458C22.9466 10.5513 23.5032 10.1121 24.1771 10.0784C24.8499 10.0438 25.4477 10.4219 25.726 10.9905C26.0586 10.4514 26.6913 10.1319 27.3576 10.2329C28.0249 10.3329 28.537 10.8241 28.6957 11.4384C29.1304 10.9752 29.8152 10.7916 30.4478 11.0241C31.0815 11.2578 31.4836 11.8426 31.5141 12.4774C32.0326 12.1122 32.7413 12.0697 33.3141 12.4263C33.887 12.7818 34.162 13.435 34.0641 14.0621C34.6457 13.8089 35.3478 13.91 35.837 14.373C36.3261 14.8371 36.4652 15.5317 36.2435 16.1262C36.8641 15.9946 37.5316 16.2338 37.9185 16.787C38.3054 17.3392 38.3022 18.0479 37.9664 18.586C38.6 18.5816 39.2055 18.9512 39.474 19.5696C39.7414 20.1892 39.5946 20.8838 39.1566 21.3436C39.7794 21.4675 40.2979 21.9512 40.4348 22.612C40.5707 23.2729 40.287 23.9218 39.7664 24.2838C40.349 24.5307 40.7598 25.1077 40.7609 25.7817V25.8034V25.8176C40.7609 26.4914 40.3522 27.0697 39.7696 27.3187C40.2914 27.6785 40.5772 28.3274 40.4414 28.9882C40.3066 29.649 39.7892 30.1339 39.1664 30.26C39.6055 30.7187 39.7544 31.4121 39.4881 32.0328C39.2218 32.6524 38.6164 33.0231 37.9816 33.0197C38.3185 33.5578 38.324 34.2665 37.9381 34.8197C37.5523 35.3732 36.886 35.6144 36.2653 35.4839C36.4881 36.0774 36.35 36.7731 35.8621 37.2383C35.3729 37.7026 34.6718 37.8046 34.0903 37.5535C34.1892 38.1796 33.9153 38.834 33.3435 39.1916C32.7717 39.5492 32.063 39.5078 31.5435 39.1438C31.5141 39.7785 31.1141 40.3645 30.4816 40.5992C29.8491 40.834 30.4816 40.5992 30.4805 40.5992C29.8479 40.8329 29.1631 40.6504 28.7273 40.1885C28.5707 40.8037 28.0599 41.296 27.3925 41.3983C26.7262 41.4993 26.0925 41.1819 25.7588 40.6428C25.4936 41.1896 24.9328 41.5612 24.2936 41.5612C24.2664 41.5616 24.2392 41.5606 24.212 41.5594V41.5594Z" fill="#F3F3F3"/>
<path d="M25 36.6877C31.0031 36.6877 35.8696 31.8213 35.8696 25.8182C35.8696 19.8151 31.0031 14.9487 25 14.9487C18.9969 14.9487 14.1305 19.8151 14.1305 25.8182C14.1305 31.8213 18.9969 36.6877 25 36.6877Z" fill="#338AF3"/>
<path d="M27.3792 22.1286C27.9132 21.7325 28.2608 21.0994 28.2608 20.3834V19.2965C28.2608 18.0958 27.2876 17.1226 26.0869 17.1226H23.9131C22.7124 17.1226 21.7391 18.0958 21.7391 19.2965V20.3834C21.7391 21.0994 22.0868 21.7325 22.6208 22.1286L20.6522 42.1225C20.6522 42.1225 21.7391 43.2096 25.0001 43.2096C28.261 43.2096 29.3479 42.1225 29.3479 42.1225L27.3792 22.1286Z" fill="#BDBCC1"/>
<path d="M25 17.1226L26.8884 22.9349H33.0002L28.0559 26.5274L29.9443 32.3399L25 28.7477L20.0554 32.3399L21.9442 26.5274L16.9998 22.9349H23.1114L25 17.1226Z" fill="#F0F0F0"/>
</g>
<defs>
<clipPath id="clip0_402_123">
<rect width="50" height="50" fill="white" transform="translate(0 0.818176)"/>
</clipPath>
</defs>
</svg>
