<svg width="50" height="51" viewBox="0 0 50 51" fill="none" xmlns="http://www.w3.org/2000/svg">
<g clip-path="url(#clip0_402_123)">
<path d="M25 50.8182C38.8071 50.8182 50 39.6253 50 25.8182C50 12.0111 38.8071 0.818176 25 0.818176C11.1929 0.818176 0 12.0111 0 25.8182C0 39.6253 11.1929 50.8182 25 50.8182Z" fill="#F0F0F0"/>
<path d="M25 0.818176C17.4227 0.818176 10.6334 4.18966 6.04871 9.51378H43.9511C39.3666 4.18966 32.5772 0.818176 25 0.818176V0.818176Z" fill="#0052B4"/>
<path d="M43.9512 42.1226H6.04871C10.6334 47.4467 17.4227 50.8182 25 50.8182C32.5772 50.8182 39.3666 47.4467 43.9512 42.1226Z" fill="#0052B4"/>
<path d="M46.3307 12.7747H3.66934C1.34229 16.5721 0 21.0382 0 25.8182C0 30.5982 1.34229 35.0644 3.66934 38.8616H46.3307C48.6577 35.0644 50 30.5982 50 25.8182C50 21.0382 48.6577 16.5721 46.3307 12.7747Z" fill="#D80027"/>
<path d="M15.3805 35.4377C20.6932 35.4377 25 31.1309 25 25.8182C25 20.5055 20.6932 16.1987 15.3805 16.1987C10.0678 16.1987 5.76099 20.5055 5.76099 25.8182C5.76099 31.1309 10.0678 35.4377 15.3805 35.4377Z" fill="#F0F0F0"/>
<path d="M15.3804 16.1987L17.5387 22.8413H24.5346L18.8728 26.947L21.048 33.6095L15.3804 29.4843L9.72146 33.6018L11.8881 26.947L6.23132 22.8413H13.222L15.3804 16.1987Z" fill="#D80027"/>
</g>
<defs>
<clipPath id="clip0_402_123">
<rect width="50" height="50" fill="white" transform="translate(0 0.818176)"/>
</clipPath>
</defs>
</svg>
