<svg width="50" height="51" viewBox="0 0 50 51" fill="none" xmlns="http://www.w3.org/2000/svg">
<g clip-path="url(#clip0_402_123)">
<path d="M25 50.8182C38.8071 50.8182 50 39.6253 50 25.8182C50 12.0111 38.8071 0.818176 25 0.818176C11.1929 0.818176 0 12.0111 0 25.8182C0 39.6253 11.1929 50.8182 25 50.8182Z" fill="#F0F0F0"/>
<path d="M0 25.8182C0 35.2942 5.27246 43.5384 13.0435 47.7784V3.85791C5.27246 8.09795 0 16.3421 0 25.8182Z" fill="#D80027"/>
<path d="M48.4451 34.5138C49.45 31.8055 50 28.8762 50 25.8182C50 22.7602 49.45 19.8308 48.4451 17.1226H1.55508C0.550098 19.8308 0 22.7602 0 25.8182C0 28.8762 0.550098 31.8055 1.55508 34.5138L25 36.6877L48.4451 34.5138Z" fill="#D80027"/>
<path d="M25 50.8182C35.7492 50.8182 44.9127 44.0338 48.4451 34.5138H1.55505C5.08728 44.0338 14.251 50.8182 25 50.8182V50.8182Z" fill="#6DA544"/>
<path d="M0 25.8182C0 37.3688 7.83408 47.0882 18.4782 49.9569V1.67938C7.83408 4.54813 0 14.2675 0 25.8182Z" fill="#D80027"/>
<path d="M15.2946 11.8196L12.9888 9.51379L11.4517 11.0511L9.9146 9.51379L7.60884 11.8196L9.14604 13.3568L7.60864 14.8941L9.9144 17.1998L11.4516 15.6625L12.9888 17.1998L15.2946 14.8941L13.7574 13.3568L15.2946 11.8196Z" fill="#F0F0F0"/>
</g>
<defs>
<clipPath id="clip0_402_123">
<rect width="50" height="50" fill="white" transform="translate(0 0.818176)"/>
</clipPath>
</defs>
</svg>
