<svg width="50" height="51" viewBox="0 0 50 51" fill="none" xmlns="http://www.w3.org/2000/svg">
<g clip-path="url(#clip0_402_123)">
<path d="M25 50.8182C38.8071 50.8182 50 39.6253 50 25.8182C50 12.0111 38.8071 0.818176 25 0.818176C11.1929 0.818176 0 12.0111 0 25.8182C0 39.6253 11.1929 50.8182 25 50.8182Z" fill="#F0F0F0"/>
<path d="M0 25.8182C0 35.2942 5.27236 43.5383 13.0435 47.7784V3.85791C5.27236 8.09805 0 16.3421 0 25.8182Z" fill="#F0F0F0"/>
<path d="M25 0.818176C20.6689 0.818176 16.5953 1.92003 13.0435 3.85792V47.7783C16.5953 49.7163 20.6689 50.8182 25 50.8182C38.807 50.8182 50 39.6252 50 25.8182C50 12.0111 38.807 0.818176 25 0.818176Z" fill="#496E2D"/>
<path d="M35.6888 29.9526C32.526 32.2379 28.1094 31.5266 25.8242 28.3639C23.5389 25.201 24.2503 20.7845 27.4131 18.4993C28.3992 17.7868 29.5072 17.3656 30.6345 17.2192C28.4658 16.8949 26.1734 17.3836 24.2557 18.7692C20.3631 21.5819 19.4874 27.0176 22.3 30.9104C25.1126 34.8028 30.5484 35.6786 34.4411 32.8657C36.359 31.4801 37.5427 29.4573 37.9155 27.2963C37.4228 28.3203 36.675 29.24 35.6888 29.9526V29.9526Z" fill="#F0F0F0"/>
<path d="M35.5533 17.1227L37.335 19.0428L39.7115 17.942L38.4359 20.2295L40.2174 22.1497L37.6475 21.6433L36.3719 23.931L36.0593 21.3305L33.4894 20.8241L35.866 19.7233L35.5533 17.1227Z" fill="#F0F0F0"/>
</g>
<defs>
<clipPath id="clip0_402_123">
<rect width="50" height="50" fill="white" transform="translate(0 0.818176)"/>
</clipPath>
</defs>
</svg>
