<svg width="50" height="51" viewBox="0 0 50 51" fill="none" xmlns="http://www.w3.org/2000/svg">
<g clip-path="url(#clip0_402_123)">
<path d="M25 50.8182C38.8071 50.8182 50 39.6253 50 25.8182C50 12.0111 38.8071 0.818176 25 0.818176C11.1929 0.818176 0 12.0111 0 25.8182C0 39.6253 11.1929 50.8182 25 50.8182Z" fill="#F0F0F0"/>
<path d="M0 25.8182C0 39.6252 11.193 50.8182 25 50.8182C25 41.3109 25 25.8182 25 25.8182C25 25.8182 8.69561 25.8182 0 25.8182Z" fill="#0052B4"/>
<path d="M25 0.818176C38.807 0.818176 50 12.0111 50 25.8182C40.4927 25.8182 25 25.8182 25 25.8182C25 25.8182 25 9.51378 25 0.818176Z" fill="#D80027"/>
<path d="M14.8817 9.51379L16.5006 14.496H21.7391L17.5011 17.5751L19.1198 22.5573L14.8817 19.4781L10.6436 22.5573L12.2624 17.5751L8.02429 14.496H13.2629L14.8817 9.51379Z" fill="#0052B4"/>
<path d="M35.1183 29.079L36.7371 34.0613H41.9757L37.7375 37.1404L39.3564 42.1226L35.1183 39.0434L30.8802 42.1226L32.499 37.1404L28.2609 34.0613H33.4994L35.1183 29.079Z" fill="#D80027"/>
</g>
<defs>
<clipPath id="clip0_402_123">
<rect width="50" height="50" fill="white" transform="translate(0 0.818176)"/>
</clipPath>
</defs>
</svg>
