<svg width="50" height="51" viewBox="0 0 50 51" fill="none" xmlns="http://www.w3.org/2000/svg">
<g clip-path="url(#clip0_402_123)">
<path d="M42.6778 43.4958C32.9147 53.2589 17.0856 53.2589 7.3223 43.4958C-2.44078 33.7327 -2.44078 17.9035 7.3224 8.14034C17.0855 -1.62275 31.3774 -0.0855389 41.1405 9.67764C50.9035 19.4407 52.4408 33.7327 42.6778 43.4958V43.4958Z" fill="black"/>
<path d="M7.32239 8.14047C17.0855 -1.62262 32.9145 -1.62242 42.6778 8.14056C52.4408 17.9036 52.4408 33.7328 42.6778 43.4959" fill="#A2001D"/>
<path d="M19.1057 34.5139L19.5104 35.7595H20.8201L19.7605 36.5292L20.1653 37.7748L19.1057 37.005L18.0461 37.7748L18.4508 36.5292L17.3914 35.7595H18.7009L19.1057 34.5139Z" fill="#F0F0F0"/>
<path d="M15.7609 22.5573L16.4356 24.6333H18.6182L16.8523 25.9162L17.5268 27.9922L15.7609 26.7091L13.9951 27.9922L14.6697 25.9162L12.9037 24.6333H15.0865L15.7609 22.5573Z" fill="#F0F0F0"/>
<path d="M15.7609 37.7748L16.4354 39.8508H18.6182L16.8521 41.1336L17.5268 43.2095L15.7609 41.9264L13.9951 43.2095L14.6695 41.1336L12.9037 39.8508H15.0862L15.7609 37.7748Z" fill="#F0F0F0"/>
<path d="M22.1428 27.9922L22.8175 30.0682H25.0001L23.2342 31.351L23.9087 33.427L22.1428 32.1438L20.377 33.427L21.0516 31.351L19.2856 30.0682H21.4684L22.1428 27.9922Z" fill="#F0F0F0"/>
<path d="M9.37896 27.9922L10.0537 30.0682H12.2362L10.4704 31.351L11.1448 33.427L9.37896 32.1438L7.61304 33.427L8.28774 31.351L6.52173 30.0682H8.70444L9.37896 27.9922Z" fill="#F0F0F0"/>
<path d="M41.8505 19.33C40.7332 18.2127 39.2814 17.5526 37.7214 17.4393L42.3913 13.8071C40.5314 11.9473 38.0387 11.1073 35.6063 11.285C35.315 10.2385 34.7599 9.25001 33.9369 8.42706L32.0923 12.1163C31.9713 11.8958 31.8181 11.6883 31.6312 11.5015C30.5698 10.4402 28.8493 10.4402 27.7882 11.5015C26.727 12.5627 26.7269 14.2832 27.7882 15.3444C27.975 15.5313 28.1826 15.6845 28.4031 15.8056L24.7139 17.6502C25.537 18.4735 26.5262 19.029 27.5732 19.32C27.395 21.7525 28.2341 24.2448 30.094 26.1048L34.1741 20.8589C34.4811 20.5567 34.8864 20.3898 35.3177 20.3898C35.7532 20.3898 36.1626 20.5593 36.4705 20.8674C36.7785 21.1753 36.9481 21.5848 36.9481 22.0202C36.9481 22.4558 36.7785 22.8652 36.4705 23.1732L38.0078 24.7105C38.7263 23.9919 39.1221 23.0365 39.1221 22.0203C39.1221 21.1889 38.8568 20.3985 38.3672 19.7449C39.0807 19.9355 39.755 20.3087 40.3136 20.8674C42.0089 22.5626 42.0089 25.321 40.3136 27.0161L41.8509 28.5534C43.0826 27.3216 43.761 25.6839 43.761 23.9418C43.7607 22.1995 43.0822 20.5618 41.8505 19.33V19.33Z" fill="#FFDA44"/>
</g>
<defs>
<clipPath id="clip0_402_123">
<rect width="50" height="50" fill="white" transform="translate(0 0.818176)"/>
</clipPath>
</defs>
</svg>
