<svg width="50" height="51" viewBox="0 0 50 51" fill="none" xmlns="http://www.w3.org/2000/svg">
<g clip-path="url(#clip0_402_123)">
<path d="M25 50.8182C38.8071 50.8182 50 39.6253 50 25.8182C50 12.0111 38.8071 0.818176 25 0.818176C11.1929 0.818176 0 12.0111 0 25.8182C0 39.6253 11.1929 50.8182 25 50.8182Z" fill="#F0F0F0"/>
<path d="M25 0.818176C15.0885 0.818176 6.52446 6.58624 2.48071 14.9486H47.5193C43.4756 6.58624 34.9115 0.818176 25 0.818176V0.818176Z" fill="#D80027"/>
<path d="M25 50.8182C34.9115 50.8182 43.4756 45.0501 47.5194 36.6877H2.48071C6.52446 45.0501 15.0885 50.8182 25 50.8182Z" fill="#0052B4"/>
<path d="M31.1487 18.5825L28.8429 20.8883C29.8264 21.8718 30.4348 23.2305 30.4348 24.7313C30.4348 27.7328 28.0015 30.166 25.0001 30.166C21.9986 30.166 19.5653 27.7327 19.5653 24.7313C19.5653 23.2305 20.1737 21.8718 21.1572 20.8883L18.8514 18.5825C17.2777 20.156 16.3044 22.3299 16.3044 24.7313C16.3044 29.5338 20.1976 33.4269 25.0001 33.4269C29.8025 33.4269 33.6957 29.5337 33.6957 24.7313C33.6956 22.3299 32.7223 20.156 31.1487 18.5825V18.5825Z" fill="#6DA544"/>
<path d="M25 21.4703L25.8095 23.9615H28.4287L26.3097 25.501L27.1191 27.9921L25 26.4526L22.8809 27.9921L23.6903 25.501L21.5713 23.9615H24.1905L25 21.4703Z" fill="#FFDA44"/>
</g>
<defs>
<clipPath id="clip0_402_123">
<rect width="50" height="50" fill="white" transform="translate(0 0.818176)"/>
</clipPath>
</defs>
</svg>
