<svg width="50" height="51" viewBox="0 0 50 51" fill="none" xmlns="http://www.w3.org/2000/svg">
<g clip-path="url(#clip0_402_123)">
<path d="M25 50.8182C38.8071 50.8182 50 39.6253 50 25.8182C50 12.0111 38.8071 0.818176 25 0.818176C11.1929 0.818176 0 12.0111 0 25.8182C0 39.6253 11.1929 50.8182 25 50.8182Z" fill="#F0F0F0"/>
<path d="M25 0.818176V25.8182L7.32227 43.4959C11.8464 48.0199 18.0964 50.8182 25 50.8182C38.807 50.8182 50 39.6252 50 25.8182C50 12.0111 25 0.818176 25 0.818176Z" fill="#D80027"/>
<path d="M25 0.818176C18.0964 0.818176 11.8464 3.61642 7.32227 8.14044C13.4561 14.2742 15.6335 16.4518 25 25.8182H50C50 12.0111 38.807 0.818176 25 0.818176Z" fill="#0052B4"/>
<path d="M17.1183 25.8181L14.0652 24.382L15.691 21.4251L12.3756 22.0593L11.9555 18.71L9.64612 21.1733L7.33684 18.71L6.91663 22.0593L3.60129 21.425L5.22717 24.382L2.17395 25.8181L5.22717 27.2543L3.60129 30.2112L6.91692 29.577L7.33674 32.9262L9.64612 30.463L11.9555 32.9262L12.3756 29.577L15.6908 30.2113L14.0651 27.2544L17.1183 25.8181Z" fill="#FFDA44"/>
<path d="M6.66736 10.6008L7.68337 12.021L9.34793 11.4937L8.31101 12.8988L9.32703 14.319L7.67019 13.7672L6.63337 15.1722L6.64636 13.4261L4.98962 12.8741L6.65447 12.3469L6.66736 10.6008Z" fill="#FFDA44"/>
<path d="M6.66736 36.4642L7.68337 37.8844L9.34793 37.357L8.31101 38.7622L9.32703 40.1824L7.67019 39.6306L6.63337 41.0356L6.64636 39.2895L4.98962 38.7375L6.65447 38.2103L6.66736 36.4642Z" fill="#FFDA44"/>
<path d="M21.1588 23.5325L20.1429 24.9527L18.4783 24.4253L19.5152 25.8305L18.4992 27.2508L20.156 26.6988L21.1929 28.1038L21.1798 26.3578L22.8366 25.8059L21.1718 25.2786L21.1588 23.5325Z" fill="#FFDA44"/>
</g>
<defs>
<clipPath id="clip0_402_123">
<rect width="50" height="50" fill="white" transform="translate(0 0.818176)"/>
</clipPath>
</defs>
</svg>
