<svg width="50" height="51" viewBox="0 0 50 51" fill="none" xmlns="http://www.w3.org/2000/svg">
<g clip-path="url(#clip0_402_123)">
<path d="M50 25.8182C50 39.6252 38.807 50.8182 25 50.8182C11.193 50.8182 0 39.6252 0 25.8182C0 25.8241 25 0.820911 25 0.818176C38.807 0.818176 50 12.0111 50 25.8182Z" fill="#0052B4"/>
<path d="M24.9331 25.8182H25C25 25.7957 25 25.7738 25 25.7513C24.9777 25.7736 24.9555 25.7959 24.9331 25.8182Z" fill="#F0F0F0"/>
<path d="M25 13.8616C25 9.46271 25 6.58038 25 0.818176H24.9958C11.1905 0.82052 0 12.0124 0 25.8182H13.0435V18.4734L20.3883 25.8182H24.9332C24.9555 25.7959 24.9777 25.7736 25.0001 25.7513C25.0001 24.067 25.0001 22.5642 25.0001 21.2067L17.6551 13.8616H25Z" fill="#F0F0F0"/>
<path d="M12.648 4.07904C8.73791 6.30551 5.48723 9.55609 3.26086 13.4661V25.8182H9.78264V10.601V10.6008H25C25 8.54388 25 6.58431 25 4.07904H12.648Z" fill="#D80027"/>
<path d="M25 22.7439L16.1177 13.8618H13.0435V13.862L24.9998 25.8182H25C25 25.8182 25 23.6984 25 22.7439V22.7439Z" fill="#D80027"/>
<path d="M39.1304 16.0355L35.8695 17.1225L32.6086 16.0355L31.5217 13.3182L32.6086 10.6008H39.1304L38.0434 13.3182L39.1304 16.0355Z" fill="#ACABB1"/>
<path d="M28.2609 16.0356V27.992C28.2609 33.8162 35.8696 35.6008 35.8696 35.6008C35.8696 35.6008 43.4782 33.8162 43.4782 27.992V16.0356H28.2609Z" fill="#338AF3"/>
<path d="M28.9468 30.8246C30.8171 34.4154 35.8696 35.6008 35.8696 35.6008C35.8696 35.6008 40.9222 34.4154 42.7925 30.8246L35.8696 19.2965L28.9468 30.8246Z" fill="#6DA544"/>
<path d="M43.4782 27.8712L35.8696 16.0356L28.2609 27.8713V27.992C28.2609 29.07 28.522 30.0092 28.9467 30.8246L35.8696 20.0556L42.7924 30.8245C43.2171 30.009 43.4782 29.0699 43.4782 27.9919V27.8712Z" fill="#FFDA44"/>
</g>
<defs>
<clipPath id="clip0_402_123">
<rect width="50" height="50" fill="white" transform="translate(0 0.818176)"/>
</clipPath>
</defs>
</svg>
