<svg width="50" height="51" viewBox="0 0 50 51" fill="none" xmlns="http://www.w3.org/2000/svg">
<g clip-path="url(#clip0_402_123)">
<path d="M25 50.8182C38.8071 50.8182 50 39.6253 50 25.8182C50 12.0111 38.8071 0.818176 25 0.818176C11.1929 0.818176 0 12.0111 0 25.8182C0 39.6253 11.1929 50.8182 25 50.8182Z" fill="#F0F0F0"/>
<path d="M25 0.818176C16.8211 0.818176 9.55984 4.7462 4.9989 10.8182H45.0011C40.4401 4.7462 33.1789 0.818176 25 0.818176Z" fill="#D80027"/>
<path d="M25 50.8182C33.1789 50.8182 40.4401 46.8901 45.0011 40.8182H4.9989C9.55984 46.8901 16.8211 50.8182 25 50.8182Z" fill="#D80027"/>
<path d="M0 25.8182C0 27.5306 0.172656 29.2027 0.500684 30.8182H49.4995C49.8275 29.2027 50 27.5306 50 25.8182C50 24.1058 49.8273 22.4337 49.4994 20.8182H0.500684C0.172656 22.4337 0 24.1058 0 25.8182H0Z" fill="#D80027"/>
<path d="M7.32231 8.14044C-2.44077 17.9035 -2.44077 33.7327 7.32231 43.4959C11.3568 39.4614 15.237 35.5813 25 25.8182L7.32231 8.14044Z" fill="#0052B4"/>
<path d="M10.1182 19.2964L11.7368 24.2784H16.9757L12.7376 27.3577L14.3562 32.3399L10.1182 29.2607L5.88 32.3399L7.49895 27.3577L3.26086 24.2784H8.49934L10.1182 19.2964Z" fill="#F0F0F0"/>
</g>
<defs>
<clipPath id="clip0_402_123">
<rect width="50" height="50" fill="white" transform="translate(0 0.818176)"/>
</clipPath>
</defs>
</svg>
