<svg width="50" height="51" viewBox="0 0 50 51" fill="none" xmlns="http://www.w3.org/2000/svg">
<g clip-path="url(#clip0_402_123)">
<path d="M25 50.8182C38.8071 50.8182 50 39.6253 50 25.8182C50 12.0111 38.8071 0.818176 25 0.818176C11.1929 0.818176 0 12.0111 0 25.8182C0 39.6253 11.1929 50.8182 25 50.8182Z" fill="#FCFCFC"/>
<path d="M32.6087 21.4703V23.6443H35.5923C34.3471 25.3747 32.6886 26.7874 30.7617 27.7387C30.2674 27.2251 29.5733 26.9051 28.8043 26.9051C27.5079 26.9051 26.4243 27.8132 26.1529 29.028C25.773 29.0614 25.3885 29.079 25 29.079C24.6114 29.079 24.2269 29.0612 23.847 29.028C23.5757 27.8133 22.4921 26.9051 21.1957 26.9051C20.4266 26.9051 19.7328 27.2251 19.2383 27.7387C17.3113 26.7875 15.6529 25.3746 14.4078 23.6443H17.3913V21.4703H9.78259C9.78259 29.8745 16.5958 36.6877 25 36.6877C33.4044 36.6877 40.2174 29.8745 40.2174 21.4703H32.6087Z" fill="#D80027"/>
</g>
<defs>
<clipPath id="clip0_402_123">
<rect width="50" height="50" fill="white" transform="translate(0 0.818176)"/>
</clipPath>
</defs>
</svg>
