<svg width="50" height="51" viewBox="0 0 50 51" fill="none" xmlns="http://www.w3.org/2000/svg">
<g clip-path="url(#clip0_402_123)">
<path d="M13.5518 48.049L31.9175 32.7358L47.2308 14.3701C44.8499 9.75603 41.0747 5.97879 36.4625 3.59491L18.0823 18.9006L2.77673 37.2807C5.16042 41.8931 8.93766 45.6682 13.5518 48.049V48.049Z" fill="#FFDA44"/>
<path d="M42.6783 43.4966C50.5656 35.6092 52.0797 23.7638 47.2238 14.355L13.5367 48.0421C22.9455 52.8979 34.791 51.3838 42.6783 43.4966Z" fill="#D80027"/>
<path d="M7.32134 8.13964C-0.565946 16.0269 -2.08001 27.8724 2.77575 37.2812L36.4629 3.59414C27.0541 -1.26181 15.2086 0.252444 7.32134 8.13964V8.13964Z" fill="#6DA544"/>
</g>
<defs>
<clipPath id="clip0_402_123">
<rect width="50" height="50" fill="white" transform="translate(0 0.818176)"/>
</clipPath>
</defs>
</svg>
