<svg width="50" height="51" viewBox="0 0 50 51" fill="none" xmlns="http://www.w3.org/2000/svg">
<g clip-path="url(#clip0_402_123)">
<path d="M25 50.8182C38.8071 50.8182 50 39.6253 50 25.8182C50 12.0111 38.8071 0.818176 25 0.818176C11.1929 0.818176 0 12.0111 0 25.8182C0 39.6253 11.1929 50.8182 25 50.8182Z" fill="#FFDA44"/>
<path d="M28.802 50.5308C32.868 49.9105 36.6107 48.3093 39.784 45.9782L25 25.8182L28.802 50.5308Z" fill="#D80027"/>
<path d="M21.1979 1.10559C17.132 1.7259 13.3893 3.32708 10.2158 5.65803L25 25.8182L21.1979 1.10559Z" fill="#D80027"/>
<path d="M10.2158 45.9782C13.3891 48.3092 17.1318 49.9104 21.1978 50.5309L25 25.8182L10.2158 45.9782Z" fill="#D80027"/>
<path d="M4.83979 11.034C2.50874 14.2074 0.907764 17.9501 0.287354 22.0161L24.9999 25.8182L4.83979 11.034Z" fill="#D80027"/>
<path d="M0.287354 29.6201C0.907666 33.6861 2.50884 37.4289 4.83989 40.6022L24.9999 25.8182L0.287354 29.6201Z" fill="#D80027"/>
<path d="M49.7126 22.0162C49.0922 17.9502 47.4911 14.2075 45.1601 11.0341L25 25.8182L49.7126 22.0162Z" fill="#D80027"/>
<path d="M39.784 5.65793C36.6106 3.32698 32.868 1.7259 28.802 1.10559L25 25.8182L39.784 5.65793Z" fill="#D80027"/>
<path d="M45.1603 40.6023C47.4912 37.4289 49.0923 33.686 49.7128 29.6202L25 25.8182L45.1603 40.6023Z" fill="#D80027"/>
<path d="M24.9999 34.5138C29.8024 34.5138 33.6955 30.6206 33.6955 25.8182C33.6955 21.0157 29.8024 17.1226 24.9999 17.1226C20.1975 17.1226 16.3043 21.0157 16.3043 25.8182C16.3043 30.6206 20.1975 34.5138 24.9999 34.5138Z" fill="#D80027"/>
<path d="M25 32.3399C28.6019 32.3399 31.5218 29.42 31.5218 25.8182C31.5218 22.2163 28.6019 19.2964 25 19.2964C21.3982 19.2964 18.4783 22.2163 18.4783 25.8182C18.4783 29.42 21.3982 32.3399 25 32.3399Z" fill="#FFDA44"/>
</g>
<defs>
<clipPath id="clip0_402_123">
<rect width="50" height="50" fill="white" transform="translate(0 0.818176)"/>
</clipPath>
</defs>
</svg>
