<svg width="50" height="51" viewBox="0 0 50 51" fill="none" xmlns="http://www.w3.org/2000/svg">
<g clip-path="url(#clip0_402_123)">
<path d="M33.6956 2.37306C30.9872 1.36827 28.058 0.818176 25 0.818176C21.942 0.818079 19.0127 1.36827 16.3044 2.37306L14.1305 25.8181L16.3044 49.2631C19.0126 50.2682 21.9419 50.8182 25 50.8182C28.0579 50.8182 30.9873 50.2682 33.6956 49.2631L35.8695 25.8182L33.6956 2.37306Z" fill="#FFDA44"/>
<path d="M49.9999 25.8182C49.9999 15.0692 43.2156 5.9054 33.6956 2.37317V49.2634C43.2156 45.7308 49.9999 36.5674 49.9999 25.8182Z" fill="#D80027"/>
<path d="M0 25.8181C0 36.5674 6.78438 45.7308 16.3042 49.2633L16.3043 2.37323C6.78437 5.90546 0 15.0689 0 25.8181H0Z" fill="#0052B4"/>
</g>
<defs>
<clipPath id="clip0_402_123">
<rect width="50" height="50" fill="white" transform="translate(0 0.818176)"/>
</clipPath>
</defs>
</svg>
