<svg width="50" height="51" viewBox="0 0 50 51" fill="none" xmlns="http://www.w3.org/2000/svg">
<g clip-path="url(#clip0_402_123)">
<path d="M0 25.8182C0 30.1492 1.10186 34.2228 3.03975 37.7747L25 39.9486L46.9603 37.7747C48.8981 34.2228 50 30.1492 50 25.8182L25 23.6442L0 25.8182Z" fill="#FFDA44"/>
<path d="M46.9603 13.8616C42.7201 6.09054 34.4761 0.818176 25 0.818176C15.5239 0.818176 7.27988 6.09054 3.03975 13.8616C1.10186 17.4135 0 21.4871 0 25.8182H50C50 21.4871 48.8981 17.4135 46.9603 13.8616Z" fill="#338AF3"/>
<path d="M25 50.8182C34.4761 50.8182 42.7202 45.5458 46.9603 37.7747H3.03979C7.27993 45.5458 15.524 50.8182 25 50.8182Z" fill="#496E2D"/>
<path d="M28.2609 15.4491L31.3142 16.8854L29.6883 19.8424L33.0037 19.2082L33.4239 22.5573L35.733 20.0941L38.0424 22.5573L38.4624 19.2082L41.7779 19.8422L40.1521 16.8853L43.2052 15.4491L40.152 14.0131L41.7779 11.0561L38.4625 11.6902L38.0423 8.34113L35.733 10.8044L33.4238 8.34113L33.0037 11.6902L29.6882 11.0561L31.3141 14.0132L28.2609 15.4491Z" fill="#FFDA44"/>
</g>
<defs>
<clipPath id="clip0_402_123">
<rect width="50" height="50" fill="white" transform="translate(0 0.818176)"/>
</clipPath>
</defs>
</svg>
