<svg width="50" height="51" viewBox="0 0 50 51" fill="none" xmlns="http://www.w3.org/2000/svg">
<g clip-path="url(#clip0_402_123)">
<path d="M25 50.8182C38.8071 50.8182 50 39.6253 50 25.8182C50 12.0111 38.8071 0.818176 25 0.818176C11.1929 0.818176 0 12.0111 0 25.8182C0 39.6253 11.1929 50.8182 25 50.8182Z" fill="#F0F0F0"/>
<path d="M25 0.818063C24.9767 0.800485 -0.0066393 25.8115 1.32359e-06 25.8181C1.32359e-06 12.011 11.193 0.818063 25 0.818063Z" fill="#D80027"/>
<path d="M25 0.818186C25.0233 0.800607 50.0066 25.8115 50 25.8182C50 12.0112 38.807 0.818186 25 0.818186Z" fill="#D80027"/>
<path d="M25 50.8182C24.9767 50.8358 -0.0066393 25.8248 1.32359e-06 25.8182C1.32359e-06 39.6252 11.193 50.8182 25 50.8182Z" fill="#0052B4"/>
<path d="M25 50.8182C25.0233 50.8358 50.0066 25.8248 50 25.8182C50 39.6252 38.807 50.8182 25 50.8182Z" fill="#0052B4"/>
<path d="M25 13.8616L27.698 22.1652H36.429L29.3654 27.2971L32.0634 35.6008L25 30.4689L17.9365 35.6008L20.6345 27.2971L13.571 22.1652H22.3019L25 13.8616Z" fill="#FFDA44"/>
</g>
<defs>
<clipPath id="clip0_402_123">
<rect width="50" height="50" fill="white" transform="translate(0 0.818176)"/>
</clipPath>
</defs>
</svg>
