<svg width="50" height="51" viewBox="0 0 50 51" fill="none" xmlns="http://www.w3.org/2000/svg">
<g clip-path="url(#clip0_402_123)">
<path d="M2.48066 14.9486C0.891406 18.2354 0 21.9226 0 25.8182C0 29.7138 0.891406 33.401 2.48066 36.6877L25 38.8616L47.5193 36.6877C49.1086 33.401 50 29.7138 50 25.8182C50 21.9226 49.1086 18.2354 47.5193 14.9486L25 12.7747L2.48066 14.9486Z" fill="#F0F0F0"/>
<path d="M2.48157 36.6877C6.52512 45.0501 15.0886 50.8182 25 50.8182C34.9115 50.8182 43.4749 45.0501 47.5185 36.6877H2.48157Z" fill="#496E2D"/>
<path d="M2.48157 14.9486H47.5185C43.4749 6.58624 34.9115 0.818176 25 0.818176C15.0885 0.818176 6.52512 6.58624 2.48157 14.9486Z" fill="black"/>
<path d="M7.32231 8.14044C-2.44077 17.9035 -2.44077 33.7327 7.32231 43.4959C11.3568 39.4614 15.237 35.5813 25 25.8182L7.32231 8.14044Z" fill="#D80027"/>
<path d="M31.5218 25.8182C31.5218 22.1758 34.0817 19.1329 37.5 18.3864C36.9746 18.2717 36.4295 18.2095 35.8696 18.2095C31.6673 18.2095 28.2609 21.6159 28.2609 25.8182C28.2609 30.0204 31.6673 33.4269 35.8696 33.4269C36.4294 33.4269 36.9745 33.3647 37.5 33.2499C34.0817 32.5034 31.5218 29.4605 31.5218 25.8182Z" fill="#D80027"/>
<path d="M37.8197 20.9269L38.899 24.2486H42.3913L39.5659 26.3011L40.6452 29.6226L37.8197 27.5699L34.9944 29.6226L36.0738 26.3011L33.2482 24.2486H36.7405L37.8197 20.9269Z" fill="#D80027"/>
</g>
<defs>
<clipPath id="clip0_402_123">
<rect width="50" height="50" fill="white" transform="translate(0 0.818176)"/>
</clipPath>
</defs>
</svg>
