<svg width="50" height="51" viewBox="0 0 50 51" fill="none" xmlns="http://www.w3.org/2000/svg">
<g clip-path="url(#clip0_402_123)">
<path d="M50 25.8182C50 39.6252 38.807 50.8182 25 50.8182C11.193 50.8182 0 39.6252 0 25.8182C8.58691 17.2313 15.8695 9.94865 25 0.818176C38.807 0.818176 50 12.0111 50 25.8182Z" fill="#D80027"/>
<path d="M25 25.8182C25 12.0111 25 10.3834 25 0.818176C11.193 0.818176 0 12.0111 0 25.8182H25Z" fill="#0052B4"/>
<path d="M20.0248 17.1226L20.4296 18.3682H21.7391L20.6796 19.1378L21.0844 20.3834L20.0248 19.6136L18.9652 20.3834L19.37 19.1378L18.3104 18.3682H19.62L20.0248 17.1226Z" fill="#F0F0F0"/>
<path d="M13.4471 7.33997L14.1216 9.41604H16.3044L14.5384 10.6988L15.2131 12.7747L13.4471 11.4916L11.6812 12.7747L12.3558 10.6988L10.5898 9.41604H12.7725L13.4471 7.33997Z" fill="#F0F0F0"/>
<path d="M19.9688 9.51379L20.6433 11.59H22.826L21.0601 12.8727L21.7346 14.9487L19.9688 13.6656L18.2029 14.9487L18.8775 12.8727L17.1116 11.59H19.2942L19.9688 9.51379Z" fill="#F0F0F0"/>
<path d="M14.8138 18.2095L15.4884 20.2855H17.671L15.9051 21.5683L16.5797 23.6442L14.8138 22.3612L13.0479 23.6442L13.7225 21.5683L11.9565 20.2855H14.1393L14.8138 18.2095Z" fill="#F0F0F0"/>
<path d="M9.09919 12.7747L9.7738 14.8508H11.9565L10.1905 16.1335L10.8651 18.2095L9.09919 16.9265L7.33337 18.2095L8.00789 16.1335L6.24207 14.8508H8.42468L9.09919 12.7747Z" fill="#F0F0F0"/>
</g>
<defs>
<clipPath id="clip0_402_123">
<rect width="50" height="50" fill="white" transform="translate(0 0.818176)"/>
</clipPath>
</defs>
</svg>
