<svg width="50" height="51" viewBox="0 0 50 51" fill="none" xmlns="http://www.w3.org/2000/svg">
<g clip-path="url(#clip0_402_123)">
<path d="M50 25.8182C50 39.6252 38.807 50.8182 25 50.8182C11.193 50.8182 0 39.6252 0 25.8182C1.08691 25.8182 25 22.5573 25 22.5573L50 25.8182Z" fill="#338AF3"/>
<path d="M0 25.8182C0 12.0111 11.193 0.818176 25 0.818176C38.807 0.818176 50 12.0111 50 25.8182" fill="#F0F0F0"/>
<path d="M34.9235 18.0685L25 27.9921L15.0766 18.0685C13.7933 19.9735 13.0436 22.2664 13.0436 24.7311V27.992C13.0436 33.2279 16.4269 37.6882 21.1219 39.3025C20.4952 40.5307 20.6009 42.0634 21.5192 43.2094C22.7387 42.2319 24.0013 41.2201 25.0724 40.3619C26.1435 41.2202 27.4062 42.232 28.6256 43.2094C29.5546 42.05 29.6527 40.4943 29.0013 39.259C33.6322 37.6096 36.9565 33.182 36.9565 27.992V24.7312C36.9566 22.2664 36.2068 19.9736 34.9235 18.0685V18.0685Z" fill="#6DA544"/>
<path d="M25 36.6877C20.2052 36.6877 16.3044 32.7868 16.3044 27.9921V24.7312C16.3044 19.9364 20.2053 16.0356 25 16.0356C29.7948 16.0356 33.6957 19.9365 33.6957 24.7312V27.9921C33.6957 32.7868 29.7949 36.6877 25 36.6877Z" fill="#FFDA44"/>
<path d="M30.4347 27.9921V24.7313C30.4347 21.7345 27.9966 19.2965 25 19.2965C22.0033 19.2965 19.5652 21.7346 19.5652 24.7313V27.9921L25 29.079L30.4347 27.9921Z" fill="#338AF3"/>
<path d="M19.5652 27.9921C19.5652 30.9889 22.0033 33.4269 25 33.4269C27.9966 33.4269 30.4347 30.9888 30.4347 27.9921H19.5652Z" fill="#6DA544"/>
<path d="M31.5217 16.0356C31.5217 14.2347 30.0618 12.7747 28.2609 12.7747C27.4254 12.7747 26.664 13.0892 26.087 13.6057V11.6877H27.1739V9.51379H26.087V8.42688H23.913V9.51379H22.8261V11.6877H23.913V13.6057C23.336 13.0892 22.5745 12.7747 21.7391 12.7747C19.9382 12.7747 18.4783 14.2347 18.4783 16.0356C18.4783 17.0011 18.8983 17.8683 19.5652 18.4655V20.3834H30.4347V18.4655C31.1017 17.8683 31.5217 17.0011 31.5217 16.0356V16.0356Z" fill="#FFDA44"/>
</g>
<defs>
<clipPath id="clip0_402_123">
<rect width="50" height="50" fill="white" transform="translate(0 0.818176)"/>
</clipPath>
</defs>
</svg>
