<svg width="50" height="51" viewBox="0 0 50 51" fill="none" xmlns="http://www.w3.org/2000/svg">
<g clip-path="url(#clip0_402_123)">
<path d="M25 50.8182C38.8071 50.8182 50 39.6253 50 25.8182C50 12.0111 38.8071 0.818176 25 0.818176C11.1929 0.818176 0 12.0111 0 25.8182C0 39.6253 11.1929 50.8182 25 50.8182Z" fill="#FFDA44"/>
<path d="M15.2174 17.1226H48.4449C44.9127 7.60255 35.749 0.818176 25 0.818176C18.0963 0.818176 11.8469 3.61691 7.32312 8.14132L15.2174 17.1226Z" fill="#6DA544"/>
<path d="M15.2174 34.5138H48.4449C44.9127 44.0338 35.749 50.8182 25 50.8182C18.0963 50.8182 11.8469 48.0195 7.32312 43.495L15.2174 34.5138Z" fill="#6DA544"/>
<path d="M7.32231 8.14044C-2.44077 17.9035 -2.44077 33.7327 7.32231 43.4959C11.3568 39.4614 15.237 35.5813 25 25.8182L7.32231 8.14044Z" fill="#D80027"/>
<path d="M31.7455 21.4703L32.8247 24.7918H36.3171L33.4917 26.8446L34.5709 30.166L31.7455 28.1132L28.9201 30.166L29.9992 26.8446L27.174 24.7918H30.6663L31.7455 21.4703Z" fill="black"/>
<path d="M42.6151 21.4703L43.6942 24.7918H47.1866L44.3613 26.8446L45.4404 30.166L42.6151 28.1132L39.7896 30.166L40.8688 26.8446L38.0435 24.7918H41.5358L42.6151 21.4703Z" fill="black"/>
</g>
<defs>
<clipPath id="clip0_402_123">
<rect width="50" height="50" fill="white" transform="translate(0 0.818176)"/>
</clipPath>
</defs>
</svg>
