<svg width="50" height="51" viewBox="0 0 50 51" fill="none" xmlns="http://www.w3.org/2000/svg">
<g clip-path="url(#clip0_402_123)">
<path d="M25 50.8182C38.8071 50.8182 50 39.6253 50 25.8182C50 12.0111 38.8071 0.818176 25 0.818176C11.1929 0.818176 0 12.0111 0 25.8182C0 39.6253 11.1929 50.8182 25 50.8182Z" fill="#F0F0F0"/>
<path d="M49.7884 22.5573H28.261H28.2609V1.0298C27.1935 0.890833 26.1052 0.818176 25 0.818176C23.8948 0.818176 22.8065 0.890833 21.7392 1.0298V22.5571V22.5572H0.211621C0.0726563 23.6247 0 24.713 0 25.8182C0 26.9234 0.0726563 28.0116 0.211621 29.079H21.739H21.7391V50.6066C22.8065 50.7455 23.8948 50.8182 25 50.8182C26.1052 50.8182 27.1935 50.7456 28.2608 50.6066V29.0793V29.0791H49.7884C49.9273 28.0116 50 26.9234 50 25.8182C50 24.713 49.9273 23.6247 49.7884 22.5573V22.5573Z" fill="#D80027"/>
<path d="M36.9566 9.51379C34.9306 9.51379 33.2283 10.8994 32.7457 12.7746L36.9566 13.8615L41.1674 12.7746C40.6848 10.8995 38.9825 9.51379 36.9566 9.51379V9.51379Z" fill="black"/>
<path d="M32.6086 19.2964L38.0434 20.3833V18.0725C39.5712 17.6791 40.7738 16.4763 41.167 14.9485L36.9565 13.8616H31.5217L32.6086 17.1225V19.2964Z" fill="black"/>
<path d="M41.1673 12.7747H31.5217V14.9486V17.1226H32.6086V14.9486H41.167C41.2565 14.6013 41.3043 14.237 41.3043 13.8617C41.3043 13.4863 41.2568 13.1221 41.1673 12.7747V12.7747Z" fill="#ACABB1"/>
<path d="M14.1305 9.51379C12.1045 9.51379 10.4023 10.8994 9.91968 12.7746L14.1305 13.8615L18.3414 12.7746C17.8587 10.8995 16.1565 9.51379 14.1305 9.51379Z" fill="black"/>
<path d="M9.78257 19.2964L15.2173 20.3833V18.0725C16.7452 17.6791 17.9477 16.4763 18.341 14.9485L14.1304 13.8616H8.69556L9.78247 17.1225V19.2964H9.78257Z" fill="black"/>
<path d="M18.3413 12.7747H8.69556V14.9486V17.1226H9.78247V14.9486H18.3409C18.4303 14.6013 18.4782 14.237 18.4782 13.8617C18.4782 13.4863 18.4307 13.1221 18.3413 12.7747Z" fill="#ACABB1"/>
<path d="M36.9566 31.2529C34.9306 31.2529 33.2283 32.6386 32.7457 34.5138L36.9566 35.6007L41.1674 34.5138C40.6848 32.6386 38.9825 31.2529 36.9566 31.2529V31.2529Z" fill="black"/>
<path d="M32.6086 41.0355L38.0434 42.1224V39.8116C39.5712 39.4182 40.7738 38.2154 41.167 36.6877L36.9565 35.6008H31.5217L32.6086 38.8616V41.0355Z" fill="black"/>
<path d="M41.1673 34.5138H31.5217V36.6877V38.8616H32.6086V36.6877H41.167C41.2565 36.3404 41.3043 35.9761 41.3043 35.6008C41.3043 35.2255 41.2568 34.8613 41.1673 34.5138V34.5138Z" fill="#ACABB1"/>
<path d="M14.1305 31.2529C12.1045 31.2529 10.4023 32.6386 9.91968 34.5138L14.1305 35.6007L18.3414 34.5138C17.8587 32.6386 16.1565 31.2529 14.1305 31.2529Z" fill="black"/>
<path d="M9.78257 41.0355L15.2173 42.1224V39.8116C16.7452 39.4182 17.9477 38.2154 18.341 36.6877L14.1304 35.6008H8.69556L9.78247 38.8616V41.0355H9.78257Z" fill="black"/>
<path d="M18.3413 34.5138H8.69556V36.6877V38.8616H9.78247V36.6877H18.3409C18.4303 36.3404 18.4782 35.9761 18.4782 35.6008C18.4782 35.2255 18.4307 34.8613 18.3413 34.5138Z" fill="#ACABB1"/>
</g>
<defs>
<clipPath id="clip0_402_123">
<rect width="50" height="50" fill="white" transform="translate(0 0.818176)"/>
</clipPath>
</defs>
</svg>
