<svg width="50" height="51" viewBox="0 0 50 51" fill="none" xmlns="http://www.w3.org/2000/svg">
<g clip-path="url(#clip0_402_123)">
<path d="M25 50.8182C38.8071 50.8182 50 39.6253 50 25.8182C50 12.0111 38.8071 0.818176 25 0.818176C11.1929 0.818176 0 12.0111 0 25.8182C0 39.6253 11.1929 50.8182 25 50.8182Z" fill="#F0F0F0"/>
<path d="M41.8759 7.37452C37.4286 3.30304 31.5047 0.818176 25 0.818176C23.9352 0.818176 22.8859 0.885266 21.856 1.01447L9.78264 14.9486L0.791138 32.081C1.372 34.333 2.26008 36.4613 3.40588 38.4205L25 25.8182L41.8759 7.37452Z" fill="#FFDA44"/>
<path d="M45.8135 39.6696L10.8362 46.4196C14.8625 49.1931 19.7412 50.8182 25 50.8182C33.6836 50.8182 41.332 46.3902 45.8135 39.6696V39.6696Z" fill="#6DA544"/>
<path d="M41.8794 7.37787L3.42017 38.4448C4.42612 40.1604 5.63052 41.7455 7.0023 43.1682L50 25.8182C50 18.5175 46.8701 11.9484 41.8794 7.37787V7.37787Z" fill="#D80027"/>
<path d="M0 25.8182C0 27.981 0.274805 30.0795 0.791113 32.081L21.856 1.01447C9.53301 2.56075 0 13.076 0 25.8182Z" fill="#0052B4"/>
</g>
<defs>
<clipPath id="clip0_402_123">
<rect width="50" height="50" fill="white" transform="translate(0 0.818176)"/>
</clipPath>
</defs>
</svg>
