<svg width="50" height="51" viewBox="0 0 50 51" fill="none" xmlns="http://www.w3.org/2000/svg">
<g clip-path="url(#clip0_402_123)">
<path d="M25 50.8182C38.8071 50.8182 50 39.6253 50 25.8182C50 12.0111 38.8071 0.818176 25 0.818176C11.1929 0.818176 0 12.0111 0 25.8182C0 39.6253 11.1929 50.8182 25 50.8182Z" fill="#F0F0F0"/>
<path d="M0 25.8183C0 12.0111 11.193 0.818176 25 0.818176C38.807 0.818176 50 12.0111 50 25.8183" fill="#D80027"/>
<path d="M15.2174 13.8615C15.2174 10.2191 17.7772 7.17637 21.1956 6.42979C20.6702 6.31514 20.1252 6.25293 19.5651 6.25293C15.3629 6.25293 11.9564 9.65938 11.9564 13.8616C11.9564 18.0639 15.3629 21.4703 19.5651 21.4703C20.125 21.4703 20.6701 21.4081 21.1956 21.2934C17.7772 20.5468 15.2174 17.504 15.2174 13.8615V13.8615Z" fill="#F0F0F0"/>
<path d="M25 6.79639L25.5396 8.45703H27.2858L25.873 9.4835L26.4127 11.1441L25 10.1179L23.5873 11.1441L24.1269 9.4835L22.7142 8.45703H24.4603L25 6.79639Z" fill="#F0F0F0"/>
<path d="M20.7641 10.0573L21.3036 11.718H23.0498L21.6371 12.7444L22.1768 14.405L20.7641 13.3787L19.3512 14.405L19.8909 12.7444L18.4781 11.718H20.2243L20.7641 10.0573Z" fill="#F0F0F0"/>
<path d="M29.2359 10.0573L29.7757 11.718H31.5218L30.109 12.7444L30.6487 14.405L29.2359 13.3787L27.8232 14.405L28.3629 12.7444L26.9502 11.718H28.6963L29.2359 10.0573Z" fill="#F0F0F0"/>
<path d="M27.6056 14.9485L28.1452 16.6093H29.8913L28.4786 17.6357L29.0183 19.2963L27.6056 18.27L26.1929 19.2963L26.7325 17.6357L25.3198 16.6093H27.0658L27.6056 14.9485Z" fill="#F0F0F0"/>
<path d="M22.3945 14.9485L22.934 16.6093H24.6803L23.2675 17.6357L23.8073 19.2963L22.3945 18.27L20.9817 19.2963L21.5213 17.6357L20.1086 16.6093H21.8548L22.3945 14.9485Z" fill="#F0F0F0"/>
</g>
<defs>
<clipPath id="clip0_402_123">
<rect width="50" height="50" fill="white" transform="translate(0 0.818176)"/>
</clipPath>
</defs>
</svg>
