<svg width="50" height="51" viewBox="0 0 50 51" fill="none" xmlns="http://www.w3.org/2000/svg">
<g clip-path="url(#clip0_402_123)">
<path d="M10.9094 46.4703C14.9217 49.213 19.773 50.8182 25 50.8182C30.2269 50.8182 35.0783 49.213 39.0905 46.4703L25 44.2964L10.9094 46.4703Z" fill="#D80027"/>
<path d="M39.0905 5.16603C35.0783 2.42335 30.2269 0.818176 25 0.818176C19.773 0.818176 14.9215 2.42335 10.9094 5.16603L25 7.33995L39.0905 5.16603Z" fill="#D80027"/>
<path d="M10.9094 46.4703C14.9217 49.213 19.773 50.8182 25 50.8182C30.2269 50.8182 35.0783 49.213 39.0905 46.4703L25 44.2964L10.9094 46.4703Z" fill="#D80027"/>
<path d="M39.0905 5.16603C35.0783 2.42335 30.2269 0.818176 25 0.818176C19.773 0.818176 14.9215 2.42335 10.9094 5.16603L25 7.33995L39.0905 5.16603Z" fill="#D80027"/>
<path d="M49.9363 24.1877C49.344 16.4719 44.6558 8.97035 39.0905 5.16595H10.9094C4.7438 9.3809 0.561475 16.284 0.0524902 24.1877L25 25.8182L49.9363 24.1877Z" fill="#0052B4"/>
<path d="M0.0524902 27.4486C0.561475 35.3525 4.7437 42.2555 10.9093 46.4704H39.0904C45.2563 42.2556 49.4383 35.3525 49.9473 27.4486L25 25.8182L0.0524902 27.4486Z" fill="#0052B4"/>
<path d="M49.9363 24.1876H26.6305V4.07904H23.3696V24.1876H0.0526367C0.0179687 24.7267 0 25.2703 0 25.8182C0 26.366 0.0178711 26.9095 0.0525391 27.4486H23.3696V47.5574H26.6305V27.4486H49.9476C49.9821 26.9095 50 26.366 50 25.8182C50 25.2744 49.978 24.7305 49.9363 24.1876Z" fill="#D80027"/>
<path d="M9.78259 25.8182L24.9999 16.2535L40.2174 25.8182L24.9999 35.3829L9.78259 25.8182Z" fill="#F0F0F0"/>
<path d="M16.3044 30.166H35.8696L31.5218 23.6442L29.3479 25.8182L27.174 24.7312L25 27.9921H20.6522L18.4783 25.8182L16.3044 30.166Z" fill="#6DA544"/>
<path d="M25 19.2964L25.5396 20.957H27.2856L25.873 21.9835L26.4127 23.6442L25 22.6179L23.5873 23.6442L24.127 21.9835L22.7144 20.957H24.4604L25 19.2964Z" fill="#FFDA44"/>
<path d="M24.9999 13.5207L5.43481 25.8182L24.9999 38.1156L44.5653 25.8182L24.9999 13.5207ZM11.5625 25.8182L24.9999 17.3722L38.4375 25.8182L24.9999 34.2641L11.5625 25.8182Z" fill="#D80027"/>
</g>
<defs>
<clipPath id="clip0_402_123">
<rect width="50" height="50" fill="white" transform="translate(0 0.818176)"/>
</clipPath>
</defs>
</svg>
