<svg width="50" height="51" viewBox="0 0 50 51" fill="none" xmlns="http://www.w3.org/2000/svg">
<g clip-path="url(#clip0_402_123)">
<path d="M22.8261 27.9921C22.8261 27.9921 7.33691 8.13702 7.32227 8.14054C11.8463 3.61642 18.0964 0.818176 25 0.818176C38.807 0.818176 50 12.0111 50 25.8182L22.8261 27.9921Z" fill="#D80027"/>
<path d="M22.8261 25.8182C22.8261 25.8182 7.33691 43.4993 7.32227 43.4958C11.8463 48.0199 18.0964 50.8182 25 50.8182C38.807 50.8182 50 39.6252 50 25.8182H22.8261Z" fill="#0052B4"/>
<path d="M7.32231 8.14044C-2.44077 17.9035 -2.44077 33.7327 7.32231 43.4959C11.3568 39.4614 15.237 35.5813 25 25.8182L7.32231 8.14044Z" fill="#F0F0F0"/>
<path d="M2.74036 25.8182C2.72668 25.9977 2.71741 26.1786 2.71741 26.3616C2.71741 30.2635 5.88069 33.4268 9.78264 33.4268C13.6846 33.4268 16.8479 30.2635 16.8479 26.3616C16.8479 26.1786 16.8386 25.9976 16.8249 25.8182H2.74036Z" fill="#FFDA44"/>
<path d="M9.78269 22.5573C10.9833 22.5573 11.9566 21.584 11.9566 20.3834C11.9566 19.1828 10.9833 18.2095 9.78269 18.2095C8.58206 18.2095 7.60876 19.1828 7.60876 20.3834C7.60876 21.584 8.58206 22.5573 9.78269 22.5573Z" fill="#FFDA44"/>
<path d="M4.89136 19.84V26.9052C4.89136 30.6493 9.78267 31.7965 9.78267 31.7965C9.78267 31.7965 14.674 30.6493 14.674 26.9052V19.84H4.89136Z" fill="#D80027"/>
<path d="M9.78501 29.5213C8.87759 29.1948 7.06519 28.3602 7.06519 26.9051V22.0138H12.5V26.9051C12.5 28.365 10.6878 29.1975 9.78501 29.5213V29.5213Z" fill="#338AF3"/>
<path d="M10.8695 24.7312V23.6442L9.78257 23.1008L8.69556 23.6442V24.7312L8.1521 25.2747V27.4486H11.413V25.2747L10.8695 24.7312Z" fill="#F3F3F3"/>
</g>
<defs>
<clipPath id="clip0_402_123">
<rect width="50" height="50" fill="white" transform="translate(0 0.818176)"/>
</clipPath>
</defs>
</svg>
