<svg width="50" height="51" viewBox="0 0 50 51" fill="none" xmlns="http://www.w3.org/2000/svg">
<g clip-path="url(#clip0_402_123)">
<path d="M25 50.8182C38.8071 50.8182 50 39.6253 50 25.8182C50 12.0111 38.8071 0.818176 25 0.818176C11.1929 0.818176 0 12.0111 0 25.8182C0 39.6253 11.1929 50.8182 25 50.8182Z" fill="#F0F0F0"/>
<path d="M25 50.8182C38.807 50.8182 50 39.6252 50 25.8182C50 22.7602 49.45 19.8308 48.445 17.1226H1.55498C0.550098 19.8308 0 22.7602 0 25.8182C0 39.6252 11.193 50.8182 25 50.8182Z" fill="#0052B4"/>
<path d="M25 50.8182C35.7491 50.8182 44.9126 44.0338 48.445 34.5138H1.55493C5.08726 44.0338 14.2508 50.8182 25 50.8182Z" fill="#D80027"/>
<path d="M6.4646 14.9487V27.42C6.4646 34.5141 15.7323 36.6878 15.7323 36.6878C15.7323 36.6878 24.9999 34.5141 24.9999 27.42V14.9487H6.4646Z" fill="#F0F0F0"/>
<path d="M8.63855 14.9487V27.42C8.63855 28.2528 8.82351 29.0393 9.18992 29.7767H22.2746C22.641 29.0394 22.826 28.2528 22.826 27.42V14.9487H8.63855Z" fill="#D80027"/>
<path d="M20.0801 23.6442H16.8194V21.4703H18.9933V19.2964H16.8194V17.1226H14.6455V19.2964H12.4716V21.4703H14.6455V23.6442H11.3845V25.8182H14.6455V27.9921H16.8194V25.8182H20.0801V23.6442Z" fill="#F0F0F0"/>
<path d="M12.1553 32.8114C13.5562 33.6917 14.9955 34.2029 15.7323 34.4302C16.4691 34.203 17.9083 33.6917 19.3092 32.8114C20.7219 31.9235 21.7123 30.908 22.2746 29.7767C21.6543 29.3379 20.8976 29.0791 20.0801 29.0791C19.7825 29.0791 19.4933 29.1144 19.2153 29.1791C18.6261 27.8405 17.2887 26.9052 15.7324 26.9052C14.176 26.9052 12.8385 27.8405 12.2495 29.1791C11.9714 29.1144 11.6822 29.0791 11.3846 29.0791C10.5671 29.0791 9.8104 29.3379 9.19019 29.7767C9.7522 30.9079 10.7425 31.9234 12.1553 32.8114Z" fill="#0052B4"/>
</g>
<defs>
<clipPath id="clip0_402_123">
<rect width="50" height="50" fill="white" transform="translate(0 0.818176)"/>
</clipPath>
</defs>
</svg>
