<svg width="50" height="51" viewBox="0 0 50 51" fill="none" xmlns="http://www.w3.org/2000/svg">
<g clip-path="url(#clip0_402_123)">
<path d="M25 50.8182C38.8071 50.8182 50 39.6253 50 25.8182C50 12.0111 38.8071 0.818176 25 0.818176C11.1929 0.818176 0 12.0111 0 25.8182C0 39.6253 11.1929 50.8182 25 50.8182Z" fill="#F0F0F0"/>
<path d="M48.445 17.1225H21.7392V10.6008H8.69561V17.1225H1.55498C0.550098 19.8307 0 22.7601 0 25.8182C0 28.8762 0.550098 31.8055 1.55498 34.5138L25 36.6877L48.445 34.5138C49.4499 31.8055 50 28.8762 50 25.8182C50 22.7601 49.4499 19.8307 48.445 17.1225Z" fill="#0052B4"/>
<path d="M25 50.8182C35.7491 50.8182 44.9126 44.0338 48.445 34.5138H1.55493C5.08726 44.0338 14.2508 50.8182 25 50.8182Z" fill="#D80027"/>
<path d="M8.69556 17.1226V19.2964C8.69556 24.2887 15.2173 25.8183 15.2173 25.8183C15.2173 25.8183 21.7391 24.2887 21.7391 19.2964V17.1226L19.5652 19.2965L15.2173 16.0356L10.8695 19.2965L8.69556 17.1226Z" fill="#F0F0F0"/>
</g>
<defs>
<clipPath id="clip0_402_123">
<rect width="50" height="50" fill="white" transform="translate(0 0.818176)"/>
</clipPath>
</defs>
</svg>
