<svg width="50" height="51" viewBox="0 0 50 51" fill="none" xmlns="http://www.w3.org/2000/svg">
<g clip-path="url(#clip0_402_123)">
<path d="M42.6783 43.4965C52.0543 34.1205 52.4246 19.1513 43.7928 9.33105L24.9999 25.818L8.51282 44.6111C18.333 53.2428 33.3021 52.8726 42.6783 43.4965V43.4965Z" fill="#496E2D"/>
<path d="M7.32162 8.13984C16.6977 -1.23621 31.6669 -1.60643 41.4871 7.0253L24.9999 25.8184L6.20717 42.3053C-2.42465 32.4851 -2.05434 17.5159 7.32162 8.13984V8.13984Z" fill="#0052B4"/>
<path d="M41.4869 7.02521L6.20703 42.3052C6.56367 42.711 6.93398 43.109 7.32158 43.4964C7.70908 43.8839 8.10722 44.2542 8.51308 44.6111L43.7928 9.33106C43.4362 8.9252 43.0657 8.52716 42.6781 8.13956C42.2908 7.75226 41.8927 7.38185 41.4869 7.02521V7.02521Z" fill="#FFDA44"/>
<path d="M10.5333 9.51306L11.073 11.1739H12.8192L11.4065 12.2002L11.9461 13.861L10.5333 12.8345L9.12048 13.861L9.66023 12.2002L8.24744 11.1739H9.99372L10.5333 9.51306Z" fill="#F0F0F0"/>
<path d="M19.4531 9.51306L19.9928 11.1739H21.7389L20.3262 12.2002L20.8659 13.861L19.4531 12.8345L18.0403 13.861L18.58 12.2002L17.1672 11.1739H18.9134L19.4531 9.51306Z" fill="#F0F0F0"/>
<path d="M10.5333 18.209L11.073 19.8699H12.8192L11.4065 20.8962L11.9461 22.5571L10.5333 21.5306L9.12048 22.5571L9.66023 20.8962L8.24744 19.8699H9.99372L10.5333 18.209Z" fill="#F0F0F0"/>
<path d="M19.4531 18.209L19.9928 19.8699H21.7389L20.3262 20.8962L20.8659 22.5571L19.4531 21.5306L18.0403 22.5571L18.58 20.8962L17.1672 19.8699H18.9134L19.4531 18.209Z" fill="#F0F0F0"/>
<path d="M14.9932 13.861L15.533 15.5219H17.279L15.8664 16.5482L16.406 18.2091L14.9932 17.1826L13.5804 18.2091L14.1201 16.5482L12.7073 15.5219H14.4536L14.9932 13.861Z" fill="#F0F0F0"/>
</g>
<defs>
<clipPath id="clip0_402_123">
<rect width="50" height="50" fill="white" transform="translate(0 0.818176)"/>
</clipPath>
</defs>
</svg>
