<svg width="50" height="51" viewBox="0 0 50 51" fill="none" xmlns="http://www.w3.org/2000/svg">
<g clip-path="url(#clip0_402_123)">
<path d="M48.445 34.5138C49.4499 31.8055 50 28.8762 50 25.8182C50 22.7602 49.4499 19.8309 48.445 17.1226L25 14.9487L1.55498 17.1226C0.550098 19.8309 0 22.7602 0 25.8182C0 28.8762 0.550098 31.8055 1.55498 34.5138L25 36.6877L48.445 34.5138Z" fill="#F0F0F0"/>
<path d="M25 50.8182C35.7491 50.8182 44.9127 44.0338 48.445 34.5138H1.55493C5.08735 44.0338 14.2508 50.8182 25 50.8182Z" fill="#D80027"/>
<path d="M25 0.818176C14.2508 0.818176 5.08735 7.60255 1.55493 17.1226H48.4451C44.9127 7.60255 35.7491 0.818176 25 0.818176Z" fill="#496E2D"/>
<path d="M25 20.3834L26.3489 24.5351H30.7144L27.1827 27.1012L28.5318 31.253L25 28.6872L21.4681 31.253L22.8173 27.1012L19.2855 24.5351H23.6511L25 20.3834Z" fill="black"/>
<path d="M32.4276 5.70947V10.7818C32.4276 11.5812 31.7775 12.2312 30.9784 12.2312V14.4051C32.9762 14.4051 34.6015 12.7798 34.6015 10.7818V5.70947H32.4276Z" fill="#F0F0F0"/>
<path d="M16.8479 10.7818C16.8479 11.5812 16.1978 12.2312 15.3986 12.2312V14.4051C17.3965 14.4051 19.0218 12.7798 19.0218 10.7818V5.70947H16.8479V10.7818Z" fill="#F0F0F0"/>
<path d="M29.1664 5.70947H31.3403V10.7818H29.1664V5.70947Z" fill="#F0F0F0"/>
<path d="M25.9058 8.60791C25.9058 8.80771 25.7432 8.97031 25.5435 8.97031C25.3437 8.97031 25.1811 8.80771 25.1811 8.60791V5.70947H23.0072V8.60791C23.0072 8.80771 22.8447 8.97031 22.6449 8.97031C22.4451 8.97031 22.2826 8.80771 22.2826 8.60791V5.70947H20.1086V8.60791C20.1086 10.0065 21.2463 11.1442 22.6449 11.1442C23.1834 11.1442 23.6831 10.975 24.0941 10.6876C24.5053 10.975 25.0048 11.1442 25.5434 11.1442C25.6519 11.1442 25.7585 11.1366 25.8634 11.1232C25.7093 11.7579 25.1377 12.2312 24.4565 12.2312V14.4051C26.4543 14.4051 28.0796 12.7798 28.0796 10.7818V8.60791V5.70947H25.9057L25.9058 8.60791Z" fill="#F0F0F0"/>
<path d="M20.1088 12.2313H23.3696V14.4052H20.1088V12.2313Z" fill="#F0F0F0"/>
</g>
<defs>
<clipPath id="clip0_402_123">
<rect width="50" height="50" fill="white" transform="translate(0 0.818176)"/>
</clipPath>
</defs>
</svg>
