<svg width="50" height="51" viewBox="0 0 50 51" fill="none" xmlns="http://www.w3.org/2000/svg">
<g clip-path="url(#clip0_402_123)">
<path d="M25 50.8182C38.8071 50.8182 50 39.6253 50 25.8182C50 12.0111 38.8071 0.818176 25 0.818176C11.1929 0.818176 0 12.0111 0 25.8182C0 39.6253 11.1929 50.8182 25 50.8182Z" fill="#F0F0F0"/>
<path d="M48.0497 16.1261C44.2636 7.13282 35.3699 0.818176 25 0.818176C18.0963 0.818176 11.8469 3.61691 7.32312 8.14132L13.5839 16.1261H48.0497Z" fill="black"/>
<path d="M13.6549 35.4197L7.32312 43.495C11.8469 48.0194 18.0963 50.8182 25 50.8182C35.4049 50.8182 44.324 44.4613 48.0883 35.4197H13.6549Z" fill="#496E2D"/>
<path d="M5.43481 19.2059V32.3399H49.1389C49.6997 30.2607 50 28.0747 50 25.8182C50 23.5289 49.6916 21.3121 49.1152 19.2059H5.43481Z" fill="#A2001D"/>
<path d="M7.32231 8.14044C-2.44077 17.9035 -2.44077 33.7327 7.32231 43.4959C11.3568 39.4614 15.237 35.5813 25 25.8182L7.32231 8.14044Z" fill="#0052B4"/>
<path d="M8.14312 19.6025L11.1944 23.8604L16.1874 22.274L13.0808 26.4921L16.1321 30.7502L11.1606 29.0991L8.05395 33.3171L8.08813 28.0785L3.11646 26.4272L8.10903 24.8409L8.14312 19.6025Z" fill="#FFDA44"/>
</g>
<defs>
<clipPath id="clip0_402_123">
<rect width="50" height="50" fill="white" transform="translate(0 0.818176)"/>
</clipPath>
</defs>
</svg>
