<svg width="50" height="51" viewBox="0 0 50 51" fill="none" xmlns="http://www.w3.org/2000/svg">
<g clip-path="url(#clip0_402_123)">
<path d="M25 50.8182C38.8071 50.8182 50 39.6253 50 25.8182C50 12.0111 38.8071 0.818176 25 0.818176C11.1929 0.818176 0 12.0111 0 25.8182C0 39.6253 11.1929 50.8182 25 50.8182Z" fill="#F0F0F0"/>
<path d="M7.32231 43.4959C-2.44077 33.7327 -2.44077 17.9036 7.32231 8.14044C7.32163 8.14152 21.7392 25.8182 21.7392 25.8182L7.32231 43.4959Z" fill="black"/>
<path d="M21.7391 25.8182L3.3157 13.3683C2.74451 14.3612 2.2408 15.3975 1.80798 16.4701L11.135 25.8183L1.80828 35.1669C2.2407 36.2388 2.74392 37.2744 3.31472 38.2666L21.7391 25.8182Z" fill="#FFDA44"/>
<path d="M49.7883 22.5573H21.7384L7.32202 8.14081C5.76851 9.69432 4.4188 11.4513 3.31567 13.3683L15.7414 25.8182L3.3147 38.2664C4.41782 40.184 5.76811 41.9415 7.32202 43.4954L21.7384 29.079H49.7883C49.9273 28.0116 50 26.9233 50 25.8182C50 24.713 49.9273 23.6247 49.7883 22.5573V22.5573Z" fill="#6DA544"/>
<path d="M9.77905 45.6499C13.9948 48.8904 19.2718 50.8182 25 50.8182C36.5506 50.8182 46.27 42.9841 49.1387 32.34H23.0891L9.77905 45.6499Z" fill="#0052B4"/>
<path d="M49.1387 19.2964C46.27 8.65226 36.5506 0.818176 25 0.818176C19.2718 0.818176 13.9948 2.74601 9.77905 5.98644L23.089 19.2964H49.1387Z" fill="#D80027"/>
</g>
<defs>
<clipPath id="clip0_402_123">
<rect width="50" height="50" fill="white" transform="translate(0 0.818176)"/>
</clipPath>
</defs>
</svg>
