<svg width="50" height="51" viewBox="0 0 50 51" fill="none" xmlns="http://www.w3.org/2000/svg">
<g clip-path="url(#clip0_402_123)">
<path d="M9.76564e-05 5.16602H0V46.4703H9.76564e-05V25.8183V5.16602Z" fill="#FF9811"/>
<path d="M25 50.8181C38.807 50.8181 49.9999 39.6252 49.9999 25.8181C49.9999 12.011 38.807 0.818176 25 0.818176C11.1929 0.818176 0 12.011 0 25.8181C0 39.6252 11.1929 50.8181 25 50.8181Z" fill="#FFDA44"/>
<path d="M19.5653 5.16602H10.9096C10.526 5.42822 10.1506 5.70117 9.78269 5.98369L7.60876 25.8181L9.78269 45.6525C10.1506 45.9351 10.526 46.2081 10.9096 46.4702H19.5653V5.16602Z" fill="#FF9811"/>
<path d="M0.00012207 25.8183C0.00012207 33.8989 3.8349 41.0827 9.78276 45.6528V5.98383C3.8349 10.554 0.00012207 17.7378 0.00012207 25.8183V25.8183Z" fill="#6DA544"/>
<path d="M40.2174 16.0588V16.6843L40.2407 16.6878L40.2174 16.0588Z" fill="#FFDA44"/>
<path d="M48.0074 32.3399H43.2971L41.3044 34.5138V38.8617H36.9566V36.6878H39.1305V32.3399H29.3479V35.0573H27.1739V29.8785C26.5069 29.2814 26.087 28.4141 26.087 27.4486V13.3182C26.087 11.5173 27.547 10.0573 29.3479 10.0573V30.1661H33.6957L35.1875 28.9228C34.927 28.3022 34.7826 27.6207 34.7826 26.9052V23.6444H31.5218V17.1227H38.0435C38.0435 16.0358 39.674 14.9488 39.674 14.9488C39.674 14.9488 41.3044 16.0357 41.3044 17.1227V18.7532V23.6445C42.5137 23.6588 44.435 23.6275 46.5107 23.6445C45.9654 22.6913 45.6522 21.5604 45.6522 20.3836C45.6522 18.4656 46.4803 16.7411 47.7985 15.5478C45.8985 11.3373 42.8666 7.74727 39.0906 5.16602H22.8262V46.4704H39.0907C43.6824 43.3316 47.1735 38.7016 48.8672 33.278L48.0074 32.3399Z" fill="#A2001D"/>
</g>
<defs>
<clipPath id="clip0_402_123">
<rect width="50" height="50" fill="white" transform="translate(0 0.818176)"/>
</clipPath>
</defs>
</svg>
