<svg width="50" height="51" viewBox="0 0 50 51" fill="none" xmlns="http://www.w3.org/2000/svg">
<g clip-path="url(#clip0_402_123)">
<path d="M25 50.8182C38.8071 50.8182 50 39.6253 50 25.8182C50 12.0111 38.8071 0.818176 25 0.818176C11.1929 0.818176 0 12.0111 0 25.8182C0 39.6253 11.1929 50.8182 25 50.8182Z" fill="#F0F0F0"/>
<path d="M44.6375 20.9268H36.4129C36.4129 19.4261 35.1963 18.2095 33.6956 18.2095L31.5216 22.5573C31.5216 22.5573 33.8405 29.079 33.768 29.079H36.4853C37.9862 29.079 39.2027 27.8625 39.2027 26.3617C40.7036 26.3617 41.9201 25.1451 41.9201 23.6443H41.8296C43.3303 23.6442 44.6375 22.4277 44.6375 20.9268Z" fill="#ACABB1"/>
<path d="M5.3623 20.9268H13.5869C13.5869 19.4261 14.8035 18.2095 16.3043 18.2095L18.4782 22.5573C18.4782 22.5573 16.1593 29.079 16.2319 29.079H13.5145C12.0137 29.079 10.7971 27.8625 10.7971 26.3617C9.29629 26.3617 8.07977 25.1451 8.07977 23.6443H8.17027C6.66943 23.6442 5.3623 22.4277 5.3623 20.9268V20.9268Z" fill="#ACABB1"/>
<path d="M33.6957 35.6007V36.6876H16.3043V35.6007H11.9565V39.9485H16.3043V41.0354H33.6957V39.9485H38.0435V35.6007H33.6957Z" fill="#FFDA44"/>
<path d="M16.3043 18.2094V29.0789C16.3043 35.735 24.9999 37.7746 24.9999 37.7746C24.9999 37.7746 33.6955 35.735 33.6955 29.0789V18.2094L24.9999 17.1225L16.3043 18.2094Z" fill="#0052B4"/>
<path d="M16.3044 22.5577H33.6957V29.0794H16.3044V22.5577Z" fill="#D80027"/>
<path d="M29.3477 12.7747V14.4051L28.2608 14.9486L27.1739 13.8616V10.6007H22.8261V13.8616L21.7391 14.9486L20.6521 14.4051V12.7747H16.3043V18.2094H33.6956V12.7747H29.3477Z" fill="#FFDA44"/>
</g>
<defs>
<clipPath id="clip0_402_123">
<rect width="50" height="50" fill="white" transform="translate(0 0.818176)"/>
</clipPath>
</defs>
</svg>
