<svg width="50" height="51" viewBox="0 0 50 51" fill="none" xmlns="http://www.w3.org/2000/svg">
<g clip-path="url(#clip0_402_123)">
<path d="M36.9565 3.85792C33.4047 1.92003 29.331 0.818176 25 0.818176C20.6689 0.818176 16.5953 1.92003 13.0434 3.85792L10.8695 25.8182L13.0434 47.7784C16.5953 49.7163 20.6689 50.8182 25 50.8182C29.331 50.8182 33.4047 49.7163 36.9565 47.7784L39.1304 25.8182L36.9565 3.85792Z" fill="#FFDA44"/>
<path d="M13.0435 47.7783V3.85785C5.27236 8.09808 0 16.3421 0 25.8182C0 35.2943 5.27236 43.5383 13.0435 47.7783Z" fill="#338AF3"/>
<path d="M50 25.8182C50 16.3421 44.7276 8.09808 36.9565 3.85785V47.7783C44.7276 43.5383 50 35.2943 50 25.8182V25.8182Z" fill="#6DA544"/>
<path d="M19.5652 32.34L15.2173 25.8182L19.5651 19.2964L23.9132 25.8182L19.5652 32.34Z" fill="#6DA544"/>
<path d="M30.4348 32.34L26.0869 25.8182L30.4348 19.2964L34.7826 25.8182L30.4348 32.34Z" fill="#6DA544"/>
<path d="M25 41.0356L20.6521 34.5138L25 27.9921L29.3478 34.5138L25 41.0356Z" fill="#6DA544"/>
</g>
<defs>
<clipPath id="clip0_402_123">
<rect width="50" height="50" fill="white" transform="translate(0 0.818176)"/>
</clipPath>
</defs>
</svg>
