<svg width="50" height="51" viewBox="0 0 50 51" fill="none" xmlns="http://www.w3.org/2000/svg">
<g clip-path="url(#clip0_402_123)">
<path d="M2.48066 14.9486C0.891406 18.2354 0 21.9226 0 25.8182C0 29.7138 0.891406 33.401 2.48066 36.6877L25 38.8616L47.5193 36.6877C49.1086 33.401 50 29.7138 50 25.8182C50 21.9226 49.1086 18.2354 47.5193 14.9486L25 12.7747L2.48066 14.9486Z" fill="#F0F0F0"/>
<path d="M2.48157 36.6877C6.52512 45.0501 15.0885 50.8182 25 50.8182C34.9115 50.8182 43.4749 45.0501 47.5185 36.6877H2.48157Z" fill="black"/>
<path d="M2.48157 14.9486H47.5185C43.4749 6.58624 34.9115 0.818176 25 0.818176C15.0885 0.818176 6.52512 6.58624 2.48157 14.9486Z" fill="#D80027"/>
<path d="M7.32231 8.14044C-2.44077 17.9035 -2.44077 33.7327 7.32231 43.4959C11.3568 39.4614 15.237 35.5813 25 25.8182L7.32231 8.14044Z" fill="#496E2D"/>
</g>
<defs>
<clipPath id="clip0_402_123">
<rect width="50" height="50" fill="white" transform="translate(0 0.818176)"/>
</clipPath>
</defs>
</svg>
