<svg width="50" height="51" viewBox="0 0 50 51" fill="none" xmlns="http://www.w3.org/2000/svg">
<g clip-path="url(#clip0_402_123)">
<path d="M25 50.8182C38.8071 50.8182 50 39.6253 50 25.8182C50 12.0111 38.8071 0.818176 25 0.818176C11.1929 0.818176 0 12.0111 0 25.8182C0 39.6253 11.1929 50.8182 25 50.8182Z" fill="#F0F0F0"/>
<path d="M48.4449 17.1226H1.55488C0.550098 19.831 0 22.7602 0 25.8182C0 28.8762 0.550098 31.8056 1.55488 34.5138H48.445C49.45 31.8056 50 28.8762 50 25.8182C50 22.7602 49.45 19.831 48.4449 17.1226Z" fill="#A2001D"/>
<path d="M25.0724 50.8181C33.6351 50.8181 41.1913 46.5123 45.697 39.9486H4.44788C8.95354 46.5123 16.5096 50.8181 25.0724 50.8181Z" fill="#6DA544"/>
<path d="M25.0724 0.818359C33.6351 0.818359 41.1913 5.12422 45.697 11.6879H4.44788C8.95354 5.12422 16.5096 0.818359 25.0724 0.818359V0.818359Z" fill="#6DA544"/>
<path d="M25 17.1226L27.1583 23.7651H34.1431L28.4924 27.871L30.6509 34.5138L25 30.4084L19.3491 34.5138L21.5077 27.871L15.8568 23.7651H22.8417L25 17.1226Z" fill="#FFDA44"/>
</g>
<defs>
<clipPath id="clip0_402_123">
<rect width="50" height="50" fill="white" transform="translate(0 0.818176)"/>
</clipPath>
</defs>
</svg>
