<svg width="50" height="51" viewBox="0 0 50 51" fill="none" xmlns="http://www.w3.org/2000/svg">
<g clip-path="url(#clip0_402_123)">
<path d="M47.5193 36.6877C49.1086 33.4011 50 29.7137 50 25.8182C50 21.9227 49.1086 18.2353 47.5193 14.9486L25 13.8616L2.48066 14.9485C0.891406 18.2353 0 21.9227 0 25.8182C0 29.7137 0.891406 33.4011 2.48066 36.6877L25 37.7747L47.5193 36.6877Z" fill="#FFDA44"/>
<path d="M25 0.818176C15.0885 0.818176 6.52446 6.58624 2.48071 14.9486H47.5193C43.4756 6.58624 34.9115 0.818176 25 0.818176V0.818176Z" fill="black"/>
<path d="M25 50.8182C15.0885 50.8182 6.52446 45.0501 2.48071 36.6877H47.5193C43.4756 45.0501 34.9115 50.8182 25 50.8182V50.8182Z" fill="#0052B4"/>
<path d="M48.8194 18.2095H1.18057C0.414746 20.6088 0 23.1649 0 25.8182C0 28.4714 0.414746 31.0275 1.18057 33.4269H48.8193C49.5853 31.0275 50 28.4714 50 25.8182C50 23.1649 49.5853 20.6088 48.8194 18.2095Z" fill="#A2001D"/>
<path d="M8.69556 24.7313H41.3042V26.9052H8.69556V24.7313Z" fill="#FFDA44"/>
<path d="M13.0435 20.3834H36.9565V22.5573H13.0435V20.3834Z" fill="#FFDA44"/>
<path d="M37.1119 25.8182C37.1119 25.8182 31.5217 32.3399 25 32.3399C18.4784 32.3399 18.4783 25.8182 18.4783 25.8182C18.4783 25.8182 18.4783 19.2964 25 19.2964C31.5218 19.2964 37.1119 25.8182 37.1119 25.8182Z" fill="#F0F0F0"/>
<path d="M25 32.3399C18.4782 32.3399 12.8882 25.8182 12.8882 25.8182C12.8882 25.8182 18.4782 19.2964 25 19.2964" fill="black"/>
<path d="M20.6521 23.6442H22.826V27.9921H20.6521V23.6442Z" fill="#F0F0F0"/>
<path d="M27.174 23.6442H29.3479V27.9921H27.174V23.6442Z" fill="black"/>
<path d="M8.69565 27.9921C9.89628 27.9921 10.8696 27.0188 10.8696 25.8182C10.8696 24.6175 9.89628 23.6442 8.69565 23.6442C7.49503 23.6442 6.52173 24.6175 6.52173 25.8182C6.52173 27.0188 7.49503 27.9921 8.69565 27.9921Z" fill="#0052B4"/>
<path d="M41.3044 27.9921C42.505 27.9921 43.4783 27.0188 43.4783 25.8182C43.4783 24.6175 42.505 23.6442 41.3044 23.6442C40.1038 23.6442 39.1305 24.6175 39.1305 25.8182C39.1305 27.0188 40.1038 27.9921 41.3044 27.9921Z" fill="#0052B4"/>
</g>
<defs>
<clipPath id="clip0_402_123">
<rect width="50" height="50" fill="white" transform="translate(0 0.818176)"/>
</clipPath>
</defs>
</svg>
