<svg width="50" height="51" viewBox="0 0 50 51" fill="none" xmlns="http://www.w3.org/2000/svg">
<g clip-path="url(#clip0_402_123)">
<path d="M25 50.8182C38.8071 50.8182 50 39.6253 50 25.8182C50 12.0111 38.8071 0.818176 25 0.818176C11.1929 0.818176 0 12.0111 0 25.8182C0 39.6253 11.1929 50.8182 25 50.8182Z" fill="#F0F0F0"/>
<path d="M25 0.818176C14.2508 0.818176 5.08726 7.60255 1.55493 17.1226H48.4451C44.9126 7.60255 35.7491 0.818176 25 0.818176V0.818176Z" fill="#D80027"/>
<path d="M25 50.8182C35.7491 50.8182 44.9126 44.0338 48.445 34.5138H1.55493C5.08726 44.0338 14.2508 50.8182 25 50.8182Z" fill="black"/>
<path d="M14.9377 19.84L16.2866 23.9915H20.6522L17.1204 26.5577L18.4695 30.7095L14.9377 28.1436L11.406 30.7095L12.755 26.5577L9.22327 23.9915H13.5888L14.9377 19.84Z" fill="#6DA544"/>
<path d="M35.0624 19.84L36.4113 23.9915H40.7769L37.2451 26.5577L38.5941 30.7095L35.0624 28.1436L31.5306 30.7095L32.8796 26.5577L29.3479 23.9915H33.7134L35.0624 19.84Z" fill="#6DA544"/>
</g>
<defs>
<clipPath id="clip0_402_123">
<rect width="50" height="50" fill="white" transform="translate(0 0.818176)"/>
</clipPath>
</defs>
</svg>
