<svg width="50" height="51" viewBox="0 0 50 51" fill="none" xmlns="http://www.w3.org/2000/svg">
<g clip-path="url(#clip0_402_123)">
<path d="M50 25.8182C50 39.6252 38.807 50.8182 25 50.8182C11.193 50.8182 0 39.6252 0 25.8182C8.58691 17.2313 15.8695 9.94865 25 0.818176C38.807 0.818176 50 12.0111 50 25.8182Z" fill="#D80027"/>
<path d="M25 25.8182C25 12.0111 25 10.3834 25 0.818176C11.193 0.818176 0 12.0111 0 25.8182H25Z" fill="#0052B4"/>
<path d="M21.7391 15.4491L18.6859 16.8855L20.3117 19.8424L16.9964 19.208L16.5761 22.5573L14.267 20.0941L11.9576 22.5573L11.5376 19.208L8.22214 19.8422L9.84792 16.8853L6.7948 15.4491L9.84802 14.0131L8.22214 11.0561L11.5375 11.6903L11.9577 8.34113L14.267 10.8044L16.5762 8.34113L16.9964 11.6903L20.3118 11.0561L18.6859 14.0132L21.7391 15.4491Z" fill="#F0F0F0"/>
<path d="M14.2674 20.1023C16.8375 20.1023 18.921 18.0188 18.921 15.4487C18.921 12.8785 16.8375 10.795 14.2674 10.795C11.6973 10.795 9.61377 12.8785 9.61377 15.4487C9.61377 18.0188 11.6973 20.1023 14.2674 20.1023Z" fill="#0052B4"/>
<path d="M14.2669 17.9288C12.8997 17.9288 11.7874 16.8164 11.7874 15.4491C11.7874 14.0818 12.8998 12.9694 14.2669 12.9694C15.6342 12.9694 16.7466 14.0818 16.7466 15.4491C16.7465 16.8164 15.634 17.9288 14.2669 17.9288Z" fill="#F0F0F0"/>
</g>
<defs>
<clipPath id="clip0_402_123">
<rect width="50" height="50" fill="white" transform="translate(0 0.818176)"/>
</clipPath>
</defs>
</svg>
