<svg width="50" height="51" viewBox="0 0 50 51" fill="none" xmlns="http://www.w3.org/2000/svg">
<g clip-path="url(#clip0_402_123)">
<path d="M2.48066 14.9486C0.891406 18.2354 0 21.9227 0 25.8182C0 29.7137 0.891406 33.401 2.48066 36.6877L25 38.8616L47.5193 36.6877C49.1086 33.401 50 29.7137 50 25.8182C50 21.9227 49.1086 18.2354 47.5193 14.9486L25 12.7747L2.48066 14.9486Z" fill="#F0F0F0"/>
<path d="M2.48157 36.6877C6.52522 45.05 15.0886 50.8182 25 50.8182C34.9115 50.8182 43.4749 45.05 47.5185 36.6877H2.48157Z" fill="#6DA544"/>
<path d="M2.48157 14.9486H47.5185C43.4749 6.58634 34.9115 0.818176 25 0.818176C15.0886 0.818176 6.52522 6.58634 2.48157 14.9486Z" fill="#D80027"/>
<path d="M20.6522 32.34H29.3479V28.6442L27.6088 29.5138L25.0001 26.9051L22.3914 29.5138L20.6522 28.6442V32.34Z" fill="#FFDA44"/>
<path d="M15.677 27.9921L16.0818 29.2376H17.3914L16.3318 30.0075L16.7366 31.253L15.677 30.4832L14.6174 31.253L15.0222 30.0075L13.9626 29.2376H15.2722L15.677 27.9921Z" fill="#FFDA44"/>
<path d="M16.9318 23.6443L17.3365 24.8898H18.6461L17.5865 25.6596L17.9912 26.9051L16.9318 26.1354L15.8722 26.9051L16.277 25.6596L15.2174 24.8898H16.527L16.9318 23.6443Z" fill="#FFDA44"/>
<path d="M20.5189 20.3834L20.9237 21.6289H22.2332L21.1738 22.3988L21.5784 23.6443L20.5189 22.8745L19.4594 23.6443L19.8641 22.3988L18.8046 21.6289H20.1142L20.5189 20.3834Z" fill="#FFDA44"/>
<path d="M34.3231 27.9921L33.9183 29.2376H32.6088L33.6683 30.0075L33.2636 31.253L34.3231 30.4832L35.3826 31.253L34.9779 30.0075L36.0375 29.2376H34.7279L34.3231 27.9921Z" fill="#FFDA44"/>
<path d="M33.0684 23.6443L32.6636 24.8898H31.354L32.4136 25.6596L32.0088 26.9051L33.0684 26.1354L34.1279 26.9051L33.7231 25.6596L34.7827 24.8898H33.4731L33.0684 23.6443Z" fill="#FFDA44"/>
<path d="M29.4812 20.3834L29.0764 21.6289H27.767L28.8263 22.3988L28.4217 23.6443L29.4812 22.8745L30.5407 23.6443L30.136 22.3988L31.1955 21.6289H29.8859L29.4812 20.3834Z" fill="#FFDA44"/>
<path d="M25 18.7529L25.4048 19.9984H26.7144L25.6548 20.7682L26.0596 22.0137L25 21.244L23.9404 22.0137L24.3452 20.7682L23.2856 19.9984H24.5952L25 18.7529Z" fill="#FFDA44"/>
</g>
<defs>
<clipPath id="clip0_402_123">
<rect width="50" height="50" fill="white" transform="translate(0 0.818176)"/>
</clipPath>
</defs>
</svg>
