<svg width="50" height="51" viewBox="0 0 50 51" fill="none" xmlns="http://www.w3.org/2000/svg">
<g clip-path="url(#clip0_402_123)">
<path d="M25 50.8182C38.8071 50.8182 50 39.6253 50 25.8182C50 12.0111 38.8071 0.818176 25 0.818176C11.1929 0.818176 0 12.0111 0 25.8182C0 39.6253 11.1929 50.8182 25 50.8182Z" fill="#FFDA44"/>
<path d="M7.32224 43.4959C8.37097 44.5446 9.48992 45.4799 10.6636 46.3033L45.4849 11.4819C44.6617 10.3082 43.7263 9.18925 42.6776 8.14052C41.6288 7.09178 40.5099 6.15663 39.3362 5.33319L4.51501 40.1546C5.33826 41.328 6.27361 42.4471 7.32224 43.4959V43.4959Z" fill="black"/>
<path d="M7.32228 8.14046C-0.564638 16.0276 -2.0788 27.8724 2.77696 37.2809L36.4627 3.59524C27.0542 -1.26052 15.2093 0.253736 7.32228 8.14046V8.14046Z" fill="#6DA544"/>
<path d="M42.6777 43.4959C50.5646 35.609 52.0787 23.764 47.2231 14.3555L13.5374 48.0412C22.9457 52.897 34.7907 51.3828 42.6777 43.4959Z" fill="#338AF3"/>
</g>
<defs>
<clipPath id="clip0_402_123">
<rect width="50" height="50" fill="white" transform="translate(0 0.818176)"/>
</clipPath>
</defs>
</svg>
