<svg width="50" height="51" viewBox="0 0 50 51" fill="none" xmlns="http://www.w3.org/2000/svg">
<g clip-path="url(#clip0_402_123)">
<path d="M25 50.8182C38.8071 50.8182 50 39.6253 50 25.8182C50 12.0111 38.8071 0.818176 25 0.818176C11.1929 0.818176 0 12.0111 0 25.8182C0 39.6253 11.1929 50.8182 25 50.8182Z" fill="#F0F0F0"/>
<path d="M10.9094 5.16603C14.9216 2.42325 19.773 0.818176 25 0.818176C30.2269 0.818176 35.0783 2.42325 39.0905 5.16603L25 6.25294L10.9094 5.16603Z" fill="#FFDA44"/>
<path d="M7.32363 43.4945L18.8512 31.9672L25 21.4703L31.1481 31.9665L42.6764 43.4945C47.2008 38.9707 50 32.7218 50 25.8182C50 17.238 45.6769 9.66826 39.0905 5.16602H10.9095C4.32314 9.66826 0 17.238 0 25.8182C0 32.7218 2.79922 38.9707 7.32363 43.4945V43.4945Z" fill="#D80027"/>
<path d="M48.1008 35.3906L29.8225 27.8165L31.1473 31.9654L42.6764 43.4945C44.9784 41.1928 46.8336 38.4446 48.1008 35.3906Z" fill="#0052B4"/>
<path d="M50 25.8182C50 22.427 49.3241 19.1941 48.1008 16.2458L25 25.8182H50Z" fill="#0052B4"/>
<path d="M42.6764 8.1418C41.5775 7.04316 40.3774 6.0458 39.0905 5.16602H33.5578L25 25.8182L42.6764 8.1418Z" fill="#0052B4"/>
<path d="M25 5.16602H16.4423L25 25.8182V5.16602Z" fill="#0052B4"/>
<path d="M7.32361 8.14178C5.02166 10.4435 3.16648 13.1917 1.89929 16.2457L25 25.8182L7.32361 8.14178Z" fill="#0052B4"/>
<path d="M0 25.8182C0 29.2093 0.675879 32.4422 1.89922 35.3905L25 25.8182H0Z" fill="#0052B4"/>
<path d="M10.9094 46.4703C14.9215 49.2131 19.773 50.8182 25 50.8182C30.2269 50.8182 35.0783 49.2131 39.0905 46.4703H10.9094Z" fill="#FFDA44"/>
<path d="M24.9999 25.8182L31.1487 31.9669C32.7224 30.3933 33.6956 28.2194 33.6956 25.8182C33.6956 21.0156 29.8025 17.1226 25 17.1226C20.1976 17.1226 16.3043 21.0156 16.3043 25.8182C16.3043 28.2193 17.2776 30.3933 18.8513 31.9669L24.9999 25.8182Z" fill="#FFDA44"/>
<path d="M28.8043 38.3182C28.8043 40.4193 27.1009 41.0356 25 41.0356C22.899 41.0356 21.1956 40.4193 21.1956 38.3182C21.1956 36.2171 22.899 34.5138 25 34.5138C27.1009 34.5138 28.8043 36.2171 28.8043 38.3182Z" fill="#FFDA44"/>
<path d="M28.8043 38.3182C28.8043 40.4192 27.1009 42.1226 25 42.1226C22.899 42.1226 21.1956 40.4192 21.1956 38.3182" fill="#0052B4"/>
</g>
<defs>
<clipPath id="clip0_402_123">
<rect width="50" height="50" fill="white" transform="translate(0 0.818176)"/>
</clipPath>
</defs>
</svg>
