<svg width="50" height="51" viewBox="0 0 50 51" fill="none" xmlns="http://www.w3.org/2000/svg">
<g clip-path="url(#clip0_402_123)">
<path d="M25 50.8182C38.8071 50.8182 50 39.6253 50 25.8182C50 12.0111 38.8071 0.818176 25 0.818176C11.1929 0.818176 0 12.0111 0 25.8182C0 39.6253 11.1929 50.8182 25 50.8182Z" fill="#FFDA44"/>
<path d="M25 0.818176C24.9818 0.818372 23.9131 10.8182 23.9131 10.8182H45.0012C40.4401 4.7462 33.1789 0.818176 25 0.818176Z" fill="#496E2D"/>
<path d="M25 50.8182C33.1789 50.8182 40.4401 46.8901 45.0011 40.8182H4.9989C9.55984 46.8901 16.8211 50.8182 25 50.8182Z" fill="#496E2D"/>
<path d="M49.4994 20.8182H23.9131L25 30.8182H49.4994C49.8275 29.2027 50 27.5306 50 25.8182C50 24.1058 49.8273 22.4337 49.4994 20.8182V20.8182Z" fill="#496E2D"/>
<path d="M25 30.8182C25 25.6008 25 6.68771 25 0.818176C11.193 0.818176 0 12.0111 0 25.8182C0 27.5306 0.172656 29.2027 0.500586 30.8182H25Z" fill="#D80027"/>
<path d="M13.7946 12.7747L15.4134 17.7567H20.6521L16.4141 20.836L18.0327 25.8182L13.7946 22.7391L9.55652 25.8182L11.1754 20.836L6.93738 17.7567H12.176L13.7946 12.7747Z" fill="#F0F0F0"/>
</g>
<defs>
<clipPath id="clip0_402_123">
<rect width="50" height="50" fill="white" transform="translate(0 0.818176)"/>
</clipPath>
</defs>
</svg>
