<svg width="50" height="51" viewBox="0 0 50 51" fill="none" xmlns="http://www.w3.org/2000/svg">
<g clip-path="url(#clip0_402_123)">
<path d="M25 50.8182C38.8071 50.8182 50 39.6253 50 25.8182C50 12.0111 38.8071 0.818176 25 0.818176C11.1929 0.818176 0 12.0111 0 25.8182C0 39.6253 11.1929 50.8182 25 50.8182Z" fill="#FFDA44"/>
<path d="M40.2174 12.7747C39.9932 13.8524 39.8913 15.0001 39.8913 16.1443C39.8913 22.7394 43.8229 28.4475 49.4571 31.0171C49.8119 29.3398 50 27.601 50 25.8182C50 12.0111 38.807 0.818176 25 0.818176C11.193 0.818176 0 12.0111 0 25.8182C0 39.6252 11.193 50.8182 25 50.8182C33.5627 50.8182 41.1189 46.5123 45.6246 39.9486H14.1305V36.6878H47.5193C47.861 35.9812 48.1697 35.2557 48.4451 34.5139H14.1305L40.2174 12.7747Z" fill="#0052B4"/>
<path d="M18.3664 13.8616L18.9061 15.5224H20.6521L19.2396 16.5488L19.7792 18.2095L18.3664 17.1832L16.9538 18.2095L17.4934 16.5488L16.0806 15.5224H17.8268L18.3664 13.8616Z" fill="#F0F0F0"/>
<path d="M11.2733 25.8182L11.9479 27.8943H14.1305L12.3646 29.177L13.0392 31.2529L11.2733 29.9699L9.50745 31.2529L10.182 29.177L8.41614 27.8943H10.5988L11.2733 25.8182Z" fill="#F0F0F0"/>
<path d="M11.2733 8.42688L11.9479 10.503H14.1305L12.3646 11.7857L13.0392 13.8616L11.2733 12.5786L9.50745 13.8616L10.182 11.7857L8.41614 10.503H10.5988L11.2733 8.42688Z" fill="#F0F0F0"/>
<path d="M5.83845 18.2095L6.51306 20.2855H8.69558L6.92976 21.5683L7.60437 23.6442L5.83845 22.3612L4.07263 23.6442L4.74714 21.5683L2.98132 20.2855H5.16384L5.83845 18.2095Z" fill="#F0F0F0"/>
</g>
<defs>
<clipPath id="clip0_402_123">
<rect width="50" height="50" fill="white" transform="translate(0 0.818176)"/>
</clipPath>
</defs>
</svg>
