<svg width="50" height="51" viewBox="0 0 50 51" fill="none" xmlns="http://www.w3.org/2000/svg">
<g clip-path="url(#clip0_402_123)">
<path d="M49.1387 19.2964C46.27 8.65226 36.5507 0.818176 25 0.818176C13.4493 0.818176 3.72996 8.65226 0.861206 19.2964L25 20.3834L49.1387 19.2964Z" fill="#A2001D"/>
<path d="M0.861206 32.3399C3.72996 42.984 13.4493 50.8182 25 50.8182C36.5507 50.8182 46.27 42.9841 49.1387 32.3399L25 31.2529L0.861206 32.3399Z" fill="#A2001D"/>
<path d="M49.1388 19.2964H0.86123C0.300781 21.3758 0 23.5616 0 25.8182C0 28.0747 0.300781 30.2605 0.86123 32.3399H49.1389C49.6992 30.2605 50 28.0747 50 25.8182C50 23.5616 49.6992 21.3758 49.1388 19.2964V19.2964Z" fill="#6DA544"/>
</g>
<defs>
<clipPath id="clip0_402_123">
<rect width="50" height="50" fill="white" transform="translate(0 0.818176)"/>
</clipPath>
</defs>
</svg>
