<svg width="50" height="51" viewBox="0 0 50 51" fill="none" xmlns="http://www.w3.org/2000/svg">
<g clip-path="url(#clip0_402_123)">
<path d="M13.5368 3.59418C11.2987 4.74935 9.1978 6.26351 7.32163 8.13968C5.44536 10.016 3.9312 12.1168 2.77612 14.3549L18.851 31.9671L36.4632 48.042C38.7014 46.8868 40.8023 45.3727 42.6785 43.4966C44.5547 41.6203 46.0688 39.5195 47.224 37.2814L31.1491 19.6691L13.5368 3.59418Z" fill="#F0F0F0"/>
<path d="M42.6784 43.4966C43.7271 42.4478 44.6625 41.3288 45.4859 40.1551L10.6632 5.33221C9.48945 6.15555 8.37041 7.09091 7.32168 8.13964C6.27295 9.18837 5.3376 10.3074 4.51416 11.4812L39.3369 46.3039C40.5105 45.4806 41.6297 44.5453 42.6784 43.4966Z" fill="black"/>
<path d="M7.32148 43.4966C15.2089 51.384 27.0543 52.8981 36.4631 48.042L2.77607 14.3549C-2.07989 23.7637 -0.565535 35.6092 7.32148 43.4966V43.4966Z" fill="#D80027"/>
<path d="M42.6785 8.13978C34.7911 0.252474 22.9457 -1.26159 13.5369 3.59417L47.2239 37.2815C52.0799 27.8727 50.5659 16.0271 42.6785 8.13978V8.13978Z" fill="#D80027"/>
</g>
<defs>
<clipPath id="clip0_402_123">
<rect width="50" height="50" fill="white" transform="translate(0 0.818176)"/>
</clipPath>
</defs>
</svg>
