<svg width="50" height="51" viewBox="0 0 50 51" fill="none" xmlns="http://www.w3.org/2000/svg">
<g clip-path="url(#clip0_402_123)">
<path d="M25 50.8182C38.8071 50.8182 50 39.6253 50 25.8182C50 12.0111 38.8071 0.818176 25 0.818176C11.1929 0.818176 0 12.0111 0 25.8182C0 39.6253 11.1929 50.8182 25 50.8182Z" fill="#D80027"/>
<path d="M23.9763 21.2465L26.0276 24.0732L29.3496 22.996L27.2951 25.8203L29.346 28.6468L26.0252 27.5656L23.9709 30.3898L23.973 26.8975L20.6521 25.8162L23.9742 24.7391L23.9763 21.2465Z" fill="#F0F0F0"/>
<path d="M18.3783 32.8834C14.4764 32.8834 11.3131 29.7202 11.3131 25.8182C11.3131 21.9162 14.4764 18.753 18.3783 18.753C19.5949 18.753 20.7396 19.0607 21.7391 19.6022C20.1712 18.0688 18.027 17.1225 15.6609 17.1225C10.8584 17.1225 6.96533 21.0157 6.96533 25.8181C6.96533 30.6205 10.8585 34.5137 15.6609 34.5137C18.0271 34.5137 20.1713 33.5673 21.7391 32.034C20.7396 32.5757 19.5949 32.8834 18.3783 32.8834V32.8834Z" fill="#F0F0F0"/>
</g>
<defs>
<clipPath id="clip0_402_123">
<rect width="50" height="50" fill="white" transform="translate(0 0.818176)"/>
</clipPath>
</defs>
</svg>
