<svg width="50" height="51" viewBox="0 0 50 51" fill="none" xmlns="http://www.w3.org/2000/svg">
<g clip-path="url(#clip0_402_123)">
<path d="M25 0.818176C23.1334 0.818176 21.3151 1.02452 19.5653 1.41241L18.4784 25.8181L19.5653 50.2238C21.3152 50.6117 23.1335 50.8182 25 50.8182C38.8071 50.8182 50 39.6252 50 25.8181C49.9999 12.011 38.8071 0.818176 25 0.818176V0.818176Z" fill="#496E2D"/>
<path d="M6.5218 8.97943C2.47063 13.4224 0.00012207 19.3316 0.00012207 25.8181C0.00012207 32.3046 2.47073 38.2138 6.5219 42.657L7.60881 25.8181L6.5218 8.97943Z" fill="#496E2D"/>
<path d="M36.5645 19.6755C37.7945 16.2472 36.4127 12.5186 33.4472 10.6616C33.9806 10.731 34.5146 10.8566 35.0415 11.0455C38.9969 12.4647 41.0529 16.8213 39.6338 20.7766C38.2146 24.7322 33.858 26.788 29.9026 25.3689C29.3756 25.1798 28.8835 24.9371 28.4277 24.6517C31.8975 25.1036 35.3346 23.1038 36.5645 19.6755V19.6755Z" fill="#F0F0F0"/>
<path d="M29.7425 9.7218L28.6737 11.1029L27.0302 10.5131L28.0132 11.9563L26.9446 13.3371L28.6209 12.8483L29.6041 14.2912L29.6568 12.5459L31.3332 12.057L29.6897 11.4674L29.7425 9.7218Z" fill="#F0F0F0"/>
<path d="M32.6285 14.2217L31.5596 15.6026L29.9161 15.0129L30.8992 16.4561L29.8304 17.8369L31.5067 17.3479L32.4899 18.7911L32.5428 17.0457L34.2191 16.5566L32.5756 15.967L32.6285 14.2217Z" fill="#F0F0F0"/>
<path d="M24.6543 11.3607L23.5854 12.7415L21.942 12.152L22.9251 13.595L21.8563 14.976L23.5325 14.487L24.5157 15.9301L24.5686 14.1848L26.2449 13.6958L24.6014 13.1061L24.6543 11.3607Z" fill="#F0F0F0"/>
<path d="M24.5371 16.5151L23.4683 17.8961L21.8248 17.3064L22.808 18.7496L21.739 20.1305L23.4155 19.6416L24.3986 21.0846L24.4514 19.3393L26.1278 18.8503L24.4841 18.2605L24.5371 16.5151Z" fill="#F0F0F0"/>
<path d="M29.442 18.275L28.3731 19.6559L26.7297 19.0662L27.7129 20.5094L26.6439 21.8902L28.3204 21.4013L29.3035 22.8445L29.3563 21.099L31.0327 20.6101L29.389 20.0204L29.442 18.275Z" fill="#F0F0F0"/>
<path d="M6.52173 8.97941V42.6568C9.92798 46.3926 14.4524 49.0903 19.5652 50.2237V1.41241C14.4523 2.54581 9.92808 5.24357 6.52173 8.97941V8.97941Z" fill="#D80027"/>
<path d="M11.4994 13.9808L9.31567 12.354V10.0535L11.4994 8.42688H14.5877L16.7714 10.0535V12.354L14.5877 13.9808H11.4994Z" fill="#F0F0F0"/>
<path d="M13.0436 8.42688H11.4994L9.31567 10.0535V11.1782H13.0436V8.42688Z" fill="#FF9811"/>
<path d="M13.0436 13.9808H14.5877L16.7714 12.354V11.1805H13.0436V13.9808Z" fill="#FF9811"/>
<path d="M11.4994 43.2093L9.31567 41.5825V39.2822L11.4994 37.6554H14.5877L16.7714 39.2822V41.5825L14.5877 43.2093H11.4994Z" fill="#F0F0F0"/>
<path d="M13.0436 37.6554H11.4994L9.31567 39.2822V40.4069H13.0436V37.6554Z" fill="#FF9811"/>
<path d="M13.0436 43.2093H14.5877L16.7714 41.5826V40.4091H13.0436V43.2093Z" fill="#FF9811"/>
<path d="M11.4994 28.595L9.31567 26.9683V24.6679L11.4994 23.0411H14.5877L16.7714 24.6679V26.9683L14.5877 28.595H11.4994Z" fill="#496E2D"/>
<path d="M16.8479 32.1741H15.8967V31.223H14.2253L13.0435 30.0412L11.8617 31.223H10.1903V32.1741H9.23926V34.0763H10.1903V35.0273H11.8616L13.0436 36.2093L14.2253 35.0273H15.8967V34.0763H16.8479V32.1741Z" fill="#496E2D"/>
<path d="M16.8479 17.5598H15.8967V16.6086H14.2253L13.0435 15.4268L11.8617 16.6086H10.1903V17.5598H9.23926V19.4619H10.1903V20.413H11.8616L13.0436 21.595L14.2253 20.413H15.8967V19.4619H16.8479V17.5598Z" fill="#496E2D"/>
<path d="M11.9564 24.731H14.1303V26.9049H11.9564V24.731Z" fill="#D80027"/>
<path d="M13.0433 19.5974C13.6436 19.5974 14.1302 19.1107 14.1302 18.5104C14.1302 17.9102 13.6436 17.4235 13.0433 17.4235C12.443 17.4235 11.9564 17.9102 11.9564 18.5104C11.9564 19.1107 12.443 19.5974 13.0433 19.5974Z" fill="#D80027"/>
<path d="M13.0433 34.2125C13.6436 34.2125 14.1302 33.7258 14.1302 33.1255C14.1302 32.5253 13.6436 32.0386 13.0433 32.0386C12.443 32.0386 11.9564 32.5253 11.9564 33.1255C11.9564 33.7258 12.443 34.2125 13.0433 34.2125Z" fill="#D80027"/>
</g>
<defs>
<clipPath id="clip0_402_123">
<rect width="50" height="50" fill="white" transform="translate(0 0.818176)"/>
</clipPath>
</defs>
</svg>
