<svg width="50" height="51" viewBox="0 0 50 51" fill="none" xmlns="http://www.w3.org/2000/svg">
<g clip-path="url(#clip0_402_123)">
<path d="M50 25.8182C50 39.6252 38.807 50.8182 25 50.8182C11.193 50.8182 0 39.6252 0 25.8182C0 25.8241 25 0.820911 25 0.818176C38.807 0.818176 50 12.0111 50 25.8182Z" fill="#0052B4"/>
<path d="M24.9331 25.8182H25C25 25.7957 25 25.7738 25 25.7513C24.9777 25.7736 24.9555 25.7959 24.9331 25.8182Z" fill="#F0F0F0"/>
<path d="M25 13.8616C25 9.46271 25 6.58038 25 0.818176H24.9958C11.1905 0.82052 0 12.0124 0 25.8182H13.0435V18.4734L20.3883 25.8182H24.9332C24.9555 25.7959 24.9777 25.7736 25.0001 25.7513C25.0001 24.067 25.0001 22.5642 25.0001 21.2067L17.6551 13.8616H25Z" fill="#F0F0F0"/>
<path d="M12.648 4.07904C8.73791 6.30551 5.48723 9.55609 3.26086 13.4661V25.8182H9.78264V10.601V10.6008H25C25 8.54388 25 6.58431 25 4.07904H12.648Z" fill="#D80027"/>
<path d="M25 22.7439L16.1177 13.8618H13.0435V13.862L24.9998 25.8182H25C25 25.8182 25 23.6984 25 22.7439V22.7439Z" fill="#D80027"/>
<path d="M28.2609 13.8616V25.8181C28.2609 31.6423 35.8696 33.4269 35.8696 33.4269C35.8696 33.4269 43.4782 31.6423 43.4782 25.8181V13.8616H28.2609Z" fill="#FFDA44"/>
<path d="M34.7827 18.2095C34.7827 19.4102 33.8094 22.5574 32.6087 22.5574C31.4081 22.5574 30.4348 19.4102 30.4348 18.2095C30.4348 17.0088 32.6087 16.0356 32.6087 16.0356C32.6087 16.0356 34.7827 17.0088 34.7827 18.2095Z" fill="#FF9811"/>
<path d="M40.5513 20.5772C40.9021 19.7212 41.175 18.4701 41.175 17.8472C41.175 16.8466 39.8706 16.0356 39.8706 16.0356C39.8706 16.0356 38.5662 16.8467 38.5662 17.8472C38.5662 18.4701 38.839 19.7212 39.1898 20.5772L38.4368 22.2774C38.8793 22.4573 39.3631 22.5573 39.8705 22.5573C40.3778 22.5573 40.8616 22.4573 41.3042 22.2774L40.5513 20.5772Z" fill="#A2001D"/>
<path d="M34.2391 25.8182C34.2391 25.8182 33.1522 27.9921 33.1522 30.166H38.587C38.5869 27.9921 37.5 25.8182 37.5 25.8182L35.8695 24.7313L34.2391 25.8182Z" fill="#6DA544"/>
<path d="M37.5 25.8182V25.2747C37.5 24.3743 36.77 23.6442 35.8695 23.6442C34.9691 23.6442 34.239 24.3742 34.239 25.2747V25.8182H37.5Z" fill="#D80027"/>
</g>
<defs>
<clipPath id="clip0_402_123">
<rect width="50" height="50" fill="white" transform="translate(0 0.818176)"/>
</clipPath>
</defs>
</svg>
