<svg width="50" height="51" viewBox="0 0 50 51" fill="none" xmlns="http://www.w3.org/2000/svg">
<g clip-path="url(#clip0_402_123)">
<path d="M50 25.8182C50 39.6252 38.807 50.8182 25.0001 50.8182C11.193 50.8182 0 39.6252 0 25.8182C0 25.8241 25.0001 0.820911 25.0001 0.818176C38.807 0.818176 50 12.0111 50 25.8182Z" fill="#338AF3"/>
<path d="M11.9565 25.8182H20.3884L13.0435 17.1226L11.9565 20.3834V25.8182Z" fill="#0052B4"/>
<path d="M25.0001 21.2067L16.3044 12.7747H25.0001L25.0001 21.2067Z" fill="#0052B4"/>
<path d="M24.9331 25.8182H25C25 25.7957 25 25.7738 25 25.7513C24.9777 25.7736 24.9555 25.7959 24.9331 25.8182Z" fill="#F0F0F0"/>
<path d="M25.0001 13.8616C25.0001 9.46271 25.0001 6.58029 25.0001 0.818176H24.9959C11.1906 0.82052 0 12.0124 0 25.8182H13.0436V18.4734L20.3884 25.8182H24.9333C24.9556 25.7959 24.9778 25.7736 25.0002 25.7513C25.0002 24.067 25.0002 22.5642 25.0002 21.2067L17.6551 13.8616H25.0001Z" fill="#F0F0F0"/>
<path d="M12.648 4.07904C8.73791 6.30551 5.48733 9.55609 3.26086 13.4661V25.8182H9.78264V10.601V10.6008H25C25 8.54388 25 6.58431 25 4.07904H12.648Z" fill="#D80027"/>
<path d="M25.0001 22.7439L16.1178 13.8618H13.0436V13.862L24.9999 25.8182H25.0001C25.0001 25.8182 25.0001 23.6984 25.0001 22.7439V22.7439Z" fill="#D80027"/>
<path d="M27.2857 42.1226L27.8254 43.7834H29.5716L28.159 44.8097L28.6986 46.4704L27.2857 45.4441L25.8731 46.4704L26.4128 44.8097L25 43.7834H26.7461L27.2857 42.1226Z" fill="#FFDA44"/>
<path d="M41.1925 31.253L41.732 32.9137H43.4782L42.0656 33.9402L42.6053 35.6008L41.1925 34.5746L39.7799 35.6008L40.3195 33.9402L38.9066 32.9137H40.6528L41.1925 31.253Z" fill="#FFDA44"/>
<path d="M44.6771 14.9487L45.2167 16.6094H46.9629L45.5503 17.6358L46.0899 19.2964L44.6771 18.2702L43.2645 19.2964L43.8041 17.6358L42.3914 16.6094H44.1375L44.6771 14.9487Z" fill="#FFDA44"/>
<path d="M45.5404 26.9051L46.0799 28.5659H47.8261L46.4135 29.5923L46.9532 31.2529L45.5404 30.2267L44.1278 31.2529L44.6674 29.5923L43.2545 28.5659H45.0007L45.5404 26.9051Z" fill="#FFDA44"/>
<path d="M29.7897 38.2165L31.3458 39.0094L32.5805 37.7747L32.3075 39.4992L33.8632 40.292L32.1384 40.5652L31.8653 42.29L31.0727 40.734L29.3479 41.0073L30.5826 39.7727L29.7897 38.2165Z" fill="#FFDA44"/>
<path d="M29.7897 31.6949L31.3458 32.4877L32.5805 31.253L32.3075 32.9776L33.8632 33.7703L32.1384 34.0435L31.8653 35.7682L31.0727 34.2124L29.3479 34.4856L30.5826 33.2509L29.7897 31.6949Z" fill="#FFDA44"/>
<path d="M35.2244 35.8752L36.7805 36.6681L38.0152 35.4334L37.7422 37.1579L39.2979 37.9507L37.5731 38.2239L37.3 39.9486L36.5074 38.3926L34.7826 38.666L36.0173 37.4314L35.2244 35.8752Z" fill="#FFDA44"/>
<path d="M35.2244 21.9122L36.7805 22.705L38.0152 21.4703L37.7422 23.1949L39.2979 23.9876L37.5731 24.2609L37.3 25.9856L36.5074 24.4297L34.7826 24.703L36.0173 23.4683L35.2244 21.9122Z" fill="#FFDA44"/>
<path d="M40.4917 21.7449L42.0479 22.5376L43.2825 21.303L43.0094 23.0276L44.5653 23.8203L42.8405 24.0935L42.5673 25.8182L41.7747 24.2624L40.0499 24.5356L41.2846 23.3009L40.4917 21.7449Z" fill="#FFDA44"/>
</g>
<defs>
<clipPath id="clip0_402_123">
<rect width="50" height="50" fill="white" transform="translate(0 0.818176)"/>
</clipPath>
</defs>
</svg>
