<svg width="50" height="51" viewBox="0 0 50 51" fill="none" xmlns="http://www.w3.org/2000/svg">
<g clip-path="url(#clip0_402_123)">
<path d="M43.6321 42.4848C47.5914 38.0617 50 32.2217 50 25.8182C50 19.4147 47.5913 13.5745 43.632 9.15149L25 7.33997L6.36797 9.15149C2.40869 13.5745 0 19.4147 0 25.8182C0 32.2217 2.40859 38.0617 6.36787 42.4848L25 44.2964L43.6321 42.4848Z" fill="#FFDA44"/>
<path d="M6.36792 9.15148H43.6321C39.0544 4.03751 32.4036 0.818176 25 0.818176C17.5963 0.818176 10.9455 4.03751 6.36792 9.15148Z" fill="black"/>
<path d="M0 25.8182L25 27.9921L50 25.8182C50 22.8959 49.497 20.0914 48.5754 17.4848H1.42461C0.503027 20.0914 0 22.8959 0 25.8182H0Z" fill="#D80027"/>
<path d="M1.42461 34.1515H48.5756C49.497 31.5448 50 28.7404 50 25.8182H0C0 28.7404 0.503027 31.5448 1.42461 34.1515V34.1515Z" fill="black"/>
<path d="M43.6322 42.4848H6.36792C10.9455 47.5989 17.5963 50.8182 25.0001 50.8182C32.4038 50.8182 39.0546 47.5989 43.6322 42.4848Z" fill="#D80027"/>
<path d="M33.3424 25.8182C33.3424 30.4259 29.6077 34.1605 25 34.1605C20.3923 34.1605 16.6576 30.4259 16.6576 25.8182C16.6576 21.2104 20.3923 17.4758 25 17.4758C29.6077 17.4758 33.3424 21.2104 33.3424 25.8182Z" fill="#F0F0F0"/>
<path d="M28.0562 26.2436L25 24.9193C25 24.9193 25.7151 22.5459 25.7532 22.3835C25.781 22.2649 25.7958 22.1411 25.7958 22.014C25.7958 21.5637 25.6133 21.1561 25.3182 20.8611L26.0868 20.0926C25.5951 19.6009 24.9157 19.2967 24.1653 19.2967C23.4149 19.2967 22.7355 19.6008 22.2438 20.0926L23.0124 20.8611C22.7172 21.1562 22.5348 21.5638 22.5348 22.014C22.5348 22.1786 22.5597 22.3373 22.6051 22.4872L21.448 23.6443H23.5511C23.5511 23.6443 22.6816 24.9503 22.2069 26.0229C21.7322 27.0953 22.2134 28.4046 23.3105 28.8923L23.9449 29.1742L25 30.166V31.2529L23.9131 32.3399H26.0871V30.1659L27.079 29.174H29.1305C29.1404 29.1536 29.1507 29.1337 29.1601 29.1128C29.6475 28.0158 29.1534 26.7311 28.0562 26.2436Z" fill="black"/>
</g>
<defs>
<clipPath id="clip0_402_123">
<rect width="50" height="50" fill="white" transform="translate(0 0.818176)"/>
</clipPath>
</defs>
</svg>
