<svg width="50" height="51" viewBox="0 0 50 51" fill="none" xmlns="http://www.w3.org/2000/svg">
<g clip-path="url(#clip0_402_123)">
<path d="M25 50.8182C38.8071 50.8182 50 39.6253 50 25.8182C50 12.0111 38.8071 0.818176 25 0.818176C11.1929 0.818176 0 12.0111 0 25.8182C0 39.6253 11.1929 50.8182 25 50.8182Z" fill="#F0F0F0"/>
<path d="M14.1305 34.5138L16.3044 49.2634C19.0126 50.2684 21.942 50.8182 25 50.8182C35.749 50.8182 44.9127 44.0338 48.4449 34.5138H14.1305Z" fill="black"/>
<path d="M14.1305 17.1226L16.3044 2.37296C19.0126 1.36798 21.942 0.818176 25 0.818176C35.749 0.818176 44.9127 7.60255 48.4449 17.1226H14.1305Z" fill="#6DA544"/>
<path d="M0 25.8182C0 36.5673 6.78447 45.7309 16.3044 49.2632V2.37317C6.78447 5.90549 0 15.0691 0 25.8182Z" fill="#A2001D"/>
</g>
<defs>
<clipPath id="clip0_402_123">
<rect width="50" height="50" fill="white" transform="translate(0 0.818176)"/>
</clipPath>
</defs>
</svg>
