<svg width="50" height="51" viewBox="0 0 50 51" fill="none" xmlns="http://www.w3.org/2000/svg">
<g clip-path="url(#clip0_402_123)">
<path d="M25 50.8182C38.8071 50.8182 50 39.6253 50 25.8182C50 12.0111 38.8071 0.818176 25 0.818176C11.1929 0.818176 0 12.0111 0 25.8182C0 39.6253 11.1929 50.8182 25 50.8182Z" fill="#338AF3"/>
<path d="M24.9278 17.1226C20.1251 17.1226 16.2322 21.0157 16.2322 25.8182C16.2322 30.6206 20.1252 34.5138 24.9278 34.5138C29.7301 34.5138 33.6234 30.6206 33.6234 25.8182C33.6234 21.0157 29.73 17.1226 24.9278 17.1226ZM22.7539 25.8182C22.7539 24.6176 23.7271 23.6442 24.9278 23.6442C26.1284 23.6442 27.1017 24.6176 27.1017 25.8182C27.1017 27.0188 26.1284 27.9921 24.9278 27.9921C23.7271 27.9921 22.7539 27.0188 22.7539 25.8182V25.8182ZM27.1817 22.0995C26.8443 21.8945 26.4765 21.7354 26.0871 21.6278V19.4013C27.0676 19.5772 27.9717 19.9717 28.7477 20.5336L27.1817 22.0995ZM23.9132 21.5906C23.5053 21.6882 23.12 21.8432 22.7659 22.0466L21.1926 20.4733C21.9879 19.9165 22.9125 19.5318 23.9132 19.3753V21.5906ZM22.7658 29.5897C23.1199 29.7931 23.5052 29.9481 23.9131 30.0456V32.2608C22.9124 32.1045 21.9879 31.7196 21.1926 31.1628L22.7658 29.5897ZM26.0872 30.0085C26.4765 29.901 26.8445 29.7419 27.1817 29.5369L28.7476 31.1028C27.9716 31.6646 27.0676 32.0592 26.0871 32.2352V30.0086H26.0872V30.0085ZM28.6993 27.9803C28.8908 27.647 29.0405 27.2864 29.1386 26.9052H31.3576C31.1943 27.878 30.816 28.7773 30.2726 29.5533L28.6993 27.9803ZM29.1386 24.7313C29.0405 24.3499 28.8908 23.9896 28.6993 23.6563L30.2725 22.083C30.8159 22.8591 31.1943 23.7583 31.3575 24.7312H29.1385V24.7313H29.1386ZM19.6431 21.9983L21.209 23.5643C20.9914 23.9227 20.8241 24.3148 20.7168 24.7313H18.4979C18.6671 23.7229 19.0674 22.7934 19.6431 21.9983ZM18.4979 26.9051H20.7168C20.824 27.3215 20.9913 27.7137 21.209 28.0721L19.6431 29.638C19.0674 28.843 18.6671 27.9136 18.4979 26.9051Z" fill="#F0F0F0"/>
<path d="M39.0581 25.8182C39.0581 21.9529 37.5056 18.4509 34.9909 15.8997L32.6852 18.2055C34.6098 20.1664 35.7973 22.8535 35.7973 25.8182C35.7973 31.8213 30.9308 36.6877 24.9277 36.6877C18.9245 36.6877 14.0582 31.8213 14.0582 25.8182C14.0582 22.8165 15.2747 20.0991 17.2418 18.1322L14.936 15.8265C12.3789 18.3836 10.7974 21.9162 10.7974 25.8182C10.7974 32.2845 15.1408 37.7363 21.0694 39.4153C20.4194 40.6501 20.5185 42.2047 21.447 43.3634C22.6665 42.386 23.9291 41.3741 25.0002 40.5159C26.0713 41.3742 27.334 42.386 28.5534 43.3634C29.4911 42.1932 29.5834 40.6189 28.9118 39.3781C34.7756 37.6579 39.0581 32.2386 39.0581 25.8182V25.8182Z" fill="#F0F0F0"/>
</g>
<defs>
<clipPath id="clip0_402_123">
<rect width="50" height="50" fill="white" transform="translate(0 0.818176)"/>
</clipPath>
</defs>
</svg>
