<svg width="50" height="51" viewBox="0 0 50 51" fill="none" xmlns="http://www.w3.org/2000/svg">
<g clip-path="url(#clip0_402_123)">
<path d="M1.18047 18.2096C0.414648 20.6088 -9.7639e-05 23.1647 1.72417e-08 25.818C-9.7639e-05 28.4713 0.414746 31.0274 1.18057 33.4267L25 34.5138L48.8194 33.4269C49.5852 31.0275 50.0001 28.4713 50.0001 25.8182C50 23.1648 49.5853 20.6088 48.8194 18.2095L25 17.1226L1.18047 18.2096Z" fill="#F0F0F0"/>
<path d="M48.8193 18.2096L24.9999 17.1227L1.18037 18.2096C0.953418 18.9209 0.758008 19.6462 0.594238 20.3835H49.4052C49.2416 19.6461 49.0463 18.9207 48.8193 18.2096Z" fill="#D80027"/>
<path d="M0.594482 31.2529C0.758057 31.9902 0.953467 32.7154 1.18042 33.4267L1.18276 33.4268L24.9998 34.5137L48.8192 33.4268C49.0461 32.7155 49.2416 31.9902 49.4052 31.2529H0.594482Z" fill="#D80027"/>
<path d="M24.9999 50.8181C36.1538 50.8181 45.6001 43.5131 48.8193 33.4268H1.18054C4.39978 43.513 13.8463 50.8181 24.9999 50.8181V50.8181Z" fill="#6DA544"/>
<path d="M24.9999 0.818298C13.8461 0.818396 4.39985 8.12338 1.18042 18.2096L48.8192 18.2097C45.6001 8.12328 36.1538 0.818201 24.9999 0.818298V0.818298Z" fill="#338AF3"/>
<path d="M11.4244 11.1443C11.4244 8.80282 13.07 6.84677 15.2676 6.36688C14.9299 6.29305 14.5794 6.25311 14.2194 6.25311C11.5181 6.25311 9.32812 8.44296 9.32812 11.1444C9.32812 13.8459 11.5179 16.0357 14.2194 16.0357C14.5794 16.0357 14.9298 15.9957 15.2676 15.922C13.0701 15.4419 11.4244 13.4858 11.4244 11.1443V11.1443Z" fill="#F0F0F0"/>
<path d="M18.1586 13.3677L18.4896 14.3867H19.5611L18.6943 15.0166L19.0254 16.0356L18.1586 15.4059L17.2916 16.0356L17.6228 15.0166L16.7559 14.3867H17.8273L18.1586 13.3677Z" fill="#F0F0F0"/>
<path d="M21.5786 13.3677L21.9097 14.3867H22.9812L22.1143 15.0166L22.4455 16.0356L21.5786 15.4059L20.7117 16.0356L21.0428 15.0166L20.176 14.3867H21.2474L21.5786 13.3677Z" fill="#F0F0F0"/>
<path d="M24.9986 13.3677L25.3296 14.3867H26.4012L25.5343 15.0166L25.8654 16.0356L24.9986 15.4059L24.1316 16.0356L24.4628 15.0166L23.5958 14.3867H24.6674L24.9986 13.3677Z" fill="#F0F0F0"/>
<path d="M28.4186 13.3677L28.7498 14.3867H29.8211L28.9543 15.0166L29.2855 16.0356L28.4186 15.4059L27.5516 16.0356L27.8829 15.0166L27.0159 14.3867H28.0874L28.4186 13.3677Z" fill="#F0F0F0"/>
<path d="M31.8385 13.3677L32.1696 14.3867H33.2411L32.3743 15.0166L32.7054 16.0356L31.8385 15.4059L30.9716 16.0356L31.3027 15.0166L30.4359 14.3867H31.5073L31.8385 13.3677Z" fill="#F0F0F0"/>
<path d="M21.5786 9.81036L21.9097 10.8293H22.9812L22.1143 11.4593L22.4455 12.4782L21.5786 11.8484L20.7117 12.4782L21.0428 11.4593L20.176 10.8293H21.2474L21.5786 9.81036Z" fill="#F0F0F0"/>
<path d="M24.9986 9.81036L25.3296 10.8293H26.4012L25.5343 11.4593L25.8654 12.4782L24.9986 11.8484L24.1316 12.4782L24.4628 11.4593L23.5958 10.8293H24.6674L24.9986 9.81036Z" fill="#F0F0F0"/>
<path d="M28.4186 9.81036L28.7498 10.8293H29.8211L28.9543 11.4593L29.2855 12.4782L28.4186 11.8484L27.5516 12.4782L27.8829 11.4593L27.0159 10.8293H28.0874L28.4186 9.81036Z" fill="#F0F0F0"/>
<path d="M31.8385 9.81036L32.1696 10.8293H33.2411L32.3743 11.4593L32.7054 12.4782L31.8385 11.8484L30.9716 12.4782L31.3027 11.4593L30.4359 10.8293H31.5073L31.8385 9.81036Z" fill="#F0F0F0"/>
<path d="M24.9986 6.25293L25.3296 7.27207H26.4012L25.5343 7.90186L25.8654 8.921L24.9986 8.29121L24.1316 8.921L24.4628 7.90186L23.5958 7.27207H24.6674L24.9986 6.25293Z" fill="#F0F0F0"/>
<path d="M28.4186 6.25293L28.7498 7.27207H29.8211L28.9543 7.90186L29.2855 8.921L28.4186 8.29121L27.5516 8.921L27.8829 7.90186L27.0159 7.27207H28.0874L28.4186 6.25293Z" fill="#F0F0F0"/>
<path d="M31.8385 6.25293L32.1696 7.27207H33.2411L32.3743 7.90186L32.7054 8.921L31.8385 8.29121L30.9716 8.921L31.3027 7.90186L30.4359 7.27207H31.5073L31.8385 6.25293Z" fill="#F0F0F0"/>
</g>
<defs>
<clipPath id="clip0_402_123">
<rect width="50" height="50" fill="white" transform="translate(0 0.818176)"/>
</clipPath>
</defs>
</svg>
