<svg width="50" height="51" viewBox="0 0 50 51" fill="none" xmlns="http://www.w3.org/2000/svg">
<g clip-path="url(#clip0_402_123)">
<path d="M50 25.8182C50 24.713 49.9274 23.6248 49.7883 22.5574H21.7389C16.6314 17.4502 7.32191 8.14128 7.3223 8.1405C-2.44077 17.9036 -2.44077 33.7326 7.3223 43.4959L21.7392 29.0791H49.7883C49.9273 28.0117 50 26.9234 50 25.8182V25.8182Z" fill="black"/>
<path d="M49.9928 26.3868C49.9917 26.435 49.9906 26.4835 49.9893 26.5317C49.9904 26.4833 49.9916 26.435 49.9928 26.3868Z" fill="#F0F0F0"/>
<path d="M49.9688 27.07C49.9666 27.1178 49.9632 27.1653 49.9607 27.213C49.9632 27.1654 49.9664 27.1178 49.9688 27.07Z" fill="#F0F0F0"/>
<path d="M49.9351 27.6149C49.9301 27.6851 49.9252 27.7554 49.9196 27.8254C49.9252 27.7554 49.93 27.6851 49.9351 27.6149Z" fill="#F0F0F0"/>
<path d="M49.8516 23.0934C49.8607 23.177 49.8699 23.2605 49.8782 23.3443C49.8699 23.2604 49.8606 23.177 49.8516 23.0934Z" fill="#F0F0F0"/>
<path d="M49.9606 24.4234C49.9632 24.4711 49.9664 24.5186 49.9687 24.5664C49.9663 24.5186 49.9632 24.471 49.9606 24.4234Z" fill="#F0F0F0"/>
<path d="M49.9891 25.1049C49.9905 25.1531 49.9915 25.2015 49.9926 25.2498C49.9916 25.2013 49.9904 25.1531 49.9891 25.1049Z" fill="#F0F0F0"/>
<path d="M49.9196 23.811C49.9252 23.8811 49.9301 23.9513 49.9351 24.0215C49.93 23.9513 49.9252 23.8811 49.9196 23.811Z" fill="#F0F0F0"/>
<path d="M49.7883 22.5573C49.7995 22.643 49.8094 22.7291 49.8197 22.8149C48.3359 10.4241 37.7904 0.818298 24.9999 0.818298C18.0962 0.818298 11.8461 3.61663 7.32202 8.14094L21.7384 22.5574H49.7883V22.5573Z" fill="#D80027"/>
<path d="M49.7883 29.0791H21.7384L7.32202 43.4956C11.8461 48.0198 18.0962 50.8182 24.9999 50.8182C37.7904 50.8182 48.336 41.2124 49.8197 28.8215C49.8094 28.9073 49.7993 28.9934 49.7883 29.0791V29.0791Z" fill="#6DA544"/>
<path d="M49.8781 28.2921C49.8698 28.3758 49.8606 28.4593 49.8514 28.5429C49.8606 28.4593 49.8699 28.3759 49.8781 28.2921Z" fill="#F0F0F0"/>
<path d="M49.9351 24.0214C49.9445 24.1551 49.9531 24.2891 49.9604 24.4234C49.953 24.2891 49.9445 24.1551 49.9351 24.0214V24.0214Z" fill="black"/>
<path d="M49.8197 22.8149C49.8309 22.9076 49.8416 23.0005 49.8515 23.0935C49.8414 23.0005 49.8307 22.9077 49.8197 22.8149Z" fill="black"/>
<path d="M49.8782 23.3443C49.8934 23.4995 49.9072 23.655 49.9196 23.8112C49.9073 23.655 49.8935 23.4994 49.8782 23.3443Z" fill="black"/>
<path d="M49.9999 25.8182C49.9999 26.0084 49.997 26.1977 49.9928 26.3867C49.997 26.1976 49.9999 26.0083 49.9999 25.8182Z" fill="black"/>
<path d="M49.9606 27.213C49.9531 27.3472 49.9446 27.4812 49.9352 27.6149C49.9446 27.4812 49.9531 27.3472 49.9606 27.213Z" fill="black"/>
<path d="M49.9196 27.8254C49.9072 27.9813 49.8934 28.137 49.8782 28.2921C49.8935 28.137 49.9073 27.9813 49.9196 27.8254Z" fill="black"/>
<path d="M49.8515 28.5429C49.8416 28.6359 49.8309 28.7286 49.8197 28.8214C49.8307 28.7287 49.8414 28.6359 49.8515 28.5429Z" fill="black"/>
<path d="M49.9928 25.2497C49.997 25.4388 49.9999 25.6282 49.9999 25.8182C49.9999 25.6282 49.997 25.4388 49.9928 25.2497Z" fill="black"/>
<path d="M49.9688 24.5663C49.9775 24.7453 49.9842 24.9248 49.9893 25.1047C49.9842 24.9247 49.9776 24.7453 49.9688 24.5663Z" fill="black"/>
<path d="M49.9891 26.5317C49.9841 26.7116 49.9774 26.8911 49.9686 27.0701C49.9776 26.8911 49.9842 26.7116 49.9891 26.5317Z" fill="black"/>
<path d="M49.976 24.7222H20.8203L5.84409 9.74823C5.36001 10.2588 4.8353 10.9717 4.51079 11.4794L18.8329 25.809L4.49878 40.1435C4.78257 40.6484 5.40083 41.3956 5.83491 41.8819L20.8206 26.8961H49.9795C49.9951 26.5356 50 26.1735 50 25.8092C49.9999 25.3212 49.9864 24.9613 49.976 24.7222Z" fill="#FFDA44"/>
<path d="M6.07289 31.1475V29.0535C8.16254 29.0535 9.86244 27.3534 9.86244 25.2639C9.86244 23.7855 8.65961 22.5828 7.18129 22.5828C6.17416 22.5828 5.35473 23.4021 5.35473 24.4094C5.35473 25.0535 5.87866 25.5775 6.5228 25.5775C6.88686 25.5775 7.18305 25.2811 7.18305 24.9171H9.27699C9.27699 26.4359 8.04145 27.6714 6.52289 27.6714C4.72417 27.6715 3.26099 26.2081 3.26099 24.4096C3.26099 22.2478 5.01977 20.4891 7.18139 20.4891C9.81439 20.4891 11.9566 22.6313 11.9566 25.2642C11.9565 28.5081 9.31713 31.1475 6.07289 31.1475V31.1475Z" fill="#FFDA44"/>
</g>
<defs>
<clipPath id="clip0_402_123">
<rect width="50" height="50" fill="white" transform="translate(0 0.818176)"/>
</clipPath>
</defs>
</svg>
