<svg width="50" height="51" viewBox="0 0 50 51" fill="none" xmlns="http://www.w3.org/2000/svg">
<g clip-path="url(#clip0_402_123)">
<path d="M25 0.818176C38.807 0.818176 50 12.0111 50 25.8182C50 39.6252 38.807 50.8182 25 50.8182C25 49.7313 21.7391 25.8182 21.7391 25.8182L25 0.818176Z" fill="#F0F0F0"/>
<path d="M25 50.8182C11.193 50.8182 0 39.6252 0 25.8182C0 12.0111 11.193 0.818176 25 0.818176" fill="#FFDA44"/>
<path d="M34.5732 22.5726L39.2716 28.788C38.5313 29.9089 38.5353 31.4191 39.3914 32.5516C40.4773 33.9882 42.5224 34.2726 43.9591 33.1866C45.3957 32.1006 45.6801 30.0556 44.5939 28.619C43.738 27.4865 42.286 27.0708 41.0058 27.4773L33.6834 17.7905L31.9492 19.1014L29.3477 21.0676L31.9695 24.5359L34.5732 22.5726ZM41.3372 29.7181C41.8161 29.356 42.4979 29.4509 42.8599 29.9296C43.2218 30.4085 43.1271 31.0903 42.6482 31.4524C42.1694 31.8142 41.4877 31.7197 41.1258 31.2407C40.7636 30.7618 40.8584 30.08 41.3372 29.7181V29.7181Z" fill="#ACABB1"/>
<path d="M42.6318 24.5358L45.2537 21.0675L42.6523 19.1011L40.9182 17.7902L33.5958 27.477C32.3157 27.0705 30.8637 27.4863 30.0076 28.6187C28.9215 30.0554 29.2059 32.1003 30.6425 33.1863C32.0792 34.2722 34.1241 33.9879 35.2101 32.5513C36.0661 31.4188 36.07 29.9086 35.3299 28.7877L40.0282 22.5723L42.6318 24.5358ZM33.4759 31.2406C33.114 31.7196 32.4323 31.8142 31.9534 31.4523C31.4745 31.0902 31.3798 30.4084 31.7418 29.9295C32.1037 29.4508 32.7854 29.3559 33.2645 29.718C33.7433 30.08 33.8379 30.7617 33.4759 31.2406V31.2406Z" fill="#FFDA44"/>
</g>
<defs>
<clipPath id="clip0_402_123">
<rect width="50" height="50" fill="white" transform="translate(0 0.818176)"/>
</clipPath>
</defs>
</svg>
