<svg width="50" height="51" viewBox="0 0 50 51" fill="none" xmlns="http://www.w3.org/2000/svg">
<g clip-path="url(#clip0_402_123)">
<path d="M47.5193 36.6877C49.1087 33.401 50 29.7138 50 25.8182C50 21.9226 49.1087 18.2354 47.5193 14.9486L25 12.7747L2.48066 14.9486C0.891309 18.2354 0 21.9226 0 25.8182C0 29.7138 0.891309 33.401 2.48066 36.6877L25 38.8616L47.5193 36.6877Z" fill="#0052B4"/>
<path d="M25 50.8182C34.9115 50.8182 43.4756 45.0501 47.5194 36.6877H2.48071C6.52446 45.0501 15.0885 50.8182 25 50.8182Z" fill="#D80027"/>
<path d="M43.2975 30.7256L41.9771 31.7574L42.5501 33.3317L41.1608 32.3949L39.8403 33.4265L40.302 31.8157L38.9128 30.8786L40.5876 30.8202L41.0497 29.2094L41.6229 30.784L43.2975 30.7256Z" fill="#F0F0F0"/>
<path d="M39.9161 24.8692L39.0283 26.2904L40.1055 27.5738L38.4794 27.1689L37.5914 28.5897L37.4743 26.9181L35.8484 26.5125L37.4023 25.8847L37.2855 24.213L38.3625 25.4969L39.9161 24.8692Z" fill="#F0F0F0"/>
<path d="M34.7357 20.5222L34.3874 22.1613L35.8386 22.9992L34.1721 23.1749L33.8237 24.8136L33.142 23.2829L31.4753 23.4578L32.7208 22.3365L32.0393 20.8058L33.4905 21.6435L34.7357 20.5222Z" fill="#F0F0F0"/>
<path d="M28.381 18.2095L28.6145 19.8689L30.2646 20.1598L28.7585 20.8947L28.9918 22.5541L27.8278 21.3486L26.3213 22.0832L27.1083 20.6034L25.9441 19.3981L27.5945 19.6891L28.381 18.2095Z" fill="#F0F0F0"/>
<path d="M21.6188 18.2095L22.4057 19.6891L24.0557 19.3979L22.8919 20.6037L23.6783 22.0834L22.1723 21.3486L21.008 22.5538L21.2415 20.8947L19.7354 20.1602L21.3856 19.8689L21.6188 18.2095Z" fill="#F0F0F0"/>
<path d="M15.2641 20.5222L16.5096 21.6435L17.9605 20.8058L17.2792 22.3371L18.5244 23.4582L16.8579 23.2829L16.176 24.8136L15.8281 23.1746L14.1615 22.9996L15.6127 22.1615L15.2641 20.5222Z" fill="#F0F0F0"/>
<path d="M10.0837 24.8691L11.6377 25.4969L12.7145 24.2133L12.598 25.8852L14.1515 26.5131L12.5256 26.9182L12.4085 28.5896L11.5208 27.1688L9.89478 27.574L10.9719 26.2903L10.0837 24.8691Z" fill="#F0F0F0"/>
<path d="M6.70251 30.7256L8.37751 30.784L8.95037 29.2096L9.41277 30.8205L11.0873 30.879L9.69802 31.8161L10.1597 33.4269L8.83943 32.3952L7.45007 33.3321L8.02322 31.7574L6.70251 30.7256Z" fill="#F0F0F0"/>
<path d="M47.5194 14.9486C43.4756 6.58624 34.9115 0.818176 25 0.818176C15.0885 0.818176 6.52446 6.58624 2.48071 14.9486H47.5194Z" fill="#FFDA44"/>
</g>
<defs>
<clipPath id="clip0_402_123">
<rect width="50" height="50" fill="white" transform="translate(0 0.818176)"/>
</clipPath>
</defs>
</svg>
