<svg width="50" height="51" viewBox="0 0 50 51" fill="none" xmlns="http://www.w3.org/2000/svg">
<g clip-path="url(#clip0_402_123)">
<path d="M25 50.8182C38.8071 50.8182 50 39.6253 50 25.8182C50 12.0111 38.8071 0.818176 25 0.818176C11.1929 0.818176 0 12.0111 0 25.8182C0 39.6253 11.1929 50.8182 25 50.8182Z" fill="#FCFCFC"/>
<path d="M29.246 18.2836C29.246 15.9387 27.345 14.0377 25 14.0377C22.655 14.0377 20.754 15.9387 20.754 18.2836H11.4131C11.4131 20.5923 13.4242 22.4641 15.7329 22.4641H15.5938C15.5938 24.773 17.4653 26.6448 19.7744 26.6448C19.7744 28.6891 21.2426 30.3877 23.1815 30.7508L23.1707 30.7752H26.8294L26.8186 30.7508C28.7576 30.3875 30.2257 28.689 30.2257 26.6448C32.5347 26.6448 34.4063 24.773 34.4063 22.4641H34.267C36.5757 22.4641 38.5869 20.5923 38.5869 18.2836H29.246Z" fill="#FFDA44"/>
<path d="M23.1335 30.342L20.5009 36.2857C21.8899 36.8503 23.4082 37.1642 25.0001 37.1642C26.592 37.1642 28.1102 36.8504 29.4992 36.2857L26.8667 30.342H23.1335Z" fill="#FFDA44"/>
<path d="M19.5652 20.3716V27.6852C19.5652 31.8451 25 33.1199 25 33.1199C25 33.1199 30.4347 31.8451 30.4347 27.6852V20.3716H19.5652Z" fill="#F0F0F0"/>
<path d="M6.06235 25.9941L9.00171 34.2152L11.9105 25.9941H14.1304L9.8896 36.8637H8.11372L3.84253 25.9941H6.06235Z" fill="#338AF3"/>
<path d="M40.2173 36.8637V25.9941H42.3299V36.8637H40.2173Z" fill="#338AF3"/>
<path d="M21.7391 22.7333V31.596C22.4863 32.1459 23.2902 32.5242 23.9131 32.7663V22.7333H21.7391Z" fill="#D80027"/>
<path d="M28.2608 22.7333V31.596C27.5137 32.1459 26.7098 32.5242 26.0869 32.7663V22.7333H28.2608Z" fill="#D80027"/>
<path d="M19.5652 20.3714H30.4347V23.8202H19.5652V20.3714Z" fill="#0052B4"/>
</g>
<defs>
<clipPath id="clip0_402_123">
<rect width="50" height="50" fill="white" transform="translate(0 0.818176)"/>
</clipPath>
</defs>
</svg>
