<svg width="50" height="51" viewBox="0 0 50 51" fill="none" xmlns="http://www.w3.org/2000/svg">
<g clip-path="url(#clip0_402_123)">
<path d="M25 50.8182C38.8071 50.8182 50 39.6253 50 25.8182C50 12.0111 38.8071 0.818176 25 0.818176C11.1929 0.818176 0 12.0111 0 25.8182C0 39.6253 11.1929 50.8182 25 50.8182Z" fill="#496E2D"/>
<path d="M34.7826 25.8182H25V50.8182C27.9223 50.8182 30.7267 50.3151 33.3333 49.3938L34.7826 25.8182Z" fill="#D80027"/>
<path d="M41.6666 44.4503C46.7807 39.8728 50 33.2218 50 25.8182H40.2174L41.6666 44.4503Z" fill="#FF9811"/>
<path d="M33.3333 25.8182V49.3938C36.4384 48.296 39.2621 46.6027 41.6666 44.4504V25.8182H33.3333Z" fill="black"/>
<path d="M46.1956 17.1226H39.6738C39.6738 15.922 38.7005 14.9487 37.4999 14.9487C36.2993 14.9487 35.326 15.922 35.326 17.1226H28.8042C28.8042 18.3233 29.85 19.2965 31.0505 19.2965H30.9781C30.9781 20.4972 31.9513 21.4704 33.1521 21.4704C33.1521 22.6711 34.1252 23.6444 35.326 23.6444H39.6738C40.8744 23.6444 41.8478 22.6711 41.8478 21.4704C43.0483 21.4704 44.0217 20.4972 44.0217 19.2965H43.9493C45.1499 19.2964 46.1956 18.3232 46.1956 17.1226V17.1226Z" fill="#FF9811"/>
</g>
<defs>
<clipPath id="clip0_402_123">
<rect width="50" height="50" fill="white" transform="translate(0 0.818176)"/>
</clipPath>
</defs>
</svg>
