<svg width="50" height="51" viewBox="0 0 50 51" fill="none" xmlns="http://www.w3.org/2000/svg">
<g clip-path="url(#clip0_402_123)">
<path d="M25 50.8182C38.8071 50.8182 50 39.6253 50 25.8182C50 12.0111 38.8071 0.818176 25 0.818176C11.1929 0.818176 0 12.0111 0 25.8182C0 39.6253 11.1929 50.8182 25 50.8182Z" fill="#F0F0F0"/>
<path d="M47.6071 15.1349C46.337 12.4519 44.6035 10.0316 42.5097 7.97647L25 6.25293L7.49021 7.97656C7.43435 8.03135 7.37986 8.0874 7.32458 8.14277L14.3168 15.135L25 15.4612L47.6071 15.1349Z" fill="#FFDA44"/>
<path d="M7.32434 43.4938C7.41633 43.5858 7.50813 43.6779 7.60149 43.7685L25 45.3834L42.3984 43.7685C44.5137 41.7178 46.2684 39.2974 47.5564 36.6101L15.2173 35.6008C12.4348 38.3834 9.22541 41.5926 7.32434 43.4938V43.4938Z" fill="#FFDA44"/>
<path d="M49.7513 22.2933L20.6521 21.4703L25 25.8182C23.7122 27.106 21.7897 29.0284 20.6521 30.166L49.7361 29.4518C49.9089 28.2654 50 27.0525 50 25.8182C50 24.6215 49.914 23.4451 49.7513 22.2933V22.2933Z" fill="black"/>
<path d="M25 0.818176C18.1809 0.818176 12.0006 3.54962 7.49023 7.97657H42.5098C37.9994 3.54962 31.8191 0.818176 25 0.818176Z" fill="#6DA544"/>
<path d="M21.475 22.2933H49.7513C49.3946 19.766 48.6606 17.3604 47.6071 15.1349H14.3167L21.475 22.2933Z" fill="#D80027"/>
<path d="M14.208 36.6102H47.5564C48.6223 34.3864 49.368 31.9804 49.7362 29.4518H21.3664C18.5942 32.2239 16.2448 34.5734 14.208 36.6102Z" fill="#D80027"/>
<path d="M25 50.8182C31.7632 50.8182 37.898 48.1315 42.3984 43.7685H7.60168C12.1021 48.1315 18.2368 50.8182 25 50.8182Z" fill="#6DA544"/>
<path d="M8.92725 6.67108C8.37148 7.13807 7.83525 7.62763 7.32227 8.14042L25 25.8182L7.32227 43.4959C7.83516 44.0088 8.37148 44.4982 8.92725 44.9652L28.0743 25.8182L8.92725 6.67108Z" fill="black"/>
<path d="M10.0513 19.2964L11.67 24.2784H16.9087L12.6707 27.3577L14.2894 32.3399L10.0513 29.2607L5.81313 32.3399L7.43208 27.3577L3.19409 24.2784H8.43257L10.0513 19.2964Z" fill="#D80027"/>
<path d="M14.5038 26.2258L10.2852 24.7313C10.2852 24.7313 9.97349 21.8072 9.95464 21.708C9.81147 20.9538 9.14868 20.3834 8.35278 20.3834C7.45239 20.3834 6.72231 21.1134 6.72231 22.0139C6.72231 22.1632 6.74409 22.3071 6.78169 22.4446L5.59888 23.6353H7.702C7.702 25.8182 6.0731 25.8182 6.0731 27.9921L6.97671 30.166H12.4115L13.3173 27.9921H13.3169C13.4077 27.7835 13.4627 27.5684 13.4855 27.3534C14.2664 27.0376 14.5038 26.2258 14.5038 26.2258V26.2258Z" fill="#FFDA44"/>
</g>
<defs>
<clipPath id="clip0_402_123">
<rect width="50" height="50" fill="white" transform="translate(0 0.818176)"/>
</clipPath>
</defs>
</svg>
